<svg width="167" height="32" viewBox="0 0 167 32" fill="none" xmlns="http://www.w3.org/2000/svg">
<g opacity="0.7" clip-path="url(#clip0)">
<path d="M15.4096 9.25187C15.2849 9.25187 15.1353 9.20104 15.0605 9.09937L12.4426 6.456C12.2431 6.25267 12.2431 5.92224 12.4426 5.71891C12.642 5.51557 12.9662 5.51557 13.1656 5.71891L15.4096 8.00644L17.6535 5.71891C17.853 5.51557 18.1771 5.51557 18.3766 5.71891C18.5761 5.92224 18.5761 6.25267 18.3766 6.456L15.7586 9.09937C15.6589 9.20104 15.5342 9.25187 15.4096 9.25187Z" fill="white"/>
<path d="M15.4096 5.76969C15.2849 5.76969 15.1353 5.71886 15.0605 5.61719L12.4426 2.97382C12.2431 2.77049 12.2431 2.44007 12.4426 2.23673C12.642 2.03339 12.9662 2.03339 13.1656 2.23673L15.4096 4.52426L17.6535 2.23673C17.853 2.03339 18.1771 2.03339 18.3766 2.23673C18.5761 2.44007 18.5761 2.77049 18.3766 2.97382L15.7586 5.61719C15.6589 5.71886 15.5342 5.76969 15.4096 5.76969Z" fill="white"/>
<path d="M15.4088 4.95631C15.1346 4.95631 14.9102 4.72756 14.9102 4.44797V0.50834C14.9102 0.228753 15.1346 0 15.4088 0C15.6831 0 15.9075 0.228753 15.9075 0.50834V4.42256C15.9075 4.72756 15.6831 4.95631 15.4088 4.95631Z" fill="white"/>
<path d="M18.0026 26.4338C17.8779 26.4338 17.7533 26.3829 17.6535 26.2813L15.4096 23.9937L13.1656 26.2813C12.9662 26.4846 12.642 26.4846 12.4426 26.2813C12.2431 26.0779 12.2431 25.7475 12.4426 25.5442L15.0356 22.9008C15.2351 22.6975 15.5592 22.6975 15.7586 22.9008L18.3766 25.5442C18.5761 25.7475 18.5761 26.0779 18.3766 26.2813C18.2769 26.3829 18.1273 26.4338 18.0026 26.4338Z" fill="white"/>
<path d="M18.0026 29.9159C17.8779 29.9159 17.7533 29.8651 17.6535 29.7634L15.4096 27.4759L13.1656 29.7634C12.9662 29.9668 12.642 29.9668 12.4426 29.7634C12.2431 29.5601 12.2431 29.2297 12.4426 29.0263L15.0356 26.383C15.235 26.1796 15.5592 26.1796 15.7586 26.383L18.3517 29.0263C18.5511 29.2297 18.5511 29.5601 18.3517 29.7634C18.2769 29.8651 18.1273 29.9159 18.0026 29.9159Z" fill="white"/>
<path d="M15.4088 32C15.1346 32 14.9102 31.7712 14.9102 31.4916V27.5774C14.9102 27.2978 15.1346 27.0691 15.4088 27.0691C15.6831 27.0691 15.9075 27.2978 15.9075 27.5774V31.4916C15.9075 31.7712 15.6831 32 15.4088 32Z" fill="white"/>
<path d="M10.5715 25.1119C10.2973 25.1119 10.0729 24.8831 10.0729 24.6035V21.3502H6.88147C6.60721 21.3502 6.38281 21.1214 6.38281 20.8418C6.38281 20.5622 6.60721 20.3335 6.88147 20.3335H10.5715C10.8458 20.3335 11.0702 20.5622 11.0702 20.8418V24.5781C11.0702 24.8831 10.8458 25.1119 10.5715 25.1119Z" fill="white"/>
<path d="M8.15357 27.5772C7.87931 27.5772 7.65491 27.3485 7.65491 27.0689V23.8155H4.4635C4.18924 23.8155 3.96484 23.5868 3.96484 23.3072C3.96484 23.0276 4.18924 22.7988 4.4635 22.7988H8.12864C8.4029 22.7988 8.62729 23.0276 8.62729 23.3072V27.0689C8.65223 27.3485 8.42783 27.5772 8.15357 27.5772Z" fill="white"/>
<path d="M4.86194 27.1707C4.73727 27.1707 4.61261 27.1199 4.51288 27.0182C4.31342 26.8149 4.31342 26.4844 4.51288 26.2811L7.23056 23.5107C7.43003 23.3073 7.75415 23.3073 7.95362 23.5107C8.15308 23.714 8.15308 24.0444 7.95362 24.2478L5.23593 27.0182C5.1362 27.1199 4.9866 27.1707 4.86194 27.1707Z" fill="white"/>
<path d="M25.0839 19.3423C24.9592 19.3423 24.8345 19.2914 24.7348 19.1898L22.1418 16.5464C21.9423 16.3431 21.9423 16.0126 22.1418 15.8093L24.7348 13.1659C24.9343 12.9626 25.2584 12.9626 25.4579 13.1659C25.6573 13.3693 25.6573 13.6997 25.4579 13.903L23.2139 16.1906L25.4579 18.4781C25.6573 18.6814 25.6573 19.0118 25.4579 19.2152C25.3581 19.2914 25.2085 19.3423 25.0839 19.3423Z" fill="white"/>
<path d="M28.4979 19.3423C28.3733 19.3423 28.2486 19.2914 28.1489 19.1898L25.5558 16.5464C25.3564 16.3431 25.3564 16.0126 25.5558 15.8093L28.1489 13.1659C28.3483 12.9626 28.6725 12.9626 28.8719 13.1659C29.0714 13.3693 29.0714 13.6997 28.8719 13.903L26.628 16.1906L28.8719 18.4781C29.0714 18.6814 29.0714 19.0118 28.8719 19.2152C28.7722 19.2914 28.6475 19.3423 28.4979 19.3423Z" fill="white"/>
<path d="M30.5454 16.6988H26.7057C26.4314 16.6988 26.207 16.4701 26.207 16.1905C26.207 15.9109 26.4314 15.6821 26.7057 15.6821H30.5454C30.8196 15.6821 31.044 15.9109 31.044 16.1905C31.0689 16.4446 30.8445 16.6988 30.5454 16.6988Z" fill="white"/>
<path d="M24.1614 11.6158H20.4713C20.1971 11.6158 19.9727 11.387 19.9727 11.1075V7.34574C19.9727 7.06616 20.1971 6.8374 20.4713 6.8374C20.7456 6.8374 20.97 7.06616 20.97 7.34574V10.5737H24.1365C24.4107 10.5737 24.6351 10.8025 24.6351 11.082C24.66 11.387 24.4356 11.6158 24.1614 11.6158Z" fill="white"/>
<path d="M26.5818 9.15022H22.9166C22.6424 9.15022 22.418 8.92147 22.418 8.64188V4.88017C22.418 4.60058 22.6424 4.37183 22.9166 4.37183C23.1909 4.37183 23.4153 4.60058 23.4153 4.88017V8.10813H26.5818C26.856 8.10813 27.0804 8.33688 27.0804 8.61647C27.0804 8.89605 26.856 9.15022 26.5818 9.15022Z" fill="white"/>
<path d="M23.4635 8.5657C23.3388 8.5657 23.2142 8.51486 23.1144 8.4132C22.915 8.20986 22.915 7.87944 23.1144 7.6761L25.8321 4.93107C26.0316 4.72773 26.3557 4.72773 26.5552 4.93107C26.7546 5.1344 26.7546 5.46482 26.5552 5.66816L23.8375 8.4132C23.7378 8.51486 23.5882 8.5657 23.4635 8.5657Z" fill="white"/>
<path d="M20.8698 25.4932C20.5955 25.4932 20.3711 25.2645 20.3711 24.9849V21.2486C20.3711 20.969 20.5955 20.7402 20.8698 20.7402H24.5598C24.8341 20.7402 25.0585 20.969 25.0585 21.2486C25.0585 21.5282 24.8341 21.7569 24.5598 21.7569H21.3933V24.9849C21.3933 25.2645 21.1689 25.4932 20.8698 25.4932Z" fill="white"/>
<path d="M23.2877 27.9585C23.0135 27.9585 22.7891 27.7298 22.7891 27.4502V23.7139C22.7891 23.4343 23.0135 23.2056 23.2877 23.2056H26.9529C27.2271 23.2056 27.4515 23.4343 27.4515 23.7139C27.4515 23.9935 27.2271 24.2222 26.9529 24.2222H23.8113V27.4502C23.8113 27.7298 23.5869 27.9585 23.2877 27.9585Z" fill="white"/>
<path d="M26.5796 27.5774C26.455 27.5774 26.3303 27.5266 26.2306 27.4249L23.5129 24.6545C23.3134 24.4512 23.3134 24.1207 23.5129 23.9174C23.7123 23.7141 24.0365 23.7141 24.2359 23.9174L26.9536 26.6878C27.1531 26.8912 27.1531 27.2216 26.9536 27.4249C26.829 27.5266 26.7043 27.5774 26.5796 27.5774Z" fill="white"/>
<path d="M5.9596 19.3423C5.83493 19.3423 5.71027 19.2915 5.61053 19.1898C5.41107 18.9864 5.41107 18.656 5.61053 18.4527L7.8545 16.1652L5.61053 13.8776C5.41107 13.6743 5.41107 13.3439 5.61053 13.1405C5.81 12.9372 6.13413 12.9372 6.33359 13.1405L8.92661 15.7839C9.12607 15.9872 9.12607 16.3177 8.92661 16.521L6.30866 19.1898C6.20892 19.2915 6.08426 19.3423 5.9596 19.3423Z" fill="white"/>
<path d="M2.54163 19.3423C2.41696 19.3423 2.2923 19.2915 2.19257 19.1898C1.9931 18.9864 1.9931 18.656 2.19257 18.4527L4.43653 16.1652L2.19257 13.8776C1.9931 13.6743 1.9931 13.3439 2.19257 13.1405C2.39203 12.9372 2.71616 12.9372 2.91562 13.1405L5.50864 15.7839C5.7081 15.9872 5.7081 16.3177 5.50864 16.521L2.89069 19.1898C2.79096 19.2915 2.66629 19.3423 2.54163 19.3423Z" fill="white"/>
<path d="M4.33832 16.6988H0.498658C0.224396 16.6988 0 16.4701 0 16.1905C0 15.9109 0.224396 15.6821 0.498658 15.6821H4.33832C4.61258 15.6821 4.83698 15.9109 4.83698 16.1905C4.83698 16.4446 4.61258 16.6988 4.33832 16.6988Z" fill="white"/>
<path d="M10.5208 11.4124H6.83069C6.55643 11.4124 6.33203 11.1837 6.33203 10.9041C6.33203 10.6245 6.55643 10.3957 6.83069 10.3957H9.99716V7.14237C9.99716 6.86279 10.2216 6.63403 10.4958 6.63403C10.7701 6.63403 10.9945 6.86279 10.9945 7.14237V10.9041C11.0194 11.1837 10.795 11.4124 10.5208 11.4124Z" fill="white"/>
<path d="M8.07785 8.94685H4.41272C4.13846 8.94685 3.91406 8.7181 3.91406 8.43851C3.91406 8.15892 4.13846 7.93017 4.41272 7.93017H7.5792V4.6768C7.5792 4.39721 7.80359 4.16846 8.07785 4.16846C8.35212 4.16846 8.57651 4.39721 8.57651 4.6768V8.41309C8.60144 8.7181 8.37705 8.94685 8.07785 8.94685Z" fill="white"/>
<path d="M7.53034 8.36235C7.40567 8.36235 7.28101 8.31152 7.18128 8.20985L4.43866 5.4394C4.2392 5.23606 4.2392 4.90564 4.43866 4.70231C4.63812 4.49897 4.96225 4.49897 5.16171 4.70231L7.8794 7.49818C8.07886 7.70151 8.07886 8.03193 7.8794 8.23527C7.77967 8.31152 7.655 8.36235 7.53034 8.36235Z" fill="white"/>
<path d="M12.7922 23.2566C12.7174 23.2566 12.6675 23.2312 12.5927 23.2058C12.3932 23.1295 12.2686 22.9262 12.2686 22.6974L12.4431 19.1136L8.92755 19.2916C8.70316 19.2916 8.50369 19.1645 8.4289 18.9611C8.3541 18.7578 8.40396 18.529 8.55356 18.3765L11.1715 15.9619L8.57849 13.5981C8.4289 13.4456 8.37903 13.2169 8.45383 13.0136C8.52863 12.8102 8.72809 12.6831 8.95249 12.6831L12.468 12.8611L12.2935 9.27726C12.2935 9.04851 12.4182 8.84517 12.6176 8.76892C12.8171 8.69267 13.0415 8.7435 13.1911 8.896L15.5597 11.5648L17.9283 8.896C18.0779 8.7435 18.3023 8.69267 18.5018 8.76892C18.7012 8.84517 18.8259 9.04851 18.8259 9.27726L18.6015 12.8865L22.1171 12.7086C22.3414 12.6831 22.516 12.8356 22.6157 13.039C22.6905 13.2423 22.6406 13.4711 22.491 13.6236L19.8731 16.0382L22.491 18.4528C22.6406 18.6053 22.6905 18.834 22.6157 19.0374C22.5409 19.2407 22.3414 19.3678 22.1171 19.3678L18.6015 19.1391L18.776 22.7228C18.776 22.9516 18.6514 23.1549 18.4519 23.2312C18.2525 23.3074 18.0281 23.2566 17.8785 23.1041L15.5098 20.4353L13.1412 23.1041C13.0664 23.2058 12.9168 23.2566 12.7922 23.2566ZM15.5348 19.1391C15.6844 19.1391 15.809 19.1899 15.9088 19.317L17.7039 21.3249L17.5543 18.6053C17.5543 18.4528 17.6042 18.3257 17.7039 18.224C17.8037 18.1224 17.9533 18.0715 18.0779 18.0715L20.7457 18.1986L18.7511 16.394C18.6514 16.2923 18.6015 16.1398 18.6015 16.0128C18.6015 15.8603 18.6514 15.7332 18.776 15.6315L20.7457 13.8269L18.0779 13.954C17.9283 13.954 17.8037 13.9032 17.7039 13.8015C17.6042 13.6998 17.5543 13.5473 17.5543 13.4202L17.7039 10.7006L15.9088 12.7086C15.809 12.8102 15.6844 12.8865 15.5348 12.8865C15.3852 12.8865 15.2605 12.8356 15.1608 12.7086L13.3656 10.7006L13.4903 13.4202C13.4903 13.5727 13.4404 13.6998 13.3407 13.8015C13.2409 13.9032 13.1163 13.954 12.9667 13.954L10.2989 13.8269L12.2686 15.6315C12.3683 15.7332 12.4431 15.8603 12.4431 16.0128C12.4431 16.1653 12.3932 16.2923 12.2686 16.394L10.2989 18.224L12.9667 18.097C13.1163 18.097 13.2409 18.1478 13.3407 18.2495C13.4404 18.3511 13.4903 18.5036 13.4903 18.6307L13.3656 21.3249L15.1358 19.317C15.2356 19.1899 15.3852 19.1391 15.5348 19.1391Z" fill="white"/>
<path d="M39.1719 5.42036V3.30151H42.9132L46.6544 10.1424V5.42036H45.9418V3.30151H50.366V5.42036H49.6534V12.5336H50.3363V14.6525H46.6247L42.8835 7.78136V14.6525H39.8548V5.42036H39.1719Z" fill="white"/>
<path d="M55.9485 3.11987C56.2751 3.11987 56.6314 3.11987 56.9877 3.15014C57.3441 3.18041 57.7004 3.24095 58.0567 3.33176C58.413 3.42257 58.7396 3.57391 59.0662 3.7858C59.3928 3.96741 59.6601 4.23983 59.9273 4.5728C60.1649 4.90576 60.3727 5.29926 60.5212 5.78357C60.6696 6.26787 60.729 6.84299 60.729 7.50891V10.1121C60.729 11.1412 60.5806 11.9585 60.3133 12.5941C60.0461 13.1995 59.6898 13.6838 59.2444 14.0168C58.799 14.3498 58.2942 14.5616 57.7301 14.6827C57.1659 14.8038 56.5423 14.8341 55.9485 14.8341C55.3249 14.8341 54.7311 14.7735 54.1669 14.6525C53.6028 14.5314 53.0683 14.3195 52.6526 13.9865C52.2072 13.6536 51.8509 13.1693 51.5837 12.5639C51.3164 11.9585 51.168 11.111 51.168 10.1121V7.50891C51.168 6.84299 51.2274 6.26787 51.3758 5.78357C51.5243 5.29926 51.7321 4.90576 51.9697 4.5728C52.2072 4.23983 52.5041 3.99768 52.8308 3.7858C53.1574 3.60418 53.484 3.45283 53.8403 3.33176C54.1966 3.24095 54.5529 3.18041 54.9092 3.15014C55.2953 3.15014 55.6219 3.11987 55.9485 3.11987ZM55.9485 5.29926C55.6219 5.29926 55.3249 5.3598 55.1171 5.51114C54.9092 5.63222 54.7311 5.84411 54.6123 6.08626C54.4936 6.32841 54.4045 6.66137 54.3748 7.05488C54.3154 7.44838 54.3154 7.90241 54.3154 8.41699V9.62776C54.3154 10.1726 54.3451 10.6266 54.3748 11.0201C54.4342 11.4136 54.4936 11.7163 54.6123 11.9585C54.7311 12.2006 54.9092 12.3823 55.1171 12.4731C55.3249 12.5941 55.6219 12.6244 55.9485 12.6244C56.2751 12.6244 56.5423 12.5639 56.7502 12.4731C56.958 12.352 57.1362 12.2006 57.255 11.9585C57.3737 11.7163 57.4628 11.4136 57.5222 11.0201C57.5816 10.6266 57.5816 10.1726 57.5816 9.62776V8.41699C57.5816 7.90241 57.5519 7.44838 57.5222 7.05488C57.4628 6.66137 57.4034 6.32841 57.2847 6.08626C57.1659 5.84411 56.9877 5.63222 56.7799 5.51114C56.572 5.3598 56.3048 5.29926 55.9485 5.29926Z" fill="white"/>
<path d="M65.8062 10.5359H65.153V14.6827H62.3025V5.42036H61.5898V3.30151H66.4298C66.9048 3.30151 67.4393 3.33178 67.9738 3.39232C68.5379 3.45286 69.0427 3.60421 69.4881 3.81609C69.9632 4.02798 70.3195 4.33067 70.6461 4.75444C70.943 5.14794 71.0915 5.69278 71.0915 6.35871V7.66028C71.0915 8.02352 71.0321 8.35648 70.9134 8.65917C70.7946 8.93159 70.6461 9.17375 70.4383 9.38563C70.2304 9.59752 69.9929 9.77913 69.7256 9.90021C69.4584 10.0516 69.1912 10.1726 68.8943 10.2634L70.2304 12.0493C70.557 12.5034 70.854 12.8061 71.0915 12.9574C71.3291 13.1087 71.5369 13.1996 71.6854 13.2601L70.5867 14.8341C70.468 14.8644 70.3195 14.8946 70.171 14.8946C70.0523 14.8946 69.9038 14.8946 69.7256 14.8644C69.5475 14.8341 69.3693 14.7736 69.1615 14.6827C68.9536 14.5919 68.7458 14.4406 68.5379 14.2287C68.3301 14.0471 68.0925 13.7747 67.855 13.4417L65.8062 10.5359ZM68.1222 7.0549C68.1222 6.57059 68.0035 6.17709 67.7362 5.8744C67.469 5.57171 67.1127 5.42036 66.6673 5.42036H65.153V8.59863H66.6376C66.8158 8.59863 66.9939 8.56836 67.1721 8.50782C67.3502 8.44728 67.4987 8.35648 67.6472 8.20513C67.7956 8.08405 67.9144 7.90244 68.0035 7.72082C68.0629 7.53921 68.1222 7.29705 68.1222 7.0549Z" fill="white"/>
<path d="M74.2698 6.11655H72.4883V3.27124H82.2869V6.08628H80.5053V5.78359C80.5053 5.66251 80.4756 5.5717 80.4459 5.51116C80.4163 5.45063 80.3569 5.42036 80.2678 5.35982H78.7831V12.4731H79.4661V14.5919H75.22V12.4731H75.9326V5.42036H74.448C74.2995 5.45063 74.2402 5.60197 74.2402 5.81386V6.11655H74.2698Z" fill="white"/>
<path d="M89.1151 5.42036V3.30151H93.5393V5.42036H92.8564V12.5336H93.5393V14.6525H89.1151V12.5336H89.8277V10.0213H87.0069V12.5336H87.6898V14.6525H83.2656V12.5336H83.9783V5.42036H83.2656V3.30151H87.6898V5.42036H87.0069V7.87217H89.8277V5.42036H89.1151Z" fill="white"/>
<path d="M99.3891 5.42036V3.30151H107.465V5.42036H103.101V7.87217H106.07V10.0516H103.101V12.5639H104.11V14.6828H99.3594V12.5639H100.072V5.42036H99.3891Z" fill="white"/>
<path d="M112.988 3.11987C113.314 3.11987 113.67 3.11987 114.027 3.15014C114.383 3.18041 114.739 3.24095 115.096 3.33176C115.452 3.42257 115.779 3.57391 116.105 3.7858C116.432 3.96741 116.699 4.23983 116.966 4.5728C117.234 4.90576 117.412 5.29926 117.56 5.78357C117.709 6.26787 117.768 6.84299 117.768 7.50891V10.1121C117.768 11.1412 117.62 11.9585 117.352 12.5941C117.085 13.1995 116.729 13.6838 116.283 14.0168C115.838 14.3498 115.333 14.5616 114.769 14.6827C114.205 14.8038 113.581 14.8341 112.988 14.8341C112.364 14.8341 111.77 14.7735 111.206 14.6525C110.642 14.5314 110.107 14.3195 109.692 13.9865C109.246 13.6536 108.89 13.1693 108.623 12.5639C108.355 11.9585 108.207 11.111 108.207 10.1121V7.50891C108.207 6.84299 108.266 6.26787 108.415 5.78357C108.563 5.29926 108.771 4.90576 109.009 4.5728C109.246 4.23983 109.543 3.99768 109.87 3.7858C110.196 3.60418 110.523 3.45283 110.879 3.33176C111.236 3.24095 111.592 3.18041 111.948 3.15014C112.334 3.15014 112.661 3.11987 112.988 3.11987ZM112.988 5.29926C112.661 5.29926 112.364 5.3598 112.156 5.51114C111.948 5.63222 111.77 5.84411 111.651 6.08626C111.533 6.32841 111.444 6.66137 111.414 7.05488C111.354 7.44838 111.354 7.90241 111.354 8.41699V9.62776C111.354 10.1726 111.384 10.6266 111.414 11.0201C111.473 11.4136 111.533 11.7163 111.651 11.9585C111.77 12.2006 111.948 12.3823 112.156 12.4731C112.364 12.5941 112.661 12.6244 112.988 12.6244C113.314 12.6244 113.581 12.5639 113.789 12.4731C113.997 12.352 114.175 12.2006 114.294 11.9585C114.413 11.7163 114.502 11.4136 114.561 11.0201C114.621 10.6266 114.621 10.1726 114.621 9.62776V8.41699C114.621 7.90241 114.591 7.44838 114.561 7.05488C114.502 6.66137 114.443 6.32841 114.324 6.08626C114.205 5.84411 114.027 5.63222 113.819 5.51114C113.611 5.3598 113.314 5.29926 112.988 5.29926Z" fill="white"/>
<path d="M122.818 10.5359H122.165V14.6827H119.314V5.42036H118.602V3.30151H123.441C123.917 3.30151 124.451 3.33178 124.985 3.39232C125.55 3.45286 126.054 3.60421 126.5 3.81609C126.975 4.02798 127.331 4.33067 127.658 4.75444C127.955 5.14794 128.103 5.69278 128.103 6.35871V7.66028C128.103 8.02352 128.044 8.35648 127.925 8.65917C127.806 8.93159 127.658 9.17375 127.45 9.38563C127.242 9.59752 127.005 9.77913 126.737 9.90021C126.47 10.0516 126.203 10.1726 125.906 10.2634L127.242 12.0493C127.569 12.5034 127.866 12.8061 128.103 12.9574C128.341 13.1087 128.549 13.1996 128.697 13.2601L127.598 14.8341C127.48 14.8644 127.331 14.8946 127.183 14.8946C127.064 14.8946 126.916 14.8946 126.737 14.8644C126.559 14.8341 126.381 14.7736 126.173 14.6827C125.965 14.5919 125.757 14.4406 125.55 14.2287C125.342 14.0471 125.104 13.7747 124.867 13.4417L122.818 10.5359ZM125.134 7.0549C125.134 6.57059 125.015 6.17709 124.748 5.8744C124.481 5.57171 124.124 5.42036 123.679 5.42036H122.165V8.59863H123.649C123.827 8.59863 124.006 8.56836 124.184 8.50782C124.362 8.44728 124.51 8.35648 124.659 8.20513C124.807 8.08405 124.926 7.90244 125.015 7.72082C125.104 7.53921 125.134 7.29705 125.134 7.0549Z" fill="white"/>
<path d="M134.012 5.42036V3.30151H137.189L139.208 6.81275L141.465 3.30151H144.493V5.42036H143.157L140.752 9.47644V12.5336H141.465V14.6525H137.04V12.5336H137.753V9.50671L135.407 5.42036H134.012Z" fill="white"/>
<path d="M150.105 3.11987C150.431 3.11987 150.788 3.11987 151.144 3.15014C151.5 3.18041 151.857 3.24095 152.213 3.33176C152.569 3.42257 152.896 3.57391 153.222 3.7858C153.549 3.96741 153.816 4.23983 154.084 4.5728C154.351 4.90576 154.529 5.29926 154.677 5.78357C154.826 6.26787 154.885 6.84299 154.885 7.50891V10.1121C154.885 11.1412 154.737 11.9585 154.47 12.5941C154.202 13.1995 153.846 13.6838 153.401 14.0168C152.955 14.3498 152.45 14.5616 151.886 14.6827C151.322 14.8038 150.699 14.8341 150.105 14.8341C149.481 14.8341 148.887 14.7735 148.323 14.6525C147.759 14.5314 147.225 14.3195 146.809 13.9865C146.363 13.6536 146.007 13.1693 145.74 12.5639C145.473 11.9585 145.324 11.111 145.324 10.1121V7.50891C145.324 6.84299 145.384 6.26787 145.532 5.78357C145.681 5.29926 145.888 4.90576 146.126 4.5728C146.363 4.23983 146.66 3.99768 146.987 3.7858C147.314 3.60418 147.64 3.45283 147.997 3.33176C148.353 3.24095 148.709 3.18041 149.065 3.15014C149.451 3.15014 149.778 3.11987 150.105 3.11987ZM150.105 5.29926C149.778 5.29926 149.481 5.3598 149.273 5.51114C149.065 5.63222 148.887 5.84411 148.769 6.08626C148.65 6.32841 148.561 6.66137 148.531 7.05488C148.472 7.44838 148.472 7.90241 148.472 8.41699V9.62776C148.472 10.1726 148.501 10.6266 148.531 11.0201C148.59 11.4136 148.65 11.7163 148.769 11.9585C148.887 12.2006 149.065 12.3823 149.273 12.4731C149.481 12.5941 149.778 12.6244 150.105 12.6244C150.431 12.6244 150.699 12.5639 150.906 12.4731C151.114 12.352 151.292 12.2006 151.411 11.9585C151.53 11.7163 151.619 11.4136 151.678 11.0201C151.738 10.6266 151.738 10.1726 151.738 9.62776V8.41699C151.738 7.90241 151.708 7.44838 151.678 7.05488C151.619 6.66137 151.56 6.32841 151.441 6.08626C151.322 5.84411 151.144 5.63222 150.936 5.51114C150.728 5.3598 150.461 5.29926 150.105 5.29926Z" fill="white"/>
<path d="M165.453 10.4753C165.453 11.1412 165.364 11.7164 165.216 12.2007C165.067 12.685 164.859 13.0785 164.622 13.4114C164.384 13.7444 164.087 13.9866 163.761 14.1984C163.434 14.3801 163.078 14.5314 162.751 14.6222C162.395 14.713 162.068 14.7736 161.712 14.8038C161.356 14.8341 161.059 14.8644 160.762 14.8644C160.465 14.8644 160.168 14.8341 159.812 14.8038C159.485 14.7736 159.129 14.713 158.772 14.6222C158.416 14.5314 158.089 14.3801 157.763 14.1984C157.436 14.0168 157.139 13.7444 156.902 13.4114C156.664 13.0785 156.456 12.685 156.308 12.2007C156.159 11.7164 156.07 11.1412 156.07 10.4753V3.27124H159.069V9.83967C159.069 10.5056 159.129 11.0202 159.247 11.3834C159.366 11.7466 159.485 12.0493 159.663 12.2309C159.841 12.4126 160.019 12.5336 160.227 12.5942C160.435 12.6547 160.613 12.6547 160.791 12.6547C160.97 12.6547 161.148 12.6244 161.356 12.5942C161.563 12.5336 161.742 12.4428 161.92 12.2309C162.098 12.0493 162.217 11.7769 162.335 11.3834C162.454 11.0202 162.514 10.5056 162.514 9.86994V3.27124H165.453V10.4753Z" fill="white"/>
<path d="M41.6659 27.2771C43.0068 27.2771 43.9893 26.4741 44.1263 25.2839H43.1034C42.9625 25.9442 42.4028 26.364 41.6659 26.364C40.6753 26.364 40.0592 25.5284 40.0592 24.1874C40.0592 22.8504 40.6753 22.0149 41.6618 22.0149C42.3947 22.0149 42.9545 22.4754 43.0994 23.1847H44.1222C44.0014 21.9659 42.9826 21.1018 41.6618 21.1018C40.0149 21.1018 38.9961 22.2798 38.9961 24.1915C38.9961 26.095 40.0189 27.2771 41.6659 27.2771Z" fill="white" fill-opacity="0.7"/>
<path d="M49.1235 26.2458H46.4014V24.5624H48.9745V23.7268H46.4014V22.1331H49.1235V21.2485H45.3625V27.1303H49.1235V26.2458Z" fill="white" fill-opacity="0.7"/>
<path d="M52.9772 27.1303C54.2175 27.1303 54.9745 26.4945 54.9745 25.4591C54.9745 24.6928 54.4349 24.1222 53.6537 24.0488V23.9754C54.2376 23.8817 54.6886 23.3355 54.6886 22.7159C54.6886 21.811 54.0242 21.2485 52.9208 21.2485H50.4926V27.1303H52.9772ZM51.5316 22.0678H52.6671C53.2953 22.0678 53.6618 22.3735 53.6618 22.8994C53.6618 23.4374 53.2711 23.7268 52.5342 23.7268H51.5316V22.0678ZM51.5316 26.311V24.4727H52.6993C53.4926 24.4727 53.9114 24.7866 53.9114 25.3858C53.9114 25.989 53.5047 26.311 52.7396 26.311H51.5316Z" fill="white" fill-opacity="0.7"/>
<path d="M59.9476 26.2458H57.2255V24.5624H59.7986V23.7268H57.2255V22.1331H59.9476V21.2485H56.1866V27.1303H59.9476V26.2458Z" fill="white" fill-opacity="0.7"/>
<path d="M61.3167 21.2485V27.1303H62.3556V25.186H63.616C64.7919 25.186 65.6133 24.3912 65.6133 23.2295C65.6133 22.0475 64.8201 21.2485 63.6603 21.2485H61.3167ZM62.3556 22.1086H63.3865C64.1355 22.1086 64.5583 22.4999 64.5583 23.2295C64.5583 23.9388 64.1234 24.3382 63.3825 24.3382H62.3556V22.1086Z" fill="white" fill-opacity="0.7"/>
<path d="M69.3905 27.1303H73.4213V28.292H74.3676V26.2418H73.6428V21.2485H69.6563L69.4509 24.7091C69.4026 25.4958 69.2697 25.9809 68.8589 26.2418H68.4442V28.292H69.3905V27.1303ZM70.4093 24.7744L70.5744 22.1331H72.6039V26.2418H70.0267V26.1806C70.2844 25.8668 70.369 25.4225 70.4093 24.7744Z" fill="white" fill-opacity="0.7"/>
<path d="M80.0656 27.1303V21.2485H76.1918L76.0065 24.7907C75.9622 25.6181 75.8173 26.2336 75.2052 26.2336C75.1126 26.2336 75.0039 26.2173 74.9515 26.2051V27.1263C75.028 27.1507 75.169 27.1752 75.3341 27.1752C76.4737 27.1752 76.8844 26.2866 76.9689 24.8518L77.126 22.1331H79.0307V27.1303H80.0656Z" fill="white" fill-opacity="0.7"/>
<path d="M83.8387 24.9578H84.7649V27.1303H85.7957V21.2485H83.5125C82.2924 21.2485 81.4911 22.0067 81.4911 23.1154C81.4911 23.9591 82.0145 24.595 82.7877 24.8151L81.2092 27.1303H82.377L83.8387 24.9578ZM84.7649 24.1344H83.6897C82.9729 24.1344 82.5541 23.7635 82.5541 23.1195C82.5541 22.4795 82.9729 22.1045 83.6897 22.1045H84.7649V24.1344Z" fill="white" fill-opacity="0.7"/>
<path d="M91.997 27.1303C93.2373 27.1303 93.9943 26.4945 93.9943 25.4591C93.9943 24.6928 93.4547 24.1222 92.6735 24.0488V23.9754C93.2574 23.8817 93.7084 23.3355 93.7084 22.7159C93.7084 21.811 93.044 21.2485 91.9406 21.2485H89.5125V27.1303H91.997ZM90.5514 22.0678H91.687C92.3151 22.0678 92.6816 22.3735 92.6816 22.8994C92.6816 23.4374 92.291 23.7268 91.5541 23.7268H90.5514V22.0678ZM90.5514 26.311V24.4727H91.7192C92.5125 24.4727 92.9312 24.7866 92.9312 25.3858C92.9312 25.989 92.5245 26.311 91.7594 26.311H90.5514Z" fill="white" fill-opacity="0.7"/>
<path d="M98.8829 27.1303H99.9983L97.9325 21.2485H96.7648L94.703 27.1303H95.754L96.2534 25.61H98.3916L98.8829 27.1303ZM97.2923 22.3532H97.3607L98.15 24.7988H96.495L97.2923 22.3532Z" fill="white" fill-opacity="0.7"/>
<path d="M103.228 27.2771C104.569 27.2771 105.551 26.4741 105.688 25.2839H104.665C104.524 25.9442 103.965 26.364 103.228 26.364C102.237 26.364 101.621 25.5284 101.621 24.1874C101.621 22.8504 102.237 22.0149 103.224 22.0149C103.957 22.0149 104.516 22.4754 104.661 23.1847H105.684C105.563 21.9659 104.545 21.1018 103.224 21.1018C101.577 21.1018 100.558 22.2798 100.558 24.1915C100.558 26.095 101.581 27.2771 103.228 27.2771Z" fill="white" fill-opacity="0.7"/>
</g>
<defs>
<clipPath id="clip0">
<rect width="167" height="32" fill="white"/>
</clipPath>
</defs>
</svg>
