<svg width="40" height="33" viewBox="0 0 40 33" fill="none" xmlns="http://www.w3.org/2000/svg">
<path d="M9.51724 17.8415C10.6207 17.5732 11.6782 17.6179 12.6897 17.9756C13.7011 18.2439 14.5747 18.7358 15.3103 19.4512C16.1379 20.1667 16.7816 21.0163 17.2414 22C17.7931 22.9837 18.069 24.0569 18.069 25.2195C18.069 27.4553 17.2414 29.3333 15.5862 30.8537C13.931 32.2846 11.908 33 9.51724 33C6.29885 33 3.90805 31.8821 2.34483 29.6463C0.781609 27.3211 0 24.3699 0 20.7927C0 15.9634 1.14943 11.7602 3.44828 8.18293C5.83908 4.51626 9.51724 1.78862 14.4828 0L16.4138 2.54878C12.8276 4.15854 10.1609 6.17073 8.41379 8.58537C6.66667 11 5.7931 13.6829 5.7931 16.6341C5.7931 17.6179 5.97701 18.1992 6.34483 18.378C6.8046 18.5569 7.31034 18.5569 7.86207 18.378L9.51724 17.8415ZM31.5862 17.8415C33.7012 17.3943 35.6322 17.9309 37.3793 19.4512C39.1264 20.9715 40 22.8943 40 25.2195C40 27.4553 39.1724 29.3333 37.5172 30.8537C35.954 32.2846 33.977 33 31.5862 33C28.3678 33 25.931 31.8821 24.2759 29.6463C22.7126 27.3211 21.931 24.3699 21.931 20.7927C21.931 15.9634 23.1264 11.7602 25.5172 8.18293C27.908 4.51626 31.5862 1.78862 36.5517 0L38.4828 2.54878C34.8966 4.15854 32.1839 6.17073 30.3448 8.58537C28.5977 11 27.7241 13.6829 27.7241 16.6341C27.7241 17.6179 27.908 18.1992 28.2759 18.378C28.7356 18.5569 29.2874 18.5569 29.931 18.378L31.5862 17.8415Z" fill="#CDC4BD"/>
</svg>
