<svg width="14" height="14" viewBox="0 0 14 14" fill="none" xmlns="http://www.w3.org/2000/svg">
<path fill-rule="evenodd" clip-rule="evenodd" d="M7 14C10.866 14 14 10.866 14 7C14 3.13401 10.866 0 7 0C3.13401 0 0 3.13401 0 7C0 10.866 3.13401 14 7 14ZM7.5 3.5C7.5 3.22386 7.27614 3 7 3C6.72386 3 6.5 3.22386 6.5 3.5V6.90278V7.04963L6.57941 7.17316L8.32941 9.89538C8.47874 10.1277 8.78809 10.1949 9.02038 10.0456C9.25266 9.89626 9.31992 9.58691 9.17059 9.35462L7.5 6.75593V3.5Z" fill="white" fill-opacity="0.3"/>
</svg>
