<svg width="56" height="56" viewBox="0 0 56 56" fill="none" xmlns="http://www.w3.org/2000/svg">
<path d="M27.81 17.0349C27.6012 17.0349 27.3506 16.9523 27.2253 16.787L22.8404 12.4915C22.5063 12.1611 22.5063 11.6241 22.8404 11.2937C23.1745 10.9633 23.7174 10.9633 24.0515 11.2937L27.81 15.011L31.5685 11.2937C31.9026 10.9633 32.4455 10.9633 32.7796 11.2937C33.1136 11.6241 33.1136 12.1611 32.7796 12.4915L28.3946 16.787C28.2276 16.9523 28.0188 17.0349 27.81 17.0349Z" fill="url(#paint0_linear)"/>
<path d="M27.81 11.3767C27.6012 11.3767 27.3506 11.2941 27.2253 11.1288L22.8404 6.83331C22.5063 6.50288 22.5063 5.96594 22.8404 5.63551C23.1745 5.30509 23.7174 5.30509 24.0515 5.63551L27.81 9.3528L31.5685 5.63551C31.9026 5.30509 32.4455 5.30509 32.7796 5.63551C33.1136 5.96594 33.1136 6.50288 32.7796 6.83331L28.3946 11.1288C28.2276 11.2941 28.0188 11.3767 27.81 11.3767Z" fill="url(#paint1_linear)"/>
<path d="M27.8079 10.0541C27.3485 10.0541 26.9727 9.6824 26.9727 9.22806V2.82606C26.9727 2.37173 27.3485 2 27.8079 2C28.2673 2 28.6431 2.37173 28.6431 2.82606V9.18676C28.6431 9.6824 28.2673 10.0541 27.8079 10.0541Z" fill="url(#paint2_linear)"/>
<path d="M32.1531 44.9538C31.9443 44.9538 31.7355 44.8712 31.5685 44.706L27.81 40.9887L24.0515 44.706C23.7174 45.0364 23.1745 45.0364 22.8404 44.706C22.5063 44.3756 22.5063 43.8386 22.8404 43.5082L27.1836 39.2127C27.5177 38.8822 28.0605 38.8822 28.3946 39.2127L32.7796 43.5082C33.1136 43.8386 33.1136 44.3756 32.7796 44.706C32.6125 44.8712 32.3619 44.9538 32.1531 44.9538Z" fill="url(#paint3_linear)"/>
<path d="M32.1531 50.614C31.9443 50.614 31.7355 50.5314 31.5685 50.3661L27.81 46.6489L24.0515 50.3661C23.7174 50.6966 23.1745 50.6966 22.8404 50.3661C22.5063 50.0357 22.5063 49.4988 22.8404 49.1683L27.1836 44.8728C27.5177 44.5424 28.0605 44.5424 28.3946 44.8728L32.7378 49.1683C33.0719 49.4988 33.0719 50.0357 32.7378 50.3661C32.6125 50.5314 32.3619 50.614 32.1531 50.614Z" fill="url(#paint4_linear)"/>
<path d="M27.8079 54.0001C27.3485 54.0001 26.9727 53.6284 26.9727 53.1741V46.8134C26.9727 46.359 27.3485 45.9873 27.8079 45.9873C28.2673 45.9873 28.6431 46.359 28.6431 46.8134V53.1741C28.6431 53.6284 28.2673 54.0001 27.8079 54.0001Z" fill="url(#paint5_linear)"/>
<path d="M19.7073 42.808C19.2479 42.808 18.8721 42.4362 18.8721 41.9819V36.6951H13.5266C13.0673 36.6951 12.6914 36.3234 12.6914 35.869C12.6914 35.4147 13.0673 35.043 13.5266 35.043H19.7073C20.1666 35.043 20.5425 35.4147 20.5425 35.869V41.9406C20.5425 42.4362 20.1666 42.808 19.7073 42.808Z" fill="url(#paint6_linear)"/>
<path d="M15.6565 46.8138C15.1971 46.8138 14.8213 46.4421 14.8213 45.9878V40.701H9.47585C9.01647 40.701 8.64062 40.3292 8.64062 39.8749C8.64062 39.4206 9.01647 39.0488 9.47585 39.0488H15.6147C16.0741 39.0488 16.45 39.4206 16.45 39.8749V45.9878C16.4917 46.4421 16.1159 46.8138 15.6565 46.8138Z" fill="url(#paint7_linear)"/>
<path d="M10.1438 46.1535C9.93501 46.1535 9.7262 46.0709 9.55916 45.9057C9.22507 45.5753 9.22507 45.0383 9.55916 44.7079L14.1111 40.2058C14.4452 39.8754 14.9881 39.8754 15.3222 40.2058C15.6563 40.5363 15.6563 41.0732 15.3222 41.4036L10.7702 45.9057C10.6032 46.0709 10.3526 46.1535 10.1438 46.1535Z" fill="url(#paint8_linear)"/>
<path d="M44.0143 33.4329C43.8055 33.4329 43.5967 33.3503 43.4297 33.1851L39.0865 28.8896C38.7524 28.5592 38.7524 28.0222 39.0865 27.6918L43.4297 23.3963C43.7637 23.0658 44.3066 23.0658 44.6407 23.3963C44.9748 23.7267 44.9748 24.2636 44.6407 24.5941L40.8822 28.3113L44.6407 32.0286C44.9748 32.3591 44.9748 32.896 44.6407 33.2264C44.4737 33.3503 44.2231 33.4329 44.0143 33.4329Z" fill="url(#paint9_linear)"/>
<path d="M49.7292 33.432C49.5203 33.432 49.3115 33.3494 49.1445 33.1841L44.8013 28.8886C44.4673 28.5582 44.4673 28.0212 44.8013 27.6908L49.1445 23.3953C49.4786 23.0649 50.0215 23.0649 50.3556 23.3953C50.6897 23.7257 50.6897 24.2626 50.3556 24.5931L46.5971 28.3104L50.3556 32.0277C50.6897 32.3581 50.6897 32.895 50.3556 33.2254C50.1885 33.3494 49.9797 33.432 49.7292 33.432Z" fill="url(#paint10_linear)"/>
<path d="M53.1649 29.1355H46.7337C46.2743 29.1355 45.8984 28.7638 45.8984 28.3095C45.8984 27.8551 46.2743 27.4834 46.7337 27.4834H53.1649C53.6242 27.4834 54.0001 27.8551 54.0001 28.3095C54.0419 28.7225 53.666 29.1355 53.1649 29.1355Z" fill="url(#paint11_linear)"/>
<path d="M42.4651 20.8744H36.2844C35.8251 20.8744 35.4492 20.5026 35.4492 20.0483V13.9354C35.4492 13.4811 35.8251 13.1094 36.2844 13.1094C36.7438 13.1094 37.1197 13.4811 37.1197 13.9354V19.1809H42.4233C42.8827 19.1809 43.2585 19.5527 43.2585 20.007C43.3003 20.5026 42.9245 20.8744 42.4651 20.8744Z" fill="url(#paint12_linear)"/>
<path d="M46.5132 16.8685H40.3743C39.9149 16.8685 39.5391 16.4968 39.5391 16.0425V9.92958C39.5391 9.47524 39.9149 9.10352 40.3743 9.10352C40.8337 9.10352 41.2095 9.47524 41.2095 9.92958V15.1751H46.5132C46.9725 15.1751 47.3484 15.5468 47.3484 16.0012C47.3484 16.4555 46.9725 16.8685 46.5132 16.8685Z" fill="url(#paint13_linear)"/>
<path d="M41.2962 15.9188C41.0874 15.9188 40.8785 15.8362 40.7115 15.671C40.3774 15.3406 40.3774 14.8036 40.7115 14.4732L45.2635 10.0125C45.5976 9.68204 46.1405 9.68204 46.4745 10.0125C46.8086 10.3429 46.8086 10.8798 46.4745 11.2103L41.9226 15.671C41.7555 15.8362 41.505 15.9188 41.2962 15.9188Z" fill="url(#paint14_linear)"/>
<path d="M36.9602 43.4278C36.5008 43.4278 36.125 43.0561 36.125 42.6017V36.5302C36.125 36.0758 36.5008 35.7041 36.9602 35.7041H43.1409C43.6002 35.7041 43.9761 36.0758 43.9761 36.5302C43.9761 36.9845 43.6002 37.3562 43.1409 37.3562H37.8372V42.6017C37.8372 43.0561 37.4614 43.4278 36.9602 43.4278Z" fill="url(#paint15_linear)"/>
<path d="M41.0032 47.4346C40.5438 47.4346 40.168 47.0629 40.168 46.6086V40.537C40.168 40.0827 40.5438 39.7109 41.0032 39.7109H47.1421C47.6014 39.7109 47.9773 40.0827 47.9773 40.537C47.9773 40.9913 47.6014 41.3631 47.1421 41.3631H41.8802V46.6086C41.8802 47.0629 41.5043 47.4346 41.0032 47.4346Z" fill="url(#paint16_linear)"/>
<path d="M46.5161 46.8146C46.3073 46.8146 46.0985 46.732 45.9314 46.5668L41.3795 42.0648C41.0454 41.7343 41.0454 41.1974 41.3795 40.867C41.7136 40.5365 42.2565 40.5365 42.5905 40.867L47.1425 45.369C47.4766 45.6994 47.4766 46.2364 47.1425 46.5668C46.9337 46.732 46.7249 46.8146 46.5161 46.8146Z" fill="url(#paint17_linear)"/>
<path d="M11.9798 33.4313C11.7709 33.4313 11.5621 33.3487 11.3951 33.1835C11.061 32.853 11.061 32.3161 11.3951 31.9857L15.1536 28.2684L11.3951 24.5511C11.061 24.2207 11.061 23.6837 11.3951 23.3533C11.7292 23.0229 12.2721 23.0229 12.6062 23.3533L16.9493 27.6488C17.2834 27.9792 17.2834 28.5162 16.9493 28.8466L12.5644 33.1835C12.3974 33.3487 12.1886 33.4313 11.9798 33.4313Z" fill="url(#paint18_linear)"/>
<path d="M6.26882 33.4313C6.06001 33.4313 5.8512 33.3487 5.68416 33.1835C5.35007 32.853 5.35007 32.3161 5.68416 31.9857L9.44266 28.2684L5.68416 24.5511C5.35007 24.2207 5.35007 23.6837 5.68416 23.3533C6.01825 23.0229 6.56114 23.0229 6.89523 23.3533L11.2384 27.6488C11.5725 27.9792 11.5725 28.5162 11.2384 28.8466L6.85347 33.1835C6.68643 33.3487 6.47762 33.4313 6.26882 33.4313Z" fill="url(#paint19_linear)"/>
<path d="M9.26643 29.1365H2.83522C2.37585 29.1365 2 28.7648 2 28.3104C2 27.8561 2.37585 27.4844 2.83522 27.4844H9.26643C9.7258 27.4844 10.1017 27.8561 10.1017 28.3104C10.1017 28.7235 9.7258 29.1365 9.26643 29.1365Z" fill="url(#paint20_linear)"/>
<path d="M19.6213 20.5443H13.4407C12.9813 20.5443 12.6055 20.1726 12.6055 19.7182C12.6055 19.2639 12.9813 18.8922 13.4407 18.8922H18.7443V13.6054C18.7443 13.151 19.1202 12.7793 19.5796 12.7793C20.0389 12.7793 20.4148 13.151 20.4148 13.6054V19.7182C20.4566 20.1726 20.0807 20.5443 19.6213 20.5443Z" fill="url(#paint21_linear)"/>
<path d="M15.5288 16.5384H9.38991C8.93054 16.5384 8.55469 16.1667 8.55469 15.7124C8.55469 15.258 8.93054 14.8863 9.38991 14.8863H14.6936V9.5995C14.6936 9.14517 15.0694 8.77344 15.5288 8.77344C15.9882 8.77344 16.364 9.14517 16.364 9.5995V15.6711C16.4058 16.1667 16.0299 16.5384 15.5288 16.5384Z" fill="url(#paint22_linear)"/>
<path d="M14.6086 15.5881C14.3998 15.5881 14.191 15.5055 14.024 15.3402L9.43025 10.8382C9.09617 10.5078 9.09617 9.97082 9.43025 9.6404C9.76434 9.30997 10.3072 9.30997 10.6413 9.6404L15.1933 14.1837C15.5274 14.5142 15.5274 15.0511 15.1933 15.3815C15.0262 15.5055 14.8174 15.5881 14.6086 15.5881Z" fill="url(#paint23_linear)"/>
<path d="M23.4204 39.7931C23.2952 39.7931 23.2116 39.7518 23.0864 39.7105C22.7523 39.5866 22.5435 39.2562 22.5435 38.8844L22.8358 33.0607L16.9475 33.3498C16.5716 33.3498 16.2375 33.1433 16.1122 32.8129C15.987 32.4824 16.0705 32.1107 16.3211 31.8629L20.706 27.9391L16.3628 24.0979C16.1122 23.8501 16.0287 23.4783 16.154 23.1479C16.2793 22.8175 16.6134 22.611 16.9892 22.611L22.8775 22.9001L22.5852 17.0764C22.5852 16.7046 22.794 16.3742 23.1281 16.2503C23.4622 16.1264 23.8381 16.209 24.0886 16.4568L28.0559 20.7936L32.0232 16.4568C32.2738 16.209 32.6496 16.1264 32.9837 16.2503C33.3178 16.3742 33.5266 16.7046 33.5266 17.0764L33.1508 22.9414L39.0391 22.6523C39.4149 22.611 39.7073 22.8588 39.8743 23.1892C39.9996 23.5197 39.9161 23.8914 39.6655 24.1392L35.2806 28.063L39.6655 31.9868C39.9161 32.2346 39.9996 32.6064 39.8743 32.9368C39.749 33.2672 39.4149 33.4737 39.0391 33.4737L33.1508 33.102L33.4431 38.9258C33.4431 39.2975 33.2343 39.6279 32.9002 39.7518C32.5661 39.8757 32.1903 39.7931 31.9397 39.5453L27.9724 35.2085L24.0051 39.5453C23.8798 39.7105 23.6292 39.7931 23.4204 39.7931ZM28.0142 33.102C28.2647 33.102 28.4735 33.1846 28.6406 33.3911L31.6474 36.6541L31.3968 32.2346C31.3968 31.9868 31.4803 31.7803 31.6474 31.6151C31.8144 31.4499 32.065 31.3673 32.2738 31.3673L36.7422 31.5738L33.4013 28.6412C33.2343 28.476 33.1508 28.2282 33.1508 28.0217C33.1508 27.7739 33.2343 27.5674 33.4431 27.4022L36.7422 24.4696L32.2738 24.6761C32.0232 24.6761 31.8144 24.5935 31.6474 24.4283C31.4803 24.2631 31.3968 24.0153 31.3968 23.8088L31.6474 19.3893L28.6406 22.6523C28.4735 22.8175 28.2647 22.9414 28.0142 22.9414C27.7636 22.9414 27.5548 22.8588 27.3877 22.6523L24.3809 19.3893L24.5898 23.8088C24.5898 24.0566 24.5062 24.2631 24.3392 24.4283C24.1721 24.5935 23.9633 24.6761 23.7128 24.6761L19.2443 24.4696L22.5435 27.4022C22.7105 27.5674 22.8358 27.7739 22.8358 28.0217C22.8358 28.2695 22.7523 28.476 22.5435 28.6412L19.2443 31.6151L23.7128 31.4086C23.9633 31.4086 24.1721 31.4912 24.3392 31.6564C24.5062 31.8216 24.5898 32.0694 24.5898 32.2759L24.3809 36.6541L27.346 33.3911C27.513 33.1846 27.7636 33.102 28.0142 33.102Z" fill="url(#paint24_linear)"/>
<defs>
<linearGradient id="paint0_linear" x1="22.5898" y1="11.0459" x2="26.1626" y2="19.8285" gradientUnits="userSpaceOnUse">
<stop stop-color="#00D8F5"/>
<stop offset="1" stop-color="#00D689"/>
</linearGradient>
<linearGradient id="paint1_linear" x1="22.5898" y1="5.3877" x2="26.1626" y2="14.1703" gradientUnits="userSpaceOnUse">
<stop stop-color="#00D8F5"/>
<stop offset="1" stop-color="#00D689"/>
</linearGradient>
<linearGradient id="paint2_linear" x1="26.9727" y1="2" x2="30.6814" y2="3.08471" gradientUnits="userSpaceOnUse">
<stop stop-color="#00D8F5"/>
<stop offset="1" stop-color="#00D689"/>
</linearGradient>
<linearGradient id="paint3_linear" x1="22.5898" y1="38.9648" x2="26.1626" y2="47.7475" gradientUnits="userSpaceOnUse">
<stop stop-color="#00D8F5"/>
<stop offset="1" stop-color="#00D689"/>
</linearGradient>
<linearGradient id="paint4_linear" x1="22.5898" y1="44.625" x2="26.1728" y2="53.3976" gradientUnits="userSpaceOnUse">
<stop stop-color="#00D8F5"/>
<stop offset="1" stop-color="#00D689"/>
</linearGradient>
<linearGradient id="paint5_linear" x1="26.9727" y1="45.9873" x2="30.6784" y2="47.0767" gradientUnits="userSpaceOnUse">
<stop stop-color="#00D8F5"/>
<stop offset="1" stop-color="#00D689"/>
</linearGradient>
<linearGradient id="paint6_linear" x1="12.6914" y1="35.043" x2="18.9305" y2="43.9386" gradientUnits="userSpaceOnUse">
<stop stop-color="#00D8F5"/>
<stop offset="1" stop-color="#00D689"/>
</linearGradient>
<linearGradient id="paint7_linear" x1="8.64062" y1="39.0488" x2="14.8901" y2="47.9155" gradientUnits="userSpaceOnUse">
<stop stop-color="#00D8F5"/>
<stop offset="1" stop-color="#00D689"/>
</linearGradient>
<linearGradient id="paint8_linear" x1="9.30859" y1="39.958" x2="14.2866" y2="47.0556" gradientUnits="userSpaceOnUse">
<stop stop-color="#00D8F5"/>
<stop offset="1" stop-color="#00D689"/>
</linearGradient>
<linearGradient id="paint9_linear" x1="38.8359" y1="23.1484" x2="47.4749" y2="30.3212" gradientUnits="userSpaceOnUse">
<stop stop-color="#00D8F5"/>
<stop offset="1" stop-color="#00D689"/>
</linearGradient>
<linearGradient id="paint10_linear" x1="44.5508" y1="23.1475" x2="53.1898" y2="30.3202" gradientUnits="userSpaceOnUse">
<stop stop-color="#00D8F5"/>
<stop offset="1" stop-color="#00D689"/>
</linearGradient>
<linearGradient id="paint11_linear" x1="45.8984" y1="27.4834" x2="46.2983" y2="30.2493" gradientUnits="userSpaceOnUse">
<stop stop-color="#00D8F5"/>
<stop offset="1" stop-color="#00D689"/>
</linearGradient>
<linearGradient id="paint12_linear" x1="35.4492" y1="13.1094" x2="41.6987" y2="21.976" gradientUnits="userSpaceOnUse">
<stop stop-color="#00D8F5"/>
<stop offset="1" stop-color="#00D689"/>
</linearGradient>
<linearGradient id="paint13_linear" x1="39.5391" y1="9.10352" x2="45.7894" y2="17.9678" gradientUnits="userSpaceOnUse">
<stop stop-color="#00D8F5"/>
<stop offset="1" stop-color="#00D689"/>
</linearGradient>
<linearGradient id="paint14_linear" x1="40.4609" y1="9.76465" x2="45.3944" y2="16.8459" gradientUnits="userSpaceOnUse">
<stop stop-color="#00D8F5"/>
<stop offset="1" stop-color="#00D689"/>
</linearGradient>
<linearGradient id="paint15_linear" x1="36.125" y1="35.7041" x2="42.3196" y2="44.5835" gradientUnits="userSpaceOnUse">
<stop stop-color="#00D8F5"/>
<stop offset="1" stop-color="#00D689"/>
</linearGradient>
<linearGradient id="paint16_linear" x1="40.168" y1="39.7109" x2="46.3739" y2="48.5592" gradientUnits="userSpaceOnUse">
<stop stop-color="#00D8F5"/>
<stop offset="1" stop-color="#00D689"/>
</linearGradient>
<linearGradient id="paint17_linear" x1="41.1289" y1="40.6191" x2="46.1069" y2="47.7167" gradientUnits="userSpaceOnUse">
<stop stop-color="#00D8F5"/>
<stop offset="1" stop-color="#00D689"/>
</linearGradient>
<linearGradient id="paint18_linear" x1="11.1445" y1="23.1055" x2="19.8117" y2="30.2729" gradientUnits="userSpaceOnUse">
<stop stop-color="#00D8F5"/>
<stop offset="1" stop-color="#00D689"/>
</linearGradient>
<linearGradient id="paint19_linear" x1="5.43359" y1="23.1055" x2="14.1008" y2="30.2729" gradientUnits="userSpaceOnUse">
<stop stop-color="#00D8F5"/>
<stop offset="1" stop-color="#00D689"/>
</linearGradient>
<linearGradient id="paint20_linear" x1="2" y1="27.4844" x2="2.39998" y2="30.2502" gradientUnits="userSpaceOnUse">
<stop stop-color="#00D8F5"/>
<stop offset="1" stop-color="#00D689"/>
</linearGradient>
<linearGradient id="paint21_linear" x1="12.6055" y1="12.7793" x2="18.855" y2="21.646" gradientUnits="userSpaceOnUse">
<stop stop-color="#00D8F5"/>
<stop offset="1" stop-color="#00D689"/>
</linearGradient>
<linearGradient id="paint22_linear" x1="8.55469" y1="8.77344" x2="14.8042" y2="17.6401" gradientUnits="userSpaceOnUse">
<stop stop-color="#00D8F5"/>
<stop offset="1" stop-color="#00D689"/>
</linearGradient>
<linearGradient id="paint23_linear" x1="9.17969" y1="9.39258" x2="14.1577" y2="16.4901" gradientUnits="userSpaceOnUse">
<stop stop-color="#00D8F5"/>
<stop offset="1" stop-color="#00D689"/>
</linearGradient>
<linearGradient id="paint24_linear" x1="16.0547" y1="16.1934" x2="35.0293" y2="43.2472" gradientUnits="userSpaceOnUse">
<stop stop-color="#00D8F5"/>
<stop offset="1" stop-color="#00D689"/>
</linearGradient>
</defs>
</svg>
