<svg width="52" height="52" viewBox="0 0 52 52" fill="none" xmlns="http://www.w3.org/2000/svg">
<circle cx="26" cy="26" r="26" fill="white" fill-opacity="0.05"/>
<path d="M27.9879 16C30.7739 16 31.7841 16.2901 32.8026 16.8348C33.8212 17.3795 34.6205 18.1788 35.1652 19.1974C35.7099 20.2159 36 21.2261 36 24.0121V27.9879C36 30.7739 35.7099 31.7841 35.1652 32.8026C34.6205 33.8212 33.8212 34.6205 32.8026 35.1652C31.7841 35.7099 30.7739 36 27.9879 36H24.0121C21.2261 36 20.2159 35.7099 19.1974 35.1652C18.1788 34.6205 17.3795 33.8212 16.8348 32.8026C16.2901 31.7841 16 30.7739 16 27.9879V24.0121C16 21.2261 16.2901 20.2159 16.8348 19.1974C17.3795 18.1788 18.1788 17.3795 19.1974 16.8348C20.2159 16.2901 21.2261 16 24.0121 16H27.9879ZM26 22.25C23.9289 22.25 22.25 23.9289 22.25 26C22.25 28.0711 23.9289 29.75 26 29.75C28.0711 29.75 29.75 28.0711 29.75 26C29.75 23.9289 28.0711 22.25 26 22.25ZM31 19.75C30.3096 19.75 29.75 20.3096 29.75 21C29.75 21.6904 30.3096 22.25 31 22.25C31.6904 22.25 32.25 21.6904 32.25 21C32.25 20.3096 31.6904 19.75 31 19.75Z" fill="white"/>
</svg>
