<svg width="32" height="32" viewBox="0 0 32 32" fill="none" xmlns="http://www.w3.org/2000/svg">
<path fill-rule="evenodd" clip-rule="evenodd" d="M16 0C7.16347 0 0 7.16347 0 16C0 24.8365 7.16347 32 16 32C24.8365 32 32 24.8365 32 16C32 7.16347 24.8365 0 16 0ZM12.4822 7.5182C13.3924 7.4768 13.6833 7.46667 16.0008 7.46667H15.9981C18.3164 7.46667 18.6061 7.4768 19.5164 7.5182C20.4249 7.5598 21.0453 7.70367 21.5893 7.91467C22.1511 8.13247 22.6257 8.424 23.1004 8.89867C23.5751 9.373 23.8667 9.84907 24.0853 10.4103C24.2951 10.9529 24.4391 11.573 24.4818 12.4815C24.5227 13.3917 24.5333 13.6825 24.5333 16.0001C24.5333 18.3176 24.5227 18.6077 24.4818 19.518C24.4391 20.4261 24.2951 21.0463 24.0853 21.5891C23.8667 22.1502 23.5751 22.6263 23.1004 23.1006C22.6263 23.5753 22.1509 23.8675 21.5899 24.0855C21.0469 24.2965 20.4261 24.4403 19.5177 24.4819C18.6074 24.5234 18.3175 24.5335 15.9997 24.5335C13.6824 24.5335 13.3917 24.5234 12.4815 24.4819C11.5732 24.4403 10.9529 24.2965 10.41 24.0855C9.84907 23.8675 9.373 23.5753 8.89887 23.1006C8.42433 22.6263 8.1328 22.1502 7.91467 21.5889C7.7038 21.0463 7.56 20.4263 7.5182 19.5178C7.477 18.6076 7.46667 18.3176 7.46667 16.0001C7.46667 13.6825 7.47733 13.3915 7.51807 12.4813C7.55893 11.5732 7.70293 10.9529 7.91447 10.4101C8.13313 9.84907 8.42473 9.373 8.8994 8.89867C9.37373 8.4242 9.8498 8.1326 10.4111 7.91467C10.9537 7.70367 11.5737 7.5598 12.4822 7.5182Z" fill="white"/>
<path fill-rule="evenodd" clip-rule="evenodd" d="M15.2341 9.00409C15.3828 9.00389 15.5428 9.00395 15.7155 9.00402L16.0001 9.00409C18.28 9.00409 18.5502 9.01229 19.4505 9.05319C20.2831 9.09129 20.7349 9.23039 21.0359 9.34728C21.4344 9.50207 21.7184 9.68714 22.0172 9.98604C22.316 10.2849 22.501 10.5696 22.6562 10.9681C22.7731 11.2688 22.9123 11.7207 22.9502 12.5533C22.9911 13.4536 23 13.724 23 16.0031C23 18.2822 22.9911 18.5526 22.9502 19.4529C22.9121 20.2855 22.7731 20.7374 22.6562 21.0381C22.5014 21.4366 22.316 21.7204 22.0172 22.0191C21.7183 22.318 21.4345 22.5031 21.0359 22.6579C20.7353 22.7753 20.2831 22.9141 19.4505 22.9521C18.5504 22.9931 18.28 23.002 16.0001 23.002C13.7201 23.002 13.4498 22.9931 12.5497 22.9521C11.7171 22.9137 11.2653 22.7746 10.9641 22.6577C10.5657 22.5029 10.281 22.3178 9.98216 22.0189C9.6833 21.72 9.49832 21.4361 9.34315 21.0374C9.22628 20.7368 9.08699 20.2848 9.0491 19.4522C9.00821 18.552 9 18.2815 9 16.001C9 13.7205 9.00821 13.4515 9.0491 12.5512C9.08719 11.7186 9.22628 11.2667 9.34315 10.9656C9.49792 10.5671 9.6833 10.2825 9.98216 9.98357C10.281 9.68467 10.5657 9.4996 10.9641 9.34448C11.2651 9.22706 11.7171 9.08829 12.5497 9.04999C13.3374 9.01443 13.6427 9.00375 15.2341 9.00195V9.00409ZM20.5581 10.4221C19.9924 10.4221 19.5334 10.8806 19.5334 11.4465C19.5334 12.0123 19.9924 12.4713 20.5581 12.4713C21.1238 12.4713 21.5828 12.0123 21.5828 11.4465C21.5828 10.8808 21.1238 10.4221 20.5581 10.4221ZM11.6151 16.0051C11.6151 13.5832 13.5783 11.6195 15.9999 11.6195C18.4216 11.6195 20.3845 13.5831 20.3845 16.0051C20.3845 18.4271 18.4217 20.3898 16.0001 20.3898C13.5785 20.3898 11.6151 18.4271 11.6151 16.0051Z" fill="white"/>
<circle cx="15.9219" cy="15.9209" r="3" fill="white"/>
</svg>
