<svg width="16" height="16" viewBox="0 0 16 16" fill="none" xmlns="http://www.w3.org/2000/svg">
<path fill-rule="evenodd" clip-rule="evenodd" d="M2 2C1.44772 2 1 2.44772 1 3C1 3.55228 1.44772 4 2 4C2.55228 4 3 3.55228 3 3C3 2.44772 2.55228 2 2 2ZM5 2C4.44772 2 4 2.44772 4 3C4 3.55228 4.44772 4 5 4H14C14.5523 4 15 3.55228 15 3C15 2.44772 14.5523 2 14 2H5ZM5 7C4.44772 7 4 7.44772 4 8C4 8.55228 4.44772 9 5 9H14C14.5523 9 15 8.55228 15 8C15 7.44772 14.5523 7 14 7H5ZM4 13C4 12.4477 4.44772 12 5 12H14C14.5523 12 15 12.4477 15 13C15 13.5523 14.5523 14 14 14H5C4.44772 14 4 13.5523 4 13ZM1 8C1 7.44772 1.44772 7 2 7C2.55228 7 3 7.44772 3 8C3 8.55228 2.55228 9 2 9C1.44772 9 1 8.55228 1 8ZM2 12C1.44772 12 1 12.4477 1 13C1 13.5523 1.44772 14 2 14C2.55228 14 3 13.5523 3 13C3 12.4477 2.55228 12 2 12Z" fill="white"/>
</svg>
