<svg width="14" height="12" viewBox="0 0 14 12" fill="none" xmlns="http://www.w3.org/2000/svg">
<path fill-rule="evenodd" clip-rule="evenodd" d="M2.56543 5.91096C3.87963 4.36725 6.23565 4.27115 7.36913 5.38069C8.41983 6.40919 8.23333 8.2348 6.86176 9.57738C5.90725 10.5117 4.11273 11.0387 1.46469 11.2115L0.875 11.25L0.924833 10.6646C1.10212 8.58216 1.6426 6.99496 2.56543 5.91096ZM8.10712 4.60735C8.51822 3.71307 9.69307 3.41752 10.8062 3.9439C11.5693 4.30479 12.2446 5.21337 12.8869 6.66405L13.125 7.20173L12.5546 7.35539C11.332 7.68475 10.3059 7.70787 9.4773 7.40417C8.2478 6.95351 7.67038 5.55742 8.10712 4.60735ZM5.33819 1.0182C6.35009 0.44305 7.6371 0.850132 8.04212 1.69646C8.42531 2.49718 7.95308 3.4683 6.95788 3.92037C6.29064 4.22347 5.27499 4.1994 3.8735 3.88848L3.23048 3.74583L3.53237 3.1637C4.07604 2.11538 4.671 1.39741 5.33819 1.0182Z" fill="white" fill-opacity="0.7"/>
</svg>
