<svg width="74" height="23" viewBox="0 0 74 23" fill="none" xmlns="http://www.w3.org/2000/svg">
<path d="M0 22.9031V17.1913H1.92518C3.66738 17.1913 4.80499 18.2371 4.80499 20.0391C4.80499 21.8411 3.66738 22.9031 1.92518 22.9031H0ZM1.02623 22.0101H1.86949C3.01505 22.0101 3.74694 21.3263 3.74694 20.0391C3.74694 18.768 2.99914 18.0842 1.86949 18.0842H1.02623V22.0101ZM5.90282 22.9031V17.1913H9.28381V18.0842H6.92905V19.5806H8.83036V20.4735H6.92905V22.0101H9.41109V22.9031H5.90282ZM10.0555 22.2192L10.6123 21.4389C10.9465 21.7446 11.4874 22.0423 12.0125 22.0423C12.5216 22.0423 12.8398 21.7768 12.8398 21.3906C12.8398 20.3046 10.2066 20.5298 10.2066 18.752C10.2066 17.7464 11.034 17.0947 12.1318 17.0947C12.7205 17.0947 13.341 17.2958 13.7865 17.7061L13.333 18.5508C13.0228 18.2693 12.5375 18.0521 12.092 18.0521C11.5749 18.0521 11.2329 18.3095 11.2329 18.7037C11.2329 19.7656 13.8661 19.4921 13.8661 21.3102C13.8661 22.2353 13.1978 22.9996 11.9886 22.9996C11.2885 22.9996 10.5646 22.7341 10.0555 22.2192ZM14.9321 22.9031V17.1913H15.9583V22.9031H14.9321ZM17.0402 20.0391C17.0402 18.3819 18.2733 17.0947 19.9518 17.0947C20.6917 17.0947 21.4713 17.3119 22.052 17.8188L21.5429 18.5911C21.1929 18.2773 20.5723 18.044 20.0393 18.044C18.7745 18.044 18.0983 18.945 18.0983 20.0069C18.0983 21.2378 18.9336 22.0503 19.9916 22.0503C20.5167 22.0503 21.0338 21.817 21.4077 21.455V20.7873H20.5405V19.8943H22.3305V22.9031H21.4554V22.6295C21.4554 22.5089 21.4633 22.3882 21.4633 22.3882H21.4474C21.0815 22.7502 20.453 22.9996 19.8086 22.9996C18.321 22.9996 17.0402 21.8331 17.0402 20.0391ZM23.4999 22.9031V17.1913H24.5261L26.6661 20.4896C26.8729 20.8275 27.1355 21.3745 27.1355 21.3745H27.1514C27.1514 21.3745 27.0957 20.8275 27.0957 20.4896V17.1913H28.114V22.9031H27.0957L24.9557 19.6127C24.7409 19.2749 24.4863 18.7278 24.4863 18.7278H24.4704C24.4704 18.7278 24.5261 19.2749 24.5261 19.6127V22.9031H23.4999ZM31.2802 21.2861C31.2802 20.6666 31.6461 20.0713 32.2348 19.8621V19.846C31.8132 19.6449 31.5188 19.1944 31.5188 18.5991C31.5188 17.5855 32.3302 17.0947 33.3088 17.0947C33.5633 17.0947 33.802 17.135 34.0486 17.1913L33.802 18.0118C33.6906 17.9797 33.5554 17.9636 33.4281 17.9636C32.9428 17.9636 32.561 18.229 32.561 18.7278C32.561 19.0577 32.7439 19.484 33.4122 19.484H34.3191V18.7439H35.3294V19.484H36.0613V20.385H35.3294V21.0608C35.3294 22.2273 34.5736 22.9996 33.2928 22.9996C32.0757 22.9996 31.2802 22.2514 31.2802 21.2861ZM32.3303 21.2217C32.3303 21.6802 32.7121 22.0503 33.2928 22.0503C33.9372 22.0503 34.3191 21.6963 34.3191 21.0045V20.385H33.3644C32.736 20.385 32.3303 20.6666 32.3303 21.2217ZM39.0684 22.9031V17.1913H40.9935C42.7358 17.1913 43.8734 18.2371 43.8734 20.0391C43.8734 21.8411 42.7358 22.9031 40.9935 22.9031H39.0684ZM40.0946 22.0101H40.9379C42.0834 22.0101 42.8153 21.3263 42.8153 20.0391C42.8153 18.768 42.0675 18.0842 40.9379 18.0842H40.0946V22.0101ZM44.9712 22.9031V17.1913H48.3522V18.0842H45.9974V19.5806H47.8987V20.4735H45.9974V22.0101H48.4795V22.9031H44.9712ZM50.9217 22.9031L48.8852 17.1913H49.991L51.232 20.916C51.3354 21.2458 51.4468 21.7526 51.4468 21.7526H51.4627C51.4627 21.7526 51.5741 21.2458 51.6775 20.916L52.9344 17.1913H54.0243L51.9877 22.9031H50.9217ZM54.788 22.9031V17.1913H58.169V18.0842H55.8142V19.5806H57.7155V20.4735H55.8142V22.0101H58.2963V22.9031H54.788ZM59.3464 22.9031V17.1913H60.3726V22.0101H62.8149V22.9031H59.3464ZM63.1092 20.0069C63.1092 18.3738 64.3184 17.0947 66.0288 17.0947C67.7392 17.0947 68.9484 18.3738 68.9484 20.0069C68.9484 21.6883 67.7392 22.9996 66.0288 22.9996C64.3184 22.9996 63.1092 21.6883 63.1092 20.0069ZM64.1673 20.0069C64.1673 21.1654 64.9469 22.0503 66.0288 22.0503C67.1107 22.0503 67.8904 21.1654 67.8904 20.0069C67.8904 18.8968 67.1107 18.044 66.0288 18.044C64.9469 18.044 64.1673 18.8968 64.1673 20.0069ZM70.0224 22.9031V17.1913H72.2021C73.2602 17.1913 74 17.9394 74 19.0496C74 20.1598 73.2602 20.9321 72.2021 20.9321H71.0486V22.9031H70.0224ZM71.0486 20.0311H72.0112C72.6078 20.0311 72.9579 19.6449 72.9579 19.0496C72.9579 18.4623 72.6078 18.0842 72.0271 18.0842H71.0486V20.0311Z" fill="white" fill-opacity="0.5"/>
<path d="M13.1924 8.86123L11.5487 5.4263H13.5211C14.3977 5.4263 15.0552 4.96831 15.0552 4.05233C15.0552 3.13635 14.3977 2.67836 13.5211 2.67836H10.2338L9.13797 0.0449179H13.6307C15.7127 0.0449179 17.6851 1.41889 17.6851 4.05233C17.6851 5.88429 16.5893 6.91477 15.3839 7.60175L17.2468 11.2657C17.2468 11.3802 17.3563 11.4947 17.3563 11.4947C17.3563 11.8382 17.1372 12.0672 16.8084 12.0672H14.9456L13.1924 8.86123ZM11.3295 12.0672H8.80924H11.3295ZM41.7923 7.14376V4.28133C41.7923 3.82334 41.9018 3.36535 42.121 3.02185L43.3263 0.502908C43.4359 0.273913 43.6551 0.159415 43.9838 0.159415C44.203 0.159415 44.4221 0.38841 44.4221 0.617406V7.37276C44.4221 8.63223 45.4083 9.66271 46.6137 9.66271C47.819 9.66271 48.8053 8.63223 48.8053 7.37276V0.617406C48.8053 0.273913 49.0244 0.0449179 49.3531 0.0449179H50.7777C51.1064 0.0449179 51.3256 0.273913 51.3256 0.617406V7.14376C51.3256 9.8917 49.2436 12.0672 46.6137 12.0672C43.9838 12.0672 41.7923 9.8917 41.7923 7.14376ZM67.7623 7.60175H66.7761V9.43371L65.4611 12.0672H64.6941C64.3653 12.0672 64.1462 11.8382 64.1462 11.4947V0.0449179H70.5017C70.8305 0.0449179 71.1592 0.273913 71.3783 0.502908L70.2826 2.67836H66.8856V4.96831H69.1868L67.7623 7.60175ZM71.5975 1.18989V2.67836V1.18989ZM58.229 0.0449179C60.311 0.0449179 62.2834 1.41889 62.2834 4.05233C62.2834 5.88429 61.1876 6.91477 59.9822 7.60175L61.8451 11.2657C61.8451 11.3802 61.9546 11.4947 61.9546 11.4947C61.9546 11.8382 61.7355 12.0672 61.4067 12.0672H59.8726C59.6535 12.0672 59.5439 11.9527 59.4343 11.7237L57.3523 8.05974H55.8183V11.4947C55.8183 11.8382 55.5991 12.0672 55.2704 12.0672H53.8459C53.5171 12.0672 53.298 11.8382 53.298 11.4947V0.617406C53.298 0.273913 53.5171 0.0449179 53.8459 0.0449179H58.229ZM55.9278 5.4263H58.229C59.1056 5.4263 59.7631 4.96831 59.7631 4.05233C59.7631 3.13635 59.1056 2.67836 58.229 2.67836H55.9278V5.4263ZM33.026 0.8464C33.7931 0.273913 34.6697 -0.0695796 35.6559 0.0449179C36.6421 0.0449179 37.6283 0.273913 38.2858 0.8464C38.5049 1.0754 38.6145 1.41889 38.5049 1.64788L37.957 2.90736C37.8474 3.13635 37.6283 3.13635 37.4091 3.02185C36.9708 2.56386 36.4229 2.44937 35.6559 2.44937C34.8888 2.44937 34.3409 2.90736 34.3409 3.36535C34.3409 3.82334 34.4505 3.93783 34.7793 4.16683C34.9984 4.28133 35.2176 4.28133 35.3271 4.39582L36.0942 4.62482C36.5325 4.73932 36.8612 4.85381 37.0804 4.96831C39.1624 5.76979 40.039 6.80027 40.039 8.40324C40.039 10.5787 38.6145 11.9527 35.875 11.9527C34.3409 11.9527 33.1356 11.4947 32.3685 10.8077C32.1494 10.5787 32.0398 10.2352 32.1494 10.0062L32.8068 8.63223C32.9164 8.40324 33.2452 8.40324 33.3547 8.63223C33.9026 9.31922 34.7793 9.66271 35.875 9.66271C36.9708 9.66271 37.5187 9.09022 37.5187 8.51773C37.5187 8.05974 37.2996 7.71625 36.9708 7.48726C36.7517 7.25826 36.3133 7.14376 35.9846 7.02927C35.7655 6.91477 35.108 6.68577 34.7793 6.57128C33.026 5.88429 32.0398 4.96831 32.0398 3.13635C31.9302 2.22037 32.259 1.41889 33.026 0.8464ZM18.8904 0.8464C18.8904 0.731903 18.7808 0.731903 18.7808 0.617406C18.7808 0.273913 19 0.0449179 19.3287 0.0449179H25.6843H29.9578C30.2866 0.0449179 30.5057 0.273913 30.5057 0.617406V2.10587C30.5057 2.44937 30.2866 2.67836 29.9578 2.67836H26.2322V11.4947C26.2322 11.8382 26.013 12.0672 25.6843 12.0672H24.2598C23.931 12.0672 23.7119 11.8382 23.7119 11.4947V2.67836H20.5341C20.0958 2.67836 19.767 2.44937 19.5479 1.99138L18.8904 0.8464ZM11.7678 11.2657C11.7678 11.3802 11.8774 11.4947 11.8774 11.4947C11.8774 11.8382 11.6583 12.0672 11.3295 12.0672H9.46671C9.24755 12.0672 9.02839 11.9527 8.91882 11.7237L8.4805 10.6932H3.33033L2.89202 11.7237C2.78244 11.9527 2.56328 12.0672 2.34413 12.0672H0.481301C0.371722 12.0672 0.262144 12.0672 0.262144 11.9527C0.042988 11.8382 -0.0665901 11.4947 0.042988 11.1512L5.41232 0.273913C5.41232 0.159415 5.52189 0.0449179 5.63147 0.0449179C5.85063 -0.0695796 6.17936 0.0449179 6.39852 0.273913L11.7678 11.2657ZM4.53569 7.83075H7.27514L5.85063 4.96831L4.53569 7.83075Z" fill="white"/>
<path d="M71.2002 9.05078H72.9901C73.3481 9.05078 73.5867 9.29212 73.5867 9.65414V11.4642C73.5867 11.8262 73.3481 12.0676 72.9901 12.0676H71.2002C70.8422 12.0676 70.6035 11.8262 70.6035 11.4642V9.65414C70.6035 9.29212 70.8422 9.05078 71.2002 9.05078Z" fill="white" fill-opacity="0.5"/>
</svg>
