<svg width="12" height="14" viewBox="0 0 12 14" fill="none" xmlns="http://www.w3.org/2000/svg">
<path fill-rule="evenodd" clip-rule="evenodd" d="M3 3.95674C4.18904 3.23176 5.04964 2.0202 5.31445 0.59765C5.36682 0.316369 5.67194 0.143179 5.91371 0.296186C7.5886 1.35618 8.7 3.22034 8.7 5.34301C8.7 5.75699 8.65773 6.16114 8.57725 6.5514C8.51124 6.87146 8.80398 7.15784 9.08182 6.9858C9.54603 6.69837 9.92564 6.28819 10.1749 5.80083C10.3176 5.52187 10.704 5.41898 10.8946 5.66763C11.5881 6.57217 12 7.70229 12 8.92821C12 11.1457 10.6523 13.0498 8.72805 13.8723C8.51857 13.9618 8.28143 13.9618 8.07195 13.8723C6.14772 13.0498 4.8 11.1457 4.8 8.92821C4.8 8.86816 4.72566 8.83926 4.68748 8.8856C4.00789 9.71039 3.6 10.7657 3.6 11.9159C3.6 12.2336 3.63113 12.5441 3.69051 12.8445C3.75256 13.1584 3.47666 13.4564 3.18009 13.3363C1.31497 12.581 0 10.7582 0 8.62945C0 6.72459 1.05296 5.06465 2.61083 4.19541L3 3.95674Z" fill="#FB5352"/>
</svg>
