<svg width="69" height="58" viewBox="0 0 69 58" fill="none" xmlns="http://www.w3.org/2000/svg">
<path d="M16.4172 31.3577C18.3207 30.8862 20.1448 30.9648 21.8897 31.5935C23.6345 32.065 25.1414 32.9295 26.4103 34.187C27.8379 35.4444 28.9483 36.9377 29.7414 38.6667C30.6931 40.3957 31.169 42.2818 31.169 44.3252C31.169 48.2547 29.7414 51.5556 26.8862 54.2276C24.031 56.7426 20.5414 58 16.4172 58C10.8655 58 6.74138 56.0352 4.04483 52.1057C1.34828 48.019 0 42.832 0 36.5447C0 28.0569 1.98276 20.6694 5.94828 14.3821C10.0724 7.93767 16.4172 3.14363 24.9828 0L28.3138 4.47968C22.1276 7.30894 17.5276 10.8455 14.5138 15.0894C11.5 19.3333 9.9931 24.0488 9.9931 29.2358C9.9931 30.9648 10.3103 31.9865 10.9448 32.3008C11.7379 32.6152 12.6103 32.6152 13.5621 32.3008L16.4172 31.3577ZM54.4862 31.3577C58.1345 30.5718 61.4655 31.5149 64.4793 34.187C67.4931 36.8591 69 40.2385 69 44.3252C69 48.2547 67.5724 51.5556 64.7172 54.2276C62.0207 56.7426 58.6103 58 54.4862 58C48.9345 58 44.731 56.0352 41.8759 52.1057C39.1793 48.019 37.831 42.832 37.831 36.5447C37.831 28.0569 39.8931 20.6694 44.0172 14.3821C48.1414 7.93767 54.4862 3.14363 63.0517 0L66.3828 4.47968C60.1966 7.30894 55.5172 10.8455 52.3448 15.0894C49.331 19.3333 47.8241 24.0488 47.8241 29.2358C47.8241 30.9648 48.1414 31.9865 48.7759 32.3008C49.569 32.6152 50.5207 32.6152 51.631 32.3008L54.4862 31.3577Z" fill="#CDC4BD"/>
</svg>
