<svg width="895" height="70" viewBox="0 0 895 70" fill="none" xmlns="http://www.w3.org/2000/svg">
<path d="M3.64645 69.3536C3.84171 69.5488 4.15829 69.5488 4.35355 69.3536L7.53553 66.1716C7.7308 65.9763 7.7308 65.6597 7.53553 65.4645C7.34027 65.2692 7.02369 65.2692 6.82843 65.4645L4 68.2929L1.17157 65.4645C0.976311 65.2692 0.659728 65.2692 0.464466 65.4645C0.269204 65.6597 0.269204 65.9763 0.464466 66.1716L3.64645 69.3536ZM870 32.5H28V33.5H870V32.5ZM3.5 57V69H4.5V57H3.5ZM894.5 9V0H893.5V9H894.5ZM28 32.5C14.469 32.5 3.5 43.469 3.5 57H4.5C4.5 44.0213 15.0213 33.5 28 33.5V32.5ZM870 33.5C883.531 33.5 894.5 22.531 894.5 9H893.5C893.5 21.9787 882.979 32.5 870 32.5V33.5Z" fill="#CAECE4"/>
</svg>
