<svg width="13" height="13" viewBox="0 0 13 13" fill="none" xmlns="http://www.w3.org/2000/svg">
<path fill-rule="evenodd" clip-rule="evenodd" d="M8.49333 0C12.1333 0 13 0.866667 13 4.50667V8.49333C13 12.1333 12.1333 13 8.49333 13H4.50667C0.866667 13 0 12.1333 0 8.49333V4.50667C0 0.866667 0.866667 0 4.50667 0H8.49333ZM3.52083 4.0625H2.57292C2.30208 4.0625 2.24792 4.1925 2.24792 4.32792C2.24792 4.5825 2.5675 5.82833 3.74292 7.475C4.05387 7.97185 4.47811 8.38795 4.98088 8.68924C5.48365 8.99053 6.05065 9.16841 6.63542 9.20833C7.23667 9.20833 7.3125 9.07292 7.3125 8.84V7.98958C7.3125 7.71875 7.37208 7.66458 7.56167 7.66458C7.75125 7.66458 7.94083 7.735 8.50417 8.27667C9.14875 8.92125 9.25167 9.20833 9.61458 9.20833H10.5625C10.8333 9.20833 10.9688 9.07292 10.8929 8.8075C10.6911 8.39428 10.42 8.0187 10.0913 7.69708C9.86917 7.43167 9.54958 7.15542 9.43583 7.01458C9.32208 6.87375 9.33833 6.74917 9.43583 6.59208C9.93778 5.91737 10.3663 5.19104 10.7142 4.42542C10.7738 4.225 10.7142 4.07875 10.4271 4.07875H9.47917C9.39133 4.07392 9.30421 4.09699 9.23027 4.14466C9.15633 4.19233 9.09936 4.26216 9.0675 4.34417C8.77376 5.04278 8.3816 5.69579 7.90292 6.28333C7.68083 6.50542 7.57792 6.57583 7.45875 6.57583C7.33958 6.57583 7.3125 6.50542 7.3125 6.305V4.40917C7.3125 4.17083 7.24208 4.0625 7.04167 4.0625H5.55208C5.49118 4.05952 5.43154 4.08054 5.38596 4.12105C5.34039 4.16157 5.31252 4.21833 5.30833 4.27917C5.30833 4.50667 5.655 4.56083 5.6875 5.20542V6.5975C5.6875 6.90625 5.63333 6.96042 5.51417 6.96042C5.18917 6.96042 4.43083 5.77958 3.94333 4.43083C3.85667 4.17083 3.79167 4.0625 3.52083 4.0625Z" fill="#4C77A6"/>
</svg>
