<svg width="148" height="28" viewBox="0 0 148 28" fill="none" xmlns="http://www.w3.org/2000/svg">
<g clip-path="url(#clip0)">
<path d="M13.6566 8.09533C13.5461 8.09533 13.4135 8.05085 13.3472 7.96189L11.0271 5.64894C10.8503 5.47102 10.8503 5.1819 11.0271 5.00398C11.2039 4.82606 11.4911 4.82606 11.6679 5.00398L13.6566 7.00557L15.6452 5.00398C15.822 4.82606 16.1092 4.82606 16.286 5.00398C16.4628 5.1819 16.4628 5.47102 16.286 5.64894L13.9659 7.96189C13.8775 8.05085 13.767 8.09533 13.6566 8.09533Z" fill="url(#paint0_linear)"/>
<path d="M13.6566 5.04845C13.5461 5.04845 13.4135 5.00397 13.3472 4.91501L11.0271 2.60206C10.8503 2.42415 10.8503 2.13503 11.0271 1.95711C11.2039 1.77919 11.4911 1.77919 11.6679 1.95711L13.6566 3.9587L15.6452 1.95711C15.822 1.77919 16.1092 1.77919 16.286 1.95711C16.4628 2.13503 16.4628 2.42415 16.286 2.60206L13.9659 4.91501C13.8775 5.00397 13.767 5.04845 13.6566 5.04845Z" fill="url(#paint1_linear)"/>
<path d="M13.6568 4.33678C13.4137 4.33678 13.2148 4.13662 13.2148 3.89198V0.444797C13.2148 0.200159 13.4137 0 13.6568 0C13.8998 0 14.0987 0.200159 14.0987 0.444797V3.86974C14.0987 4.13662 13.8998 4.33678 13.6568 4.33678Z" fill="url(#paint2_linear)"/>
<path d="M15.9546 23.1296C15.8441 23.1296 15.7336 23.0851 15.6452 22.9961L13.6566 20.9945L11.6679 22.9961C11.4911 23.174 11.2039 23.174 11.0271 22.9961C10.8503 22.8182 10.8503 22.5291 11.0271 22.3512L13.3251 20.0382C13.5019 19.8603 13.7891 19.8603 13.9659 20.0382L16.286 22.3512C16.4628 22.5291 16.4628 22.8182 16.286 22.9961C16.1976 23.0851 16.065 23.1296 15.9546 23.1296Z" fill="url(#paint3_linear)"/>
<path d="M15.9546 26.1764C15.8441 26.1764 15.7336 26.132 15.6452 26.043L13.6566 24.0414L11.6679 26.043C11.4911 26.2209 11.2039 26.2209 11.0271 26.043C10.8503 25.8651 10.8503 25.576 11.0271 25.398L13.3251 23.0851C13.5019 22.9072 13.7891 22.9072 13.9659 23.0851L16.2639 25.398C16.4407 25.576 16.4407 25.8651 16.2639 26.043C16.1976 26.132 16.065 26.1764 15.9546 26.1764Z" fill="url(#paint4_linear)"/>
<path d="M13.6568 28.0001C13.4137 28.0001 13.2148 27.7999 13.2148 27.5553V24.1303C13.2148 23.8857 13.4137 23.6855 13.6568 23.6855C13.8998 23.6855 14.0987 23.8857 14.0987 24.1303V27.5553C14.0987 27.7999 13.8998 28.0001 13.6568 28.0001Z" fill="url(#paint5_linear)"/>
<path d="M9.36841 21.9731C9.12536 21.9731 8.92649 21.7729 8.92649 21.5283V18.6816H6.09817C5.85512 18.6816 5.65625 18.4814 5.65625 18.2368C5.65625 17.9922 5.85512 17.792 6.09817 17.792H9.36841C9.61147 17.792 9.81034 17.9922 9.81034 18.2368V21.506C9.81034 21.7729 9.61147 21.9731 9.36841 21.9731Z" fill="url(#paint6_linear)"/>
<path d="M7.22388 24.1303C6.98082 24.1303 6.78196 23.9302 6.78196 23.6855V20.8388H3.95364C3.71058 20.8388 3.51172 20.6387 3.51172 20.394C3.51172 20.1494 3.71058 19.9492 3.95364 19.9492H7.20179C7.44485 19.9492 7.64371 20.1494 7.64371 20.394V23.6855C7.66581 23.9302 7.46694 24.1303 7.22388 24.1303Z" fill="url(#paint7_linear)"/>
<path d="M4.30911 23.7745C4.19863 23.7745 4.08815 23.73 3.99976 23.641C3.823 23.4631 3.823 23.174 3.99976 22.9961L6.40825 20.5719C6.58502 20.394 6.87227 20.394 7.04904 20.5719C7.22581 20.7498 7.22581 21.039 7.04904 21.2169L4.64055 23.641C4.55217 23.73 4.41959 23.7745 4.30911 23.7745Z" fill="url(#paint8_linear)"/>
<path d="M22.2282 16.9246C22.1177 16.9246 22.0072 16.8801 21.9189 16.7911L19.6209 14.4782C19.4441 14.3003 19.4441 14.0111 19.6209 13.8332L21.9189 11.5203C22.0956 11.3424 22.3829 11.3424 22.5597 11.5203C22.7364 11.6982 22.7364 11.9873 22.5597 12.1652L20.571 14.1668L22.5597 16.1684C22.7364 16.3463 22.7364 16.6355 22.5597 16.8134C22.4713 16.8801 22.3387 16.9246 22.2282 16.9246Z" fill="url(#paint9_linear)"/>
<path d="M25.2556 16.9246C25.1451 16.9246 25.0346 16.8801 24.9462 16.7911L22.6482 14.4782C22.4714 14.3003 22.4714 14.0111 22.6482 13.8332L24.9462 11.5203C25.123 11.3424 25.4102 11.3424 25.587 11.5203C25.7638 11.6982 25.7638 11.9873 25.587 12.1652L23.5983 14.1668L25.587 16.1684C25.7638 16.3463 25.7638 16.6355 25.587 16.8134C25.4986 16.8801 25.3881 16.9246 25.2556 16.9246Z" fill="url(#paint10_linear)"/>
<path d="M27.0674 14.6116H23.6646C23.4215 14.6116 23.2227 14.4114 23.2227 14.1668C23.2227 13.9221 23.4215 13.722 23.6646 13.722H27.0674C27.3105 13.722 27.5093 13.9221 27.5093 14.1668C27.5314 14.3892 27.3325 14.6116 27.0674 14.6116Z" fill="url(#paint11_linear)"/>
<path d="M21.4114 10.1637H18.1411C17.8981 10.1637 17.6992 9.96354 17.6992 9.7189V6.4274C17.6992 6.18276 17.8981 5.9826 18.1411 5.9826C18.3842 5.9826 18.5831 6.18276 18.5831 6.4274V9.25186H21.3893C21.6323 9.25186 21.8312 9.45202 21.8312 9.69666C21.8533 9.96354 21.6544 10.1637 21.4114 10.1637Z" fill="url(#paint12_linear)"/>
<path d="M23.5533 8.00641H20.3052C20.0621 8.00641 19.8633 7.80625 19.8633 7.56162V4.27011C19.8633 4.02548 20.0621 3.82532 20.3052 3.82532C20.5483 3.82532 20.7471 4.02548 20.7471 4.27011V7.09458H23.5533C23.7964 7.09458 23.9953 7.29474 23.9953 7.53938C23.9953 7.78402 23.7964 8.00641 23.5533 8.00641Z" fill="url(#paint13_linear)"/>
<path d="M20.7935 7.49489C20.683 7.49489 20.5725 7.45041 20.4841 7.36145C20.3074 7.18354 20.3074 6.89442 20.4841 6.7165L22.8926 4.31459C23.0694 4.13667 23.3567 4.13667 23.5334 4.31459C23.7102 4.49251 23.7102 4.78163 23.5334 4.95955L21.1249 7.36145C21.0365 7.45041 20.904 7.49489 20.7935 7.49489Z" fill="url(#paint14_linear)"/>
<path d="M18.4966 22.3068C18.2536 22.3068 18.0547 22.1066 18.0547 21.862V18.5927C18.0547 18.3481 18.2536 18.1479 18.4966 18.1479H21.7668C22.0099 18.1479 22.2088 18.3481 22.2088 18.5927C22.2088 18.8374 22.0099 19.0375 21.7668 19.0375H18.9606V21.862C18.9606 22.1066 18.7618 22.3068 18.4966 22.3068Z" fill="url(#paint15_linear)"/>
<path d="M20.6411 24.464C20.3981 24.464 20.1992 24.2639 20.1992 24.0192V20.75C20.1992 20.5053 20.3981 20.3052 20.6411 20.3052H23.8893C24.1323 20.3052 24.3312 20.5053 24.3312 20.75C24.3312 20.9946 24.1323 21.1948 23.8893 21.1948H21.1052V24.0192C21.1052 24.2639 20.9063 24.464 20.6411 24.464Z" fill="url(#paint16_linear)"/>
<path d="M23.5574 24.1305C23.447 24.1305 23.3365 24.0861 23.2481 23.9971L20.8396 21.573C20.6628 21.395 20.6628 21.1059 20.8396 20.928C21.0164 20.7501 21.3036 20.7501 21.4804 20.928L23.8889 23.3521C24.0657 23.5301 24.0657 23.8192 23.8889 23.9971C23.7784 24.0861 23.6679 24.1305 23.5574 24.1305Z" fill="url(#paint17_linear)"/>
<path d="M5.28177 16.9245C5.17129 16.9245 5.06081 16.8801 4.97242 16.7911C4.79565 16.6132 4.79565 16.3241 4.97242 16.1461L6.96108 14.1445L4.97242 12.143C4.79565 11.965 4.79565 11.6759 4.97242 11.498C5.14919 11.3201 5.43644 11.3201 5.61321 11.498L7.91122 13.8109C8.08799 13.9889 8.08799 14.278 7.91122 14.4559L5.59112 16.7911C5.50273 16.8801 5.39225 16.9245 5.28177 16.9245Z" fill="url(#paint18_linear)"/>
<path d="M2.25442 16.9245C2.14394 16.9245 2.03346 16.8801 1.94508 16.7911C1.76831 16.6132 1.76831 16.3241 1.94508 16.1461L3.93374 14.1445L1.94508 12.143C1.76831 11.965 1.76831 11.6759 1.94508 11.498C2.12185 11.3201 2.4091 11.3201 2.58587 11.498L4.88387 13.8109C5.06064 13.9889 5.06064 14.278 4.88387 14.4559L2.56377 16.7911C2.47539 16.8801 2.36491 16.9245 2.25442 16.9245Z" fill="url(#paint19_linear)"/>
<path d="M3.84474 14.6116H0.441924C0.198866 14.6116 0 14.4114 0 14.1668C0 13.9221 0.198866 13.722 0.441924 13.722H3.84474C4.0878 13.722 4.28666 13.9221 4.28666 14.1668C4.28666 14.3892 4.0878 14.6116 3.84474 14.6116Z" fill="url(#paint20_linear)"/>
<path d="M9.32544 9.9856H6.05521C5.81215 9.9856 5.61328 9.78544 5.61328 9.5408C5.61328 9.29616 5.81215 9.09601 6.05521 9.09601H8.86142V6.2493C8.86142 6.00466 9.06029 5.8045 9.30335 5.8045C9.54641 5.8045 9.74527 6.00466 9.74527 6.2493V9.5408C9.76737 9.78544 9.5685 9.9856 9.32544 9.9856Z" fill="url(#paint21_linear)"/>
<path d="M7.15882 7.82837H3.91067C3.66762 7.82837 3.46875 7.62821 3.46875 7.38358C3.46875 7.13894 3.66762 6.93878 3.91067 6.93878H6.71689V4.09208C6.71689 3.84744 6.91576 3.64728 7.15882 3.64728C7.40188 3.64728 7.60074 3.84744 7.60074 4.09208V7.36134C7.62284 7.62821 7.42397 7.82837 7.15882 7.82837Z" fill="url(#paint22_linear)"/>
<path d="M6.67329 7.31682C6.56281 7.31682 6.45233 7.27234 6.36394 7.18338L3.93336 4.75923C3.75659 4.58131 3.75659 4.29219 3.93336 4.11427C4.11013 3.93636 4.39738 3.93636 4.57415 4.11427L6.98264 6.56066C7.15941 6.73858 7.15941 7.0277 6.98264 7.20562C6.89425 7.27234 6.78377 7.31682 6.67329 7.31682Z" fill="url(#paint23_linear)"/>
<path d="M11.3348 20.3494C11.2685 20.3494 11.2243 20.3272 11.158 20.3049C10.9813 20.2382 10.8708 20.0603 10.8708 19.8601L11.0254 16.7243L7.90988 16.88C7.71101 16.88 7.53424 16.7688 7.46796 16.5909C7.40167 16.4129 7.44586 16.2128 7.57844 16.0794L9.89854 13.9666L7.60053 11.8983C7.46795 11.7648 7.42376 11.5647 7.49005 11.3867C7.55634 11.2088 7.73311 11.0976 7.93198 11.0976L11.0475 11.2533L10.8929 8.11748C10.8929 7.91732 11.0033 7.7394 11.1801 7.67268C11.3569 7.60596 11.5558 7.65044 11.6883 7.78388L13.7875 10.1191L15.8866 7.78388C16.0192 7.65044 16.2181 7.60596 16.3948 7.67268C16.5716 7.7394 16.6821 7.91732 16.6821 8.11748L16.4832 11.2755L19.5988 11.1199C19.7976 11.0976 19.9523 11.2311 20.0407 11.409C20.107 11.5869 20.0628 11.7871 19.9302 11.9205L17.6101 14.0333L19.9302 16.1461C20.0628 16.2795 20.107 16.4797 20.0407 16.6576C19.9744 16.8355 19.7976 16.9467 19.5988 16.9467L16.4832 16.7465L16.6379 19.8824C16.6379 20.0825 16.5274 20.2604 16.3506 20.3272C16.1739 20.3939 15.975 20.3494 15.8424 20.216L13.7433 17.8808L11.6441 20.216C11.5779 20.3049 11.4453 20.3494 11.3348 20.3494ZM13.7654 16.7465C13.898 16.7465 14.0084 16.791 14.0968 16.9022L15.6877 18.6592L15.5552 16.2795C15.5552 16.1461 15.5994 16.0349 15.6877 15.9459C15.7761 15.857 15.9087 15.8125 16.0192 15.8125L18.3835 15.9237L16.6158 14.3446C16.5274 14.2557 16.4832 14.1222 16.4832 14.011C16.4832 13.8776 16.5274 13.7664 16.6379 13.6774L18.3835 12.0984L16.0192 12.2096C15.8866 12.2096 15.7761 12.1651 15.6877 12.0762C15.5994 11.9872 15.5552 11.8538 15.5552 11.7426L15.6877 9.36291L14.0968 11.1199C14.0084 11.2088 13.898 11.2755 13.7654 11.2755C13.6328 11.2755 13.5223 11.2311 13.4339 11.1199L11.843 9.36291L11.9535 11.7426C11.9535 11.876 11.9093 11.9872 11.8209 12.0762C11.7325 12.1651 11.622 12.2096 11.4895 12.2096L9.12517 12.0984L10.8708 13.6774C10.9592 13.7664 11.0254 13.8776 11.0254 14.011C11.0254 14.1445 10.9813 14.2557 10.8708 14.3446L9.12517 15.9459L11.4895 15.8347C11.622 15.8347 11.7325 15.8792 11.8209 15.9682C11.9093 16.0571 11.9535 16.1906 11.9535 16.3018L11.843 18.6592L13.4118 16.9022C13.5002 16.791 13.6328 16.7465 13.7654 16.7465Z" fill="url(#paint24_linear)"/>
<path d="M34.7148 4.74291V2.88892H38.0305L41.3461 8.87466V4.74291H40.7146V2.88892H44.6354V4.74291H44.0039V10.967H44.6091V12.821H41.3198L38.0042 6.80878V12.821H35.3201V4.74291H34.7148Z" fill="#242440"/>
<path d="M49.5843 2.72998C49.8737 2.72998 50.1895 2.72998 50.5053 2.75647C50.8211 2.78295 51.1368 2.83592 51.4526 2.91538C51.7684 2.99484 52.0578 3.12726 52.3473 3.31266C52.6368 3.47158 52.8736 3.70995 53.1104 4.00129C53.3209 4.29263 53.5051 4.63694 53.6367 5.06071C53.7683 5.48448 53.8209 5.98771 53.8209 6.57039V8.84815C53.8209 9.74866 53.6893 10.4638 53.4525 11.02C53.2157 11.5497 52.8999 11.9735 52.5052 12.2648C52.1105 12.5561 51.6631 12.7415 51.1632 12.8475C50.6632 12.9534 50.1106 12.9799 49.5843 12.9799C49.0317 12.9799 48.5054 12.9269 48.0054 12.821C47.5054 12.715 47.0318 12.5296 46.6634 12.2383C46.2687 11.947 45.9529 11.5232 45.7161 10.9935C45.4792 10.4638 45.3477 9.72218 45.3477 8.84815V6.57039C45.3477 5.98771 45.4003 5.48448 45.5319 5.06071C45.6634 4.63694 45.8476 4.29263 46.0581 4.00129C46.2687 3.70995 46.5318 3.49806 46.8213 3.31266C47.1107 3.15375 47.4002 3.02132 47.716 2.91538C48.0317 2.83592 48.3475 2.78295 48.6633 2.75647C49.0054 2.75647 49.2948 2.72998 49.5843 2.72998ZM49.5843 4.63694C49.2948 4.63694 49.0317 4.68991 48.8475 4.82234C48.6633 4.92828 48.5054 5.11368 48.4001 5.32557C48.2949 5.53745 48.2159 5.82879 48.1896 6.17311C48.137 6.51742 48.137 6.9147 48.137 7.36496V8.42438C48.137 8.90112 48.1633 9.29841 48.1896 9.64272C48.2422 9.98703 48.2949 10.2519 48.4001 10.4638C48.5054 10.6757 48.6633 10.8346 48.8475 10.914C49.0317 11.02 49.2948 11.0465 49.5843 11.0465C49.8737 11.0465 50.1106 10.9935 50.2948 10.914C50.479 10.8081 50.6369 10.6757 50.7421 10.4638C50.8474 10.2519 50.9263 9.98703 50.979 9.64272C51.0316 9.29841 51.0316 8.90112 51.0316 8.42438V7.36496C51.0316 6.9147 51.0053 6.51742 50.979 6.17311C50.9263 5.82879 50.8737 5.53745 50.7684 5.32557C50.6632 5.11368 50.5053 4.92828 50.3211 4.82234C50.1369 4.68991 49.9001 4.63694 49.5843 4.63694Z" fill="#242440"/>
<path d="M58.3187 9.21897H57.7398V12.8475H55.2136V4.74291H54.582V2.88892H58.8713C59.2923 2.88892 59.766 2.9154 60.2397 2.96837C60.7396 3.02134 61.187 3.15377 61.5817 3.33917C62.0027 3.52457 62.3185 3.78943 62.608 4.16022C62.8711 4.50454 63.0027 4.98128 63.0027 5.56396V6.70284C63.0027 7.02067 62.9501 7.31201 62.8448 7.57686C62.7395 7.81523 62.608 8.02712 62.4238 8.21252C62.2396 8.39792 62.029 8.55683 61.7922 8.66277C61.5554 8.7952 61.3186 8.90114 61.0554 8.9806L62.2396 10.5433C62.529 10.9405 62.7922 11.2054 63.0027 11.3378C63.2132 11.4702 63.3974 11.5497 63.529 11.6027L62.5553 12.9799C62.4501 13.0064 62.3185 13.0329 62.1869 13.0329C62.0817 13.0329 61.9501 13.0329 61.7922 13.0064C61.6343 12.9799 61.4764 12.927 61.2922 12.8475C61.108 12.768 60.9238 12.6356 60.7396 12.4502C60.5554 12.2913 60.3449 12.0529 60.1344 11.7616L58.3187 9.21897ZM60.3712 6.17313C60.3712 5.74936 60.266 5.40505 60.0291 5.14019C59.7923 4.87533 59.4765 4.74291 59.0818 4.74291H57.7398V7.52389H59.0555C59.2134 7.52389 59.3713 7.49741 59.5292 7.44444C59.687 7.39147 59.8186 7.31201 59.9502 7.17958C60.0818 7.07364 60.187 6.91473 60.266 6.75581C60.3186 6.5969 60.3712 6.38501 60.3712 6.17313Z" fill="#242440"/>
<path d="M65.8172 5.35195H64.2383V2.8623H72.9221V5.32546H71.3432V5.06061C71.3432 4.95467 71.3169 4.87521 71.2906 4.82224C71.2643 4.76927 71.2116 4.74278 71.1327 4.68981H69.817V10.9139H70.4222V12.7679H66.6592V10.9139H67.2908V4.74278H65.975C65.8435 4.76927 65.7908 4.9017 65.7908 5.08709V5.35195H65.8172Z" fill="#242440"/>
<path d="M78.9769 4.74266V2.88867H82.8978V4.74266H82.2926V10.9668H82.8978V12.8208H78.9769V10.9668H79.6085V8.76847H77.1086V10.9668H77.7138V12.8208H73.793V10.9668H74.4245V4.74266H73.793V2.88867H77.7138V4.74266H77.1086V6.888H79.6085V4.74266H78.9769Z" fill="#242440"/>
<path d="M88.081 4.74291V2.88892H95.2386V4.74291H91.3703V6.88824H94.0018V8.7952H91.3703V10.9935H92.265V12.8475H88.0547V10.9935H88.6862V4.74291H88.081Z" fill="#242440"/>
<path d="M100.131 2.72998C100.421 2.72998 100.736 2.72998 101.052 2.75647C101.368 2.78295 101.684 2.83592 101.999 2.91538C102.315 2.99484 102.605 3.12726 102.894 3.31266C103.184 3.47158 103.42 3.70995 103.657 4.00129C103.894 4.29263 104.052 4.63694 104.184 5.06071C104.315 5.48448 104.368 5.98771 104.368 6.57039V8.84815C104.368 9.74866 104.236 10.4638 103.999 11.02C103.763 11.5497 103.447 11.9735 103.052 12.2648C102.657 12.5561 102.21 12.7415 101.71 12.8475C101.21 12.9534 100.657 12.9799 100.131 12.9799C99.5786 12.9799 99.0523 12.9269 98.5523 12.821C98.0523 12.715 97.5787 12.5296 97.2103 12.2383C96.8155 11.947 96.4998 11.5232 96.2629 10.9935C96.0261 10.4638 95.8945 9.72218 95.8945 8.84815V6.57039C95.8945 5.98771 95.9472 5.48448 96.0787 5.06071C96.2103 4.63694 96.3945 4.29263 96.605 4.00129C96.8155 3.70995 97.0787 3.49806 97.3681 3.31266C97.6576 3.15375 97.9471 3.02132 98.2628 2.91538C98.5786 2.83592 98.8944 2.78295 99.2102 2.75647C99.5522 2.75647 99.8417 2.72998 100.131 2.72998ZM100.131 4.63694C99.8417 4.63694 99.5786 4.68991 99.3944 4.82234C99.2102 4.92828 99.0523 5.11368 98.947 5.32557C98.8417 5.53745 98.7628 5.82879 98.7365 6.17311C98.6839 6.51742 98.6839 6.9147 98.6839 7.36496V8.42438C98.6839 8.90112 98.7102 9.29841 98.7365 9.64272C98.7891 9.98703 98.8417 10.2519 98.947 10.4638C99.0523 10.6757 99.2102 10.8346 99.3944 10.914C99.5786 11.02 99.8417 11.0465 100.131 11.0465C100.421 11.0465 100.657 10.9935 100.842 10.914C101.026 10.8081 101.184 10.6757 101.289 10.4638C101.394 10.2519 101.473 9.98703 101.526 9.64272C101.578 9.29841 101.578 8.90112 101.578 8.42438V7.36496C101.578 6.9147 101.552 6.51742 101.526 6.17311C101.473 5.82879 101.421 5.53745 101.315 5.32557C101.21 5.11368 101.052 4.92828 100.868 4.82234C100.684 4.68991 100.421 4.63694 100.131 4.63694Z" fill="#242440"/>
<path d="M108.842 9.21897H108.263V12.8475H105.737V4.74291H105.105V2.88892H109.395C109.816 2.88892 110.289 2.9154 110.763 2.96837C111.263 3.02134 111.71 3.15377 112.105 3.33917C112.526 3.52457 112.842 3.78943 113.131 4.16022C113.395 4.50454 113.526 4.98128 113.526 5.56396V6.70284C113.526 7.02067 113.473 7.31201 113.368 7.57686C113.263 7.81523 113.131 8.02712 112.947 8.21252C112.763 8.39792 112.552 8.55683 112.316 8.66277C112.079 8.7952 111.842 8.90114 111.579 8.9806L112.763 10.5433C113.052 10.9405 113.316 11.2054 113.526 11.3378C113.737 11.4702 113.921 11.5497 114.052 11.6027L113.079 12.9799C112.973 13.0064 112.842 13.0329 112.71 13.0329C112.605 13.0329 112.474 13.0329 112.316 13.0064C112.158 12.9799 112 12.927 111.816 12.8475C111.631 12.768 111.447 12.6356 111.263 12.4502C111.079 12.2913 110.868 12.0529 110.658 11.7616L108.842 9.21897ZM110.895 6.17313C110.895 5.74936 110.789 5.40505 110.553 5.14019C110.316 4.87533 110 4.74291 109.605 4.74291H108.263V7.52389H109.579C109.737 7.52389 109.895 7.49741 110.053 7.44444C110.21 7.39147 110.342 7.31201 110.474 7.17958C110.605 7.07364 110.71 6.91473 110.789 6.75581C110.868 6.5969 110.895 6.38501 110.895 6.17313Z" fill="#242440"/>
<path d="M118.762 4.74266V2.88867H121.577L123.367 5.961L125.367 2.88867H128.051V4.74266H126.867L124.735 8.29173V10.9668H125.367V12.8208H121.446V10.9668H122.077V8.31822L119.998 4.74266H118.762Z" fill="#242440"/>
<path d="M133.026 2.72998C133.315 2.72998 133.631 2.72998 133.947 2.75647C134.262 2.78295 134.578 2.83592 134.894 2.91538C135.21 2.99484 135.499 3.12726 135.789 3.31266C136.078 3.47158 136.315 3.70995 136.552 4.00129C136.789 4.29263 136.947 4.63694 137.078 5.06071C137.21 5.48448 137.262 5.98771 137.262 6.57039V8.84815C137.262 9.74866 137.131 10.4638 136.894 11.02C136.657 11.5497 136.341 11.9735 135.947 12.2648C135.552 12.5561 135.105 12.7415 134.605 12.8475C134.105 12.9534 133.552 12.9799 133.026 12.9799C132.473 12.9799 131.947 12.9269 131.447 12.821C130.947 12.715 130.473 12.5296 130.105 12.2383C129.71 11.947 129.394 11.5232 129.157 10.9935C128.921 10.4638 128.789 9.72218 128.789 8.84815V6.57039C128.789 5.98771 128.842 5.48448 128.973 5.06071C129.105 4.63694 129.289 4.29263 129.5 4.00129C129.71 3.70995 129.973 3.49806 130.263 3.31266C130.552 3.15375 130.842 3.02132 131.157 2.91538C131.473 2.83592 131.789 2.78295 132.105 2.75647C132.447 2.75647 132.736 2.72998 133.026 2.72998ZM133.026 4.63694C132.736 4.63694 132.473 4.68991 132.289 4.82234C132.105 4.92828 131.947 5.11368 131.842 5.32557C131.736 5.53745 131.657 5.82879 131.631 6.17311C131.578 6.51742 131.578 6.9147 131.578 7.36496V8.42438C131.578 8.90112 131.605 9.29841 131.631 9.64272C131.684 9.98703 131.736 10.2519 131.842 10.4638C131.947 10.6757 132.105 10.8346 132.289 10.914C132.473 11.02 132.736 11.0465 133.026 11.0465C133.315 11.0465 133.552 10.9935 133.736 10.914C133.92 10.8081 134.078 10.6757 134.184 10.4638C134.289 10.2519 134.368 9.98703 134.42 9.64272C134.473 9.29841 134.473 8.90112 134.473 8.42438V7.36496C134.473 6.9147 134.447 6.51742 134.42 6.17311C134.368 5.82879 134.315 5.53745 134.21 5.32557C134.105 5.11368 133.947 4.92828 133.762 4.82234C133.578 4.68991 133.341 4.63694 133.026 4.63694Z" fill="#242440"/>
<path d="M146.632 9.16588C146.632 9.74856 146.553 10.2518 146.421 10.6756C146.29 11.0993 146.106 11.4436 145.895 11.735C145.684 12.0263 145.421 12.2382 145.132 12.4236C144.842 12.5825 144.527 12.7149 144.237 12.7944C143.921 12.8739 143.632 12.9268 143.316 12.9533C143 12.9798 142.737 13.0063 142.474 13.0063C142.211 13.0063 141.948 12.9798 141.632 12.9533C141.343 12.9268 141.027 12.8739 140.711 12.7944C140.395 12.7149 140.106 12.5825 139.816 12.4236C139.527 12.2647 139.264 12.0263 139.053 11.735C138.843 11.4436 138.658 11.0993 138.527 10.6756C138.395 10.2518 138.316 9.74856 138.316 9.16588V2.8623H140.974V8.60968C140.974 9.19236 141.027 9.64262 141.132 9.96044C141.237 10.2783 141.343 10.5431 141.5 10.702C141.658 10.861 141.816 10.9669 142 11.0199C142.185 11.0728 142.343 11.0728 142.5 11.0728C142.658 11.0728 142.816 11.0464 143 11.0199C143.185 10.9669 143.342 10.8874 143.5 10.702C143.658 10.5431 143.764 10.3048 143.869 9.96044C143.974 9.64262 144.027 9.19236 144.027 8.63616V2.8623H146.632V9.16588Z" fill="#242440"/>
<g opacity="0.8">
<path d="M36.9246 23.8677C38.113 23.8677 38.9837 23.1651 39.1051 22.1237H38.1986C38.0737 22.7014 37.5777 23.0688 36.9246 23.0688C36.0467 23.0688 35.5007 22.3377 35.5007 21.1643C35.5007 19.9944 36.0467 19.2633 36.9211 19.2633C37.5706 19.2633 38.0666 19.6663 38.1951 20.2869H39.1015C38.9945 19.2205 38.0916 18.4644 36.9211 18.4644C35.4615 18.4644 34.5586 19.4951 34.5586 21.1678C34.5586 22.8334 35.465 23.8677 36.9246 23.8677Z" fill="#93A0AD"/>
<path d="M43.5338 22.9654H41.1214V21.4924H43.4018V20.7612H41.1214V19.3667H43.5338V18.5928H40.2007V23.7393H43.5338V22.9654Z" fill="#93A0AD"/>
<path d="M46.949 23.7393C48.0482 23.7393 48.7191 23.1829 48.7191 22.277C48.7191 21.6065 48.2409 21.1072 47.5486 21.043V20.9788C48.066 20.8968 48.4657 20.4188 48.4657 19.8767C48.4657 19.0849 47.8769 18.5928 46.8991 18.5928H44.7472V23.7393H46.949ZM45.6679 19.3096H46.6742C47.231 19.3096 47.5557 19.5771 47.5557 20.0372C47.5557 20.508 47.2095 20.7612 46.5565 20.7612H45.6679V19.3096ZM45.6679 23.0224V21.4139H46.7028C47.4058 21.4139 47.777 21.6885 47.777 22.2128C47.777 22.7407 47.4165 23.0224 46.7385 23.0224H45.6679Z" fill="#93A0AD"/>
<path d="M53.1264 22.9654H50.714V21.4924H52.9944V20.7612H50.714V19.3667H53.1264V18.5928H49.7933V23.7393H53.1264V22.9654Z" fill="#93A0AD"/>
<path d="M54.3397 18.5928V23.7393H55.2605V22.0381H56.3775C57.4195 22.0381 58.1475 21.3426 58.1475 20.3261C58.1475 19.2918 57.4445 18.5928 56.4167 18.5928H54.3397ZM55.2605 19.3453H56.174C56.8378 19.3453 57.2125 19.6877 57.2125 20.3261C57.2125 20.9467 56.8271 21.2962 56.1705 21.2962H55.2605V19.3453Z" fill="#93A0AD"/>
<path d="M61.4949 23.7393H65.0672V24.7558H65.9058V22.9618H65.2635V18.5928H61.7305L61.5485 21.6208C61.5056 22.3091 61.3879 22.7335 61.0239 22.9618H60.6563V24.7558H61.4949V23.7393ZM62.3978 21.6778L62.5441 19.3667H64.3427V22.9618H62.0588V22.9083C62.2872 22.6337 62.3621 22.2449 62.3978 21.6778Z" fill="#93A0AD"/>
<path d="M70.9555 23.7393V18.5928H67.5224L67.3583 21.6921C67.319 22.4161 67.1905 22.9547 66.6481 22.9547C66.566 22.9547 66.4697 22.9404 66.4233 22.9297V23.7358C66.4911 23.7572 66.616 23.7786 66.7623 23.7786C67.7722 23.7786 68.1362 23.001 68.2112 21.7456L68.3504 19.3667H70.0383V23.7393H70.9555Z" fill="#93A0AD"/>
<path d="M74.2993 21.8383H75.1201V23.7393H76.0337V18.5928H74.0103C72.929 18.5928 72.2188 19.2561 72.2188 20.2262C72.2188 20.9645 72.6827 21.5209 73.3679 21.7135L71.969 23.7393H73.0039L74.2993 21.8383ZM75.1201 21.1179H74.1673C73.5321 21.1179 73.1609 20.7933 73.1609 20.2298C73.1609 19.6699 73.5321 19.3417 74.1673 19.3417H75.1201V21.1179Z" fill="#93A0AD"/>
<path d="M81.5295 23.7393C82.6286 23.7393 83.2995 23.1829 83.2995 22.277C83.2995 21.6065 82.8213 21.1072 82.129 21.043V20.9788C82.6465 20.8968 83.0462 20.4188 83.0462 19.8767C83.0462 19.0849 82.4573 18.5928 81.4795 18.5928H79.3276V23.7393H81.5295ZM80.2483 19.3096H81.2547C81.8114 19.3096 82.1361 19.5771 82.1361 20.0372C82.1361 20.508 81.79 20.7612 81.1369 20.7612H80.2483V19.3096ZM80.2483 23.0224V21.4139H81.2832C81.9863 21.4139 82.3574 21.6885 82.3574 22.2128C82.3574 22.7407 81.997 23.0224 81.3189 23.0224H80.2483Z" fill="#93A0AD"/>
<path d="M87.6319 23.7393H88.6204L86.7897 18.5928H85.7548L83.9276 23.7393H84.859L85.3016 22.409H87.1965L87.6319 23.7393ZM86.2223 19.5593H86.2829L86.9824 21.6992H85.5157L86.2223 19.5593Z" fill="#93A0AD"/>
<path d="M91.4825 23.8677C92.6709 23.8677 93.5416 23.1651 93.663 22.1237H92.7565C92.6316 22.7014 92.1356 23.0688 91.4825 23.0688C90.6046 23.0688 90.0586 22.3377 90.0586 21.1643C90.0586 19.9944 90.6046 19.2633 91.4789 19.2633C92.1284 19.2633 92.6245 19.6663 92.7529 20.2869H93.6594C93.5523 19.2205 92.6495 18.4644 91.4789 18.4644C90.0193 18.4644 89.1165 19.4951 89.1165 21.1678C89.1165 22.8334 90.0229 23.8677 91.4825 23.8677Z" fill="#93A0AD"/>
</g>
</g>
<defs>
<linearGradient id="paint0_linear" x1="10.8945" y1="4.87054" x2="12.8424" y2="9.57579" gradientUnits="userSpaceOnUse">
<stop stop-color="#00D8F5"/>
<stop offset="1" stop-color="#00D689"/>
</linearGradient>
<linearGradient id="paint1_linear" x1="10.8945" y1="1.82367" x2="12.8424" y2="6.52891" gradientUnits="userSpaceOnUse">
<stop stop-color="#00D8F5"/>
<stop offset="1" stop-color="#00D689"/>
</linearGradient>
<linearGradient id="paint2_linear" x1="13.2148" y1="0" x2="15.1825" y2="0.565504" gradientUnits="userSpaceOnUse">
<stop stop-color="#00D8F5"/>
<stop offset="1" stop-color="#00D689"/>
</linearGradient>
<linearGradient id="paint3_linear" x1="10.8945" y1="19.9048" x2="12.8424" y2="24.61" gradientUnits="userSpaceOnUse">
<stop stop-color="#00D8F5"/>
<stop offset="1" stop-color="#00D689"/>
</linearGradient>
<linearGradient id="paint4_linear" x1="10.8945" y1="22.9517" x2="12.8479" y2="27.6514" gradientUnits="userSpaceOnUse">
<stop stop-color="#00D8F5"/>
<stop offset="1" stop-color="#00D689"/>
</linearGradient>
<linearGradient id="paint5_linear" x1="13.2148" y1="23.6855" x2="15.181" y2="24.2535" gradientUnits="userSpaceOnUse">
<stop stop-color="#00D8F5"/>
<stop offset="1" stop-color="#00D689"/>
</linearGradient>
<linearGradient id="paint6_linear" x1="5.65625" y1="17.792" x2="9.03533" y2="22.5262" gradientUnits="userSpaceOnUse">
<stop stop-color="#00D8F5"/>
<stop offset="1" stop-color="#00D689"/>
</linearGradient>
<linearGradient id="paint7_linear" x1="3.51172" y1="19.9492" x2="6.89618" y2="24.6677" gradientUnits="userSpaceOnUse">
<stop stop-color="#00D8F5"/>
<stop offset="1" stop-color="#00D689"/>
</linearGradient>
<linearGradient id="paint8_linear" x1="3.86719" y1="20.4385" x2="6.56327" y2="24.2158" gradientUnits="userSpaceOnUse">
<stop stop-color="#00D8F5"/>
<stop offset="1" stop-color="#00D689"/>
</linearGradient>
<linearGradient id="paint9_linear" x1="19.4883" y1="11.3868" x2="24.1243" y2="15.1693" gradientUnits="userSpaceOnUse">
<stop stop-color="#00D8F5"/>
<stop offset="1" stop-color="#00D689"/>
</linearGradient>
<linearGradient id="paint10_linear" x1="22.5156" y1="11.3868" x2="27.1517" y2="15.1693" gradientUnits="userSpaceOnUse">
<stop stop-color="#00D8F5"/>
<stop offset="1" stop-color="#00D689"/>
</linearGradient>
<linearGradient id="paint11_linear" x1="23.2227" y1="13.722" x2="23.4416" y2="15.2102" gradientUnits="userSpaceOnUse">
<stop stop-color="#00D8F5"/>
<stop offset="1" stop-color="#00D689"/>
</linearGradient>
<linearGradient id="paint12_linear" x1="17.6992" y1="5.9826" x2="21.0837" y2="10.7011" gradientUnits="userSpaceOnUse">
<stop stop-color="#00D8F5"/>
<stop offset="1" stop-color="#00D689"/>
</linearGradient>
<linearGradient id="paint13_linear" x1="19.8633" y1="3.82532" x2="23.2482" y2="8.5425" gradientUnits="userSpaceOnUse">
<stop stop-color="#00D8F5"/>
<stop offset="1" stop-color="#00D689"/>
</linearGradient>
<linearGradient id="paint14_linear" x1="20.3516" y1="4.18115" x2="23.0238" y2="7.95021" gradientUnits="userSpaceOnUse">
<stop stop-color="#00D8F5"/>
<stop offset="1" stop-color="#00D689"/>
</linearGradient>
<linearGradient id="paint15_linear" x1="18.0547" y1="18.1479" x2="21.4099" y2="22.8739" gradientUnits="userSpaceOnUse">
<stop stop-color="#00D8F5"/>
<stop offset="1" stop-color="#00D689"/>
</linearGradient>
<linearGradient id="paint16_linear" x1="20.1992" y1="20.3052" x2="23.5603" y2="25.0143" gradientUnits="userSpaceOnUse">
<stop stop-color="#00D8F5"/>
<stop offset="1" stop-color="#00D689"/>
</linearGradient>
<linearGradient id="paint17_linear" x1="20.707" y1="20.7946" x2="23.4031" y2="24.5719" gradientUnits="userSpaceOnUse">
<stop stop-color="#00D8F5"/>
<stop offset="1" stop-color="#00D689"/>
</linearGradient>
<linearGradient id="paint18_linear" x1="4.83984" y1="11.3646" x2="9.49074" y2="15.1439" gradientUnits="userSpaceOnUse">
<stop stop-color="#00D8F5"/>
<stop offset="1" stop-color="#00D689"/>
</linearGradient>
<linearGradient id="paint19_linear" x1="1.8125" y1="11.3646" x2="6.46339" y2="15.1439" gradientUnits="userSpaceOnUse">
<stop stop-color="#00D8F5"/>
<stop offset="1" stop-color="#00D689"/>
</linearGradient>
<linearGradient id="paint20_linear" x1="0" y1="13.722" x2="0.219012" y2="15.2102" gradientUnits="userSpaceOnUse">
<stop stop-color="#00D8F5"/>
<stop offset="1" stop-color="#00D689"/>
</linearGradient>
<linearGradient id="paint21_linear" x1="5.61328" y1="5.8045" x2="8.99774" y2="10.523" gradientUnits="userSpaceOnUse">
<stop stop-color="#00D8F5"/>
<stop offset="1" stop-color="#00D689"/>
</linearGradient>
<linearGradient id="paint22_linear" x1="3.46875" y1="3.64728" x2="6.85321" y2="8.36576" gradientUnits="userSpaceOnUse">
<stop stop-color="#00D8F5"/>
<stop offset="1" stop-color="#00D689"/>
</linearGradient>
<linearGradient id="paint23_linear" x1="3.80078" y1="3.98083" x2="6.49686" y2="7.75817" gradientUnits="userSpaceOnUse">
<stop stop-color="#00D8F5"/>
<stop offset="1" stop-color="#00D689"/>
</linearGradient>
<linearGradient id="paint24_linear" x1="7.4375" y1="7.64203" x2="17.7142" y2="22.0401" gradientUnits="userSpaceOnUse">
<stop stop-color="#00D8F5"/>
<stop offset="1" stop-color="#00D689"/>
</linearGradient>
<clipPath id="clip0">
<rect width="148" height="28" fill="white"/>
</clipPath>
</defs>
</svg>
