<svg width="220" height="42" viewBox="0 0 220 42" fill="none" xmlns="http://www.w3.org/2000/svg">
<g clip-path="url(#clip0)">
<path d="M20.2971 12.143C20.1329 12.143 19.9358 12.0762 19.8373 11.9428L16.3885 8.47338C16.1257 8.2065 16.1257 7.77282 16.3885 7.50594C16.6512 7.23907 17.0782 7.23907 17.341 7.50594L20.2971 10.5083L23.2532 7.50594C23.516 7.23907 23.943 7.23907 24.2058 7.50594C24.4685 7.77282 24.4685 8.2065 24.2058 8.47338L20.757 11.9428C20.6256 12.0762 20.4614 12.143 20.2971 12.143Z" fill="#242440"/>
<path d="M20.2971 7.57265C20.1329 7.57265 19.9358 7.50593 19.8373 7.37249L16.3885 3.90307C16.1257 3.63619 16.1257 3.20251 16.3885 2.93563C16.6512 2.66875 17.0782 2.66875 17.341 2.93563L20.2971 5.93801L23.2532 2.93563C23.516 2.66875 23.943 2.66875 24.2058 2.93563C24.4685 3.20251 24.4685 3.63619 24.2058 3.90307L20.757 7.37249C20.6256 7.50593 20.4614 7.57265 20.2971 7.57265Z" fill="#242440"/>
<path d="M20.2975 6.50516C19.9362 6.50516 19.6406 6.20492 19.6406 5.83797V0.667196C19.6406 0.300238 19.9362 0 20.2975 0C20.6588 0 20.9545 0.300238 20.9545 0.667196V5.80461C20.9545 6.20492 20.6588 6.50516 20.2975 6.50516Z" fill="#242440"/>
<path d="M23.7131 34.6942C23.5488 34.6942 23.3846 34.6275 23.2532 34.4941L20.2971 31.4917L17.341 34.4941C17.0782 34.7609 16.6512 34.7609 16.3885 34.4941C16.1257 34.2272 16.1257 33.7935 16.3885 33.5266L19.8044 30.0572C20.0672 29.7903 20.4942 29.7903 20.757 30.0572L24.2058 33.5266C24.4685 33.7935 24.4685 34.2272 24.2058 34.4941C24.0744 34.6275 23.8773 34.6942 23.7131 34.6942Z" fill="#242440"/>
<path d="M23.7131 39.2645C23.5488 39.2645 23.3846 39.1978 23.2532 39.0644L20.2971 36.062L17.341 39.0644C17.0782 39.3313 16.6512 39.3313 16.3885 39.0644C16.1257 38.7975 16.1257 38.3638 16.3885 38.0969L19.8044 34.6275C20.0672 34.3606 20.4942 34.3606 20.757 34.6275L24.1729 38.0969C24.4357 38.3638 24.4357 38.7975 24.1729 39.0644C24.0744 39.1978 23.8773 39.2645 23.7131 39.2645Z" fill="#242440"/>
<path d="M20.2975 42C19.9362 42 19.6406 41.6998 19.6406 41.3328V36.1954C19.6406 35.8284 19.9362 35.5282 20.2975 35.5282C20.6588 35.5282 20.9545 35.8284 20.9545 36.1954V41.3328C20.9545 41.6998 20.6588 42 20.2975 42Z" fill="#242440"/>
<path d="M13.9282 32.9595C13.5669 32.9595 13.2713 32.6593 13.2713 32.2923V28.0223H9.06707C8.70577 28.0223 8.41016 27.722 8.41016 27.3551C8.41016 26.9881 8.70577 26.6879 9.06707 26.6879H13.9282C14.2895 26.6879 14.5852 26.9881 14.5852 27.3551V32.2589C14.5852 32.6593 14.2895 32.9595 13.9282 32.9595Z" fill="#242440"/>
<path d="M10.7407 36.1953C10.3794 36.1953 10.0838 35.8951 10.0838 35.5282V31.2581H5.87957C5.51827 31.2581 5.22266 30.9579 5.22266 30.5909C5.22266 30.2239 5.51827 29.9237 5.87957 29.9237H10.7079C11.0692 29.9237 11.3648 30.2239 11.3648 30.5909V35.5282C11.3977 35.8951 11.102 36.1953 10.7407 36.1953Z" fill="#242440"/>
<path d="M6.40691 35.6617C6.24269 35.6617 6.07846 35.595 5.94707 35.4615C5.68431 35.1947 5.68431 34.761 5.94707 34.4941L9.52726 30.8579C9.79002 30.591 10.217 30.591 10.4798 30.8579C10.7425 31.1248 10.7425 31.5584 10.4798 31.8253L6.8996 35.4615C6.76822 35.595 6.57114 35.6617 6.40691 35.6617Z" fill="#242440"/>
<path d="M33.0416 25.3868C32.8774 25.3868 32.7132 25.3201 32.5818 25.1866L29.1658 21.7172C28.9031 21.4503 28.9031 21.0167 29.1658 20.7498L32.5818 17.2804C32.8445 17.0135 33.2715 17.0135 33.5343 17.2804C33.7971 17.5472 33.7971 17.9809 33.5343 18.2478L30.5782 21.2502L33.5343 24.2526C33.7971 24.5194 33.7971 24.9531 33.5343 25.22C33.4029 25.3201 33.2058 25.3868 33.0416 25.3868Z" fill="#242440"/>
<path d="M37.5416 25.3868C37.3774 25.3868 37.2132 25.3201 37.0818 25.1866L33.6658 21.7172C33.4031 21.4503 33.4031 21.0167 33.6658 20.7498L37.0818 17.2804C37.3445 17.0135 37.7715 17.0135 38.0343 17.2804C38.2971 17.5472 38.2971 17.9809 38.0343 18.2478L35.0782 21.2502L38.0343 24.2526C38.2971 24.5194 38.2971 24.9531 38.0343 25.22C37.9029 25.3201 37.7387 25.3868 37.5416 25.3868Z" fill="#242440"/>
<path d="M40.2347 21.9174H35.1764C34.8151 21.9174 34.5195 21.6172 34.5195 21.2502C34.5195 20.8832 34.8151 20.583 35.1764 20.583H40.2347C40.596 20.583 40.8916 20.8832 40.8916 21.2502C40.9244 21.5838 40.6288 21.9174 40.2347 21.9174Z" fill="#242440"/>
<path d="M31.8267 15.2455H26.9655C26.6042 15.2455 26.3086 14.9453 26.3086 14.5783V9.64107C26.3086 9.27412 26.6042 8.97388 26.9655 8.97388C27.3268 8.97388 27.6224 9.27412 27.6224 9.64107V13.8778H31.7938C32.1551 13.8778 32.4507 14.178 32.4507 14.545C32.4836 14.9453 32.188 15.2455 31.8267 15.2455Z" fill="#242440"/>
<path d="M35.0126 12.0096H30.1843C29.823 12.0096 29.5273 11.7093 29.5273 11.3424V6.40511C29.5273 6.03815 29.823 5.73792 30.1843 5.73792C30.5456 5.73792 30.8412 6.03815 30.8412 6.40511V10.6418H35.0126C35.3739 10.6418 35.6695 10.942 35.6695 11.309C35.6695 11.676 35.3739 12.0096 35.0126 12.0096Z" fill="#242440"/>
<path d="M30.9069 11.2423C30.7427 11.2423 30.5785 11.1756 30.4471 11.0422C30.1843 10.7753 30.1843 10.3416 30.4471 10.0747L34.0273 6.47189C34.29 6.20501 34.717 6.20501 34.9798 6.47189C35.2426 6.73877 35.2426 7.17244 34.9798 7.43932L31.3996 11.0422C31.2682 11.1756 31.0711 11.2423 30.9069 11.2423Z" fill="#242440"/>
<path d="M27.4929 33.4598C27.1315 33.4598 26.8359 33.1596 26.8359 32.7926V27.8888C26.8359 27.5218 27.1315 27.2216 27.4929 27.2216H32.354C32.7153 27.2216 33.0109 27.5218 33.0109 27.8888C33.0109 28.2557 32.7153 28.556 32.354 28.556H28.1826V32.7926C28.1826 33.1596 27.887 33.4598 27.4929 33.4598Z" fill="#242440"/>
<path d="M30.6804 36.6958C30.319 36.6958 30.0234 36.3956 30.0234 36.0286V31.1247C30.0234 30.7578 30.319 30.4575 30.6804 30.4575H35.5087C35.87 30.4575 36.1656 30.7578 36.1656 31.1247C36.1656 31.4917 35.87 31.7919 35.5087 31.7919H31.3701V36.0286C31.3701 36.3956 31.0745 36.6958 30.6804 36.6958Z" fill="#242440"/>
<path d="M35.0144 36.1954C34.8502 36.1954 34.686 36.1287 34.5546 35.9952L30.9744 32.359C30.7117 32.0921 30.7117 31.6584 30.9744 31.3916C31.2372 31.1247 31.6642 31.1247 31.9269 31.3916L35.5071 35.0278C35.7699 35.2947 35.7699 35.7283 35.5071 35.9952C35.3429 36.1287 35.1787 36.1954 35.0144 36.1954Z" fill="#242440"/>
<path d="M7.84832 25.3868C7.68409 25.3868 7.51986 25.3201 7.38848 25.1867C7.12571 24.9198 7.12571 24.4861 7.38848 24.2192L10.3446 21.2169L7.38848 18.2145C7.12571 17.9476 7.12571 17.5139 7.38848 17.247C7.65125 16.9802 8.07824 16.9802 8.34101 17.247L11.757 20.7165C12.0197 20.9833 12.0197 21.417 11.757 21.6839L8.30816 25.1867C8.17678 25.3201 8.01255 25.3868 7.84832 25.3868Z" fill="#242440"/>
<path d="M3.34832 25.3868C3.18409 25.3868 3.01986 25.3201 2.88848 25.1867C2.62571 24.9198 2.62571 24.4861 2.88848 24.2192L5.8446 21.2169L2.88848 18.2145C2.62571 17.9476 2.62571 17.5139 2.88848 17.247C3.15125 16.9802 3.57824 16.9802 3.84101 17.247L7.25696 20.7165C7.51973 20.9833 7.51973 21.417 7.25696 21.6839L3.80816 25.1867C3.67678 25.3201 3.51255 25.3868 3.34832 25.3868Z" fill="#242440"/>
<path d="M5.71515 21.9174H0.656914C0.295611 21.9174 0 21.6172 0 21.2502C0 20.8832 0.295611 20.583 0.656914 20.583H5.71515C6.07646 20.583 6.37207 20.8832 6.37207 21.2502C6.37207 21.5838 6.07646 21.9174 5.71515 21.9174Z" fill="#242440"/>
<path d="M13.8618 14.9786H9.00066C8.63936 14.9786 8.34375 14.6783 8.34375 14.3114C8.34375 13.9444 8.63936 13.6442 9.00066 13.6442H13.1721V9.37411C13.1721 9.00715 13.4677 8.70691 13.829 8.70691C14.1903 8.70691 14.4859 9.00715 14.4859 9.37411V14.3114C14.5187 14.6783 14.2231 14.9786 13.8618 14.9786Z" fill="#242440"/>
<path d="M10.6415 11.7426H5.81316C5.45186 11.7426 5.15625 11.4424 5.15625 11.0754C5.15625 10.7084 5.45186 10.4082 5.81316 10.4082H9.98457V6.13814C9.98457 5.77119 10.2802 5.47095 10.6415 5.47095C11.0028 5.47095 11.2984 5.77119 11.2984 6.13814V11.042C11.3312 11.4424 11.0356 11.7426 10.6415 11.7426Z" fill="#242440"/>
<path d="M9.91838 10.9753C9.75415 10.9753 9.58992 10.9086 9.45854 10.7751L5.84551 7.13891C5.58275 6.87203 5.58275 6.43835 5.84551 6.17147C6.10828 5.90459 6.53527 5.90459 6.79804 6.17147L10.3782 9.84105C10.641 10.1079 10.641 10.5416 10.3782 10.8085C10.2468 10.9086 10.0826 10.9753 9.91838 10.9753Z" fill="#242440"/>
<path d="M16.848 30.5242C16.7494 30.5242 16.6837 30.4908 16.5852 30.4575C16.3224 30.3574 16.1582 30.0905 16.1582 29.7903L16.3881 25.0866L11.7569 25.3201C11.4613 25.3201 11.1985 25.1533 11.1 24.8864C11.0014 24.6195 11.0671 24.3193 11.2642 24.1191L14.713 20.9499L11.297 17.8475C11.1 17.6473 11.0343 17.3471 11.1328 17.0802C11.2313 16.8133 11.4941 16.6465 11.7897 16.6465L16.421 16.88L16.191 12.1763C16.191 11.8761 16.3553 11.6092 16.618 11.5091C16.8808 11.409 17.1764 11.4758 17.3735 11.6759L20.4938 15.1787L23.6142 11.6759C23.8113 11.4758 24.1069 11.409 24.3696 11.5091C24.6324 11.6092 24.7966 11.8761 24.7966 12.1763L24.501 16.9134L29.1323 16.6799C29.4279 16.6465 29.6578 16.8467 29.7892 17.1136C29.8877 17.3804 29.822 17.6807 29.6249 17.8808L26.1761 21.05L29.6249 24.2192C29.822 24.4194 29.8877 24.7196 29.7892 24.9865C29.6906 25.2534 29.4279 25.4202 29.1323 25.4202L24.501 25.1199L24.7309 29.8236C24.7309 30.1239 24.5667 30.3908 24.3039 30.4908C24.0412 30.5909 23.7456 30.5242 23.5485 30.324L20.4281 26.8213L17.3078 30.324C17.2093 30.4575 17.0122 30.5242 16.848 30.5242ZM20.461 25.1199C20.6581 25.1199 20.8223 25.1866 20.9537 25.3534L23.3186 27.9889L23.1215 24.4194C23.1215 24.2192 23.1872 24.0524 23.3186 23.919C23.4499 23.7855 23.647 23.7188 23.8113 23.7188L27.3257 23.8856L24.6981 21.5171C24.5667 21.3836 24.501 21.1835 24.501 21.0167C24.501 20.8165 24.5667 20.6497 24.7309 20.5163L27.3257 18.1477L23.8113 18.3145C23.6142 18.3145 23.4499 18.2478 23.3186 18.1144C23.1872 17.9809 23.1215 17.7808 23.1215 17.614L23.3186 14.0445L20.9537 16.6799C20.8223 16.8133 20.6581 16.9134 20.461 16.9134C20.2639 16.9134 20.0997 16.8467 19.9683 16.6799L17.6034 14.0445L17.7676 17.614C17.7676 17.8141 17.7019 17.9809 17.5706 18.1144C17.4392 18.2478 17.275 18.3145 17.0779 18.3145L13.5634 18.1477L16.1582 20.5163C16.2896 20.6497 16.3881 20.8165 16.3881 21.0167C16.3881 21.2168 16.3224 21.3836 16.1582 21.5171L13.5634 23.919L17.0779 23.7522C17.275 23.7522 17.4392 23.8189 17.5706 23.9523C17.7019 24.0858 17.7676 24.2859 17.7676 24.4527L17.6034 27.9889L19.9355 25.3534C20.0668 25.1866 20.2639 25.1199 20.461 25.1199Z" fill="#242440"/>
<path d="M51.6055 7.11424V4.33325H56.5341L61.4627 13.3119V7.11424H60.524V4.33325H66.3523V7.11424H65.4135V16.4504H66.3131V19.2314H61.4236L56.495 10.2131V19.2314H52.5051V7.11424H51.6055Z" fill="#242440"/>
<path d="M73.7079 4.09485C74.1381 4.09485 74.6075 4.09485 75.0769 4.13458C75.5463 4.17431 76.0157 4.25376 76.4851 4.37295C76.9545 4.49213 77.3848 4.69077 77.815 4.96887C78.2453 5.20724 78.5974 5.5648 78.9494 6.00181C79.2623 6.43882 79.5362 6.95529 79.7317 7.59095C79.9273 8.2266 80.0056 8.98144 80.0056 9.85546V13.2721C80.0056 14.6229 79.81 15.6955 79.4579 16.5298C79.1059 17.3244 78.6365 17.9601 78.0497 18.3971C77.463 18.8341 76.798 19.1122 76.0548 19.2711C75.3116 19.43 74.4902 19.4697 73.7079 19.4697C72.8864 19.4697 72.1041 19.3903 71.3609 19.2314C70.6177 19.0724 69.9136 18.7944 69.366 18.3573C68.7792 17.9203 68.3098 17.2847 67.9578 16.4901C67.6057 15.6955 67.4102 14.5831 67.4102 13.2721V9.85546C67.4102 8.98144 67.4884 8.2266 67.684 7.59095C67.8795 6.95529 68.1534 6.43882 68.4663 6.00181C68.7792 5.5648 69.1704 5.24697 69.6007 4.96887C70.0309 4.7305 70.4612 4.53186 70.9306 4.37295C71.4 4.25376 71.8694 4.17431 72.3388 4.13458C72.8473 4.13458 73.2776 4.09485 73.7079 4.09485ZM73.7079 6.95529C73.2776 6.95529 72.8864 7.03475 72.6126 7.23339C72.3388 7.3923 72.1041 7.6704 71.9476 7.98823C71.7912 8.30606 71.6738 8.74307 71.6347 9.25954C71.5565 9.77601 71.5565 10.3719 71.5565 11.0473V12.6365C71.5565 13.3516 71.5956 13.9475 71.6347 14.464C71.7129 14.9804 71.7912 15.3777 71.9476 15.6955C72.1041 16.0134 72.3388 16.2517 72.6126 16.3709C72.8864 16.5298 73.2776 16.5696 73.7079 16.5696C74.1381 16.5696 74.4902 16.4901 74.764 16.3709C75.0378 16.212 75.2725 16.0134 75.429 15.6955C75.5854 15.3777 75.7028 14.9804 75.781 14.464C75.8592 13.9475 75.8592 13.3516 75.8592 12.6365V11.0473C75.8592 10.3719 75.8201 9.77601 75.781 9.25954C75.7028 8.74307 75.6245 8.30606 75.4681 7.98823C75.3116 7.6704 75.0769 7.3923 74.8031 7.23339C74.5293 7.03475 74.1772 6.95529 73.7079 6.95529Z" fill="#242440"/>
<path d="M86.6912 13.8283H85.8307V19.2711H82.0755V7.11424H81.1367V4.33325H87.5127C88.1385 4.33325 88.8426 4.37298 89.5467 4.45244C90.2899 4.53189 90.9549 4.73054 91.5416 5.00863C92.1675 5.28673 92.6369 5.68402 93.0671 6.24021C93.4583 6.75668 93.6539 7.47179 93.6539 8.34582V10.0541C93.6539 10.5309 93.5757 10.9679 93.4192 11.3652C93.2627 11.7227 93.0671 12.0406 92.7933 12.3187C92.5195 12.5968 92.2066 12.8351 91.8545 12.994C91.5025 13.1927 91.1505 13.3516 90.7593 13.4708L92.5195 15.8148C92.9498 16.4107 93.341 16.808 93.6539 17.0066C93.9668 17.2052 94.2406 17.3244 94.4362 17.4039L92.9889 19.4698C92.8324 19.5095 92.6369 19.5492 92.4413 19.5492C92.2848 19.5492 92.0892 19.5492 91.8545 19.5095C91.6199 19.4698 91.3852 19.3903 91.1113 19.2711C90.8375 19.1519 90.5637 18.9533 90.2899 18.6752C90.0161 18.4368 89.7032 18.0793 89.3902 17.6423L86.6912 13.8283ZM89.7423 9.25957C89.7423 8.62392 89.5858 8.10745 89.2338 7.71016C88.8817 7.31288 88.4123 7.11424 87.8256 7.11424H85.8307V11.2857H87.7865C88.0212 11.2857 88.2559 11.246 88.4906 11.1665C88.7253 11.0871 88.9208 10.9679 89.1164 10.7692C89.312 10.6103 89.4685 10.372 89.5858 10.1336C89.664 9.89523 89.7423 9.5774 89.7423 9.25957Z" fill="#242440"/>
<path d="M97.8392 8.02793H95.4922V4.29346H108.401V7.9882H106.054V7.59091C106.054 7.432 106.014 7.31281 105.975 7.23336C105.936 7.1539 105.858 7.11417 105.741 7.03472H103.785V16.3709H104.684V19.1519H99.0909V16.3709H100.03V7.11417H98.0739C97.8783 7.1539 97.8 7.35254 97.8 7.63064V8.02793H97.8392Z" fill="#242440"/>
<path d="M117.397 7.11424V4.33325H123.226V7.11424H122.326V16.4504H123.226V19.2314H117.397V16.4504H118.336V13.153H114.62V16.4504H115.52V19.2314H109.691V16.4504H110.63V7.11424H109.691V4.33325H115.52V7.11424H114.62V10.3322H118.336V7.11424H117.397Z" fill="#242440"/>
<path d="M130.934 7.11424V4.33325H141.573V7.11424H135.823V10.3322H139.735V13.1927H135.823V16.4901H137.153V19.2711H130.895V16.4901H131.833V7.11424H130.934Z" fill="#242440"/>
<path d="M148.848 4.09485C149.279 4.09485 149.748 4.09485 150.218 4.13458C150.687 4.17431 151.156 4.25376 151.626 4.37295C152.095 4.49213 152.525 4.69077 152.956 4.96887C153.386 5.20724 153.738 5.5648 154.09 6.00181C154.442 6.43882 154.677 6.95529 154.872 7.59095C155.068 8.2266 155.146 8.98144 155.146 9.85546V13.2721C155.146 14.6229 154.951 15.6955 154.599 16.5298C154.247 17.3244 153.777 17.9601 153.19 18.3971C152.604 18.8341 151.939 19.1122 151.195 19.2711C150.452 19.43 149.631 19.4697 148.848 19.4697C148.027 19.4697 147.245 19.3903 146.502 19.2314C145.758 19.0724 145.054 18.7944 144.507 18.3573C143.92 17.9203 143.45 17.2847 143.098 16.4901C142.746 15.6955 142.551 14.5831 142.551 13.2721V9.85546C142.551 8.98144 142.629 8.2266 142.825 7.59095C143.02 6.95529 143.294 6.43882 143.607 6.00181C143.92 5.5648 144.311 5.24697 144.741 4.96887C145.172 4.7305 145.602 4.53186 146.071 4.37295C146.541 4.25376 147.01 4.17431 147.479 4.13458C147.988 4.13458 148.418 4.09485 148.848 4.09485ZM148.848 6.95529C148.418 6.95529 148.027 7.03475 147.753 7.23339C147.479 7.3923 147.245 7.6704 147.088 7.98823C146.932 8.30606 146.814 8.74307 146.775 9.25954C146.697 9.77601 146.697 10.3719 146.697 11.0473V12.6365C146.697 13.3516 146.736 13.9475 146.775 14.464C146.854 14.9804 146.932 15.3777 147.088 15.6955C147.245 16.0134 147.479 16.2517 147.753 16.3709C148.027 16.5298 148.418 16.5696 148.848 16.5696C149.279 16.5696 149.631 16.4901 149.905 16.3709C150.178 16.212 150.413 16.0134 150.57 15.6955C150.726 15.3777 150.843 14.9804 150.922 14.464C151 13.9475 151 13.3516 151 12.6365V11.0473C151 10.3719 150.961 9.77601 150.922 9.25954C150.843 8.74307 150.765 8.30606 150.609 7.98823C150.452 7.6704 150.218 7.3923 149.944 7.23339C149.67 7.03475 149.279 6.95529 148.848 6.95529Z" fill="#242440"/>
<path d="M161.797 13.8283H160.936V19.2711H157.181V7.11424H156.242V4.33325H162.618C163.244 4.33325 163.948 4.37298 164.652 4.45244C165.395 4.53189 166.06 4.73054 166.647 5.00863C167.273 5.28673 167.742 5.68402 168.173 6.24021C168.564 6.75668 168.759 7.47179 168.759 8.34582V10.0541C168.759 10.5309 168.681 10.9679 168.525 11.3652C168.368 11.7227 168.173 12.0406 167.899 12.3187C167.625 12.5968 167.312 12.8351 166.96 12.994C166.608 13.1927 166.256 13.3516 165.865 13.4708L167.625 15.8148C168.055 16.4107 168.446 16.808 168.759 17.0066C169.072 17.2052 169.346 17.3244 169.542 17.4039L168.094 19.4698C167.938 19.5095 167.742 19.5492 167.547 19.5492C167.39 19.5492 167.195 19.5492 166.96 19.5095C166.725 19.4698 166.491 19.3903 166.217 19.2711C165.943 19.1519 165.669 18.9533 165.395 18.6752C165.122 18.4368 164.809 18.0793 164.496 17.6423L161.797 13.8283ZM164.848 9.25957C164.848 8.62392 164.691 8.10745 164.339 7.71016C163.987 7.31288 163.518 7.11424 162.931 7.11424H160.936V11.2857H162.892C163.127 11.2857 163.361 11.246 163.596 11.1665C163.831 11.0871 164.026 10.9679 164.222 10.7692C164.417 10.6103 164.574 10.372 164.691 10.1336C164.809 9.89523 164.848 9.5774 164.848 9.25957Z" fill="#242440"/>
<path d="M176.543 7.11424V4.33325H180.728L183.388 8.94175L186.361 4.33325H190.351V7.11424H188.591L185.422 12.4378V16.4504H186.361V19.2314H180.533V16.4504H181.472V12.4776L178.381 7.11424H176.543Z" fill="#242440"/>
<path d="M197.743 4.09485C198.173 4.09485 198.643 4.09485 199.112 4.13458C199.581 4.17431 200.051 4.25376 200.52 4.37295C200.99 4.49213 201.42 4.69077 201.85 4.96887C202.28 5.20724 202.633 5.5648 202.985 6.00181C203.337 6.43882 203.571 6.95529 203.767 7.59095C203.962 8.2266 204.041 8.98144 204.041 9.85546V13.2721C204.041 14.6229 203.845 15.6955 203.493 16.5298C203.141 17.3244 202.672 17.9601 202.085 18.3971C201.498 18.8341 200.833 19.1122 200.09 19.2711C199.347 19.43 198.525 19.4697 197.743 19.4697C196.922 19.4697 196.139 19.3903 195.396 19.2314C194.653 19.0724 193.949 18.7944 193.401 18.3573C192.814 17.9203 192.345 17.2847 191.993 16.4901C191.641 15.6955 191.445 14.5831 191.445 13.2721V9.85546C191.445 8.98144 191.524 8.2266 191.719 7.59095C191.915 6.95529 192.189 6.43882 192.501 6.00181C192.814 5.5648 193.206 5.24697 193.636 4.96887C194.066 4.7305 194.496 4.53186 194.966 4.37295C195.435 4.25376 195.905 4.17431 196.374 4.13458C196.882 4.13458 197.313 4.09485 197.743 4.09485ZM197.743 6.95529C197.313 6.95529 196.922 7.03475 196.648 7.23339C196.374 7.3923 196.139 7.6704 195.983 7.98823C195.826 8.30606 195.709 8.74307 195.67 9.25954C195.592 9.77601 195.592 10.3719 195.592 11.0473V12.6365C195.592 13.3516 195.631 13.9475 195.67 14.464C195.748 14.9804 195.826 15.3777 195.983 15.6955C196.139 16.0134 196.374 16.2517 196.648 16.3709C196.922 16.5298 197.313 16.5696 197.743 16.5696C198.173 16.5696 198.525 16.4901 198.799 16.3709C199.073 16.212 199.308 16.0134 199.464 15.6955C199.621 15.3777 199.738 14.9804 199.816 14.464C199.894 13.9475 199.894 13.3516 199.894 12.6365V11.0473C199.894 10.3719 199.855 9.77601 199.816 9.25954C199.738 8.74307 199.66 8.30606 199.503 7.98823C199.347 7.6704 199.112 7.3923 198.838 7.23339C198.564 7.03475 198.212 6.95529 197.743 6.95529Z" fill="#242440"/>
<path d="M217.966 13.7488C217.966 14.6228 217.849 15.3777 217.653 16.0133C217.458 16.649 217.184 17.1655 216.871 17.6025C216.558 18.0395 216.167 18.3573 215.737 18.6354C215.306 18.8738 214.837 19.0724 214.407 19.1916C213.937 19.3108 213.507 19.3902 213.038 19.43C212.568 19.4697 212.177 19.5094 211.786 19.5094C211.395 19.5094 211.003 19.4697 210.534 19.43C210.104 19.3902 209.634 19.3108 209.165 19.1916C208.696 19.0724 208.265 18.8738 207.835 18.6354C207.405 18.397 207.014 18.0395 206.701 17.6025C206.388 17.1655 206.114 16.649 205.918 16.0133C205.723 15.3777 205.605 14.6228 205.605 13.7488V4.29346H209.556V12.9145C209.556 13.7885 209.634 14.4639 209.791 14.9407C209.947 15.4174 210.104 15.8147 210.339 16.0531C210.573 16.2914 210.808 16.4503 211.082 16.5298C211.356 16.6093 211.59 16.6093 211.825 16.6093C212.06 16.6093 212.294 16.5695 212.568 16.5298C212.842 16.4503 213.077 16.3312 213.311 16.0531C213.546 15.8147 213.703 15.4571 213.859 14.9407C214.015 14.4639 214.094 13.7885 214.094 12.9542V4.29346H217.966V13.7488Z" fill="#242440"/>
<path d="M54.8921 35.8013C56.6586 35.8013 57.9529 34.7474 58.1333 33.1852H56.7859C56.6002 34.0519 55.8628 34.603 54.8921 34.603C53.5871 34.603 52.7755 33.5062 52.7755 31.7461C52.7755 29.9914 53.5871 28.8947 54.8868 28.8947C55.8522 28.8947 56.5896 29.4992 56.7806 30.4301H58.128C57.9688 28.8305 56.6267 27.6963 54.8868 27.6963C52.7171 27.6963 51.375 29.2424 51.375 31.7515C51.375 34.2499 52.7224 35.8013 54.8921 35.8013Z" fill="#93A0AD"/>
<path d="M64.7165 34.4478H61.1305V32.2383H64.5203V31.1416H61.1305V29.0498H64.7165V27.8889H59.7619V35.6087H64.7165V34.4478Z" fill="#93A0AD"/>
<path d="M69.7932 35.6087C71.4271 35.6087 72.4244 34.7742 72.4244 33.4153C72.4244 32.4095 71.7135 31.6605 70.6844 31.5642V31.4679C71.4536 31.3449 72.0477 30.628 72.0477 29.8148C72.0477 28.6272 71.1725 27.8889 69.7189 27.8889H66.5202V35.6087H69.7932ZM67.8888 28.9642H69.3847C70.2123 28.9642 70.695 29.3654 70.695 30.0556C70.695 30.7618 70.1805 31.1416 69.2097 31.1416H67.8888V28.9642ZM67.8888 34.5334V32.1206H69.4272C70.4722 32.1206 71.0239 32.5326 71.0239 33.319C71.0239 34.1108 70.4881 34.5334 69.4802 34.5334H67.8888Z" fill="#93A0AD"/>
<path d="M78.9758 34.4478H75.3898V32.2383H78.7795V31.1416H75.3898V29.0498H78.9758V27.8889H74.0211V35.6087H78.9758V34.4478Z" fill="#93A0AD"/>
<path d="M80.7794 27.8889V35.6087H82.1481V33.0569H83.8084C85.3574 33.0569 86.4396 32.0136 86.4396 30.4889C86.4396 28.9375 85.3946 27.8889 83.8668 27.8889H80.7794ZM82.1481 29.0177H83.5061C84.4928 29.0177 85.0498 29.5313 85.0498 30.4889C85.0498 31.4198 84.4769 31.9441 83.5008 31.9441H82.1481V29.0177Z" fill="#93A0AD"/>
<path d="M91.4155 35.6087H96.7256V37.1334H97.9722V34.4425H97.0174V27.8889H91.7656L91.4951 32.4309C91.4314 33.4634 91.2564 34.1001 90.7153 34.4425H90.1689V37.1334H91.4155V35.6087ZM92.7576 32.5165L92.9751 29.0498H95.6487V34.4425H92.2537V34.3622C92.5932 33.9503 92.7046 33.3671 92.7576 32.5165Z" fill="#93A0AD"/>
<path d="M105.478 35.6087V27.8889H100.375L100.131 32.5379C100.073 33.6239 99.8819 34.4318 99.0756 34.4318C98.9536 34.4318 98.8104 34.4104 98.7414 34.3943V35.6034C98.8422 35.6355 99.0279 35.6676 99.2454 35.6676C100.747 35.6676 101.288 34.5013 101.399 32.6182L101.606 29.0498H104.115V35.6087H105.478Z" fill="#93A0AD"/>
<path d="M110.449 32.7573H111.669V35.6087H113.027V27.8889H110.019C108.412 27.8889 107.356 28.884 107.356 30.3391C107.356 31.4465 108.046 32.2811 109.065 32.57L106.985 35.6087H108.523L110.449 32.7573ZM111.669 31.6766H110.253C109.309 31.6766 108.757 31.1898 108.757 30.3445C108.757 29.5045 109.309 29.0124 110.253 29.0124H111.669V31.6766Z" fill="#93A0AD"/>
<path d="M121.197 35.6087C122.83 35.6087 123.828 34.7742 123.828 33.4153C123.828 32.4095 123.117 31.6605 122.088 31.5642V31.4679C122.857 31.3449 123.451 30.628 123.451 29.8148C123.451 28.6272 122.576 27.8889 121.122 27.8889H117.924V35.6087H121.197ZM119.292 28.9642H120.788C121.616 28.9642 122.098 29.3654 122.098 30.0556C122.098 30.7618 121.584 31.1416 120.613 31.1416H119.292V28.9642ZM119.292 34.5334V32.1206H120.831C121.876 32.1206 122.427 32.5326 122.427 33.319C122.427 34.1108 121.891 34.5334 120.884 34.5334H119.292Z" fill="#93A0AD"/>
<path d="M130.268 35.6087H131.737L129.016 27.8889H127.477L124.761 35.6087H126.146L126.804 33.6132H129.621L130.268 35.6087ZM128.172 29.3387H128.263L129.302 32.5486H127.122L128.172 29.3387Z" fill="#93A0AD"/>
<path d="M135.992 35.8013C137.758 35.8013 139.052 34.7474 139.233 33.1852H137.885C137.7 34.0519 136.962 34.603 135.992 34.603C134.687 34.603 133.875 33.5062 133.875 31.7461C133.875 29.9914 134.687 28.8947 135.986 28.8947C136.952 28.8947 137.689 29.4992 137.88 30.4301H139.228C139.068 28.8305 137.726 27.6963 135.986 27.6963C133.817 27.6963 132.475 29.2424 132.475 31.7515C132.475 34.2499 133.822 35.8013 135.992 35.8013Z" fill="#93A0AD"/>
</g>
<defs>
<clipPath id="clip0">
<rect width="220" height="42" fill="white"/>
</clipPath>
</defs>
</svg>
