<svg width="93" height="8" viewBox="0 0 93 8" fill="none" xmlns="http://www.w3.org/2000/svg">
<path opacity="0.9" fill-rule="evenodd" clip-rule="evenodd" d="M10.5 6.2222L16.7145 0L18.4901 1.77777L12.2756 7.99997L10.5 6.2222ZM21.0039 6.2222L27.2184 0L28.994 1.77777L22.7795 7.99997L21.0039 6.2222ZM37.7182 0L31.5036 6.2222L33.2792 7.99997L39.4937 1.77777L37.7182 0ZM42.0039 6.2222L48.2184 0L49.994 1.77777L43.7795 7.99997L42.0039 6.2222ZM58.7223 0L52.5078 6.2222L54.2834 7.99997L60.4979 1.77777L58.7223 0ZM63.0075 6.2222L69.222 0L70.9976 1.77777L64.7831 7.99997L63.0075 6.2222ZM79.723 0L73.5084 6.2222L75.284 7.99997L81.4986 1.77777L79.723 0ZM84.0117 6.2222L90.2263 0L92.0018 1.77777L85.7873 7.99997L84.0117 6.2222ZM6.21837 0.00388656L0 6.22226L1.77668 7.99893L7.99505 1.78056L6.21837 0.00388656Z" fill="url(#paint0_linear)"/>
<defs>
<linearGradient id="paint0_linear" x1="0" y1="0" x2="1.38083" y2="15.8799" gradientUnits="userSpaceOnUse">
<stop stop-color="#FF9458"/>
<stop offset="1" stop-color="#FFBE5C"/>
</linearGradient>
</defs>
</svg>
