<svg width="296" height="218" viewBox="0 0 296 218" fill="none" xmlns="http://www.w3.org/2000/svg">
<rect x="52" y="196" width="196" height="1" transform="rotate(-90 52 196)" fill="#E9ECEF"/>
<rect x="91" y="196" width="196" height="1" transform="rotate(-90 91 196)" fill="#E9ECEF"/>
<rect x="131" y="196" width="196" height="1" transform="rotate(-90 131 196)" fill="#E9ECEF"/>
<rect x="171" y="196" width="196" height="1" transform="rotate(-90 171 196)" fill="#E9ECEF"/>
<rect x="211" y="196" width="196" height="1" transform="rotate(-90 211 196)" fill="#E9ECEF"/>
<rect x="251" y="196" width="196" height="1" transform="rotate(-90 251 196)" fill="#E9ECEF"/>
<rect x="291" y="196" width="196" height="1" transform="rotate(-90 291 196)" fill="#E9ECEF"/>
<path d="M51.9992 213.119C51.3572 213.119 50.8103 212.945 50.3586 212.595C49.907 212.243 49.5618 211.733 49.3232 211.065C49.0846 210.395 48.9653 209.585 48.9654 208.636C48.9655 207.693 49.0848 206.888 49.3235 206.22C49.565 205.55 49.9116 205.038 50.3634 204.686C50.8179 204.331 51.3634 204.153 51.9998 204.153C52.6361 204.153 53.1801 204.331 53.6318 204.686C54.0864 205.038 54.4329 205.55 54.6715 206.22C54.9129 206.888 55.0336 207.693 55.0336 208.636C55.0335 209.585 54.9142 210.395 54.6755 211.065C54.4368 211.733 54.0916 212.243 53.6399 212.595C53.1882 212.945 52.6413 213.119 51.9992 213.119ZM51.9993 212.182C52.6356 212.182 53.13 211.875 53.4823 211.261C53.8346 210.648 54.0108 209.773 54.0109 208.636C54.0109 207.881 53.93 207.237 53.7681 206.706C53.609 206.175 53.3789 205.77 53.0778 205.491C52.7795 205.213 52.4202 205.074 51.9997 205.074C51.369 205.074 50.8761 205.385 50.521 206.007C50.1658 206.626 49.9882 207.503 49.9881 208.636C49.9881 209.392 50.0676 210.034 50.2267 210.562C50.3857 211.091 50.6144 211.493 50.9127 211.768C51.2138 212.044 51.576 212.182 51.9993 212.182Z" fill="#7B8997"/>
<path d="M93.1823 204.273L93.1818 213H92.1249L92.1254 205.381H92.0743L89.9435 206.795L89.9436 205.722L92.1255 204.273H93.1823Z" fill="#7B8997"/>
<path d="M129.27 213L129.27 212.233L132.151 209.08C132.489 208.71 132.767 208.389 132.986 208.116C133.205 207.841 133.367 207.582 133.472 207.341C133.58 207.097 133.634 206.841 133.634 206.574C133.634 206.267 133.56 206.001 133.412 205.777C133.267 205.553 133.069 205.379 132.816 205.257C132.563 205.135 132.279 205.074 131.963 205.074C131.628 205.074 131.336 205.143 131.086 205.283C130.838 205.419 130.647 205.611 130.51 205.858C130.377 206.105 130.31 206.395 130.31 206.727H129.304C129.304 206.216 129.422 205.767 129.658 205.381C129.894 204.994 130.215 204.693 130.621 204.477C131.03 204.261 131.489 204.153 131.998 204.153C132.509 204.153 132.962 204.261 133.357 204.477C133.752 204.693 134.061 204.984 134.286 205.351C134.51 205.717 134.623 206.125 134.622 206.574C134.622 206.895 134.564 207.209 134.448 207.516C134.334 207.82 134.135 208.159 133.851 208.534C133.57 208.906 133.179 209.361 132.679 209.898L130.719 211.994L130.719 212.062H134.776L134.776 213H129.27Z" fill="#7B8997"/>
<path d="M172.031 213.119C171.469 213.119 170.967 213.023 170.527 212.83C170.089 212.636 169.741 212.368 169.483 212.024C169.227 211.678 169.088 211.276 169.065 210.818H170.139C170.162 211.099 170.259 211.342 170.429 211.547C170.599 211.749 170.822 211.905 171.098 212.016C171.374 212.126 171.679 212.182 172.014 212.182C172.389 212.182 172.722 212.116 173.011 211.986C173.301 211.855 173.528 211.673 173.693 211.44C173.858 211.207 173.94 210.937 173.94 210.631C173.94 210.31 173.861 210.027 173.702 209.783C173.543 209.536 173.31 209.342 173.003 209.203C172.696 209.064 172.321 208.994 171.878 208.994H171.179L171.179 208.057H171.878C172.225 208.057 172.529 207.994 172.79 207.869C173.054 207.744 173.26 207.568 173.408 207.341C173.559 207.114 173.634 206.847 173.634 206.54C173.634 206.244 173.569 205.987 173.438 205.768C173.307 205.55 173.123 205.379 172.884 205.257C172.648 205.135 172.37 205.074 172.049 205.074C171.748 205.074 171.463 205.129 171.196 205.24C170.932 205.348 170.716 205.506 170.549 205.713C170.381 205.918 170.29 206.165 170.276 206.455H169.253C169.27 205.997 169.408 205.597 169.667 205.253C169.925 204.906 170.263 204.636 170.681 204.443C171.101 204.25 171.563 204.153 172.066 204.153C172.606 204.153 173.069 204.263 173.455 204.482C173.841 204.697 174.138 204.983 174.346 205.338C174.553 205.693 174.657 206.077 174.657 206.489C174.657 206.98 174.527 207.399 174.269 207.746C174.013 208.092 173.665 208.332 173.225 208.466L173.225 208.534C173.776 208.625 174.206 208.859 174.516 209.237C174.825 209.612 174.98 210.077 174.98 210.631C174.98 211.105 174.851 211.531 174.592 211.909C174.337 212.284 173.987 212.58 173.544 212.795C173.101 213.011 172.597 213.119 172.031 213.119Z" fill="#7B8997"/>
<path d="M208.849 211.21L208.849 210.341L212.684 204.273H213.315L213.315 205.619H212.889L209.991 210.205L209.991 210.273H215.155L215.155 211.21H208.849ZM212.956 213L212.957 210.946L212.957 210.541L212.957 204.273H213.963L213.962 213H212.956Z" fill="#7B8997"/>
<path d="M251.98 213.119C251.48 213.119 251.029 213.02 250.629 212.821C250.228 212.622 249.907 212.349 249.666 212.003C249.424 211.656 249.292 211.261 249.269 210.818H250.292C250.332 211.213 250.511 211.54 250.829 211.798C251.15 212.054 251.534 212.182 251.98 212.182C252.338 212.182 252.656 212.098 252.934 211.93C253.215 211.763 253.436 211.533 253.595 211.24C253.757 210.945 253.838 210.611 253.838 210.239C253.838 209.858 253.754 209.518 253.586 209.22C253.422 208.919 253.194 208.682 252.905 208.509C252.615 208.335 252.284 208.247 251.912 208.244C251.645 208.241 251.37 208.283 251.089 208.368C250.808 208.45 250.576 208.557 250.395 208.687L249.406 208.568L249.935 204.273H254.469L254.469 205.21H250.821L250.514 207.784H250.565C250.744 207.642 250.968 207.524 251.238 207.43C251.508 207.337 251.79 207.29 252.082 207.29C252.616 207.29 253.092 207.418 253.51 207.673C253.93 207.926 254.26 208.273 254.498 208.713C254.74 209.153 254.86 209.656 254.86 210.222C254.86 210.778 254.735 211.276 254.485 211.713C254.238 212.148 253.897 212.491 253.462 212.744C253.028 212.994 252.533 213.119 251.98 213.119Z" fill="#7B8997"/>
<path d="M292.056 213.119C291.698 213.114 291.34 213.045 290.982 212.915C290.624 212.784 290.298 212.564 290.002 212.254C289.707 211.942 289.47 211.52 289.291 210.989C289.112 210.455 289.022 209.784 289.022 208.977C289.022 208.202 289.095 207.514 289.24 206.915C289.385 206.312 289.595 205.805 289.871 205.393C290.146 204.982 290.479 204.669 290.868 204.456C291.26 204.243 291.702 204.136 292.193 204.136C292.682 204.136 293.116 204.234 293.497 204.43C293.881 204.626 294.193 204.899 294.435 205.249C294.676 205.595 294.832 205.997 294.903 206.455H293.863C293.767 206.054 293.579 205.724 293.301 205.466C293.023 205.205 292.653 205.074 292.193 205.074C291.517 205.074 290.984 205.369 290.595 205.96C290.209 206.548 290.014 207.378 290.011 208.449H290.079C290.238 208.207 290.427 208.001 290.646 207.831C290.868 207.658 291.112 207.524 291.379 207.43C291.646 207.337 291.929 207.29 292.227 207.29C292.727 207.29 293.184 207.415 293.599 207.665C294.014 207.912 294.346 208.254 294.596 208.692C294.846 209.126 294.971 209.625 294.971 210.187C294.971 210.727 294.85 211.222 294.609 211.67C294.367 212.116 294.028 212.472 293.59 212.736C293.156 212.997 292.644 213.125 292.056 213.119ZM292.056 212.182C292.414 212.182 292.735 212.092 293.019 211.913C293.306 211.734 293.532 211.494 293.697 211.193C293.865 210.892 293.948 210.557 293.948 210.187C293.948 209.827 293.868 209.499 293.706 209.203C293.547 208.905 293.326 208.668 293.045 208.491C292.767 208.315 292.449 208.227 292.091 208.227C291.821 208.227 291.569 208.281 291.336 208.389C291.103 208.494 290.899 208.639 290.723 208.824C290.549 209.009 290.413 209.22 290.314 209.459C290.214 209.695 290.164 209.943 290.164 210.205C290.164 210.551 290.245 210.875 290.407 211.176C290.572 211.477 290.796 211.72 291.08 211.905C291.367 212.089 291.693 212.182 292.056 212.182Z" fill="#7B8997"/>
<path d="M4.19454 14.1193C3.5525 14.1193 3.00563 13.9446 2.55395 13.5952C2.10226 13.2429 1.75712 12.733 1.51853 12.0653C1.27993 11.3949 1.16066 10.5852 1.16071 9.63636C1.16077 8.69318 1.28013 7.88778 1.51881 7.22017C1.76033 6.54972 2.10695 6.03835 2.55867 5.68608C3.01324 5.33097 3.5587 5.15341 4.19507 5.15341C4.83143 5.15341 5.37546 5.33097 5.82714 5.68608C6.28166 6.03835 6.62822 6.54972 6.86682 7.22017C7.10826 7.88778 7.22895 8.69318 7.2289 9.63636C7.22884 10.5852 7.10947 11.3949 6.8708 12.0653C6.63212 12.733 6.28692 13.2429 5.8352 13.5952C5.38347 13.9446 4.83659 14.1193 4.19454 14.1193ZM4.1946 13.1818C4.83096 13.1818 5.3253 12.875 5.6776 12.2614C6.02991 11.6477 6.2061 10.7727 6.20617 9.63636C6.20621 8.88068 6.12528 8.23722 5.96338 7.70597C5.80432 7.17472 5.57423 6.76989 5.27311 6.49148C4.97484 6.21307 4.61547 6.07386 4.19501 6.07386C3.56433 6.07386 3.07142 6.38494 2.71627 7.0071C2.36112 7.62642 2.18351 8.50284 2.18344 9.63636C2.1834 10.392 2.2629 11.0341 2.42196 11.5625C2.58102 12.0909 2.80969 12.4929 3.10797 12.7685C3.40909 13.044 3.7713 13.1818 4.1946 13.1818ZM11.6945 14.1193C11.0525 14.1193 10.5056 13.9446 10.0539 13.5952C9.60226 13.2429 9.25712 12.733 9.01853 12.0653C8.77993 11.3949 8.66066 10.5852 8.66071 9.63636C8.66077 8.69318 8.78013 7.88778 9.01881 7.22017C9.26033 6.54972 9.60695 6.03835 10.0587 5.68608C10.5132 5.33097 11.0587 5.15341 11.6951 5.15341C12.3314 5.15341 12.8755 5.33097 13.3271 5.68608C13.7817 6.03835 14.1282 6.54972 14.3668 7.22017C14.6083 7.88778 14.729 8.69318 14.7289 9.63636C14.7288 10.5852 14.6095 11.3949 14.3708 12.0653C14.1321 12.733 13.7869 13.2429 13.3352 13.5952C12.8835 13.9446 12.3366 14.1193 11.6945 14.1193ZM11.6946 13.1818C12.331 13.1818 12.8253 12.875 13.1776 12.2614C13.5299 11.6477 13.7061 10.7727 13.7062 9.63636C13.7062 8.88068 13.6253 8.23722 13.4634 7.70597C13.3043 7.17472 13.0742 6.76989 12.7731 6.49148C12.4748 6.21307 12.1155 6.07386 11.695 6.07386C11.0643 6.07386 10.5714 6.38494 10.2163 7.0071C9.86112 7.62642 9.68351 8.50284 9.68344 9.63636C9.6834 10.392 9.7629 11.0341 9.92196 11.5625C10.081 12.0909 10.3097 12.4929 10.608 12.7685C10.9091 13.044 11.2713 13.1818 11.6946 13.1818ZM20.1153 9.78977L20.1152 10.7273H16.297L16.2971 9.78977H20.1153ZM24.7141 14.1193C24.072 14.1193 23.5252 13.9446 23.0735 13.5952C22.6218 13.2429 22.2767 12.733 22.0381 12.0653C21.7995 11.3949 21.6802 10.5852 21.6802 9.63636C21.6803 8.69318 21.7997 7.88778 22.0383 7.22017C22.2799 6.54972 22.6265 6.03835 23.0782 5.68608C23.5328 5.33097 24.0782 5.15341 24.7146 5.15341C25.351 5.15341 25.895 5.33097 26.3467 5.68608C26.8012 6.03835 27.1478 6.54972 27.3864 7.22017C27.6278 7.88778 27.7485 8.69318 27.7484 9.63636C27.7484 10.5852 27.629 11.3949 27.3903 12.0653C27.1517 12.733 26.8065 13.2429 26.3547 13.5952C25.903 13.9446 25.3561 14.1193 24.7141 14.1193ZM24.7141 13.1818C25.3505 13.1818 25.8448 12.875 26.1971 12.2614C26.5494 11.6477 26.7256 10.7727 26.7257 9.63636C26.7257 8.88068 26.6448 8.23722 26.4829 7.70597C26.3239 7.17472 26.0938 6.76989 25.7926 6.49148C25.4944 6.21307 25.135 6.07386 24.7145 6.07386C24.0839 6.07386 23.5909 6.38494 23.2358 7.0071C22.8806 7.62642 22.703 8.50284 22.703 9.63636C22.7029 10.392 22.7824 11.0341 22.9415 11.5625C23.1006 12.0909 23.3292 12.4929 23.6275 12.7685C23.9286 13.044 24.2908 13.1818 24.7141 13.1818ZM32.3163 14.1193C31.7538 14.1193 31.2524 14.0227 30.8121 13.8295C30.3746 13.6364 30.0266 13.3679 29.7681 13.0241C29.5125 12.6776 29.3733 12.2756 29.3506 11.8182H30.4244C30.4471 12.0994 30.5437 12.3423 30.7142 12.5469C30.8846 12.7486 31.1076 12.9048 31.3832 13.0156C31.6587 13.1264 31.9641 13.1818 32.2994 13.1818C32.6744 13.1818 33.0067 13.1165 33.2965 12.9858C33.5863 12.8551 33.8136 12.6733 33.9784 12.4403C34.1432 12.2074 34.2256 11.9375 34.2256 11.6307C34.2256 11.3097 34.1461 11.027 33.987 10.7827C33.8279 10.5355 33.595 10.3423 33.2882 10.2031C32.9814 10.0639 32.6064 9.99432 32.1632 9.99432H31.4643L31.4644 9.05682H32.1632C32.5098 9.05682 32.8138 8.99432 33.0752 8.86932C33.3394 8.74432 33.5454 8.56818 33.6931 8.34091C33.8437 8.11364 33.919 7.84659 33.919 7.53977C33.919 7.24432 33.8537 6.98722 33.723 6.76847C33.5924 6.54972 33.4077 6.37926 33.1691 6.2571C32.9333 6.13494 32.6549 6.07386 32.3339 6.07386C32.0327 6.07386 31.7486 6.12926 31.4816 6.24006C31.2174 6.34801 31.0015 6.50568 30.8338 6.71307C30.6662 6.91761 30.5753 7.16477 30.5611 7.45454H29.5383C29.5554 6.99716 29.6932 6.59659 29.9518 6.25284C30.2103 5.90625 30.5484 5.63636 30.966 5.44318C31.3865 5.25 31.8481 5.15341 32.351 5.15341C32.8907 5.15341 33.3538 5.26278 33.7401 5.48153C34.1265 5.69744 34.4234 5.98295 34.6307 6.33807C34.8381 6.69318 34.9418 7.0767 34.9417 7.48864C34.9417 7.98011 34.8124 8.39915 34.5539 8.74574C34.2982 9.09233 33.9501 9.33239 33.5098 9.46591L33.5098 9.53409C34.0609 9.625 34.4913 9.85937 34.8009 10.2372C35.1106 10.6122 35.2654 11.0767 35.2654 11.6307C35.2653 12.1051 35.136 12.5312 34.8775 12.9091C34.6218 13.2841 34.2723 13.5795 33.8291 13.7955C33.386 14.0114 32.8817 14.1193 32.3163 14.1193ZM42.071 7.45454L42.0706 14H41.0649L41.0653 7.45454H42.071ZM41.6788 10.5739L41.6787 11.5114C41.4514 11.5966 41.2256 11.6719 41.0011 11.7372C40.7767 11.7997 40.5409 11.8494 40.2937 11.8864C40.0466 11.9205 39.7753 11.9375 39.4798 11.9375C38.7383 11.9375 38.1432 11.7372 37.6943 11.3366C37.2484 10.9361 37.0254 10.3352 37.0254 9.53409L37.0255 7.4375H38.0312L38.0311 9.53409C38.0311 9.86932 38.095 10.1449 38.2228 10.3608C38.3506 10.5767 38.5239 10.7372 38.7427 10.8423C38.9614 10.9474 39.2072 11 39.4799 11C39.906 11 40.291 10.9616 40.6347 10.8849C40.9813 10.8054 41.3293 10.7017 41.6788 10.5739Z" fill="#7B8997"/>
<path d="M52 0H86C88.2091 0 90 1.79086 90 4V16C90 18.2091 88.2091 20 86 20H52V0Z" fill="#99D8DC"/>
<path d="M82.5687 5.27273V14H80.7235V7.02415H80.6724L78.6738 8.27699V6.64062L80.8343 5.27273H82.5687Z" fill="white"/>
<path d="M4.21017 38.1193C3.56812 38.1193 3.02126 37.9446 2.56957 37.5952C2.11789 37.2429 1.77275 36.733 1.53415 36.0653C1.29555 35.3949 1.17628 34.5852 1.17634 33.6364C1.17639 32.6932 1.29576 31.8878 1.53444 31.2202C1.77595 30.5497 2.12257 30.0384 2.5743 29.6861C3.02886 29.331 3.57433 29.1534 4.21069 29.1534C4.84706 29.1534 5.39108 29.331 5.84276 29.6861C6.29729 30.0384 6.64385 30.5497 6.88245 31.2202C7.12388 31.8878 7.24458 32.6932 7.24452 33.6364C7.24446 34.5852 7.1251 35.3949 6.88642 36.0653C6.64775 36.733 6.30255 37.2429 5.85082 37.5952C5.3991 37.9446 4.85221 38.1193 4.21017 38.1193ZM4.21022 37.1818C4.84658 37.1818 5.34092 36.875 5.69323 36.2614C6.04554 35.6477 6.22173 34.7727 6.22179 33.6364C6.22184 32.8807 6.14091 32.2372 5.97901 31.706C5.81995 31.1747 5.58986 30.7699 5.28874 30.4915C4.99046 30.2131 4.63109 30.0739 4.21064 30.0739C3.57996 30.0739 3.08704 30.3849 2.73189 31.0071C2.37674 31.6264 2.19913 32.5028 2.19907 33.6364C2.19902 34.392 2.27853 35.0341 2.43759 35.5625C2.59665 36.0909 2.82532 36.4929 3.1236 36.7685C3.42472 37.044 3.78693 37.1818 4.21022 37.1818ZM11.8124 38.1193C11.2499 38.1193 10.7485 38.0227 10.3082 37.8295C9.87071 37.6364 9.52271 37.3679 9.26421 37.0241C9.00855 36.6776 8.86937 36.2756 8.84666 35.8182H9.92053C9.94324 36.0994 10.0398 36.3423 10.2103 36.5469C10.3807 36.7486 10.6037 36.9048 10.8793 37.0156C11.1548 37.1264 11.4602 37.1818 11.7954 37.1818C12.1704 37.1818 12.5028 37.1165 12.7926 36.9858C13.0824 36.8551 13.3097 36.6733 13.4745 36.4403C13.6393 36.2074 13.7217 35.9375 13.7217 35.6307C13.7217 35.3097 13.6422 35.027 13.4831 34.7827C13.324 34.5355 13.0911 34.3423 12.7843 34.2031C12.4774 34.0639 12.1025 33.9943 11.6593 33.9943H10.9604L10.9605 33.0568H11.6593C12.0059 33.0568 12.3099 32.9943 12.5713 32.8693C12.8355 32.7443 13.0415 32.5682 13.1892 32.3409C13.3398 32.1136 13.4151 31.8466 13.4151 31.5398C13.4151 31.2443 13.3498 30.9872 13.2191 30.7685C13.0885 30.5497 12.9038 30.3793 12.6652 30.2571C12.4294 30.1349 12.151 30.0739 11.83 30.0739C11.5288 30.0739 11.2447 30.1293 10.9777 30.2401C10.7135 30.348 10.4975 30.5057 10.3299 30.7131C10.1623 30.9176 10.0714 31.1648 10.0571 31.4545H9.03442C9.05149 30.9972 9.1893 30.5966 9.44784 30.2528C9.70639 29.9062 10.0445 29.6364 10.4621 29.4432C10.8826 29.25 11.3442 29.1534 11.8471 29.1534C12.3868 29.1534 12.8499 29.2628 13.2362 29.4815C13.6226 29.6974 13.9195 29.983 14.1268 30.3381C14.3342 30.6932 14.4379 31.0767 14.4378 31.4886C14.4378 31.9801 14.3085 32.3991 14.05 32.7457C13.7943 33.0923 13.4462 33.3324 13.0059 33.4659L13.0059 33.5341C13.557 33.625 13.9874 33.8594 14.297 34.2372C14.6067 34.6122 14.7615 35.0767 14.7614 35.6307C14.7614 36.1051 14.6321 36.5312 14.3736 36.9091C14.1179 37.2841 13.7684 37.5795 13.3252 37.7955C12.882 38.0114 12.3778 38.1193 11.8124 38.1193ZM20.2715 33.7898L20.2714 34.7273H16.4533L16.4533 33.7898H20.2715ZM24.8703 38.1193C24.2283 38.1193 23.6814 37.9446 23.2297 37.5952C22.778 37.2429 22.4329 36.733 22.1943 36.0653C21.9557 35.3949 21.8364 34.5852 21.8365 33.6364C21.8366 32.6932 21.9559 31.8878 22.1946 31.2202C22.4361 30.5497 22.7827 30.0384 23.2345 29.6861C23.689 29.331 24.2345 29.1534 24.8708 29.1534C25.5072 29.1534 26.0512 29.331 26.5029 29.6861C26.9574 30.0384 27.304 30.5497 27.5426 31.2202C27.784 31.8878 27.9047 32.6932 27.9047 33.6364C27.9046 34.5852 27.7853 35.3949 27.5466 36.0653C27.3079 36.733 26.9627 37.2429 26.511 37.5952C26.0593 37.9446 25.5124 38.1193 24.8703 38.1193ZM24.8704 37.1818C25.5067 37.1818 26.0011 36.875 26.3534 36.2614C26.7057 35.6477 26.8819 34.7727 26.8819 33.6364C26.882 32.8807 26.8011 32.2372 26.6392 31.706C26.4801 31.1747 26.25 30.7699 25.9489 30.4915C25.6506 30.2131 25.2912 30.0739 24.8708 30.0739C24.2401 30.0739 23.7472 30.3849 23.392 31.0071C23.0369 31.6264 22.8593 32.5028 22.8592 33.6364C22.8592 34.392 22.9387 35.0341 23.0977 35.5625C23.2568 36.0909 23.4855 36.4929 23.7838 36.7685C24.0849 37.044 24.4471 37.1818 24.8704 37.1818ZM32.4215 38.1193C32.0635 38.1136 31.7056 38.0455 31.3476 37.9148C30.9897 37.7841 30.663 37.5639 30.3675 37.2543C30.0721 36.9418 29.8349 36.5199 29.656 35.9886C29.477 35.4545 29.3876 34.7841 29.3876 33.9773C29.3877 33.2017 29.4601 32.5142 29.6051 31.9148C29.75 31.3125 29.9602 30.8054 30.2358 30.3935C30.5114 29.9815 30.8438 29.669 31.233 29.456C31.6251 29.2429 32.0669 29.1364 32.5584 29.1364C33.047 29.1364 33.4816 29.2344 33.8623 29.4304C34.2458 29.6264 34.5583 29.8991 34.7998 30.2486C35.0412 30.5952 35.1974 30.9972 35.2684 31.4545H34.2287C34.1321 31.054 33.9446 30.7244 33.6662 30.4659C33.3878 30.2045 33.0185 30.0739 32.5583 30.0739C31.8822 30.0739 31.3495 30.3693 30.9602 30.9602C30.5738 31.5483 30.3792 32.3778 30.3763 33.4489H30.4445C30.6036 33.2074 30.7925 33.0014 31.0113 32.831C31.2329 32.6577 31.4772 32.5241 31.7442 32.4304C32.0113 32.3366 32.294 32.2898 32.5923 32.2898C33.0923 32.2898 33.5496 32.4148 33.9644 32.6648C34.3792 32.9119 34.7115 33.2543 34.9615 33.6918C35.2115 34.1264 35.3364 34.625 35.3364 35.1875C35.3364 35.7273 35.2156 36.2216 34.9741 36.6705C34.7326 37.1165 34.3931 37.4716 33.9556 37.7358C33.5209 37.9972 33.0095 38.125 32.4215 38.1193ZM32.4215 37.1818C32.7795 37.1818 33.1005 37.0923 33.3846 36.9134C33.6715 36.7344 33.8974 36.4943 34.0622 36.1932C34.2298 35.892 34.3137 35.5568 34.3137 35.1875C34.3137 34.8267 34.2328 34.4986 34.0708 34.2031C33.9118 33.9048 33.6916 33.6676 33.4104 33.4915C33.132 33.3153 32.8138 33.2273 32.4558 33.2273C32.186 33.2273 31.9345 33.2812 31.7016 33.3892C31.4686 33.4943 31.2641 33.6392 31.0879 33.8239C30.9146 34.0085 30.7782 34.2202 30.6788 34.4588C30.5793 34.6946 30.5296 34.9432 30.5296 35.2045C30.5296 35.5511 30.6105 35.875 30.7724 36.1761C30.9372 36.4773 31.1616 36.7202 31.4457 36.9048C31.7326 37.0895 32.0579 37.1818 32.4215 37.1818ZM42.0749 31.4545L42.0745 38H41.0688L41.0692 31.4545H42.0749ZM41.6827 34.5739L41.6826 35.5114C41.4553 35.5966 41.2295 35.6719 41.0051 35.7372C40.7806 35.7997 40.5448 35.8494 40.2977 35.8864C40.0505 35.9205 39.7792 35.9375 39.4837 35.9375C38.7423 35.9375 38.1471 35.7372 37.6983 35.3366C37.2523 34.9361 37.0293 34.3352 37.0293 33.5341L37.0295 31.4375H38.0351L38.035 33.5341C38.035 33.8693 38.0989 34.1449 38.2267 34.3608C38.3546 34.5767 38.5278 34.7372 38.7466 34.8423C38.9653 34.9474 39.2111 35 39.4838 35C39.9099 35 40.2949 34.9616 40.6386 34.8849C40.9852 34.8054 41.3332 34.7017 41.6827 34.5739Z" fill="#7B8997"/>
<path d="M52.0039 24H126.004C128.213 24 130.004 25.7909 130.004 28V40C130.004 42.2091 128.213 44 126.004 44H52.0039V24Z" fill="#B7DC99"/>
<path d="M117.932 38V36.6705L121.039 33.794C121.303 33.5384 121.524 33.3082 121.703 33.1037C121.885 32.8991 122.023 32.6989 122.117 32.5028C122.21 32.304 122.257 32.0895 122.257 31.8594C122.257 31.6037 122.199 31.3835 122.083 31.1989C121.966 31.0114 121.807 30.8679 121.605 30.7685C121.404 30.6662 121.175 30.6151 120.919 30.6151C120.652 30.6151 120.419 30.669 120.22 30.777C120.021 30.8849 119.868 31.0398 119.76 31.2415C119.652 31.4432 119.598 31.6832 119.598 31.9616H117.847C117.847 31.3906 117.976 30.8949 118.235 30.4744C118.493 30.054 118.855 29.7287 119.321 29.4986C119.787 29.2685 120.324 29.1534 120.932 29.1534C121.557 29.1534 122.101 29.2642 122.564 29.4858C123.03 29.7045 123.392 30.0085 123.651 30.3977C123.909 30.7869 124.039 31.233 124.039 31.7358C124.039 32.0653 123.973 32.3906 123.843 32.7116C123.715 33.0327 123.486 33.3892 123.156 33.7812C122.827 34.1705 122.362 34.6378 121.763 35.1832L120.489 36.4318V36.4915H124.154V38H117.932Z" fill="white"/>
<path d="M4.36251 62.1193C3.72046 62.1193 3.1736 61.9446 2.72192 61.5952C2.27023 61.2429 1.92509 60.733 1.68649 60.0653C1.4479 59.3949 1.32863 58.5852 1.32868 57.6364C1.32874 56.6932 1.4481 55.8878 1.68678 55.2202C1.9283 54.5497 2.27492 54.0384 2.72664 53.6861C3.18121 53.331 3.72667 53.1534 4.36304 53.1534C4.9994 53.1534 5.54342 53.331 5.99511 53.6861C6.44963 54.0384 6.79619 54.5497 7.03479 55.2202C7.27623 55.8878 7.39692 56.6932 7.39686 57.6364C7.39681 58.5852 7.27744 59.3949 7.03877 60.0653C6.80009 60.733 6.45489 61.2429 6.00317 61.5952C5.55144 61.9446 5.00455 62.1193 4.36251 62.1193ZM4.36256 61.1818C4.99893 61.1818 5.49326 60.875 5.84557 60.2614C6.19788 59.6477 6.37407 58.7727 6.37414 57.6364C6.37418 56.8807 6.29325 56.2372 6.13135 55.706C5.97229 55.1747 5.7422 54.7699 5.44108 54.4915C5.1428 54.2131 4.78344 54.0739 4.36298 54.0739C3.7323 54.0739 3.23939 54.3849 2.88423 55.0071C2.52908 55.6264 2.35148 56.5028 2.35141 57.6364C2.35137 58.392 2.43087 59.0341 2.58993 59.5625C2.74899 60.0909 2.97766 60.4929 3.27594 60.7685C3.57706 61.044 3.93927 61.1818 4.36256 61.1818ZM11.9136 62.1193C11.5557 62.1136 11.1977 62.0455 10.8398 61.9148C10.4818 61.7841 10.1552 61.5639 9.85972 61.2543C9.56428 60.9418 9.32709 60.5199 9.14815 59.9886C8.9692 59.4545 8.87975 58.7841 8.8798 57.9773C8.87984 57.2017 8.95233 56.5142 9.09725 55.9148C9.24217 55.3125 9.45243 54.8054 9.72802 54.3935C10.0036 53.9815 10.336 53.669 10.7252 53.456C11.1173 53.2429 11.5591 53.1364 12.0505 53.1364C12.5392 53.1364 12.9738 53.2344 13.3545 53.4304C13.738 53.6264 14.0505 53.8991 14.292 54.2486C14.5334 54.5952 14.6896 54.9972 14.7606 55.4545H13.7209C13.6243 55.054 13.4368 54.7244 13.1584 54.4659C12.88 54.2045 12.5107 54.0739 12.0505 54.0739C11.3743 54.0739 10.8417 54.3693 10.4524 54.9602C10.066 55.5483 9.87137 56.3778 9.86847 57.4489H9.93665C10.0958 57.2074 10.2847 57.0014 10.5034 56.831C10.725 56.6577 10.9694 56.5241 11.2364 56.4304C11.5035 56.3366 11.7861 56.2898 12.0844 56.2898C12.5844 56.2898 13.0418 56.4148 13.4566 56.6648C13.8713 56.9119 14.2037 57.2543 14.4537 57.6918C14.7037 58.1264 14.8286 58.625 14.8286 59.1875C14.8286 59.7273 14.7078 60.2216 14.4663 60.6705C14.2248 61.1165 13.8853 61.4716 13.4478 61.7358C13.0131 61.9972 12.5017 62.125 11.9136 62.1193ZM11.9137 61.1818C12.2717 61.1818 12.5927 61.0923 12.8768 60.9134C13.1637 60.7344 13.3896 60.4943 13.5544 60.1932C13.722 59.892 13.8058 59.5568 13.8059 59.1875C13.8059 58.8267 13.7249 58.4986 13.563 58.2031C13.404 57.9048 13.1838 57.6676 12.9026 57.4915C12.6242 57.3153 12.306 57.2273 11.948 57.2273C11.6781 57.2273 11.4267 57.2812 11.1938 57.3892C10.9608 57.4943 10.7562 57.6392 10.5801 57.8239C10.4068 58.0085 10.2704 58.2202 10.171 58.4588C10.0715 58.6946 10.0218 58.9432 10.0218 59.2045C10.0218 59.5511 10.1027 59.875 10.2646 60.1761C10.4294 60.4773 10.6538 60.7202 10.9379 60.9048C11.2248 61.0895 11.5501 61.1818 11.9137 61.1818ZM20.2715 57.7898L20.2714 58.7273H16.4533L16.4533 57.7898H20.2715ZM24.8703 62.1193C24.2283 62.1193 23.6814 61.9446 23.2297 61.5952C22.778 61.2429 22.4329 60.733 22.1943 60.0653C21.9557 59.3949 21.8364 58.5852 21.8365 57.6364C21.8366 56.6932 21.9559 55.8878 22.1946 55.2202C22.4361 54.5497 22.7827 54.0384 23.2345 53.6861C23.689 53.331 24.2345 53.1534 24.8708 53.1534C25.5072 53.1534 26.0512 53.331 26.5029 53.6861C26.9574 54.0384 27.304 54.5497 27.5426 55.2202C27.784 55.8878 27.9047 56.6932 27.9047 57.6364C27.9046 58.5852 27.7853 59.3949 27.5466 60.0653C27.3079 60.733 26.9627 61.2429 26.511 61.5952C26.0593 61.9446 25.5124 62.1193 24.8703 62.1193ZM24.8704 61.1818C25.5067 61.1818 26.0011 60.875 26.3534 60.2614C26.7057 59.6477 26.8819 58.7727 26.8819 57.6364C26.882 56.8807 26.8011 56.2372 26.6392 55.706C26.4801 55.1747 26.25 54.7699 25.9489 54.4915C25.6506 54.2131 25.2912 54.0739 24.8708 54.0739C24.2401 54.0739 23.7472 54.3849 23.392 55.0071C23.0369 55.6264 22.8593 56.5028 22.8592 57.6364C22.8592 58.392 22.9387 59.0341 23.0977 59.5625C23.2568 60.0909 23.4855 60.4929 23.7838 60.7685C24.0849 61.044 24.4471 61.1818 24.8704 61.1818ZM32.3027 53.1364C32.6606 53.1392 33.0186 53.2074 33.3765 53.3409C33.7345 53.4744 34.0612 53.696 34.3566 54.0057C34.652 54.3153 34.8892 54.7372 35.0682 55.2713C35.2471 55.8026 35.3366 56.4716 35.3365 57.2784C35.3365 58.054 35.2626 58.7429 35.1148 59.3452C34.9699 59.9446 34.7596 60.4503 34.484 60.8622C34.2113 61.2741 33.8789 61.5866 33.4868 61.7997C33.0976 62.0128 32.6573 62.1193 32.1658 62.1193C31.6771 62.1193 31.2411 62.0227 30.8576 61.8295C30.4769 61.6335 30.1644 61.3622 29.9201 61.0156C29.6786 60.6662 29.5238 60.2614 29.4557 59.8011H30.4955C30.5892 60.2017 30.7752 60.5327 31.0536 60.794C31.3349 61.0526 31.7056 61.1818 32.1658 61.1818C32.8391 61.1818 33.3704 60.8878 33.7596 60.2997C34.1517 59.7116 34.3478 58.8807 34.3478 57.8068H34.2797C34.1206 58.0455 33.9316 58.2514 33.7129 58.4247C33.4941 58.598 33.2512 58.7315 32.9842 58.8253C32.7171 58.919 32.433 58.9659 32.1319 58.9659C31.6319 58.9659 31.1731 58.8423 30.7555 58.5952C30.3407 58.3452 30.0083 58.0028 29.7584 57.5682C29.5112 57.1307 29.3877 56.6307 29.3877 56.0682C29.3878 55.5284 29.5071 55.0355 29.7458 54.5895C29.9873 54.1435 30.3254 53.7884 30.76 53.5241C31.1975 53.2599 31.7118 53.1307 32.3027 53.1364ZM32.3026 54.0739C31.9447 54.0739 31.6222 54.1634 31.3353 54.3423C31.0512 54.5213 30.8253 54.7614 30.6577 55.0625C30.4929 55.3636 30.4105 55.6989 30.4105 56.0682C30.4104 56.4318 30.49 56.7628 30.649 57.0611C30.8109 57.3565 31.0311 57.5923 31.3095 57.7685C31.5907 57.9418 31.9103 58.0284 32.2683 58.0284C32.5382 58.0284 32.7896 57.9759 33.0226 57.8707C33.2555 57.7628 33.4587 57.6165 33.632 57.4318C33.8081 57.2443 33.9459 57.0327 34.0454 56.7969C34.1448 56.5582 34.1945 56.3097 34.1945 56.0511C34.1946 55.7045 34.1122 55.3807 33.9474 55.0795C33.7855 54.7784 33.5611 54.5355 33.2742 54.3509C32.9901 54.1662 32.6662 54.0739 32.3026 54.0739ZM42.0749 55.4545L42.0745 62H41.0688L41.0692 55.4545H42.0749ZM41.6827 58.5739L41.6826 59.5114C41.4553 59.5966 41.2295 59.6719 41.0051 59.7372C40.7806 59.7997 40.5448 59.8494 40.2977 59.8864C40.0505 59.9205 39.7792 59.9375 39.4837 59.9375C38.7423 59.9375 38.1471 59.7372 37.6983 59.3366C37.2523 58.9361 37.0293 58.3352 37.0293 57.5341L37.0295 55.4375H38.0351L38.035 57.5341C38.035 57.8693 38.0989 58.1449 38.2267 58.3608C38.3546 58.5767 38.5278 58.7372 38.7466 58.8423C38.9653 58.9474 39.2111 59 39.4838 59C39.9099 59 40.2949 58.9616 40.6386 58.8849C40.9852 58.8054 41.3332 58.7017 41.6827 58.5739Z" fill="#7B8997"/>
<path d="M52.0039 48H166.004C168.213 48 170.004 49.7909 170.004 52V64C170.004 66.2091 168.213 68 166.004 68H52.0039V48Z" fill="#6EBA33"/>
<path d="M160.982 62.1193C160.346 62.1193 159.779 62.0099 159.282 61.7912C158.787 61.5696 158.397 61.2656 158.11 60.8793C157.826 60.4901 157.68 60.0412 157.671 59.5327H159.529C159.54 59.7457 159.61 59.9332 159.738 60.0952C159.868 60.2543 160.042 60.3778 160.258 60.4659C160.474 60.554 160.716 60.598 160.986 60.598C161.268 60.598 161.516 60.5483 161.732 60.4489C161.948 60.3494 162.117 60.2116 162.239 60.0355C162.361 59.8594 162.422 59.6562 162.422 59.4261C162.422 59.1932 162.357 58.9872 162.226 58.8082C162.099 58.6264 161.914 58.4844 161.672 58.3821C161.434 58.2798 161.15 58.2287 160.82 58.2287H160.006V56.8736H160.82C161.099 56.8736 161.344 56.8253 161.557 56.7287C161.773 56.6321 161.941 56.4986 162.06 56.3281C162.18 56.1548 162.239 55.9531 162.239 55.723C162.239 55.5043 162.187 55.3125 162.081 55.1477C161.979 54.9801 161.834 54.8494 161.647 54.7557C161.462 54.6619 161.246 54.6151 160.999 54.6151C160.749 54.6151 160.52 54.6605 160.313 54.7514C160.106 54.8395 159.939 54.9659 159.814 55.1307C159.689 55.2955 159.623 55.4886 159.614 55.7102H157.846C157.854 55.2074 157.998 54.7642 158.276 54.3807C158.555 53.9972 158.93 53.6974 159.401 53.4815C159.876 53.2628 160.411 53.1534 161.008 53.1534C161.61 53.1534 162.137 53.2628 162.589 53.4815C163.04 53.7003 163.391 53.9957 163.641 54.3679C163.894 54.7372 164.019 55.152 164.016 55.6122C164.019 56.1009 163.867 56.5085 163.56 56.8352C163.256 57.1619 162.86 57.3693 162.371 57.4574V57.5256C163.013 57.608 163.502 57.831 163.837 58.1946C164.175 58.5554 164.343 59.0071 164.34 59.5497C164.343 60.0469 164.199 60.4886 163.91 60.875C163.623 61.2614 163.226 61.5653 162.721 61.7869C162.215 62.0085 161.635 62.1193 160.982 62.1193Z" fill="white"/>
<path d="M6.50704 86.1193C5.865 86.1193 5.31813 85.9446 4.86645 85.5952C4.41476 85.2429 4.06962 84.733 3.83103 84.0653C3.59243 83.3949 3.47316 82.5852 3.47321 81.6364C3.47327 80.6932 3.59263 79.8878 3.83131 79.2202C4.07283 78.5497 4.41945 78.0384 4.87117 77.6861C5.32574 77.331 5.8712 77.1534 6.50757 77.1534C7.14393 77.1534 7.68796 77.331 8.13964 77.6861C8.59416 78.0384 8.94072 78.5497 9.17932 79.2202C9.42076 79.8878 9.54145 80.6932 9.5414 81.6364C9.54134 82.5852 9.42197 83.3949 9.1833 84.0653C8.94462 84.733 8.59942 85.2429 8.1477 85.5952C7.69597 85.9446 7.14909 86.1193 6.50704 86.1193ZM6.5071 85.1818C7.14346 85.1818 7.6378 84.875 7.9901 84.2614C8.34241 83.6477 8.5186 82.7727 8.51867 81.6364C8.51871 80.8807 8.43778 80.2372 8.27588 79.706C8.11682 79.1747 7.88673 78.7699 7.58561 78.4915C7.28734 78.2131 6.92797 78.0739 6.50751 78.0739C5.87683 78.0739 5.38392 78.3849 5.02877 79.0071C4.67362 79.6264 4.49601 80.5028 4.49594 81.6364C4.4959 82.392 4.5754 83.0341 4.73446 83.5625C4.89352 84.0909 5.12219 84.4929 5.42047 84.7685C5.72159 85.044 6.0838 85.1818 6.5071 85.1818ZM13.9394 77.1364C14.2973 77.1392 14.6553 77.2074 15.0132 77.3409C15.3712 77.4744 15.6979 77.696 15.9933 78.0057C16.2888 78.3153 16.5259 78.7372 16.7049 79.2713C16.8838 79.8026 16.9733 80.4716 16.9732 81.2784C16.9732 82.054 16.8993 82.7429 16.7515 83.3452C16.6066 83.9446 16.3963 84.4503 16.1208 84.8622C15.848 85.2741 15.5156 85.5866 15.1235 85.7997C14.7343 86.0128 14.294 86.1193 13.8025 86.1193C13.3139 86.1193 12.8778 86.0227 12.4943 85.8295C12.1136 85.6335 11.8011 85.3622 11.5568 85.0156C11.3154 84.6662 11.1606 84.2614 11.0924 83.8011H12.1322C12.2259 84.2017 12.412 84.5327 12.6904 84.794C12.9716 85.0526 13.3423 85.1818 13.8026 85.1818C14.4758 85.1818 15.0071 84.8878 15.3964 84.2997C15.7884 83.7116 15.9845 82.8807 15.9846 81.8068H15.9164C15.7573 82.0455 15.5683 82.2514 15.3496 82.4247C15.1308 82.598 14.8879 82.7315 14.6209 82.8253C14.3538 82.919 14.0697 82.9659 13.7686 82.9659C13.2686 82.9659 12.8098 82.8423 12.3922 82.5952C11.9774 82.3452 11.6451 82.0028 11.3951 81.5682C11.148 81.1307 11.0244 80.6307 11.0244 80.0682C11.0245 79.5284 11.1438 79.0355 11.3825 78.5895C11.624 78.1435 11.9621 77.7884 12.3968 77.5241C12.8343 77.2599 13.3485 77.1307 13.9394 77.1364ZM13.9393 78.0739C13.5814 78.0739 13.2589 78.1634 12.972 78.3423C12.6879 78.5213 12.462 78.7614 12.2944 79.0625C12.1296 79.3636 12.0472 79.6989 12.0472 80.0682C12.0471 80.4318 12.1267 80.7628 12.2857 81.0611C12.4477 81.3565 12.6678 81.5923 12.9462 81.7685C13.2275 81.9418 13.5471 82.0284 13.905 82.0284C14.1749 82.0284 14.4263 81.9759 14.6593 81.8707C14.8922 81.7628 15.0954 81.6165 15.2687 81.4318C15.4448 81.2443 15.5826 81.0327 15.6821 80.7969C15.7815 80.5582 15.8312 80.3097 15.8313 80.0511C15.8313 79.7045 15.7489 79.3807 15.5842 79.0795C15.4222 78.7784 15.1978 78.5355 14.9109 78.3509C14.6268 78.1662 14.303 78.0739 13.9393 78.0739ZM22.416 81.7898L22.416 82.7273H18.5978L18.5978 81.7898H22.416ZM27.237 77.2727L27.2365 86H26.1796L26.1801 78.3807H26.1289L23.9982 79.7955L23.9982 78.7216L26.1801 77.2727H27.237ZM29.7464 86L29.7464 85.233L32.6273 82.0795C32.9654 81.7102 33.2438 81.3892 33.4626 81.1165C33.6814 80.8409 33.8433 80.5824 33.9484 80.3409C34.0564 80.0966 34.1104 79.8409 34.1104 79.5739C34.1104 79.267 34.0366 79.0014 33.8889 78.777C33.744 78.5526 33.5451 78.3793 33.2923 78.2571C33.0395 78.1349 32.7554 78.0739 32.44 78.0739C32.1048 78.0739 31.8122 78.1435 31.5622 78.2827C31.315 78.419 31.1232 78.6108 30.9869 78.858C30.8533 79.1051 30.7866 79.3949 30.7865 79.7273H29.7809C29.7809 79.2159 29.8988 78.767 30.1346 78.3807C30.3704 77.9943 30.6915 77.6932 31.0977 77.4773C31.5069 77.2614 31.9657 77.1534 32.4742 77.1534C32.9856 77.1534 33.4387 77.2614 33.8335 77.4773C34.2284 77.6932 34.5381 77.9844 34.7625 78.3509C34.9869 78.7173 35.0991 79.125 35.099 79.5739C35.099 79.8949 35.0408 80.2088 34.9243 80.5156C34.8106 80.8196 34.6117 81.1591 34.3276 81.5341C34.0464 81.9062 33.6557 82.3608 33.1557 82.8977L31.1953 84.9943L31.1953 85.0625H35.2521L35.2521 86H29.7464ZM42.0749 79.4545L42.0745 86H41.0688L41.0692 79.4545H42.0749ZM41.6827 82.5739L41.6826 83.5114C41.4553 83.5966 41.2295 83.6719 41.0051 83.7372C40.7806 83.7997 40.5448 83.8494 40.2977 83.8864C40.0505 83.9205 39.7792 83.9375 39.4837 83.9375C38.7423 83.9375 38.1471 83.7372 37.6983 83.3366C37.2523 82.9361 37.0293 82.3352 37.0293 81.5341L37.0295 79.4375H38.0351L38.035 81.5341C38.035 81.8693 38.0989 82.1449 38.2267 82.3608C38.3546 82.5767 38.5278 82.7372 38.7466 82.8423C38.9653 82.9474 39.2111 83 39.4838 83C39.9099 83 40.2949 82.9616 40.6386 82.8849C40.9852 82.8054 41.3332 82.7017 41.6827 82.5739Z" fill="#7B8997"/>
<path d="M52.0039 72H206.004C208.213 72 210.004 73.7909 210.004 76V88C210.004 90.2091 208.213 92 206.004 92H52.0039V72Z" fill="#FEC532"/>
<path d="M198.013 84.4659V83.0128L201.656 77.2727H202.909V79.2841H202.168L199.871 82.919V82.9872H205.048V84.4659H198.013ZM202.202 86V84.0227L202.236 83.3793V77.2727H203.966V86H202.202Z" fill="white"/>
<path d="M8.83853 101.273L8.83801 110H7.7812L7.78164 102.381H7.73051L5.59974 103.795L5.59981 102.722L7.78171 101.273H8.83853ZM11.348 110L11.348 109.233L14.2289 106.08C14.567 105.71 14.8454 105.389 15.0642 105.116C15.2829 104.841 15.4449 104.582 15.55 104.341C15.658 104.097 15.712 103.841 15.712 103.574C15.712 103.267 15.6381 103.001 15.4904 102.777C15.3456 102.553 15.1467 102.379 14.8939 102.257C14.641 102.135 14.3569 102.074 14.0416 102.074C13.7064 102.074 13.4138 102.143 13.1638 102.283C12.9166 102.419 12.7248 102.611 12.5884 102.858C12.4549 103.105 12.3881 103.395 12.3881 103.727H11.3824C11.3824 103.216 11.5004 102.767 11.7362 102.381C11.972 101.994 12.293 101.693 12.6993 101.477C13.1084 101.261 13.5672 101.153 14.0757 101.153C14.5871 101.153 15.0402 101.261 15.4351 101.477C15.83 101.693 16.1396 101.984 16.364 102.351C16.5884 102.717 16.7006 103.125 16.7006 103.574C16.7006 103.895 16.6423 104.209 16.5258 104.516C16.4122 104.82 16.2133 105.159 15.9292 105.534C15.6479 105.906 15.2573 106.361 14.7572 106.898L12.7969 108.994L12.7969 109.062H16.8537L16.8536 110H11.348ZM22.3809 105.79L22.3808 106.727H18.5626L18.5627 105.79H22.3809ZM27.2018 101.273L27.2013 110H26.1445L26.1449 102.381H26.0938L23.963 103.795L23.9631 102.722L26.145 101.273H27.2018ZM32.4385 110.119C31.9385 110.119 31.4882 110.02 31.0877 109.821C30.6871 109.622 30.3661 109.349 30.1246 109.003C29.8832 108.656 29.7511 108.261 29.7284 107.818H30.7511C30.7909 108.213 30.9698 108.54 31.288 108.798C31.609 109.054 31.9925 109.182 32.4386 109.182C32.7965 109.182 33.1147 109.098 33.3931 108.93C33.6744 108.763 33.8946 108.533 34.0537 108.24C34.2156 107.945 34.2966 107.611 34.2966 107.239C34.2967 106.858 34.2129 106.518 34.0453 106.22C33.8805 105.919 33.6533 105.682 33.3635 105.509C33.0737 105.335 32.7428 105.247 32.3706 105.244C32.1036 105.241 31.8294 105.283 31.5482 105.368C31.2669 105.45 31.0354 105.557 30.8535 105.687L29.8649 105.568L30.3936 101.273H34.9277L34.9276 102.21H31.2799L30.9729 104.784H31.024C31.203 104.642 31.4275 104.524 31.6974 104.43C31.9673 104.337 32.2485 104.29 32.5411 104.29C33.0752 104.29 33.5511 104.418 33.9687 104.673C34.3891 104.926 34.7186 105.273 34.9572 105.713C35.1987 106.153 35.3194 106.656 35.3194 107.222C35.3193 107.778 35.1943 108.276 34.9443 108.713C34.6971 109.148 34.3562 109.491 33.9215 109.744C33.4868 109.994 32.9925 110.119 32.4385 110.119ZM42.0749 103.455L42.0745 110H41.0688L41.0692 103.455H42.0749ZM41.6827 106.574L41.6826 107.511C41.4553 107.597 41.2295 107.672 41.0051 107.737C40.7806 107.8 40.5448 107.849 40.2977 107.886C40.0505 107.92 39.7792 107.937 39.4837 107.937C38.7423 107.937 38.1471 107.737 37.6983 107.337C37.2523 106.936 37.0293 106.335 37.0293 105.534L37.0295 103.437H38.0351L38.035 105.534C38.035 105.869 38.0989 106.145 38.2267 106.361C38.3546 106.577 38.5278 106.737 38.7466 106.842C38.9653 106.947 39.2111 107 39.4838 107C39.9099 107 40.2949 106.962 40.6386 106.885C40.9852 106.805 41.3332 106.702 41.6827 106.574Z" fill="#7B8997"/>
<path d="M52.0039 96H246.004C248.213 96 250.004 97.7909 250.004 100V112C250.004 114.209 248.213 116 246.004 116H52.0039V96Z" fill="#FE9432"/>
<path d="M241.032 110.119C240.429 110.119 239.892 110.009 239.421 109.787C238.952 109.565 238.58 109.26 238.304 108.871C238.029 108.482 237.885 108.036 237.874 107.533H239.664C239.684 107.871 239.826 108.145 240.09 108.355C240.354 108.565 240.668 108.67 241.032 108.67C241.321 108.67 241.577 108.607 241.799 108.479C242.023 108.348 242.198 108.168 242.323 107.938C242.451 107.705 242.515 107.437 242.515 107.136C242.515 106.83 242.449 106.56 242.319 106.327C242.191 106.094 242.013 105.912 241.786 105.781C241.559 105.651 241.299 105.584 241.006 105.581C240.75 105.581 240.502 105.634 240.26 105.739C240.022 105.844 239.836 105.987 239.702 106.169L238.061 105.875L238.475 101.273H243.81V102.781H239.996L239.77 104.967H239.821C239.975 104.751 240.206 104.572 240.516 104.43C240.826 104.288 241.172 104.217 241.556 104.217C242.081 104.217 242.55 104.341 242.962 104.588C243.374 104.835 243.699 105.175 243.938 105.607C244.176 106.036 244.294 106.53 244.292 107.089C244.294 107.678 244.158 108.2 243.882 108.658C243.61 109.112 243.228 109.47 242.736 109.732C242.248 109.99 241.679 110.119 241.032 110.119Z" fill="white"/>
<path d="M8.70962 125.273L8.70911 134H7.65229L7.65274 126.381H7.6016L5.47084 127.795L5.4709 126.722L7.6528 125.273H8.70962ZM13.9463 134.119C13.4463 134.119 12.996 134.02 12.5955 133.821C12.1949 133.622 11.8739 133.349 11.6325 133.003C11.391 132.656 11.2589 132.261 11.2362 131.818H12.259C12.2987 132.213 12.4777 132.54 12.7958 132.798C13.1168 133.054 13.5003 133.182 13.9464 133.182C14.3043 133.182 14.6225 133.098 14.9009 132.93C15.1822 132.763 15.4024 132.533 15.5615 132.24C15.7234 131.945 15.8044 131.611 15.8044 131.239C15.8045 130.858 15.7207 130.518 15.5531 130.22C15.3883 129.919 15.1611 129.682 14.8713 129.509C14.5815 129.335 14.2506 129.247 13.8784 129.244C13.6114 129.241 13.3372 129.283 13.056 129.368C12.7747 129.45 12.5432 129.557 12.3613 129.687L11.3727 129.568L11.9014 125.273H16.4355L16.4354 126.21H12.7877L12.4807 128.784H12.5319C12.7108 128.642 12.9353 128.524 13.2052 128.43C13.4751 128.337 13.7563 128.29 14.0489 128.29C14.583 128.29 15.0589 128.418 15.4765 128.673C15.8969 128.926 16.2264 129.273 16.465 129.713C16.7065 130.153 16.8272 130.656 16.8272 131.222C16.8271 131.778 16.7021 132.276 16.4521 132.713C16.2049 133.148 15.864 133.491 15.4293 133.744C14.9946 133.994 14.5003 134.119 13.9463 134.119ZM22.2871 129.79L22.2871 130.727H18.4689L18.4689 129.79H22.2871ZM27.1081 125.273L27.1075 134H26.0507L26.0512 126.381H26L23.8693 127.795L23.8693 126.722L26.0512 125.273H27.1081ZM32.4129 134.119C31.8277 134.119 31.3107 134.016 30.8618 133.808C30.4158 133.598 30.0678 133.31 29.8178 132.943C29.5679 132.574 29.4443 132.153 29.4472 131.682C29.4444 131.312 29.5168 130.972 29.6646 130.659C29.8123 130.344 30.014 130.081 30.2697 129.871C30.5283 129.658 30.8166 129.523 31.1348 129.466L31.1348 129.415C30.7172 129.307 30.3848 129.072 30.1377 128.712C29.8905 128.348 29.7684 127.935 29.7713 127.472C29.7685 127.028 29.8807 126.632 30.108 126.283C30.3353 125.933 30.6478 125.658 31.0455 125.456C31.4461 125.254 31.9021 125.153 32.4135 125.153C32.9191 125.153 33.3708 125.254 33.7686 125.456C34.1663 125.658 34.4788 125.933 34.706 126.283C34.9361 126.632 35.0526 127.028 35.0554 127.472C35.0525 127.935 34.9261 128.348 34.676 128.712C34.4289 129.072 34.1007 129.307 33.6916 129.415L33.6916 129.466C34.007 129.523 34.291 129.658 34.5439 129.871C34.7967 130.081 34.9984 130.344 35.1489 130.659C35.2995 130.972 35.3762 131.312 35.379 131.682C35.3761 132.153 35.2483 132.574 34.9954 132.943C34.7454 133.31 34.3973 133.598 33.9513 133.808C33.5081 134.016 32.9953 134.119 32.4129 134.119ZM32.413 133.182C32.8079 133.182 33.1488 133.118 33.4357 132.99C33.7227 132.862 33.9443 132.682 34.1005 132.449C34.2568 132.216 34.3364 131.943 34.3392 131.631C34.3364 131.301 34.2512 131.01 34.0836 130.757C33.916 130.504 33.6873 130.305 33.3975 130.161C33.1106 130.016 32.7825 129.943 32.4132 129.943C32.041 129.943 31.7086 130.016 31.416 130.161C31.1262 130.305 30.8975 130.504 30.7299 130.757C30.5651 131.01 30.4841 131.301 30.4869 131.631C30.4841 131.943 30.5594 132.216 30.7127 132.449C30.869 132.682 31.092 132.862 31.3818 132.99C31.6715 133.118 32.0153 133.182 32.413 133.182ZM32.4132 129.04C32.7257 129.04 33.0027 128.977 33.2442 128.852C33.4885 128.727 33.6803 128.553 33.8195 128.328C33.9587 128.104 34.0298 127.841 34.0326 127.54C34.0298 127.244 33.9602 126.987 33.8239 126.768C33.6875 126.547 33.4986 126.376 33.2571 126.257C33.0157 126.135 32.7344 126.074 32.4134 126.074C32.0867 126.074 31.8012 126.135 31.5569 126.257C31.3125 126.376 31.1236 126.547 30.9901 126.768C30.8565 126.987 30.7912 127.244 30.794 127.54C30.7911 127.841 30.8579 128.104 30.9942 128.328C31.1334 128.553 31.3252 128.727 31.5695 128.852C31.8138 128.977 32.0951 129.04 32.4132 129.04ZM42.0749 127.455L42.0745 134H41.0688L41.0692 127.455H42.0749ZM41.6827 130.574L41.6826 131.511C41.4553 131.597 41.2295 131.672 41.0051 131.737C40.7806 131.8 40.5448 131.849 40.2977 131.886C40.0505 131.92 39.7792 131.937 39.4837 131.937C38.7423 131.937 38.1471 131.737 37.6983 131.337C37.2523 130.936 37.0293 130.335 37.0293 129.534L37.0295 127.437H38.0351L38.035 129.534C38.035 129.869 38.0989 130.145 38.2267 130.361C38.3546 130.577 38.5278 130.737 38.7466 130.842C38.9653 130.947 39.2111 131 39.4838 131C39.9099 131 40.2949 130.962 40.6386 130.885C40.9852 130.805 41.3332 130.702 41.6827 130.574Z" fill="#7B8997"/>
<path d="M52.0039 120H286.004C288.213 120 290.004 121.791 290.004 124V136C290.004 138.209 288.213 140 286.004 140H52.0039V120Z" fill="#FE6332"/>
<path d="M281.1 134.119C280.651 134.116 280.218 134.041 279.8 133.893C279.385 133.746 279.013 133.506 278.684 133.173C278.357 132.841 278.097 132.401 277.904 131.852C277.713 131.304 277.617 130.631 277.614 129.832C277.617 129.094 277.701 128.433 277.865 127.851C278.033 127.268 278.272 126.776 278.581 126.372C278.894 125.966 279.267 125.658 279.702 125.447C280.137 125.234 280.624 125.128 281.164 125.128C281.746 125.128 282.26 125.241 282.706 125.469C283.152 125.696 283.51 126.004 283.78 126.393C284.053 126.783 284.218 127.222 284.275 127.71H282.455C282.384 127.392 282.235 127.146 282.007 126.973C281.78 126.797 281.499 126.709 281.164 126.709C280.596 126.709 280.164 126.957 279.868 127.455C279.576 127.949 279.426 128.628 279.421 129.491H279.48C279.611 129.233 279.787 129.013 280.009 128.831C280.233 128.646 280.488 128.506 280.772 128.409C281.059 128.31 281.361 128.26 281.679 128.26C282.196 128.26 282.657 128.382 283.06 128.626C283.463 128.868 283.782 129.2 284.015 129.624C284.248 130.047 284.364 130.531 284.364 131.077C284.364 131.668 284.226 132.193 283.951 132.653C283.678 133.114 283.296 133.474 282.804 133.736C282.316 133.994 281.748 134.122 281.1 134.119ZM281.091 132.67C281.375 132.67 281.63 132.602 281.854 132.466C282.078 132.33 282.255 132.145 282.382 131.912C282.51 131.679 282.574 131.418 282.574 131.128C282.574 130.838 282.51 130.578 282.382 130.348C282.257 130.118 282.084 129.935 281.863 129.798C281.641 129.662 281.388 129.594 281.104 129.594C280.891 129.594 280.694 129.634 280.512 129.713C280.333 129.793 280.175 129.903 280.039 130.045C279.905 130.187 279.8 130.352 279.723 130.54C279.647 130.724 279.608 130.922 279.608 131.132C279.608 131.413 279.672 131.67 279.8 131.903C279.931 132.136 280.107 132.322 280.328 132.462C280.553 132.601 280.807 132.67 281.091 132.67Z" fill="white"/>
<path d="M9.15493 149.273L9.15442 158H8.0976L8.09805 150.381H8.04691L5.91615 151.795L5.91621 150.722L8.09812 149.273H9.15493ZM14.4598 158.119C13.8746 158.119 13.3575 158.016 12.9087 157.808C12.4627 157.598 12.1147 157.31 11.8647 156.943C11.6147 156.574 11.4912 156.153 11.494 155.682C11.4912 155.312 11.5637 154.972 11.7114 154.659C11.8592 154.344 12.0609 154.081 12.3166 153.871C12.5751 153.658 12.8635 153.523 13.1817 153.466L13.1817 153.415C12.7641 153.307 12.4317 153.072 12.1846 152.712C11.9374 152.348 11.8153 151.935 11.8182 151.472C11.8153 151.028 11.9276 150.632 12.1549 150.283C12.3822 149.933 12.6947 149.658 13.0924 149.456C13.493 149.254 13.949 149.153 14.4603 149.153C14.966 149.153 15.4177 149.254 15.8154 149.456C16.2131 149.658 16.5256 149.933 16.7529 150.283C16.983 150.632 17.0994 151.028 17.1022 151.472C17.0994 151.935 16.9729 152.348 16.7229 152.712C16.4757 153.072 16.1476 153.307 15.7385 153.415L15.7385 153.466C16.0538 153.523 16.3379 153.658 16.5907 153.871C16.8436 154.081 17.0453 154.344 17.1958 154.659C17.3464 154.972 17.423 155.312 17.4259 155.682C17.423 156.153 17.2951 156.574 17.0423 156.943C16.7922 157.31 16.4442 157.598 15.9982 157.808C15.555 158.016 15.0422 158.119 14.4598 158.119ZM14.4599 157.182C14.8548 157.182 15.1957 157.118 15.4826 156.99C15.7695 156.862 15.9911 156.682 16.1474 156.449C16.3037 156.216 16.3832 155.943 16.3861 155.631C16.3833 155.301 16.2981 155.01 16.1305 154.757C15.9629 154.504 15.7342 154.305 15.4444 154.161C15.1575 154.016 14.8294 153.943 14.4601 153.943C14.0879 153.943 13.7555 154.016 13.4629 154.161C13.1731 154.305 12.9444 154.504 12.7768 154.757C12.612 155.01 12.531 155.301 12.5338 155.631C12.531 155.943 12.6062 156.216 12.7596 156.449C12.9159 156.682 13.1389 156.862 13.4286 156.99C13.7184 157.118 14.0621 157.182 14.4599 157.182ZM14.4601 153.04C14.7726 153.04 15.0496 152.977 15.2911 152.852C15.5354 152.727 15.7272 152.553 15.8664 152.328C16.0056 152.104 16.0767 151.841 16.0795 151.54C16.0767 151.244 16.0071 150.987 15.8708 150.768C15.7344 150.547 15.5455 150.376 15.304 150.257C15.0626 150.135 14.7813 150.074 14.4603 150.074C14.1336 150.074 13.8481 150.135 13.6037 150.257C13.3594 150.376 13.1705 150.547 13.0369 150.768C12.9034 150.987 12.8381 151.244 12.8409 151.54C12.838 151.841 12.9048 152.104 13.0411 152.328C13.1803 152.553 13.3721 152.727 13.6164 152.852C13.8607 152.977 14.1419 153.04 14.4601 153.04ZM22.8262 153.79L22.8261 154.727H19.008L19.008 153.79H22.8262ZM24.1683 158L24.1683 157.233L27.0492 154.08C27.3873 153.71 27.6657 153.389 27.8845 153.116C28.1032 152.841 28.2652 152.582 28.3703 152.341C28.4783 152.097 28.5323 151.841 28.5323 151.574C28.5323 151.267 28.4585 151.001 28.3107 150.777C28.1659 150.553 27.967 150.379 27.7142 150.257C27.4613 150.135 27.1773 150.074 26.8619 150.074C26.5267 150.074 26.2341 150.143 25.9841 150.283C25.7369 150.419 25.5451 150.611 25.4087 150.858C25.2752 151.105 25.2084 151.395 25.2084 151.727H24.2027C24.2028 151.216 24.3207 150.767 24.5565 150.381C24.7923 149.994 25.1134 149.693 25.5196 149.477C25.9287 149.261 26.3875 149.153 26.8961 149.153C27.4074 149.153 27.8605 149.261 28.2554 149.477C28.6503 149.693 28.9599 149.984 29.1843 150.351C29.4088 150.717 29.5209 151.125 29.5209 151.574C29.5209 151.895 29.4626 152.209 29.3461 152.516C29.2325 152.82 29.0336 153.159 28.7495 153.534C28.4682 153.906 28.0776 154.361 27.5775 154.898L25.6172 156.994L25.6172 157.062H29.674L29.674 158H24.1683ZM34.5026 149.273L34.5021 158H33.4453L33.4457 150.381H33.3946L31.2638 151.795L31.2639 150.722L33.4458 149.273H34.5026ZM42.0749 151.455L42.0745 158H41.0688L41.0692 151.455H42.0749ZM41.6827 154.574L41.6826 155.511C41.4553 155.597 41.2295 155.672 41.0051 155.737C40.7806 155.8 40.5448 155.849 40.2977 155.886C40.0505 155.92 39.7792 155.937 39.4837 155.937C38.7423 155.937 38.1471 155.737 37.6983 155.337C37.2523 154.936 37.0293 154.335 37.0293 153.534L37.0295 151.437H38.0351L38.035 153.534C38.035 153.869 38.0989 154.145 38.2267 154.361C38.3546 154.577 38.5278 154.737 38.7466 154.842C38.9653 154.947 39.2111 155 39.4838 155C39.9099 155 40.2949 154.962 40.6386 154.885C40.9852 154.805 41.3332 154.702 41.6827 154.574Z" fill="#7B8997"/>
<path d="M52.0039 144H206.004C208.213 144 210.004 145.791 210.004 148V160C210.004 162.209 208.213 164 206.004 164H52.0039V144Z" fill="#FEC532"/>
<path d="M198.013 156.466V155.013L201.656 149.273H202.909V151.284H202.168L199.871 154.919V154.987H205.048V156.466H198.013ZM202.202 158V156.023L202.236 155.379V149.273H203.966V158H202.202Z" fill="white"/>
<path d="M3.64874 182L3.64878 181.233L6.52965 178.08C6.86774 177.71 7.14617 177.389 7.36493 177.116C7.5837 176.841 7.74565 176.582 7.85078 176.341C7.95874 176.097 8.01274 175.841 8.01275 175.574C8.01277 175.267 7.93892 175.001 7.79121 174.777C7.64634 174.553 7.44748 174.379 7.19465 174.257C6.94181 174.135 6.65773 174.074 6.34239 174.074C6.00716 174.074 5.71454 174.143 5.46453 174.283C5.21737 174.419 5.02559 174.611 4.88922 174.858C4.75568 175.105 4.6889 175.395 4.68888 175.727H3.6832C3.68323 175.216 3.80115 174.767 4.03697 174.381C4.27279 173.994 4.59383 173.693 5.00009 173.477C5.4092 173.261 5.86801 173.153 6.37653 173.153C6.88789 173.153 7.34101 173.261 7.73589 173.477C8.13076 173.693 8.4404 173.984 8.66481 174.351C8.88922 174.717 9.00142 175.125 9.00139 175.574C9.00137 175.895 8.94311 176.209 8.82662 176.516C8.71296 176.82 8.51408 177.159 8.22997 177.534C7.94869 177.906 7.55804 178.361 7.05801 178.898L5.09766 180.994L5.09766 181.062H9.15448L9.15442 182H3.64874ZM13.9831 173.273L13.9825 182H12.9257L12.9262 174.381H12.875L10.7443 175.795L10.7443 174.722L12.9262 173.273H13.9831ZM20.2598 177.79L20.2597 178.727H16.4415L16.4416 177.79H20.2598ZM24.8586 182.119C24.2166 182.119 23.6697 181.945 23.218 181.595C22.7663 181.243 22.4212 180.733 22.1826 180.065C21.944 179.395 21.8247 178.585 21.8248 177.636C21.8248 176.693 21.9442 175.888 22.1829 175.22C22.4244 174.55 22.771 174.038 23.2227 173.686C23.6773 173.331 24.2228 173.153 24.8591 173.153C25.4955 173.153 26.0395 173.331 26.4912 173.686C26.9457 174.038 27.2923 174.55 27.5309 175.22C27.7723 175.888 27.893 176.693 27.893 177.636C27.8929 178.585 27.7735 179.395 27.5349 180.065C27.2962 180.733 26.951 181.243 26.4993 181.595C26.0475 181.945 25.5006 182.119 24.8586 182.119ZM24.8587 181.182C25.495 181.182 25.9894 180.875 26.3417 180.261C26.694 179.648 26.8702 178.773 26.8702 177.636C26.8703 176.881 26.7893 176.237 26.6274 175.706C26.4684 175.175 26.2383 174.77 25.9372 174.491C25.6389 174.213 25.2795 174.074 24.8591 174.074C24.2284 174.074 23.7355 174.385 23.3803 175.007C23.0252 175.626 22.8476 176.503 22.8475 177.636C22.8475 178.392 22.927 179.034 23.086 179.562C23.2451 180.091 23.4738 180.493 23.772 180.768C24.0732 181.044 24.4354 181.182 24.8587 181.182ZM32.3586 182.119C31.7166 182.119 31.1697 181.945 30.718 181.595C30.2663 181.243 29.9212 180.733 29.6826 180.065C29.444 179.395 29.3247 178.585 29.3248 177.636C29.3248 176.693 29.4442 175.888 29.6829 175.22C29.9244 174.55 30.271 174.038 30.7227 173.686C31.1773 173.331 31.7228 173.153 32.3591 173.153C32.9955 173.153 33.5395 173.331 33.9912 173.686C34.4457 174.038 34.7923 174.55 35.0309 175.22C35.2723 175.888 35.393 176.693 35.393 177.636C35.3929 178.585 35.2735 179.395 35.0349 180.065C34.7962 180.733 34.451 181.243 33.9993 181.595C33.5475 181.945 33.0006 182.119 32.3586 182.119ZM32.3587 181.182C32.995 181.182 33.4894 180.875 33.8417 180.261C34.194 179.648 34.3702 178.773 34.3702 177.636C34.3703 176.881 34.2893 176.237 34.1274 175.706C33.9684 175.175 33.7383 174.77 33.4372 174.491C33.1389 174.213 32.7795 174.074 32.3591 174.074C31.7284 174.074 31.2355 174.385 30.8803 175.007C30.5252 175.626 30.3476 176.503 30.3475 177.636C30.3475 178.392 30.427 179.034 30.586 179.562C30.7451 180.091 30.9738 180.493 31.272 180.768C31.5732 181.044 31.9354 181.182 32.3587 181.182ZM42.0749 175.455L42.0745 182H41.0688L41.0692 175.455H42.0749ZM41.6827 178.574L41.6826 179.511C41.4553 179.597 41.2295 179.672 41.0051 179.737C40.7806 179.8 40.5448 179.849 40.2977 179.886C40.0505 179.92 39.7792 179.937 39.4837 179.937C38.7423 179.937 38.1471 179.737 37.6983 179.337C37.2523 178.936 37.0293 178.335 37.0293 177.534L37.0295 175.437H38.0351L38.035 177.534C38.035 177.869 38.0989 178.145 38.2267 178.361C38.3546 178.577 38.5278 178.737 38.7466 178.842C38.9653 178.947 39.2111 179 39.4838 179C39.9099 179 40.2949 178.962 40.6386 178.885C40.9852 178.805 41.3332 178.702 41.6827 178.574Z" fill="#7B8997"/>
<path d="M52.0039 168H166.004C168.213 168 170.004 169.791 170.004 172V184C170.004 186.209 168.213 188 166.004 188H52.0039V168Z" fill="#6EBA33"/>
<path d="M160.982 182.119C160.346 182.119 159.779 182.01 159.282 181.791C158.787 181.57 158.397 181.266 158.11 180.879C157.826 180.49 157.68 180.041 157.671 179.533H159.529C159.54 179.746 159.61 179.933 159.738 180.095C159.868 180.254 160.042 180.378 160.258 180.466C160.474 180.554 160.716 180.598 160.986 180.598C161.268 180.598 161.516 180.548 161.732 180.449C161.948 180.349 162.117 180.212 162.239 180.036C162.361 179.859 162.422 179.656 162.422 179.426C162.422 179.193 162.357 178.987 162.226 178.808C162.099 178.626 161.914 178.484 161.672 178.382C161.434 178.28 161.15 178.229 160.82 178.229H160.006V176.874H160.82C161.099 176.874 161.344 176.825 161.557 176.729C161.773 176.632 161.941 176.499 162.06 176.328C162.18 176.155 162.239 175.953 162.239 175.723C162.239 175.504 162.187 175.312 162.081 175.148C161.979 174.98 161.834 174.849 161.647 174.756C161.462 174.662 161.246 174.615 160.999 174.615C160.749 174.615 160.52 174.661 160.313 174.751C160.106 174.839 159.939 174.966 159.814 175.131C159.689 175.295 159.623 175.489 159.614 175.71H157.846C157.854 175.207 157.998 174.764 158.276 174.381C158.555 173.997 158.93 173.697 159.401 173.482C159.876 173.263 160.411 173.153 161.008 173.153C161.61 173.153 162.137 173.263 162.589 173.482C163.04 173.7 163.391 173.996 163.641 174.368C163.894 174.737 164.019 175.152 164.016 175.612C164.019 176.101 163.867 176.509 163.56 176.835C163.256 177.162 162.86 177.369 162.371 177.457V177.526C163.013 177.608 163.502 177.831 163.837 178.195C164.175 178.555 164.343 179.007 164.34 179.55C164.343 180.047 164.199 180.489 163.91 180.875C163.623 181.261 163.226 181.565 162.721 181.787C162.215 182.009 161.635 182.119 160.982 182.119Z" fill="white"/>
</svg>
