<svg width="1120" height="205" viewBox="0 0 1120 205" fill="none" xmlns="http://www.w3.org/2000/svg">
<rect x="60" y="9.00049" width="1040" height="1" fill="#E9ECEF"/>
<rect x="60" y="34" width="1040" height="1" fill="#E9ECEF"/>
<rect x="60" y="59" width="1040" height="1" fill="#E9ECEF"/>
<rect x="60" y="84" width="1040" height="1" fill="#E9ECEF"/>
<rect x="60" y="109" width="1040" height="1" fill="#E9ECEF"/>
<rect x="60" y="134" width="1040" height="1" fill="#E9ECEF"/>
<rect x="60" y="159" width="1040" height="1" fill="#E9ECEF"/>
<path d="M48.8011 13.1193C50.5653 13.1406 51.7159 11.8111 51.7159 10.1875C51.7159 8.5 50.4673 7.28977 48.9716 7.28977C48.0724 7.28977 47.3011 7.72869 46.8239 8.44886H46.7557C46.7599 6.32244 47.5866 5.09091 48.9375 5.09091C49.858 5.09091 50.4119 5.67045 50.608 6.45455H51.6477C51.4347 5.09943 50.4034 4.15341 48.9375 4.15341C46.973 4.15341 45.767 5.89205 45.767 8.97727C45.767 12.2031 47.3693 13.1023 48.8011 13.1193ZM48.8011 12.1818C47.706 12.1818 46.9048 11.2486 46.9091 10.2045C46.9134 9.16051 47.7528 8.22727 48.8352 8.22727C49.9048 8.22727 50.6932 9.10511 50.6932 10.1875C50.6932 11.2955 49.8707 12.1818 48.8011 12.1818Z" fill="#7B8997"/>
<path d="M48.6307 38.1191C50.2926 38.1191 51.5114 36.8918 51.5114 35.2213C51.5114 33.5296 50.3352 32.2895 48.733 32.2895C48.1449 32.2895 47.5739 32.4983 47.2159 32.7838H47.1648L47.4716 30.21H51.1193V29.2725H46.5852L46.0568 33.5679L47.0455 33.6873C47.4077 33.4273 48.0256 33.2398 48.5625 33.2441C49.6747 33.2526 50.4886 34.0963 50.4886 35.2384C50.4886 36.3591 49.7045 37.1816 48.6307 37.1816C47.7358 37.1816 47.0241 36.6063 46.9432 35.8179H45.9205C45.9844 37.1475 47.1307 38.1191 48.6307 38.1191Z" fill="#7B8997"/>
<path d="M45.6989 61.2102H49.8068V63H50.8125V61.2102H52.0057V60.2727H50.8125V54.2727H49.5341L45.6989 60.3409V61.2102ZM49.8068 60.2727H46.8409V60.2045L49.7386 55.6193H49.8068V60.2727Z" fill="#7B8997"/>
<path d="M48.8523 89.1191C50.544 89.1191 51.8011 88.058 51.8011 86.6304C51.8011 85.5225 51.1449 84.7171 50.0455 84.5338V84.4657C50.9276 84.1972 51.4773 83.4728 51.4773 82.4884C51.4773 81.2526 50.5014 80.1532 48.8864 80.1532C47.3778 80.1532 46.125 81.0821 46.0739 82.4543H47.0966C47.1349 81.585 47.9616 81.0736 48.8693 81.0736C49.8324 81.0736 50.4545 81.6574 50.4545 82.5395C50.4545 83.46 49.7344 84.0566 48.6989 84.0566H48V84.9941H48.6989C50.0241 84.9941 50.7614 85.6674 50.7614 86.6304C50.7614 87.5552 49.956 88.1816 48.8352 88.1816C47.8253 88.1816 47.0241 87.6617 46.9602 86.8179H45.8864C45.9503 88.1901 47.1605 89.1191 48.8523 89.1191Z" fill="#7B8997"/>
<path d="M45.9034 114H51.4091V113.062H47.3523V112.994L49.3125 110.898C50.8125 109.291 51.2557 108.541 51.2557 107.574C51.2557 106.227 50.1648 105.153 48.6307 105.153C47.1009 105.153 45.9375 106.193 45.9375 107.727H46.9432C46.9432 106.734 47.5866 106.074 48.5966 106.074C49.5426 106.074 50.267 106.653 50.267 107.574C50.267 108.379 49.794 108.976 48.7841 110.08L45.9034 113.233V114Z" fill="#7B8997"/>
<path d="M49.8466 129.273H48.7898L46.608 130.722V131.795L48.7386 130.381H48.7898V138H49.8466V129.273Z" fill="#7B8997"/>
<path d="M48.75 164.119C50.6761 164.119 51.7841 162.487 51.7841 159.636C51.7841 156.807 50.6591 155.153 48.75 155.153C46.8409 155.153 45.7159 156.807 45.7159 159.636C45.7159 162.487 46.8239 164.119 48.75 164.119ZM48.75 163.182C47.4801 163.182 46.7386 161.908 46.7386 159.636C46.7386 157.369 47.4886 156.074 48.75 156.074C50.0114 156.074 50.7614 157.369 50.7614 159.636C50.7614 161.908 50.0199 163.182 48.75 163.182Z" fill="#7B8997"/>
<path d="M27 107.943L27 106.886L24.1705 106.886L22.9432 105.795L27 102.761L27 101.483L22.2102 105.148L18.2727 101.483L18.2727 102.864L22.6023 106.784L22.6023 106.886L18.2727 106.886L18.2727 107.943L27 107.943ZM27 100.115L27 99.0582L23.8125 99.0582L23.8125 97.1491C23.8125 95.1165 22.5767 94.2003 21.0341 94.2003C19.4915 94.2003 18.2727 95.1165 18.2727 97.1662L18.2727 100.115L27 100.115ZM22.875 99.0582L19.2102 99.0582L19.2102 97.2003C19.2102 95.7812 19.9858 95.2401 21.0341 95.2401C22.0824 95.2401 22.875 95.7812 22.875 97.1832L22.875 99.0582ZM27 89.2592L27 88.2536L20.4545 88.2536L20.4545 89.2592L27 89.2592ZM19.3636 88.7479C19.3636 88.3558 19.0568 88.032 18.6818 88.032C18.3068 88.032 18 88.3558 18 88.7479C18 89.1399 18.3068 89.4638 18.6818 89.4638C19.0568 89.4638 19.3636 89.1399 19.3636 88.7479ZM23.0625 85.4059C21.9205 85.4059 21.2727 84.6985 21.2727 83.7354C21.2727 82.8022 21.8821 82.2354 22.9091 82.2354L27 82.2354L27 81.2298L22.8409 81.2298C21.1705 81.2298 20.3693 82.1204 20.3693 83.4457C20.3693 84.4343 20.8125 85.0479 21.4773 85.3548L21.4773 85.44L20.4545 85.44L20.4545 86.4116L27 86.4116L27 85.4059L23.0625 85.4059ZM27.1364 76.9205C27.1364 75.6591 26.3523 75.233 25.9943 75.0114L25.9943 74.892L27 74.892L27 73.9205L18.2727 73.9205L18.2727 74.9261L21.4943 74.9261L21.4943 75.0114C21.1534 75.233 20.3693 75.625 20.3693 76.9034C20.3693 78.5568 21.6818 79.6989 23.7443 79.6989C25.8239 79.6989 27.1364 78.5568 27.1364 76.9205ZM26.233 76.7841C26.233 78.0455 25.125 78.6932 23.7273 78.6932C22.3466 78.6932 21.2727 78.0625 21.2727 76.7841C21.2727 75.5568 22.2614 74.9091 23.7273 74.9091C25.2102 74.9091 26.233 75.5739 26.233 76.7841ZM27.1364 69.1946C27.1364 67.8651 26.4716 66.8935 25.483 66.5866L25.2102 67.5582C25.892 67.8139 26.233 68.4062 26.233 69.1946C26.233 70.375 25.4702 71.1889 24.0682 71.2358L24.0682 66.4844L23.642 66.4844C21.2045 66.4844 20.3693 67.9332 20.3693 69.2969C20.3693 71.0696 21.767 72.2457 23.7784 72.2457C25.7898 72.2457 27.1364 71.0866 27.1364 69.1946ZM23.1989 71.2358C22.1804 71.1676 21.2727 70.4474 21.2727 69.2969C21.2727 68.206 22.0909 67.5071 23.1989 67.5071L23.1989 71.2358ZM20.4545 64.3803L20.4545 65.5394L23.7273 63.4599L27 65.5394L27 64.3803L24.4602 62.8121L27 61.244L27 60.0849L23.7273 62.1985L20.4545 60.0849L20.4545 61.244L23.1307 62.8121L20.4545 64.3803Z" fill="#242440"/>
<path d="M152.71 200.718L155.463 195.95L154.651 195.481L152.622 198.994L152.563 198.96L151.728 196.214C151.086 194.112 150.658 193.353 149.821 192.869C148.655 192.196 147.179 192.604 146.412 193.932C145.647 195.257 145.966 196.785 147.295 197.552L147.797 196.681C146.938 196.184 146.687 195.297 147.192 194.422C147.665 193.603 148.529 193.265 149.326 193.726C150.024 194.128 150.304 194.836 150.755 196.263L152.046 200.334L152.71 200.718ZM150.07 187.596C149.166 189.12 149.75 190.776 151.137 191.578C152.599 192.421 154.269 191.949 155.019 190.65C155.47 189.868 155.47 188.982 155.089 188.21L155.123 188.151C156.983 189.225 157.628 190.562 156.955 191.728C156.495 192.526 155.712 192.723 154.924 192.485L154.404 193.385C155.702 193.898 157.034 193.467 157.767 192.197C158.747 190.5 157.846 188.582 155.16 187.031C152.384 185.428 150.801 186.364 150.07 187.596ZM150.882 188.065C151.428 187.12 152.64 186.895 153.526 187.406C154.426 187.926 154.812 189.133 154.275 190.063C153.738 190.993 152.593 191.237 151.649 190.692C150.704 190.146 150.345 188.995 150.882 188.065ZM160.368 187.589C160.579 187.224 160.453 186.752 160.087 186.541C159.722 186.33 159.25 186.456 159.04 186.822C158.829 187.187 158.955 187.659 159.32 187.87C159.686 188.081 160.157 187.954 160.368 187.589ZM162.961 183.201C163.924 181.533 163.064 179.757 160.595 178.331C158.145 176.917 156.15 177.064 155.196 178.717C154.241 180.371 155.111 182.172 157.561 183.587C160.03 185.012 161.998 184.869 162.961 183.201ZM162.149 182.732C161.514 183.832 160.04 183.837 158.073 182.701C156.109 181.567 155.362 180.27 155.993 179.178C156.624 178.085 158.121 178.084 160.084 179.217C162.051 180.353 162.784 181.632 162.149 182.732ZM163.532 178.393L165.585 174.835L167.135 175.73L167.638 174.859L166.088 173.965L166.685 172.931L165.873 172.462L165.276 173.496L160.08 170.496L159.441 171.603L162.779 177.958L163.532 178.393ZM164.774 174.367L163.291 176.935L163.232 176.901L160.71 172.099L160.744 172.04L164.774 174.367Z" fill="#7B8997"/>
<path d="M193.288 198.224C194.133 196.759 193.843 195.139 192.607 194.426C191.647 193.872 190.622 194.037 189.913 194.898L189.854 194.864C190.063 193.965 189.71 193.127 188.858 192.635C187.787 192.017 186.347 192.312 185.54 193.711C184.786 195.018 184.964 196.567 186.127 197.297L186.638 196.412C185.904 195.944 185.875 194.972 186.329 194.186C186.81 193.352 187.627 193.105 188.391 193.546C189.188 194.006 189.344 194.928 188.827 195.825L188.477 196.43L189.289 196.899L189.639 196.294C190.301 195.146 191.253 194.844 192.087 195.326C192.888 195.788 193.027 196.799 192.467 197.77C191.962 198.644 191.111 199.078 190.349 198.712L189.812 199.642C191.032 200.272 192.442 199.689 193.288 198.224ZM197.056 191.695C198.02 190.027 197.16 188.252 194.691 186.826C192.241 185.411 190.246 185.559 189.292 187.212C188.337 188.865 189.207 190.666 191.657 192.081C194.126 193.507 196.093 193.363 197.056 191.695ZM196.245 191.226C195.61 192.326 194.136 192.331 192.169 191.196C190.205 190.062 189.458 188.765 190.089 187.672C190.72 186.58 192.217 186.578 194.18 187.712C196.147 188.847 196.88 190.127 196.245 191.226ZM199.561 187.254C199.772 186.889 199.646 186.417 199.281 186.206C198.915 185.995 198.444 186.122 198.233 186.487C198.022 186.852 198.148 187.324 198.514 187.535C198.879 187.746 199.351 187.619 199.561 187.254ZM202.154 182.866C203.117 181.198 202.257 179.422 199.789 177.996C197.338 176.582 195.344 176.729 194.389 178.383C193.435 180.036 194.304 181.837 196.755 183.252C199.224 184.677 201.191 184.534 202.154 182.866ZM201.342 182.397C200.707 183.497 199.233 183.502 197.266 182.366C195.303 181.232 194.556 179.935 195.186 178.843C195.817 177.75 197.314 177.749 199.277 178.882C201.244 180.018 201.977 181.297 201.342 182.397ZM202.725 178.058L204.779 174.501L206.329 175.395L206.832 174.525L205.282 173.63L205.878 172.596L205.066 172.127L204.47 173.161L199.274 170.161L198.634 171.268L201.972 177.624L202.725 178.058ZM203.967 174.032L202.484 176.6L202.425 176.566L199.903 171.764L199.937 171.705L203.967 174.032Z" fill="#7B8997"/>
<path d="M234.236 197.312C235.199 195.644 234.34 193.868 231.871 192.443C229.421 191.028 227.426 191.176 226.472 192.829C225.517 194.482 226.387 196.283 228.837 197.698C231.306 199.124 233.273 198.98 234.236 197.312ZM233.424 196.843C232.79 197.943 231.315 197.948 229.348 196.813C227.385 195.679 226.638 194.382 227.269 193.289C227.9 192.197 229.396 192.195 231.36 193.329C233.327 194.464 234.059 195.744 233.424 196.843ZM230.436 186.201L229.907 187.117L230.071 189.731L231.001 190.268L230.841 187.715L230.867 187.671L237.465 191.481L237.994 190.565L230.436 186.201ZM239.425 188.223C239.636 187.857 239.509 187.386 239.144 187.175C238.779 186.964 238.307 187.09 238.096 187.456C237.885 187.821 238.012 188.293 238.377 188.504C238.742 188.714 239.214 188.588 239.425 188.223ZM242.017 183.834C242.98 182.166 242.121 180.391 239.652 178.965C237.201 177.55 235.207 177.698 234.253 179.351C233.298 181.005 234.168 182.806 236.618 184.221C239.087 185.646 241.054 185.503 242.017 183.834ZM241.205 183.366C240.57 184.465 239.096 184.471 237.129 183.335C235.166 182.201 234.419 180.904 235.05 179.812C235.68 178.719 237.177 178.717 239.141 179.851C241.108 180.987 241.84 182.266 241.205 183.366ZM245.707 177.443C246.538 176.003 246.085 174.334 244.638 173.499C243.173 172.653 241.511 173.051 240.71 174.439C240.416 174.948 240.311 175.547 240.38 176L240.354 176.044L238.279 174.492L240.102 171.332L239.29 170.864L237.023 174.79L240.479 177.396L241.077 176.599C241.033 176.156 241.179 175.527 241.451 175.064C242.015 174.105 243.153 173.822 244.142 174.393C245.112 174.953 245.432 176.044 244.895 176.974C244.448 177.749 243.594 178.077 242.871 177.753L242.36 178.639C243.543 179.248 244.957 178.742 245.707 177.443Z" fill="#7B8997"/>
<path d="M275.236 198.312C276.199 196.644 275.34 194.869 272.871 193.443C270.421 192.028 268.426 192.176 267.472 193.829C266.517 195.483 267.387 197.284 269.837 198.698C272.306 200.124 274.273 199.98 275.236 198.312ZM274.424 197.844C273.79 198.943 272.315 198.948 270.348 197.813C268.385 196.679 267.638 195.382 268.269 194.289C268.9 193.197 270.396 193.195 272.36 194.329C274.327 195.465 275.059 196.744 274.424 197.844ZM277.46 194.223L280.212 189.454L279.4 188.986L277.372 192.499L277.313 192.465L276.477 189.719C275.836 187.617 275.408 186.858 274.571 186.374C273.404 185.701 271.929 186.109 271.162 187.437C270.397 188.762 270.716 190.29 272.044 191.057L272.547 190.186C271.687 189.689 271.437 188.802 271.942 187.927C272.415 187.108 273.279 186.77 274.076 187.23C274.774 187.633 275.054 188.341 275.505 189.768L276.795 193.839L277.46 194.223ZM281.526 187.315C281.737 186.95 281.611 186.478 281.246 186.267C280.88 186.056 280.409 186.182 280.198 186.548C279.987 186.913 280.113 187.385 280.479 187.596C280.844 187.807 281.315 187.68 281.526 187.315ZM284.119 182.927C285.082 181.258 284.222 179.483 281.753 178.057C279.303 176.643 277.309 176.79 276.354 178.443C275.4 180.097 276.269 181.898 278.719 183.313C281.188 184.738 283.156 184.595 284.119 182.927ZM283.307 182.458C282.672 183.558 281.198 183.563 279.231 182.427C277.268 181.293 276.521 179.996 277.151 178.904C277.782 177.811 279.279 177.81 281.242 178.943C283.209 180.079 283.942 181.358 283.307 182.458ZM287.809 176.535C288.64 175.095 288.186 173.426 286.74 172.591C285.275 171.745 283.613 172.144 282.812 173.531C282.518 174.04 282.413 174.639 282.481 175.092L282.456 175.136L280.38 173.584L282.204 170.425L281.392 169.956L279.125 173.883L282.581 176.488L283.178 175.691C283.134 175.248 283.281 174.619 283.553 174.156C284.116 173.197 285.254 172.914 286.243 173.485C287.214 174.046 287.534 175.136 286.997 176.066C286.55 176.841 285.696 177.17 284.972 176.845L284.461 177.731C285.644 178.341 287.059 177.834 287.809 176.535Z" fill="#7B8997"/>
<path d="M315.959 198.312C316.922 196.644 316.063 194.869 313.594 193.443C311.143 192.028 309.149 192.176 308.194 193.829C307.24 195.483 308.109 197.284 310.56 198.698C313.029 200.124 314.996 199.98 315.959 198.312ZM315.147 197.844C314.512 198.943 313.038 198.948 311.071 197.813C309.108 196.679 308.361 195.382 308.992 194.289C309.622 193.197 311.119 193.195 313.082 194.329C315.049 195.465 315.782 196.744 315.147 197.844ZM319.76 191.728C320.606 190.263 320.315 188.644 319.079 187.93C318.12 187.376 317.094 187.542 316.386 188.402L316.327 188.368C316.535 187.47 316.183 186.632 315.33 186.14C314.26 185.522 312.82 185.817 312.012 187.216C311.258 188.522 311.436 190.072 312.599 190.802L313.11 189.916C312.377 189.449 312.347 188.477 312.801 187.691C313.283 186.857 314.099 186.61 314.863 187.051C315.66 187.511 315.817 188.433 315.299 189.33L314.95 189.935L315.762 190.404L316.111 189.799C316.774 188.651 317.725 188.349 318.559 188.831C319.36 189.293 319.5 190.304 318.94 191.274C318.435 192.149 317.584 192.583 316.821 192.216L316.284 193.146C317.505 193.777 318.914 193.194 319.76 191.728ZM322.302 187.224C322.513 186.858 322.386 186.387 322.021 186.176C321.656 185.965 321.184 186.091 320.973 186.456C320.762 186.822 320.889 187.293 321.254 187.504C321.619 187.715 322.091 187.589 322.302 187.224ZM324.894 182.835C325.857 181.167 324.998 179.392 322.529 177.966C320.078 176.551 318.084 176.699 317.13 178.352C316.175 180.005 317.044 181.806 319.495 183.221C321.964 184.647 323.931 184.503 324.894 182.835ZM324.082 182.366C323.447 183.466 321.973 183.471 320.006 182.336C318.043 181.202 317.296 179.905 317.927 178.812C318.557 177.72 320.054 177.718 322.017 178.852C323.984 179.987 324.717 181.267 324.082 182.366ZM328.584 176.443C329.415 175.004 328.962 173.335 327.515 172.5C326.05 171.654 324.388 172.052 323.587 173.44C323.293 173.949 323.188 174.548 323.257 175.001L323.231 175.045L321.155 173.492L322.979 170.333L322.167 169.865L319.9 173.791L323.356 176.397L323.954 175.6C323.91 175.156 324.056 174.528 324.328 174.065C324.892 173.106 326.029 172.823 327.019 173.394C327.989 173.954 328.309 175.045 327.772 175.975C327.325 176.75 326.471 177.078 325.748 176.754L325.236 177.64C326.42 178.249 327.834 177.742 328.584 176.443Z" fill="#7B8997"/>
<path d="M356.682 198.312C357.645 196.644 356.785 194.869 354.316 193.443C351.866 192.028 349.872 192.176 348.917 193.829C347.963 195.483 348.832 197.284 351.282 198.698C353.751 200.124 355.719 199.98 356.682 198.312ZM355.87 197.844C355.235 198.943 353.761 198.948 351.794 197.813C349.83 196.679 349.084 195.382 349.714 194.289C350.345 193.197 351.842 193.195 353.805 194.329C355.772 195.465 356.505 196.744 355.87 197.844ZM357.253 193.505L359.307 189.947L360.857 190.842L361.359 189.971L359.809 189.076L360.406 188.043L359.594 187.574L358.998 188.607L353.801 185.607L353.162 186.714L356.5 193.07L357.253 193.505ZM358.495 189.478L357.012 192.047L356.953 192.013L354.431 187.211L354.465 187.152L358.495 189.478ZM362.983 187.295C363.194 186.929 363.068 186.458 362.703 186.247C362.337 186.036 361.866 186.162 361.655 186.527C361.444 186.893 361.57 187.364 361.936 187.575C362.301 187.786 362.772 187.66 362.983 187.295ZM365.576 182.906C366.539 181.238 365.679 179.463 363.21 178.037C360.76 176.622 358.766 176.77 357.811 178.423C356.857 180.076 357.726 181.878 360.177 183.292C362.645 184.718 364.613 184.574 365.576 182.906ZM364.764 182.438C364.129 183.537 362.655 183.542 360.688 182.407C358.725 181.273 357.978 179.976 358.608 178.883C359.239 177.791 360.736 177.789 362.699 178.923C364.666 180.058 365.399 181.338 364.764 182.438ZM369.266 176.514C370.097 175.075 369.643 173.406 368.197 172.571C366.732 171.725 365.07 172.123 364.269 173.511C363.975 174.02 363.87 174.619 363.938 175.072L363.913 175.116L361.837 173.563L363.661 170.404L362.849 169.936L360.582 173.862L364.038 176.468L364.635 175.671C364.591 175.228 364.738 174.599 365.01 174.136C365.573 173.177 366.711 172.894 367.7 173.465C368.671 174.025 368.991 175.116 368.454 176.046C368.007 176.821 367.153 177.149 366.429 176.825L365.918 177.711C367.101 178.32 368.516 177.813 369.266 176.514Z" fill="#7B8997"/>
<path d="M397.404 198.312C398.367 196.644 397.508 194.869 395.039 193.443C392.589 192.028 390.594 192.176 389.64 193.829C388.685 195.483 389.555 197.284 392.005 198.698C394.474 200.124 396.441 199.98 397.404 198.312ZM396.592 197.844C395.958 198.943 394.483 198.948 392.516 197.813C390.553 196.679 389.806 195.382 390.437 194.289C391.068 193.197 392.564 193.195 394.528 194.329C396.495 195.465 397.227 196.744 396.592 197.844ZM401.094 191.92C401.925 190.481 401.472 188.812 400.025 187.977C398.56 187.131 396.898 187.529 396.097 188.917C395.803 189.426 395.698 190.025 395.767 190.478L395.741 190.522L393.666 188.969L395.489 185.81L394.678 185.342L392.411 189.268L395.866 191.874L396.464 191.077C396.42 190.634 396.566 190.005 396.839 189.542C397.402 188.583 398.54 188.3 399.529 188.871C400.499 189.431 400.82 190.522 400.283 191.452C399.835 192.227 398.981 192.555 398.258 192.231L397.747 193.117C398.93 193.726 400.345 193.219 401.094 191.92ZM403.548 187.569C403.759 187.203 403.632 186.732 403.267 186.521C402.902 186.31 402.43 186.436 402.219 186.802C402.008 187.167 402.135 187.638 402.5 187.849C402.865 188.06 403.337 187.934 403.548 187.569ZM406.14 183.18C407.103 181.512 406.244 179.737 403.775 178.311C401.324 176.896 399.33 177.044 398.376 178.697C397.421 180.35 398.291 182.152 400.741 183.566C403.21 184.992 405.177 184.848 406.14 183.18ZM405.328 182.712C404.693 183.811 403.219 183.816 401.252 182.681C399.289 181.547 398.542 180.25 399.173 179.157C399.803 178.065 401.3 178.063 403.264 179.197C405.231 180.333 405.963 181.612 405.328 182.712ZM409.83 176.788C410.661 175.349 410.208 173.68 408.761 172.845C407.296 171.999 405.634 172.397 404.833 173.785C404.539 174.294 404.434 174.893 404.503 175.346L404.477 175.39L402.402 173.837L404.225 170.678L403.413 170.21L401.146 174.136L404.602 176.742L405.2 175.945C405.156 175.502 405.302 174.873 405.574 174.41C406.138 173.451 407.276 173.168 408.265 173.739C409.235 174.299 409.555 175.39 409.018 176.32C408.571 177.095 407.717 177.423 406.994 177.099L406.483 177.985C407.666 178.594 409.08 178.087 409.83 176.788Z" fill="#7B8997"/>
<path d="M438.127 198.312C439.09 196.644 438.231 194.869 435.762 193.443C433.311 192.028 431.317 192.176 430.362 193.829C429.408 195.483 430.277 197.284 432.728 198.698C435.197 200.124 437.164 199.98 438.127 198.312ZM437.315 197.844C436.68 198.943 435.206 198.948 433.239 197.813C431.276 196.679 430.529 195.382 431.16 194.289C431.79 193.197 433.287 193.195 435.25 194.329C437.217 195.465 437.95 196.744 437.315 197.844ZM441.902 191.773C442.803 190.256 442.227 188.594 440.821 187.782C439.359 186.939 437.687 187.415 436.939 188.71C436.49 189.489 436.484 190.376 436.869 191.15L436.835 191.209C434.996 190.142 434.342 188.81 435.018 187.64C435.478 186.843 436.257 186.653 437.034 186.875L437.554 185.975C436.274 185.482 434.939 185.902 434.206 187.171C433.224 188.873 434.127 190.787 436.798 192.329C439.592 193.942 441.172 193.004 441.902 191.773ZM441.09 191.304C440.543 192.252 439.334 192.48 438.432 191.954C437.53 191.428 437.142 190.234 437.683 189.297C438.218 188.371 439.372 188.127 440.309 188.668C441.269 189.222 441.625 190.378 441.09 191.304ZM444.323 187.477C444.534 187.112 444.408 186.64 444.042 186.429C443.677 186.218 443.206 186.345 442.995 186.71C442.784 187.076 442.91 187.547 443.275 187.758C443.641 187.969 444.112 187.843 444.323 187.477ZM446.916 183.089C447.879 181.421 447.019 179.645 444.55 178.22C442.1 176.805 440.106 176.952 439.151 178.606C438.197 180.259 439.066 182.06 441.516 183.475C443.985 184.901 445.953 184.757 446.916 183.089ZM446.104 182.62C445.469 183.72 443.995 183.725 442.028 182.589C440.064 181.456 439.318 180.158 439.948 179.066C440.579 177.974 442.076 177.972 444.039 179.105C446.006 180.241 446.739 181.52 446.104 182.62ZM450.606 176.697C451.437 175.258 450.983 173.589 449.537 172.753C448.071 171.907 446.41 172.306 445.608 173.694C445.314 174.203 445.21 174.802 445.278 175.255L445.252 175.299L443.177 173.746L445.001 170.587L444.189 170.118L441.922 174.045L445.378 176.65L445.975 175.854C445.931 175.41 446.078 174.781 446.35 174.318C446.913 173.359 448.051 173.076 449.04 173.648C450.011 174.208 450.331 175.298 449.794 176.228C449.346 177.003 448.492 177.332 447.769 177.008L447.258 177.894C448.441 178.503 449.856 177.996 450.606 176.697Z" fill="#7B8997"/>
<path d="M478.85 197.312C479.813 195.644 478.953 193.869 476.484 192.443C474.034 191.028 472.04 191.176 471.085 192.829C470.131 194.483 471 196.284 473.45 197.698C475.919 199.124 477.887 198.98 478.85 197.312ZM478.038 196.844C477.403 197.943 475.929 197.948 473.962 196.813C471.998 195.679 471.252 194.382 471.882 193.289C472.513 192.197 474.01 192.195 475.973 193.329C477.94 194.465 478.673 195.744 478.038 196.844ZM481.092 193.189L481.646 192.23L476.887 184.995L476.031 184.5L473.236 189.342L474.048 189.811L476.298 185.914L476.357 185.948L481.092 193.189ZM484.067 188.172C484.278 187.807 484.152 187.335 483.787 187.124C483.421 186.913 482.95 187.04 482.739 187.405C482.528 187.77 482.654 188.242 483.02 188.453C483.385 188.664 483.856 188.537 484.067 188.172ZM486.66 183.784C487.623 182.116 486.763 180.34 484.294 178.915C481.844 177.5 479.85 177.647 478.895 179.301C477.941 180.954 478.81 182.755 481.261 184.17C483.729 185.595 485.697 185.452 486.66 183.784ZM485.848 183.315C485.213 184.415 483.739 184.42 481.772 183.284C479.809 182.151 479.062 180.853 479.692 179.761C480.323 178.669 481.82 178.667 483.783 179.8C485.75 180.936 486.483 182.215 485.848 183.315ZM490.35 177.392C491.181 175.953 490.727 174.283 489.281 173.448C487.816 172.602 486.154 173.001 485.353 174.388C485.059 174.898 484.954 175.497 485.022 175.949L484.997 175.994L482.921 174.441L484.745 171.282L483.933 170.813L481.666 174.74L485.122 177.345L485.719 176.549C485.675 176.105 485.822 175.476 486.094 175.013C486.658 174.054 487.795 173.771 488.784 174.342C489.755 174.903 490.075 175.993 489.538 176.923C489.091 177.698 488.237 178.027 487.513 177.703L487.002 178.588C488.185 179.198 489.6 178.691 490.35 177.392Z" fill="#7B8997"/>
<path d="M557.236 198.312C558.199 196.644 557.34 194.869 554.871 193.443C552.421 192.028 550.426 192.176 549.472 193.829C548.517 195.483 549.387 197.284 551.837 198.698C554.306 200.124 556.273 199.98 557.236 198.312ZM556.424 197.844C555.79 198.943 554.315 198.948 552.348 197.813C550.385 196.679 549.638 195.382 550.269 194.289C550.9 193.197 552.396 193.195 554.36 194.329C556.327 195.465 557.059 196.744 556.424 197.844ZM553.188 187.393C552.283 188.918 552.867 190.574 554.254 191.375C555.716 192.218 557.386 191.746 558.136 190.447C558.588 189.665 558.587 188.779 558.206 188.007L558.24 187.948C560.1 189.022 560.745 190.359 560.072 191.525C559.612 192.323 558.829 192.52 558.041 192.282L557.521 193.182C558.819 193.695 560.151 193.264 560.884 191.994C561.864 190.297 560.963 188.379 558.277 186.828C555.502 185.226 553.918 186.161 553.188 187.393ZM553.999 187.862C554.545 186.917 555.757 186.692 556.643 187.203C557.543 187.723 557.929 188.93 557.392 189.86C556.855 190.79 555.711 191.034 554.766 190.489C553.821 189.943 553.463 188.792 553.999 187.862ZM563.485 187.386C563.696 187.021 563.57 186.549 563.205 186.338C562.839 186.127 562.368 186.253 562.157 186.619C561.946 186.984 562.072 187.456 562.437 187.667C562.803 187.878 563.274 187.751 563.485 187.386ZM566.078 182.998C567.041 181.33 566.181 179.554 563.712 178.128C561.262 176.714 559.268 176.861 558.313 178.514C557.359 180.168 558.228 181.969 560.678 183.384C563.147 184.809 565.115 184.666 566.078 182.998ZM565.266 182.529C564.631 183.629 563.157 183.634 561.19 182.498C559.227 181.364 558.48 180.067 559.11 178.975C559.741 177.882 561.238 177.881 563.201 179.014C565.168 180.15 565.901 181.429 565.266 182.529ZM569.768 176.606C570.599 175.166 570.145 173.497 568.699 172.662C567.234 171.816 565.572 172.215 564.771 173.602C564.477 174.111 564.372 174.71 564.44 175.163L564.415 175.207L562.339 173.655L564.163 170.496L563.351 170.027L561.084 173.954L564.54 176.559L565.137 175.763C565.093 175.319 565.24 174.69 565.512 174.227C566.075 173.268 567.213 172.985 568.202 173.556C569.173 174.117 569.493 175.207 568.956 176.137C568.509 176.912 567.655 177.241 566.931 176.916L566.42 177.802C567.603 178.412 569.018 177.905 569.768 176.606Z" fill="#7B8997"/>
<path d="M589.409 192.697L588.88 193.612L589.044 196.226L589.974 196.763L589.814 194.21L589.84 194.166L596.438 197.976L596.966 197.061L589.409 192.697ZM599.748 192.481C600.711 190.813 599.852 189.038 597.383 187.612C594.932 186.197 592.938 186.345 591.983 187.998C591.029 189.652 591.898 191.453 594.349 192.867C596.818 194.293 598.785 194.149 599.748 192.481ZM598.936 192.013C598.301 193.112 596.827 193.117 594.86 191.982C592.897 190.848 592.15 189.551 592.781 188.458C593.411 187.366 594.908 187.364 596.871 188.498C598.838 189.634 599.571 190.913 598.936 192.013ZM602.253 188.04C602.464 187.675 602.337 187.203 601.972 186.992C601.607 186.781 601.135 186.908 600.924 187.273C600.713 187.638 600.84 188.11 601.205 188.321C601.57 188.532 602.042 188.405 602.253 188.04ZM604.845 183.652C605.808 181.984 604.949 180.208 602.48 178.783C600.03 177.368 598.035 177.515 597.081 179.169C596.126 180.822 596.996 182.623 599.446 184.038C601.915 185.463 603.882 185.32 604.845 183.652ZM604.033 183.183C603.399 184.283 601.924 184.288 599.957 183.152C597.994 182.019 597.247 180.721 597.878 179.629C598.509 178.536 600.005 178.535 601.969 179.668C603.936 180.804 604.668 182.083 604.033 183.183ZM608.535 177.26C609.366 175.821 608.913 174.151 607.466 173.316C606.001 172.47 604.339 172.869 603.538 174.256C603.244 174.766 603.139 175.365 603.208 175.817L603.182 175.862L601.107 174.309L602.93 171.15L602.119 170.681L599.852 174.608L603.307 177.213L603.905 176.417C603.861 175.973 604.007 175.344 604.28 174.881C604.843 173.922 605.981 173.639 606.97 174.21C607.94 174.771 608.261 175.861 607.724 176.791C607.276 177.566 606.422 177.895 605.699 177.571L605.188 178.456C606.371 179.066 607.786 178.559 608.535 177.26Z" fill="#7B8997"/>
<path d="M628.131 191.697L627.603 192.612L627.767 195.226L628.697 195.763L628.537 193.211L628.562 193.166L635.161 196.976L635.689 196.061L628.131 191.697ZM630.92 186.866L630.392 187.781L630.556 190.395L631.486 190.932L631.326 188.38L631.351 188.335L637.95 192.145L638.478 191.23L630.92 186.866ZM639.909 188.887C640.12 188.522 639.994 188.051 639.628 187.84C639.263 187.629 638.792 187.755 638.581 188.12C638.37 188.486 638.496 188.957 638.861 189.168C639.227 189.379 639.698 189.253 639.909 188.887ZM642.502 184.499C643.465 182.831 642.605 181.055 640.136 179.63C637.686 178.215 635.692 178.363 634.737 180.016C633.783 181.669 634.652 183.47 637.102 184.885C639.571 186.311 641.539 186.167 642.502 184.499ZM641.69 184.03C641.055 185.13 639.581 185.135 637.614 183.999C635.65 182.866 634.904 181.569 635.534 180.476C636.165 179.384 637.662 179.382 639.625 180.516C641.592 181.651 642.325 182.931 641.69 184.03ZM646.192 178.107C647.023 176.668 646.569 174.999 645.123 174.163C643.658 173.318 641.996 173.716 641.194 175.104C640.9 175.613 640.796 176.212 640.864 176.665L640.839 176.709L638.763 175.156L640.587 171.997L639.775 171.528L637.508 175.455L640.964 178.061L641.561 177.264C641.517 176.82 641.664 176.191 641.936 175.729C642.499 174.77 643.637 174.487 644.626 175.058C645.597 175.618 645.917 176.708 645.38 177.638C644.932 178.413 644.078 178.742 643.355 178.418L642.844 179.304C644.027 179.913 645.442 179.406 646.192 178.107Z" fill="#7B8997"/>
<path d="M666.686 192.697L666.158 193.612L666.321 196.226L667.251 196.763L667.091 194.21L667.117 194.166L673.715 197.976L674.244 197.061L666.686 192.697ZM675.499 194.887L678.251 190.119L677.44 189.65L675.411 193.164L675.352 193.129L674.517 190.383C673.875 188.281 673.447 187.522 672.61 187.039C671.443 186.365 669.968 186.773 669.201 188.102C668.436 189.427 668.755 190.954 670.084 191.721L670.586 190.85C669.726 190.354 669.476 189.466 669.981 188.591C670.454 187.772 671.318 187.434 672.115 187.895C672.813 188.297 673.093 189.005 673.544 190.432L674.834 194.504L675.499 194.887ZM679.565 187.979C679.776 187.614 679.65 187.142 679.285 186.931C678.919 186.721 678.448 186.847 678.237 187.212C678.026 187.578 678.152 188.049 678.518 188.26C678.883 188.471 679.354 188.345 679.565 187.979ZM682.158 183.591C683.121 181.923 682.261 180.147 679.793 178.722C677.342 177.307 675.348 177.454 674.393 179.108C673.439 180.761 674.308 182.562 676.759 183.977C679.227 185.403 681.195 185.259 682.158 183.591ZM681.346 183.122C680.711 184.222 679.237 184.227 677.27 183.091C675.307 181.958 674.56 180.66 675.19 179.568C675.821 178.476 677.318 178.474 679.281 179.608C681.248 180.743 681.981 182.022 681.346 183.122ZM685.848 177.199C686.679 175.76 686.225 174.091 684.779 173.255C683.314 172.409 681.652 172.808 680.851 174.196C680.557 174.705 680.452 175.304 680.52 175.757L680.495 175.801L678.419 174.248L680.243 171.089L679.431 170.62L677.164 174.547L680.62 177.152L681.217 176.356C681.173 175.912 681.32 175.283 681.592 174.82C682.156 173.862 683.293 173.579 684.282 174.15C685.253 174.71 685.573 175.8 685.036 176.73C684.589 177.505 683.735 177.834 683.011 177.51L682.5 178.396C683.684 179.005 685.098 178.498 685.848 177.199Z" fill="#7B8997"/>
<path d="M707.686 192.697L707.158 193.612L707.321 196.226L708.251 196.763L708.091 194.21L708.117 194.166L714.715 197.976L715.244 197.061L707.686 192.697ZM718.076 192.393C718.922 190.928 718.632 189.308 717.396 188.595C716.436 188.041 715.411 188.206 714.702 189.067L714.643 189.033C714.852 188.135 714.499 187.296 713.647 186.804C712.576 186.186 711.136 186.481 710.329 187.88C709.575 189.187 709.753 190.736 710.916 191.467L711.427 190.581C710.693 190.113 710.664 189.141 711.118 188.355C711.599 187.521 712.416 187.274 713.18 187.715C713.977 188.176 714.133 189.098 713.616 189.994L713.266 190.6L714.078 191.068L714.427 190.463C715.09 189.315 716.042 189.014 716.876 189.495C717.677 189.958 717.816 190.968 717.256 191.939C716.751 192.814 715.9 193.247 715.138 192.881L714.601 193.811C715.821 194.442 717.231 193.858 718.076 192.393ZM720.618 187.888C720.829 187.523 720.703 187.051 720.337 186.84C719.972 186.629 719.501 186.756 719.29 187.121C719.079 187.486 719.205 187.958 719.57 188.169C719.936 188.38 720.407 188.253 720.618 187.888ZM723.211 183.5C724.174 181.832 723.314 180.056 720.845 178.63C718.395 177.216 716.401 177.363 715.446 179.016C714.492 180.67 715.361 182.471 717.811 183.886C720.28 185.311 722.248 185.168 723.211 183.5ZM722.399 183.031C721.764 184.131 720.29 184.136 718.323 183C716.359 181.866 715.612 180.569 716.243 179.477C716.874 178.384 718.371 178.383 720.334 179.516C722.301 180.652 723.034 181.931 722.399 183.031ZM726.901 177.108C727.732 175.668 727.278 173.999 725.832 173.164C724.366 172.318 722.705 172.717 721.903 174.104C721.609 174.614 721.505 175.212 721.573 175.665L721.547 175.709L719.472 174.157L721.296 170.998L720.484 170.529L718.217 174.456L721.673 177.061L722.27 176.265C722.226 175.821 722.373 175.192 722.645 174.729C723.208 173.77 724.346 173.487 725.335 174.058C726.306 174.619 726.626 175.709 726.089 176.639C725.641 177.414 724.787 177.743 724.064 177.419L723.553 178.304C724.736 178.914 726.151 178.407 726.901 177.108Z" fill="#7B8997"/>
<path d="M748.686 192.697L748.158 193.612L748.321 196.226L749.251 196.763L749.091 194.211L749.117 194.166L755.715 197.976L756.244 197.061L748.686 192.697ZM755.847 194.169L757.9 190.612L759.45 191.507L759.953 190.636L758.403 189.741L759 188.707L758.188 188.239L757.591 189.272L752.395 186.272L751.756 187.379L755.094 193.735L755.847 194.169ZM757.088 190.143L755.606 192.712L755.547 192.677L753.025 187.875L753.059 187.816L757.088 190.143ZM761.577 187.959C761.788 187.594 761.662 187.122 761.296 186.911C760.931 186.7 760.46 186.827 760.249 187.192C760.038 187.557 760.164 188.029 760.529 188.24C760.895 188.451 761.366 188.324 761.577 187.959ZM764.17 183.571C765.133 181.903 764.273 180.127 761.804 178.702C759.354 177.287 757.359 177.434 756.405 179.088C755.45 180.741 756.32 182.542 758.77 183.957C761.239 185.382 763.207 185.239 764.17 183.571ZM763.358 183.102C762.723 184.202 761.249 184.207 759.282 183.071C757.318 181.938 756.571 180.64 757.202 179.548C757.833 178.456 759.33 178.454 761.293 179.587C763.26 180.723 763.993 182.002 763.358 183.102ZM767.86 177.179C768.691 175.74 768.237 174.07 766.791 173.235C765.325 172.389 763.663 172.788 762.862 174.175C762.568 174.685 762.464 175.284 762.532 175.736L762.506 175.781L760.431 174.228L762.255 171.069L761.443 170.6L759.176 174.527L762.632 177.132L763.229 176.336C763.185 175.892 763.332 175.263 763.604 174.8C764.167 173.841 765.305 173.558 766.294 174.129C767.265 174.69 767.585 175.78 767.048 176.71C766.6 177.485 765.746 177.814 765.023 177.49L764.512 178.375C765.695 178.985 767.11 178.478 767.86 177.179Z" fill="#7B8997"/>
<path d="M787.686 192.697L787.158 193.612L787.321 196.226L788.251 196.763L788.091 194.211L788.117 194.166L794.715 197.976L795.244 197.061L787.686 192.697ZM797.966 192.585C798.797 191.146 798.343 189.476 796.896 188.641C795.431 187.795 793.769 188.194 792.968 189.581C792.674 190.091 792.57 190.69 792.638 191.142L792.612 191.187L790.537 189.634L792.361 186.475L791.549 186.006L789.282 189.933L792.737 192.538L793.335 191.742C793.291 191.298 793.438 190.669 793.71 190.206C794.273 189.247 795.411 188.964 796.4 189.535C797.37 190.096 797.691 191.186 797.154 192.116C796.706 192.891 795.852 193.22 795.129 192.896L794.618 193.781C795.801 194.391 797.216 193.884 797.966 192.585ZM800.419 188.233C800.63 187.868 800.503 187.396 800.138 187.185C799.773 186.974 799.301 187.101 799.09 187.466C798.879 187.831 799.006 188.303 799.371 188.514C799.736 188.725 800.208 188.599 800.419 188.233ZM803.011 183.845C803.974 182.177 803.115 180.401 800.646 178.976C798.196 177.561 796.201 177.708 795.247 179.362C794.292 181.015 795.162 182.816 797.612 184.231C800.081 185.656 802.048 185.513 803.011 183.845ZM802.199 183.376C801.565 184.476 800.09 184.481 798.123 183.345C796.16 182.212 795.413 180.914 796.044 179.822C796.675 178.73 798.171 178.728 800.135 179.861C802.102 180.997 802.834 182.276 802.199 183.376ZM806.702 177.453C807.532 176.014 807.079 174.344 805.632 173.509C804.167 172.663 802.505 173.062 801.704 174.449C801.41 174.959 801.306 175.558 801.374 176.01L801.348 176.055L799.273 174.502L801.096 171.343L800.285 170.874L798.018 174.801L801.473 177.406L802.071 176.61C802.027 176.166 802.173 175.537 802.446 175.074C803.009 174.115 804.147 173.832 805.136 174.403C806.106 174.964 806.427 176.054 805.89 176.984C805.442 177.759 804.588 178.088 803.865 177.764L803.354 178.649C804.537 179.259 805.952 178.752 806.702 177.453Z" fill="#7B8997"/>
<path d="M826.686 192.697L826.158 193.612L826.321 196.226L827.251 196.763L827.091 194.211L827.117 194.166L833.715 197.976L834.244 197.061L826.686 192.697ZM837.051 192.437C837.951 190.92 837.375 189.259 835.969 188.447C834.508 187.603 832.835 188.079 832.088 189.375C831.638 190.153 831.633 191.041 832.018 191.814L831.984 191.873C830.144 190.806 829.491 189.475 830.166 188.305C830.627 187.508 831.405 187.318 832.182 187.54L832.702 186.639C831.422 186.146 830.087 186.566 829.354 187.836C828.372 189.537 829.275 191.451 831.947 192.994C834.74 194.607 836.32 193.669 837.051 192.437ZM836.239 191.969C835.691 192.917 834.483 193.144 833.581 192.618C832.679 192.093 832.29 190.899 832.831 189.962C833.366 189.035 834.52 188.792 835.458 189.333C836.417 189.887 836.774 191.042 836.239 191.969ZM839.472 188.142C839.683 187.776 839.556 187.305 839.191 187.094C838.826 186.883 838.354 187.009 838.143 187.375C837.932 187.74 838.059 188.212 838.424 188.423C838.789 188.634 839.261 188.507 839.472 188.142ZM842.064 183.754C843.027 182.085 842.168 180.31 839.699 178.884C837.248 177.469 835.254 177.617 834.3 179.27C833.345 180.924 834.214 182.725 836.665 184.14C839.134 185.565 841.101 185.422 842.064 183.754ZM841.252 183.285C840.617 184.385 839.143 184.39 837.176 183.254C835.213 182.12 834.466 180.823 835.097 179.731C835.727 178.638 837.224 178.636 839.187 179.77C841.154 180.906 841.887 182.185 841.252 183.285ZM845.754 177.362C846.585 175.922 846.132 174.253 844.685 173.418C843.22 172.572 841.558 172.97 840.757 174.358C840.463 174.867 840.358 175.466 840.427 175.919L840.401 175.963L838.325 174.411L840.149 171.252L839.337 170.783L837.07 174.709L840.526 177.315L841.124 176.518C841.08 176.075 841.226 175.446 841.498 174.983C842.062 174.024 843.199 173.741 844.188 174.312C845.159 174.872 845.479 175.963 844.942 176.893C844.495 177.668 843.641 177.996 842.918 177.672L842.406 178.558C843.59 179.168 845.004 178.661 845.754 177.362Z" fill="#7B8997"/>
<path d="M870.686 191.697L870.158 192.612L870.321 195.226L871.251 195.763L871.091 193.21L871.117 193.166L877.715 196.976L878.244 196.061L870.686 191.697ZM879.635 193.651L880.189 192.691L875.43 185.456L874.574 184.962L871.779 189.804L872.591 190.272L874.841 186.375L874.9 186.409L879.635 193.651ZM882.61 188.634C882.821 188.268 882.695 187.797 882.33 187.586C881.964 187.375 881.493 187.501 881.282 187.866C881.071 188.232 881.197 188.703 881.563 188.914C881.928 189.125 882.399 188.999 882.61 188.634ZM885.203 184.245C886.166 182.577 885.306 180.802 882.837 179.376C880.387 177.961 878.393 178.109 877.438 179.762C876.484 181.415 877.353 183.216 879.804 184.631C882.272 186.057 884.24 185.913 885.203 184.245ZM884.391 183.777C883.756 184.876 882.282 184.881 880.315 183.746C878.352 182.612 877.605 181.315 878.235 180.222C878.866 179.13 880.363 179.128 882.326 180.262C884.293 181.397 885.026 182.677 884.391 183.777ZM888.893 177.853C889.724 176.414 889.27 174.745 887.824 173.91C886.359 173.064 884.697 173.462 883.896 174.85C883.602 175.359 883.497 175.958 883.565 176.411L883.54 176.455L881.464 174.902L883.288 171.743L882.476 171.275L880.209 175.201L883.665 177.807L884.262 177.01C884.218 176.567 884.365 175.938 884.637 175.475C885.201 174.516 886.338 174.233 887.327 174.804C888.298 175.364 888.618 176.455 888.081 177.385C887.634 178.16 886.78 178.488 886.056 178.164L885.545 179.05C886.728 179.659 888.143 179.152 888.893 177.853Z" fill="#7B8997"/>
<path d="M907.686 192.697L907.158 193.612L907.321 196.226L908.251 196.763L908.091 194.211L908.117 194.166L914.715 197.976L915.244 197.061L907.686 192.697ZM918 192.526C918.871 191.016 918.596 189.455 917.372 188.738C916.412 188.194 915.231 188.364 914.609 189.092L914.565 189.066C914.789 188.251 914.364 187.386 913.564 186.914C912.408 186.256 910.994 186.729 910.235 188.043C909.468 189.371 909.766 190.833 910.922 191.49C911.722 191.962 912.684 191.897 913.286 191.281L913.331 191.306C913.003 192.224 913.446 193.331 914.406 193.876C915.631 194.593 917.12 194.05 918 192.526ZM917.188 192.057C916.589 193.094 915.689 193.426 914.882 192.95C914.025 192.465 913.823 191.408 914.383 190.438C914.935 189.482 915.951 189.129 916.808 189.613C917.615 190.09 917.778 191.035 917.188 192.057ZM913.601 189.986C913.124 190.813 912.27 191.097 911.492 190.638C910.72 190.203 910.542 189.352 911.032 188.503C911.514 187.669 912.34 187.398 913.111 187.834C913.889 188.293 914.07 189.174 913.601 189.986ZM920.495 188.101C920.706 187.736 920.58 187.264 920.214 187.053C919.849 186.842 919.377 186.969 919.167 187.334C918.956 187.699 919.082 188.171 919.447 188.382C919.813 188.593 920.284 188.467 920.495 188.101ZM923.088 183.713C924.051 182.045 923.191 180.269 920.722 178.844C918.272 177.429 916.277 177.576 915.323 179.23C914.368 180.883 915.238 182.684 917.688 184.099C920.157 185.524 922.125 185.381 923.088 183.713ZM922.276 183.244C921.641 184.344 920.167 184.349 918.2 183.213C916.236 182.08 915.489 180.782 916.12 179.69C916.751 178.598 918.248 178.596 920.211 179.729C922.178 180.865 922.911 182.144 922.276 183.244ZM926.778 177.321C927.609 175.882 927.155 174.213 925.708 173.377C924.243 172.531 922.581 172.93 921.78 174.317C921.486 174.827 921.382 175.426 921.45 175.878L921.424 175.923L919.349 174.37L921.173 171.211L920.361 170.742L918.094 174.669L921.549 177.274L922.147 176.478C922.103 176.034 922.25 175.405 922.522 174.942C923.085 173.983 924.223 173.7 925.212 174.271C926.182 174.832 926.503 175.922 925.966 176.852C925.518 177.627 924.664 177.956 923.941 177.632L923.43 178.518C924.613 179.127 926.028 178.62 926.778 177.321Z" fill="#7B8997"/>
<path d="M517.236 198.312C518.199 196.644 517.34 194.869 514.871 193.443C512.421 192.028 510.426 192.176 509.472 193.829C508.517 195.483 509.387 197.284 511.837 198.698C514.306 200.124 516.273 199.98 517.236 198.312ZM516.424 197.844C515.79 198.943 514.315 198.948 512.348 197.813C510.385 196.679 509.638 195.382 510.269 194.289C510.9 193.197 512.396 193.195 514.36 194.329C516.327 195.465 517.059 196.744 516.424 197.844ZM520.961 191.861C521.832 190.352 521.557 188.791 520.333 188.074C519.373 187.529 518.192 187.699 517.57 188.427L517.526 188.402C517.75 187.587 517.325 186.721 516.525 186.249C515.369 185.592 513.955 186.064 513.196 187.378C512.429 188.707 512.727 190.168 513.883 190.825C514.683 191.297 515.645 191.233 516.247 190.616L516.292 190.642C515.963 191.559 516.407 192.667 517.367 193.211C518.591 193.928 520.081 193.386 520.961 191.861ZM520.149 191.393C519.55 192.43 518.65 192.761 517.842 192.285C516.986 191.8 516.784 190.744 517.344 189.773C517.896 188.817 518.912 188.464 519.768 188.949C520.576 189.425 520.739 190.37 520.149 191.393ZM516.562 189.321C516.084 190.148 515.231 190.433 514.453 189.974C513.681 189.538 513.503 188.687 513.993 187.838C514.475 187.004 515.3 186.733 516.072 187.169C516.85 187.628 517.03 188.51 516.562 189.321ZM523.456 187.437C523.667 187.071 523.541 186.6 523.175 186.389C522.81 186.178 522.338 186.304 522.127 186.67C521.917 187.035 522.043 187.506 522.408 187.717C522.774 187.928 523.245 187.802 523.456 187.437ZM526.048 183.048C527.011 181.38 526.152 179.605 523.683 178.179C521.233 176.764 519.238 176.912 518.284 178.565C517.329 180.219 518.199 182.02 520.649 183.434C523.118 184.86 525.085 184.716 526.048 183.048ZM525.237 182.58C524.602 183.679 523.127 183.684 521.161 182.549C519.197 181.415 518.45 180.118 519.081 179.025C519.712 177.933 521.208 177.931 523.172 179.065C525.139 180.201 525.871 181.48 525.237 182.58ZM529.739 176.656C530.57 175.217 530.116 173.548 528.669 172.713C527.204 171.867 525.542 172.265 524.741 173.653C524.447 174.162 524.343 174.761 524.411 175.214L524.385 175.258L522.31 173.705L524.133 170.546L523.322 170.078L521.055 174.004L524.51 176.61L525.108 175.813C525.064 175.37 525.211 174.741 525.483 174.278C526.046 173.319 527.184 173.036 528.173 173.607C529.143 174.167 529.464 175.258 528.927 176.188C528.479 176.963 527.625 177.291 526.902 176.967L526.391 177.853C527.574 178.462 528.989 177.955 529.739 176.656Z" fill="#7B8997"/>
<path d="M947.686 192.697L947.158 193.612L947.321 196.226L948.251 196.763L948.091 194.21L948.117 194.166L954.715 197.976L955.244 197.061L947.686 192.697ZM950.227 188.057C949.322 189.582 949.906 191.238 951.294 192.039C952.755 192.883 954.425 192.41 955.175 191.111C955.627 190.329 955.626 189.443 955.245 188.672L955.279 188.613C957.139 189.687 957.784 191.024 957.111 192.19C956.651 192.987 955.868 193.184 955.08 192.946L954.56 193.847C955.858 194.36 957.19 193.928 957.923 192.659C958.903 190.961 958.002 189.044 955.316 187.492C952.541 185.89 950.957 186.826 950.227 188.057ZM951.039 188.526C951.584 187.581 952.796 187.356 953.682 187.868C954.583 188.388 954.968 189.594 954.431 190.524C953.894 191.454 952.75 191.699 951.805 191.153C950.86 190.608 950.502 189.456 951.039 188.526ZM960.524 188.05C960.735 187.685 960.609 187.213 960.244 187.003C959.878 186.792 959.407 186.918 959.196 187.283C958.985 187.649 959.111 188.12 959.477 188.331C959.842 188.542 960.313 188.416 960.524 188.05ZM963.117 183.662C964.08 181.994 963.22 180.218 960.752 178.793C958.301 177.378 956.307 177.526 955.352 179.179C954.398 180.832 955.267 182.633 957.718 184.048C960.186 185.474 962.154 185.33 963.117 183.662ZM962.305 183.193C961.67 184.293 960.196 184.298 958.229 183.162C956.266 182.029 955.519 180.732 956.149 179.639C956.78 178.547 958.277 178.545 960.24 179.679C962.207 180.814 962.94 182.094 962.305 183.193ZM966.807 177.27C967.638 175.831 967.184 174.162 965.738 173.326C964.273 172.48 962.611 172.879 961.81 174.267C961.516 174.776 961.411 175.375 961.479 175.828L961.454 175.872L959.378 174.319L961.202 171.16L960.39 170.691L958.123 174.618L961.579 177.223L962.176 176.427C962.132 175.983 962.279 175.354 962.551 174.892C963.115 173.933 964.252 173.65 965.241 174.221C966.212 174.781 966.532 175.871 965.995 176.801C965.548 177.576 964.694 177.905 963.97 177.581L963.459 178.467C964.642 179.076 966.057 178.569 966.807 177.27Z" fill="#7B8997"/>
<path d="M991.71 200.718L994.463 195.95L993.651 195.481L991.622 198.995L991.563 198.96L990.728 196.214C990.086 194.112 989.658 193.353 988.821 192.87C987.655 192.196 986.179 192.604 985.412 193.933C984.647 195.258 984.966 196.785 986.295 197.552L986.797 196.681C985.938 196.185 985.687 195.297 986.192 194.422C986.665 193.603 987.529 193.265 988.326 193.726C989.024 194.128 989.304 194.836 989.755 196.263L991.046 200.335L991.71 200.718ZM996.869 192.02C997.832 190.352 996.973 188.576 994.504 187.151C992.053 185.736 990.059 185.884 989.104 187.537C988.15 189.19 989.019 190.991 991.47 192.406C993.939 193.832 995.906 193.688 996.869 192.02ZM996.057 191.551C995.422 192.651 993.948 192.656 991.981 191.52C990.018 190.387 989.271 189.09 989.902 187.997C990.532 186.905 992.029 186.903 993.992 188.037C995.959 189.172 996.692 190.452 996.057 191.551ZM999.374 187.579C999.585 187.214 999.459 186.742 999.093 186.531C998.728 186.32 998.256 186.446 998.045 186.812C997.834 187.177 997.961 187.649 998.326 187.86C998.692 188.071 999.163 187.944 999.374 187.579ZM1001.97 183.191C1002.93 181.522 1002.07 179.747 999.601 178.321C997.151 176.907 995.156 177.054 994.202 178.707C993.247 180.361 994.117 182.162 996.567 183.577C999.036 185.002 1001 184.859 1001.97 183.191ZM1001.15 182.722C1000.52 183.822 999.045 183.827 997.078 182.691C995.115 181.557 994.368 180.26 994.999 179.168C995.63 178.075 997.126 178.073 999.09 179.207C1001.06 180.343 1001.79 181.622 1001.15 182.722ZM1005.66 176.799C1006.49 175.359 1006.03 173.69 1004.59 172.855C1003.12 172.009 1001.46 172.407 1000.66 173.795C1000.37 174.304 1000.26 174.903 1000.33 175.356L1000.3 175.4L998.228 173.848L1000.05 170.689L999.24 170.22L996.973 174.147L1000.43 176.752L1001.03 175.955C1000.98 175.512 1001.13 174.883 1001.4 174.42C1001.96 173.461 1003.1 173.178 1004.09 173.749C1005.06 174.31 1005.38 175.4 1004.84 176.33C1004.4 177.105 1003.54 177.434 1002.82 177.109L1002.31 177.995C1003.49 178.605 1004.91 178.098 1005.66 176.799Z" fill="#7B8997"/>
<path d="M1034.71 199.718L1037.46 194.95L1036.65 194.481L1034.62 197.994L1034.56 197.96L1033.73 195.214C1033.09 193.112 1032.66 192.353 1031.82 191.869C1030.65 191.196 1029.18 191.604 1028.41 192.932C1027.65 194.257 1027.97 195.785 1029.29 196.552L1029.8 195.681C1028.94 195.184 1028.69 194.297 1029.19 193.422C1029.67 192.603 1030.53 192.265 1031.33 192.726C1032.02 193.128 1032.3 193.836 1032.75 195.263L1034.05 199.334L1034.71 199.718ZM1032.32 186.405L1031.79 187.32L1031.95 189.934L1032.88 190.471L1032.72 187.918L1032.75 187.874L1039.35 191.684L1039.88 190.768L1032.32 186.405ZM1041.31 188.426C1041.52 188.06 1041.39 187.589 1041.03 187.378C1040.66 187.167 1040.19 187.293 1039.98 187.659C1039.77 188.024 1039.89 188.496 1040.26 188.707C1040.63 188.918 1041.1 188.791 1041.31 188.426ZM1043.9 184.038C1044.86 182.369 1044 180.594 1041.53 179.168C1039.08 177.753 1037.09 177.901 1036.14 179.554C1035.18 181.208 1036.05 183.009 1038.5 184.424C1040.97 185.849 1042.94 185.706 1043.9 184.038ZM1043.09 183.569C1042.45 184.669 1040.98 184.674 1039.01 183.538C1037.05 182.404 1036.3 181.107 1036.93 180.015C1037.56 178.922 1039.06 178.92 1041.02 180.054C1042.99 181.19 1043.72 182.469 1043.09 183.569ZM1047.59 177.646C1048.42 176.206 1047.97 174.537 1046.52 173.702C1045.06 172.856 1043.39 173.254 1042.59 174.642C1042.3 175.151 1042.19 175.75 1042.26 176.203L1042.24 176.247L1040.16 174.695L1041.99 171.536L1041.17 171.067L1038.91 174.994L1042.36 177.599L1042.96 176.802C1042.92 176.359 1043.06 175.73 1043.33 175.267C1043.9 174.308 1045.04 174.025 1046.02 174.596C1046.99 175.157 1047.32 176.247 1046.78 177.177C1046.33 177.952 1045.48 178.28 1044.75 177.956L1044.24 178.842C1045.43 179.452 1046.84 178.945 1047.59 177.646Z" fill="#7B8997"/>
<path d="M1075.71 200.718L1078.46 195.95L1077.65 195.481L1075.62 198.995L1075.56 198.96L1074.73 196.214C1074.09 194.112 1073.66 193.353 1072.82 192.87C1071.65 192.196 1070.18 192.604 1069.41 193.933C1068.65 195.258 1068.97 196.785 1070.29 197.552L1070.8 196.681C1069.94 196.185 1069.69 195.297 1070.19 194.422C1070.67 193.603 1071.53 193.265 1072.33 193.726C1073.02 194.128 1073.3 194.836 1073.75 196.263L1075.05 200.335L1075.71 200.718ZM1079.34 194.426L1082.1 189.658L1081.28 189.189L1079.25 192.702L1079.2 192.668L1078.36 189.922C1077.72 187.82 1077.29 187.061 1076.45 186.577C1075.29 185.904 1073.81 186.312 1073.04 187.64C1072.28 188.965 1072.6 190.493 1073.93 191.26L1074.43 190.389C1073.57 189.892 1073.32 189.005 1073.82 188.13C1074.3 187.311 1075.16 186.973 1075.96 187.433C1076.66 187.836 1076.94 188.544 1077.39 189.971L1078.68 194.042L1079.34 194.426ZM1083.41 187.518C1083.62 187.153 1083.49 186.681 1083.13 186.47C1082.76 186.259 1082.29 186.386 1082.08 186.751C1081.87 187.116 1082 187.588 1082.36 187.799C1082.73 188.01 1083.2 187.883 1083.41 187.518ZM1086 183.13C1086.96 181.462 1086.11 179.686 1083.64 178.26C1081.19 176.846 1079.19 176.993 1078.24 178.647C1077.28 180.3 1078.15 182.101 1080.6 183.516C1083.07 184.941 1085.04 184.798 1086 183.13ZM1085.19 182.661C1084.55 183.761 1083.08 183.766 1081.11 182.63C1079.15 181.496 1078.4 180.199 1079.03 179.107C1079.66 178.014 1081.16 178.013 1083.12 179.146C1085.09 180.282 1085.82 181.561 1085.19 182.661ZM1089.69 176.738C1090.52 175.298 1090.07 173.629 1088.62 172.794C1087.16 171.948 1085.5 172.347 1084.69 173.734C1084.4 174.244 1084.3 174.842 1084.36 175.295L1084.34 175.34L1082.26 173.787L1084.09 170.628L1083.27 170.159L1081.01 174.086L1084.46 176.691L1085.06 175.895C1085.02 175.451 1085.16 174.822 1085.44 174.359C1086 173.4 1087.14 173.117 1088.13 173.688C1089.1 174.249 1089.42 175.339 1088.88 176.269C1088.43 177.044 1087.58 177.373 1086.86 177.049L1086.34 177.934C1087.53 178.544 1088.94 178.037 1089.69 176.738Z" fill="#7B8997"/>
<path d="M75.7098 199.718L78.4625 194.95L77.6506 194.481L75.6223 197.994L75.5633 197.96L74.7277 195.214C74.0864 193.112 73.6584 192.353 72.8207 191.869C71.6546 191.196 70.1792 191.604 69.4121 192.932C68.6473 194.257 68.9661 195.785 70.2946 196.552L70.7974 195.681C69.9376 195.184 69.6873 194.297 70.1922 193.422C70.6652 192.603 71.5293 192.265 72.3264 192.726C73.0239 193.128 73.3041 193.836 73.7549 195.263L75.0456 199.334L75.7098 199.718ZM79.4788 193.189L80.0328 192.23L75.2741 184.995L74.4179 184.5L71.6226 189.342L72.4345 189.811L74.6844 185.914L74.7434 185.948L79.4788 193.189ZM82.4541 188.172C82.665 187.807 82.5387 187.335 82.1733 187.124C81.808 186.913 81.3365 187.04 81.1255 187.405C80.9146 187.77 81.041 188.242 81.4063 188.453C81.7716 188.664 82.2431 188.537 82.4541 188.172ZM85.0465 183.784C86.0095 182.116 85.1501 180.34 82.6812 178.915C80.2308 177.5 78.2364 177.647 77.2819 179.301C76.3275 180.954 77.1969 182.755 79.6473 184.17C82.1161 185.595 84.0835 185.452 85.0465 183.784ZM84.2346 183.315C83.5997 184.415 82.1256 184.42 80.1586 183.284C78.1953 182.151 77.4484 180.853 78.0791 179.761C78.7097 178.669 80.2066 178.667 82.1699 179.8C84.1368 180.936 84.8695 182.215 84.2346 183.315ZM85.6175 178.976L87.6714 175.419L89.2214 176.314L89.7242 175.443L88.1742 174.548L88.7708 173.514L87.9589 173.046L87.3624 174.079L82.1663 171.079L81.5271 172.186L84.8647 178.542L85.6175 178.976ZM86.8595 174.95L85.3767 177.519L85.3176 177.484L82.7955 172.682L82.8296 172.623L86.8595 174.95Z" fill="#7B8997"/>
<path d="M68 90C68 87.7909 69.7909 86 72 86H88C90.2091 86 92 87.7909 92 90V160H68V90Z" fill="#6EBA33"/>
<path d="M115.71 200.718L118.463 195.95L117.651 195.481L115.622 198.994L115.563 198.96L114.728 196.214C114.086 194.112 113.658 193.353 112.821 192.869C111.655 192.196 110.179 192.604 109.412 193.932C108.647 195.257 108.966 196.785 110.295 197.552L110.797 196.681C109.938 196.184 109.687 195.297 110.192 194.422C110.665 193.603 111.529 193.265 112.326 193.726C113.024 194.128 113.304 194.836 113.755 196.263L115.046 200.334L115.71 200.718ZM120.843 192.064C121.715 190.555 121.44 188.994 120.215 188.277C119.255 187.732 118.075 187.902 117.453 188.63L117.408 188.605C117.633 187.79 117.208 186.924 116.407 186.452C115.252 185.795 113.837 186.267 113.079 187.581C112.312 188.91 112.61 190.371 113.765 191.028C114.566 191.5 115.528 191.436 116.13 190.819L116.174 190.845C115.846 191.762 116.29 192.87 117.25 193.414C118.474 194.131 119.964 193.588 120.843 192.064ZM120.032 191.596C119.433 192.633 118.533 192.964 117.725 192.488C116.868 192.003 116.667 190.947 117.227 189.976C117.779 189.02 118.795 188.667 119.651 189.152C120.459 189.628 120.622 190.573 120.032 191.596ZM116.444 189.524C115.967 190.351 115.114 190.636 114.336 190.177C113.564 189.741 113.386 188.89 113.876 188.041C114.357 187.207 115.183 186.936 115.955 187.372C116.733 187.831 116.913 188.712 116.444 189.524ZM123.339 187.64C123.55 187.274 123.423 186.803 123.058 186.592C122.693 186.381 122.221 186.507 122.01 186.873C121.799 187.238 121.926 187.709 122.291 187.92C122.656 188.131 123.128 188.005 123.339 187.64ZM125.931 183.251C126.894 181.583 126.035 179.808 123.566 178.382C121.116 176.967 119.121 177.115 118.167 178.768C117.212 180.422 118.082 182.223 120.532 183.637C123.001 185.063 124.968 184.919 125.931 183.251ZM125.119 182.783C124.484 183.882 123.01 183.887 121.043 182.752C119.08 181.618 118.333 180.321 118.964 179.228C119.594 178.136 121.091 178.134 123.055 179.268C125.022 180.404 125.754 181.683 125.119 182.783ZM126.502 178.444L128.556 174.886L130.106 175.781L130.609 174.91L129.059 174.015L129.656 172.982L128.844 172.513L128.247 173.546L123.051 170.546L122.412 171.653L125.749 178.009L126.502 178.444ZM127.744 174.417L126.261 176.986L126.202 176.952L123.68 172.15L123.714 172.091L127.744 174.417Z" fill="#7B8997"/>
<path d="M108 90C108 87.7909 109.791 86 112 86H128C130.209 86 132 87.7909 132 90V160H108V90Z" fill="#6EBA33"/>
<path d="M148 90C148 87.7909 149.791 86 152 86H168C170.209 86 172 87.7909 172 90V160H148V90Z" fill="#6EBA33"/>
<path d="M188 90C188 87.7909 189.791 86 192 86H208C210.209 86 212 87.7909 212 90V160H188V90Z" fill="#6EBA33"/>
<path d="M388 65C388 62.7909 389.791 61 392 61H408C410.209 61 412 62.7909 412 65V160H388V65Z" fill="#FEC532"/>
<path d="M908 90C908 87.7909 909.791 86 912 86H928C930.209 86 932 87.7909 932 90V160H908V90Z" fill="#6EBA33"/>
<path d="M948 90C948 87.7909 949.791 86 952 86H968C970.209 86 972 87.7909 972 90V160H948V90Z" fill="#6EBA33"/>
<path d="M1028 90C1028 87.7909 1029.79 86 1032 86H1048C1050.21 86 1052 87.7909 1052 90V160H1028V90Z" fill="#6EBA33"/>
<path d="M1068 90C1068 87.7909 1069.79 86 1072 86H1088C1090.21 86 1092 87.7909 1092 90V160H1068V90Z" fill="#6EBA33"/>
<path d="M268 140C268 137.791 269.791 136 272 136H288C290.209 136 292 137.791 292 140V160H268V140Z" fill="#99D8DC"/>
<path d="M308 140C308 137.791 309.791 136 312 136H328C330.209 136 332 137.791 332 140V160H308V140Z" fill="#99D8DC"/>
<path d="M348 115C348 112.791 349.791 111 352 111H368C370.209 111 372 112.791 372 115V160H348V115Z" fill="#B7DC99"/>
<path d="M428 115C428 112.791 429.791 111 432 111H448C450.209 111 452 112.791 452 115V160H428V115Z" fill="#B7DC99"/>
<path d="M468 115C468 112.791 469.791 111 472 111H488C490.209 111 492 112.791 492 115V160H468V115Z" fill="#B7DC99"/>
<path d="M508 115C508 112.791 509.791 111 512 111H528C530.209 111 532 112.791 532 115V160H508V115Z" fill="#B7DC99"/>
<path d="M548 115C548 112.791 549.791 111 552 111H568C570.209 111 572 112.791 572 115V160H548V115Z" fill="#B7DC99"/>
<path d="M588 115C588 112.791 589.791 111 592 111H608C610.209 111 612 112.791 612 115V160H588V115Z" fill="#B7DC99"/>
<path d="M628 115C628 112.791 629.791 111 632 111H648C650.209 111 652 112.791 652 115V160H628V115Z" fill="#B7DC99"/>
<path d="M668 115C668 112.791 669.791 111 672 111H688C690.209 111 692 112.791 692 115V160H668V115Z" fill="#B7DC99"/>
<path d="M708 115C708 112.791 709.791 111 712 111H728C730.209 111 732 112.791 732 115V160H708V115Z" fill="#B7DC99"/>
<path d="M748 115C748 112.791 749.791 111 752 111H768C770.209 111 772 112.791 772 115V160H748V115Z" fill="#B7DC99"/>
<path d="M788 115C788 112.791 789.791 111 792 111H808C810.209 111 812 112.791 812 115V160H788V115Z" fill="#B7DC99"/>
<path d="M828 115C828 112.791 829.791 111 832 111H848C850.209 111 852 112.791 852 115V160H828V115Z" fill="#B7DC99"/>
<path d="M868 115C868 112.791 869.791 111 872 111H888C890.209 111 892 112.791 892 115V160H868V115Z" fill="#B7DC99"/>
<path d="M988 115C988 112.791 989.791 111 992 111H1008C1010.21 111 1012 112.791 1012 115V160H988V115Z" fill="#B7DC99"/>
<path d="M228 115C228 112.791 229.791 111 232 111H248C250.209 111 252 112.791 252 115V160H228V115Z" fill="#B7DC99"/>
</svg>
