<svg width="544" height="194" viewBox="0 0 544 194" fill="none" xmlns="http://www.w3.org/2000/svg">
<rect x="60" y="9.00049" width="484" height="1" fill="#E9ECEF"/>
<rect x="60" y="34" width="484" height="1" fill="#E9ECEF"/>
<rect x="60" y="59" width="484" height="1" fill="#E9ECEF"/>
<rect x="60" y="84" width="484" height="1" fill="#E9ECEF"/>
<rect x="60" y="109" width="484" height="1" fill="#E9ECEF"/>
<rect x="60" y="134" width="484" height="1" fill="#E9ECEF"/>
<rect x="60" y="159" width="484" height="1" fill="#E9ECEF"/>
<path d="M48.8011 13.1193C48.4432 13.1136 48.0852 13.0455 47.7273 12.9148C47.3693 12.7841 47.0426 12.5639 46.7472 12.2543C46.4517 11.9418 46.2145 11.5199 46.0355 10.9886C45.8565 10.4545 45.767 9.78409 45.767 8.97727C45.767 8.2017 45.8395 7.5142 45.9844 6.91477C46.1293 6.3125 46.3395 5.8054 46.6151 5.39347C46.8906 4.98153 47.223 4.66903 47.6122 4.45597C48.0043 4.2429 48.446 4.13636 48.9375 4.13636C49.4261 4.13636 49.8608 4.23437 50.2415 4.4304C50.625 4.62642 50.9375 4.89915 51.179 5.24858C51.4205 5.59517 51.5767 5.99716 51.6477 6.45455H50.608C50.5114 6.05398 50.3239 5.72443 50.0455 5.46591C49.767 5.20455 49.3977 5.07386 48.9375 5.07386C48.2614 5.07386 47.7287 5.36932 47.3395 5.96023C46.9531 6.5483 46.7585 7.37784 46.7557 8.44886H46.8239C46.983 8.20739 47.1719 8.00142 47.3906 7.83097C47.6122 7.65767 47.8565 7.52415 48.1236 7.4304C48.3906 7.33665 48.6733 7.28977 48.9716 7.28977C49.4716 7.28977 49.929 7.41477 50.3438 7.66477C50.7585 7.91193 51.0909 8.25426 51.3409 8.69176C51.5909 9.12642 51.7159 9.625 51.7159 10.1875C51.7159 10.7273 51.5952 11.2216 51.3537 11.6705C51.1122 12.1165 50.7727 12.4716 50.3352 12.7358C49.9006 12.9972 49.3892 13.125 48.8011 13.1193ZM48.8011 12.1818C49.1591 12.1818 49.4801 12.0923 49.7642 11.9134C50.0511 11.7344 50.277 11.4943 50.4418 11.1932C50.6094 10.892 50.6932 10.5568 50.6932 10.1875C50.6932 9.8267 50.6122 9.49858 50.4503 9.20312C50.2912 8.90483 50.071 8.66761 49.7898 8.49148C49.5114 8.31534 49.1932 8.22727 48.8352 8.22727C48.5653 8.22727 48.3139 8.28125 48.081 8.3892C47.848 8.49432 47.6435 8.6392 47.4673 8.82386C47.294 9.00852 47.1577 9.22017 47.0582 9.45881C46.9588 9.6946 46.9091 9.94318 46.9091 10.2045C46.9091 10.5511 46.9901 10.875 47.152 11.1761C47.3168 11.4773 47.5412 11.7202 47.8253 11.9048C48.1122 12.0895 48.4375 12.1818 48.8011 12.1818Z" fill="#7B8997"/>
<path d="M48.6307 38.1191C48.1307 38.1191 47.6804 38.0196 47.2798 37.8208C46.8793 37.6219 46.5582 37.3492 46.3168 37.0026C46.0753 36.656 45.9432 36.2611 45.9205 35.8179H46.9432C46.983 36.2128 47.1619 36.5395 47.4801 36.7981C47.8011 37.0537 48.1847 37.1816 48.6307 37.1816C48.9886 37.1816 49.3068 37.0978 49.5852 36.9302C49.8665 36.7625 50.0866 36.5324 50.2457 36.2398C50.4077 35.9444 50.4886 35.6106 50.4886 35.2384C50.4886 34.8577 50.4048 34.5182 50.2372 34.2199C50.0724 33.9188 49.8452 33.6816 49.5554 33.5083C49.2656 33.335 48.9347 33.2469 48.5625 33.2441C48.2955 33.2412 48.0213 33.2824 47.7401 33.3677C47.4588 33.45 47.2273 33.5566 47.0455 33.6873L46.0568 33.5679L46.5852 29.2725H51.1193V30.21H47.4716L47.1648 32.7838H47.2159C47.3949 32.6418 47.6193 32.5239 47.8892 32.4302C48.1591 32.3364 48.4403 32.2895 48.733 32.2895C49.267 32.2895 49.7429 32.4174 50.1605 32.6731C50.581 32.9259 50.9105 33.2725 51.1491 33.7128C51.3906 34.1532 51.5114 34.656 51.5114 35.2213C51.5114 35.7782 51.3864 36.2753 51.1364 36.7128C50.8892 37.1475 50.5483 37.4912 50.1136 37.7441C49.679 37.9941 49.1847 38.1191 48.6307 38.1191Z" fill="#7B8997"/>
<path d="M45.6989 61.2102V60.3409L49.5341 54.2727H50.1648V55.6193H49.7386L46.8409 60.2045V60.2727H52.0057V61.2102H45.6989ZM49.8068 63V60.946V60.5412V54.2727H50.8125V63H49.8068Z" fill="#7B8997"/>
<path d="M48.8523 89.1191C48.2898 89.1191 47.7884 89.0225 47.348 88.8293C46.9105 88.6361 46.5625 88.3677 46.304 88.0239C46.0483 87.6773 45.9091 87.2753 45.8864 86.8179H46.9602C46.983 87.0992 47.0795 87.3421 47.25 87.5466C47.4205 87.7483 47.6435 87.9046 47.919 88.0154C48.1946 88.1262 48.5 88.1816 48.8352 88.1816C49.2102 88.1816 49.5426 88.1162 49.8324 87.9856C50.1222 87.8549 50.3494 87.6731 50.5142 87.4401C50.679 87.2071 50.7614 86.9373 50.7614 86.6304C50.7614 86.3094 50.6818 86.0267 50.5227 85.7824C50.3636 85.5353 50.1307 85.3421 49.8239 85.2029C49.517 85.0637 49.142 84.9941 48.6989 84.9941H48V84.0566H48.6989C49.0455 84.0566 49.3494 83.9941 49.6108 83.8691C49.875 83.7441 50.081 83.5679 50.2287 83.3407C50.3793 83.1134 50.4545 82.8463 50.4545 82.5395C50.4545 82.2441 50.3892 81.987 50.2585 81.7682C50.1278 81.5495 49.9432 81.379 49.7045 81.2569C49.4688 81.1347 49.1903 81.0736 48.8693 81.0736C48.5682 81.0736 48.2841 81.129 48.017 81.2398C47.7528 81.3478 47.5369 81.5054 47.3693 81.7128C47.2017 81.9174 47.1108 82.1645 47.0966 82.4543H46.0739C46.0909 81.9969 46.2287 81.5963 46.4872 81.2526C46.7457 80.906 47.0838 80.6361 47.5014 80.4429C47.9219 80.2498 48.3835 80.1532 48.8864 80.1532C49.4261 80.1532 49.8892 80.2625 50.2756 80.4813C50.6619 80.6972 50.9588 80.9827 51.1662 81.3378C51.3736 81.6929 51.4773 82.0765 51.4773 82.4884C51.4773 82.9799 51.348 83.3989 51.0895 83.7455C50.8338 84.0921 50.4858 84.3321 50.0455 84.4657V84.5338C50.5966 84.6248 51.027 84.8591 51.3366 85.237C51.6463 85.612 51.8011 86.0765 51.8011 86.6304C51.8011 87.1049 51.6719 87.531 51.4134 87.9088C51.1577 88.2838 50.8082 88.5793 50.3651 88.7952C49.9219 89.0111 49.4176 89.1191 48.8523 89.1191Z" fill="#7B8997"/>
<path d="M45.9034 114V113.233L48.7841 110.08C49.1222 109.71 49.4006 109.389 49.6193 109.116C49.8381 108.841 50 108.582 50.1051 108.341C50.2131 108.097 50.267 107.841 50.267 107.574C50.267 107.267 50.1932 107.001 50.0455 106.777C49.9006 106.553 49.7017 106.379 49.4489 106.257C49.196 106.135 48.9119 106.074 48.5966 106.074C48.2614 106.074 47.9688 106.143 47.7188 106.283C47.4716 106.419 47.2798 106.611 47.1435 106.858C47.0099 107.105 46.9432 107.395 46.9432 107.727H45.9375C45.9375 107.216 46.0554 106.767 46.2912 106.381C46.527 105.994 46.848 105.693 47.2543 105.477C47.6634 105.261 48.1222 105.153 48.6307 105.153C49.142 105.153 49.5952 105.261 49.9901 105.477C50.3849 105.693 50.6946 105.984 50.919 106.351C51.1435 106.717 51.2557 107.125 51.2557 107.574C51.2557 107.895 51.1974 108.209 51.081 108.516C50.9673 108.82 50.7685 109.159 50.4844 109.534C50.2031 109.906 49.8125 110.361 49.3125 110.898L47.3523 112.994V113.062H51.4091V114H45.9034Z" fill="#7B8997"/>
<path d="M49.8466 129.273V138H48.7898V130.381H48.7386L46.608 131.795V130.722L48.7898 129.273H49.8466Z" fill="#7B8997"/>
<path d="M48.75 164.119C48.108 164.119 47.5611 163.945 47.1094 163.595C46.6577 163.243 46.3125 162.733 46.0739 162.065C45.8352 161.395 45.7159 160.585 45.7159 159.636C45.7159 158.693 45.8352 157.888 46.0739 157.22C46.3153 156.55 46.6619 156.038 47.1136 155.686C47.5682 155.331 48.1136 155.153 48.75 155.153C49.3864 155.153 49.9304 155.331 50.3821 155.686C50.8366 156.038 51.1832 156.55 51.4219 157.22C51.6634 157.888 51.7841 158.693 51.7841 159.636C51.7841 160.585 51.6648 161.395 51.4261 162.065C51.1875 162.733 50.8423 163.243 50.3906 163.595C49.9389 163.945 49.392 164.119 48.75 164.119ZM48.75 163.182C49.3864 163.182 49.8807 162.875 50.233 162.261C50.5852 161.648 50.7614 160.773 50.7614 159.636C50.7614 158.881 50.6804 158.237 50.5185 157.706C50.3594 157.175 50.1293 156.77 49.8281 156.491C49.5298 156.213 49.1705 156.074 48.75 156.074C48.1193 156.074 47.6264 156.385 47.2713 157.007C46.9162 157.626 46.7386 158.503 46.7386 159.636C46.7386 160.392 46.8182 161.034 46.9773 161.562C47.1364 162.091 47.3651 162.493 47.6634 162.768C47.9645 163.044 48.3267 163.182 48.75 163.182Z" fill="#7B8997"/>
<path d="M27 107.943L18.2727 107.943L18.2727 106.886L22.6023 106.886L22.6023 106.784L18.2727 102.864L18.2727 101.483L22.2102 105.148L27 101.483L27 102.761L22.9432 105.795L24.1705 106.886L27 106.886L27 107.943ZM27 100.115L18.2727 100.115L18.2727 97.1662C18.2727 96.4815 18.3963 95.9219 18.6435 95.4872C18.8878 95.0497 19.2187 94.7259 19.6364 94.5156C20.054 94.3054 20.5199 94.2003 21.0341 94.2003C21.5483 94.2003 22.0156 94.3054 22.4361 94.5156C22.8565 94.723 23.1918 95.044 23.4418 95.4787C23.6889 95.9134 23.8125 96.4702 23.8125 97.1491L23.8125 99.2628L22.875 99.2628L22.875 97.1832C22.875 96.7145 22.794 96.3381 22.6321 96.054C22.4702 95.7699 22.2514 95.5639 21.9759 95.4361C21.6974 95.3054 21.3835 95.2401 21.0341 95.2401C20.6847 95.2401 20.3722 95.3054 20.0966 95.4361C19.821 95.5639 19.6051 95.7713 19.4489 96.0582C19.2898 96.3452 19.2102 96.7259 19.2102 97.2003L19.2102 99.0582L27 99.0582L27 100.115ZM27 89.2592L20.4545 89.2592L20.4545 88.2536L27 88.2536L27 89.2592ZM19.3636 88.7479C19.3636 88.9439 19.2969 89.1129 19.1634 89.255C19.0298 89.3942 18.8693 89.4638 18.6818 89.4638C18.4943 89.4638 18.3338 89.3942 18.2003 89.255C18.0668 89.1129 18 88.9439 18 88.7479C18 88.5518 18.0668 88.3842 18.2003 88.245C18.3338 88.103 18.4943 88.032 18.6818 88.032C18.8693 88.032 19.0298 88.103 19.1634 88.245C19.2969 88.3842 19.3636 88.5518 19.3636 88.7479ZM23.0625 85.4059L27 85.4059L27 86.4116L20.4545 86.4116L20.4545 85.44L21.4773 85.44L21.4773 85.3548C21.1449 85.2013 20.8778 84.9684 20.6761 84.6559C20.4716 84.3434 20.3693 83.94 20.3693 83.4457C20.3693 83.0025 20.4602 82.6147 20.642 82.2823C20.821 81.9499 21.0937 81.6914 21.4602 81.5067C21.8239 81.3221 22.2841 81.2298 22.8409 81.2298L27 81.2298L27 82.2354L22.9091 82.2354C22.3949 82.2354 21.9943 82.369 21.7074 82.636C21.4176 82.9031 21.2727 83.2695 21.2727 83.7354C21.2727 84.0565 21.3423 84.3434 21.4815 84.5962C21.6207 84.8462 21.8239 85.0437 22.0909 85.1886C22.358 85.3335 22.6818 85.4059 23.0625 85.4059ZM27.1364 76.9205C27.1364 77.4659 26.9986 77.9474 26.723 78.3651C26.4446 78.7827 26.0526 79.1094 25.5469 79.3452C25.0384 79.581 24.4375 79.6989 23.7443 79.6989C23.0568 79.6989 22.4602 79.581 21.9545 79.3452C21.4489 79.1094 21.0582 78.7812 20.7827 78.3608C20.5071 77.9403 20.3693 77.4545 20.3693 76.9034C20.3693 76.4773 20.4403 76.1406 20.5824 75.8935C20.7216 75.6435 20.8807 75.4531 21.0597 75.3224C21.2358 75.1889 21.3807 75.0852 21.4943 75.0114L21.4943 74.9261L18.2727 74.9261L18.2727 73.9205L27 73.9205L27 74.892L25.9943 74.892L25.9943 75.0114C26.1136 75.0852 26.2642 75.1903 26.446 75.3267C26.625 75.4631 26.7855 75.6577 26.9276 75.9105C27.0668 76.1634 27.1364 76.5 27.1364 76.9205ZM26.233 76.7841C26.233 76.3807 26.1278 76.0398 25.9176 75.7614C25.7045 75.483 25.4105 75.2713 25.0355 75.1264C24.6577 74.9815 24.2216 74.9091 23.7273 74.9091C23.2386 74.9091 22.8111 74.9801 22.4446 75.1222C22.0753 75.2642 21.7884 75.4744 21.5838 75.7528C21.3764 76.0312 21.2727 76.375 21.2727 76.7841C21.2727 77.2102 21.3821 77.5653 21.6009 77.8494C21.8168 78.1307 22.1108 78.3423 22.483 78.4844C22.8523 78.6236 23.267 78.6932 23.7273 78.6932C24.1932 78.6932 24.6165 78.6222 24.9972 78.4801C25.375 78.3352 25.6761 78.1222 25.9006 77.8409C26.1222 77.5568 26.233 77.2045 26.233 76.7841ZM27.1364 69.1946C27.1364 69.8253 26.9972 70.3693 26.7187 70.8267C26.4375 71.2812 26.0455 71.6321 25.5426 71.8793C25.0369 72.1236 24.4489 72.2457 23.7784 72.2457C23.108 72.2457 22.517 72.1236 22.0057 71.8793C21.4915 71.6321 21.0909 71.2884 20.804 70.848C20.5142 70.4048 20.3693 69.8878 20.3693 69.2969C20.3693 68.956 20.4261 68.6193 20.5398 68.2869C20.6534 67.9545 20.8381 67.652 21.0937 67.3793C21.3466 67.1065 21.6818 66.8892 22.0994 66.7273C22.517 66.5653 23.0312 66.4844 23.642 66.4844L24.0682 66.4844L24.0682 71.5298L23.1989 71.5298L23.1989 67.5071C22.8295 67.5071 22.5 67.581 22.2102 67.7287C21.9205 67.8736 21.6918 68.081 21.5241 68.3509C21.3565 68.6179 21.2727 68.9332 21.2727 69.2969C21.2727 69.6974 21.3722 70.044 21.571 70.3366C21.767 70.6264 22.0227 70.8494 22.3381 71.0057C22.6534 71.1619 22.9915 71.2401 23.3523 71.2401L23.9318 71.2401C24.4261 71.2401 24.8452 71.1548 25.1889 70.9844C25.5298 70.8111 25.7898 70.571 25.9687 70.2642C26.1449 69.9574 26.233 69.6009 26.233 69.1946C26.233 68.9304 26.196 68.6918 26.1222 68.4787C26.0455 68.2628 25.9318 68.0767 25.7812 67.9205C25.6278 67.7642 25.4375 67.6435 25.2102 67.5582L25.483 66.5866C25.8125 66.6889 26.1023 66.8608 26.3523 67.1023C26.5994 67.3437 26.7926 67.642 26.9318 67.9972C27.0682 68.3523 27.1364 68.7514 27.1364 69.1946ZM20.4545 64.3803L23.1307 62.8121L20.4545 61.244L20.4545 60.0849L23.7273 62.1985L27 60.0849L27 61.244L24.4602 62.8121L27 64.3803L27 65.5394L23.7273 63.4599L20.4545 65.5394L20.4545 64.3803Z" fill="#242440"/>
<path d="M70.9738 181.119C70.3318 181.119 69.7849 180.945 69.3332 180.595C68.8816 180.243 68.5364 179.733 68.2978 179.065C68.0592 178.395 67.94 177.585 67.94 176.636C67.9401 175.693 68.0594 174.888 68.2981 174.22C68.5396 173.55 68.8862 173.038 69.338 172.686C69.7925 172.331 70.338 172.153 70.9744 172.153C71.6107 172.153 72.1548 172.331 72.6064 172.686C73.061 173.038 73.4075 173.55 73.6461 174.22C73.8876 174.888 74.0082 175.693 74.0082 176.636C74.0081 177.585 73.8888 178.395 73.6501 179.065C73.4114 179.733 73.0662 180.243 72.6145 180.595C72.1628 180.945 71.6159 181.119 70.9738 181.119ZM70.9739 180.182C71.6103 180.182 72.1046 179.875 72.4569 179.261C72.8092 178.648 72.9854 177.773 72.9855 176.636C72.9855 175.881 72.9046 175.237 72.7427 174.706C72.5836 174.175 72.3535 173.77 72.0524 173.491C71.7541 173.213 71.3948 173.074 70.9743 173.074C70.3436 173.074 69.8507 173.385 69.4956 174.007C69.1404 174.626 68.9628 175.503 68.9627 176.636C68.9627 177.392 69.0422 178.034 69.2013 178.562C69.3603 179.091 69.589 179.493 69.8873 179.768C70.1884 180.044 70.5506 180.182 70.9739 180.182ZM78.4738 181.119C77.8318 181.119 77.2849 180.945 76.8332 180.595C76.3816 180.243 76.0364 179.733 75.7978 179.065C75.5592 178.395 75.44 177.585 75.44 176.636C75.4401 175.693 75.5594 174.888 75.7981 174.22C76.0396 173.55 76.3862 173.038 76.838 172.686C77.2925 172.331 77.838 172.153 78.4744 172.153C79.1107 172.153 79.6548 172.331 80.1064 172.686C80.561 173.038 80.9075 173.55 81.1461 174.22C81.3876 174.888 81.5082 175.693 81.5082 176.636C81.5081 177.585 81.3888 178.395 81.1501 179.065C80.9114 179.733 80.5662 180.243 80.1145 180.595C79.6628 180.945 79.1159 181.119 78.4738 181.119ZM78.4739 180.182C79.1103 180.182 79.6046 179.875 79.9569 179.261C80.3092 178.648 80.4854 177.773 80.4855 176.636C80.4855 175.881 80.4046 175.237 80.2427 174.706C80.0836 174.175 79.8535 173.77 79.5524 173.491C79.2541 173.213 78.8948 173.074 78.4743 173.074C77.8436 173.074 77.3507 173.385 76.9956 174.007C76.6404 174.626 76.4628 175.503 76.4627 176.636C76.4627 177.392 76.5422 178.034 76.7013 178.562C76.8603 179.091 77.089 179.493 77.3873 179.768C77.6884 180.044 78.0506 180.182 78.4739 180.182ZM86.8946 176.168L86.8945 177.105H83.0763L83.0764 176.168H86.8946ZM91.4934 181.119C90.8513 181.119 90.3045 180.945 89.8528 180.595C89.4011 180.243 89.056 179.733 88.8174 179.065C88.5788 178.395 88.4595 177.585 88.4595 176.636C88.4596 175.693 88.579 174.888 88.8176 174.22C89.0592 173.55 89.4058 173.038 89.8575 172.686C90.3121 172.331 90.8575 172.153 91.4939 172.153C92.1303 172.153 92.6743 172.331 93.126 172.686C93.5805 173.038 93.9271 173.55 94.1656 174.22C94.4071 174.888 94.5278 175.693 94.5277 176.636C94.5277 177.585 94.4083 178.395 94.1696 179.065C93.931 179.733 93.5857 180.243 93.134 180.595C92.6823 180.945 92.1354 181.119 91.4934 181.119ZM91.4934 180.182C92.1298 180.182 92.6241 179.875 92.9764 179.261C93.3287 178.648 93.5049 177.773 93.505 176.636C93.505 175.881 93.4241 175.237 93.2622 174.706C93.1032 174.175 92.8731 173.77 92.5719 173.491C92.2737 173.213 91.9143 173.074 91.4938 173.074C90.8632 173.074 90.3702 173.385 90.0151 174.007C89.6599 174.626 89.4823 175.503 89.4823 176.636C89.4822 177.392 89.5617 178.034 89.7208 178.562C89.8799 179.091 90.1085 179.493 90.4068 179.768C90.7079 180.044 91.0701 180.182 91.4934 180.182ZM99.0956 181.119C98.5331 181.119 98.0317 181.023 97.5914 180.83C97.1539 180.636 96.8059 180.368 96.5474 180.024C96.2917 179.678 96.1526 179.276 96.1299 178.818H97.2037C97.2264 179.099 97.323 179.342 97.4935 179.547C97.6639 179.749 97.8869 179.905 98.1625 180.016C98.438 180.126 98.7434 180.182 99.0787 180.182C99.4537 180.182 99.786 180.116 100.076 179.986C100.366 179.855 100.593 179.673 100.758 179.44C100.922 179.207 101.005 178.937 101.005 178.631C101.005 178.31 100.925 178.027 100.766 177.783C100.607 177.536 100.374 177.342 100.067 177.203C99.7607 177.064 99.3857 176.994 98.9425 176.994H98.2436L98.2437 176.057H98.9425C99.2891 176.057 99.5931 175.994 99.8545 175.869C100.119 175.744 100.325 175.568 100.472 175.341C100.623 175.114 100.698 174.847 100.698 174.54C100.698 174.244 100.633 173.987 100.502 173.768C100.372 173.55 100.187 173.379 99.9484 173.257C99.7126 173.135 99.4342 173.074 99.1132 173.074C98.812 173.074 98.5279 173.129 98.2609 173.24C97.9967 173.348 97.7807 173.506 97.6131 173.713C97.4455 173.918 97.3546 174.165 97.3404 174.455H96.3176C96.3347 173.997 96.4725 173.597 96.731 173.253C96.9896 172.906 97.3277 172.636 97.7453 172.443C98.1658 172.25 98.6274 172.153 99.1303 172.153C99.67 172.153 100.133 172.263 100.519 172.482C100.906 172.697 101.203 172.983 101.41 173.338C101.617 173.693 101.721 174.077 101.721 174.489C101.721 174.98 101.592 175.399 101.333 175.746C101.077 176.092 100.729 176.332 100.289 176.466L100.289 176.534C100.84 176.625 101.271 176.859 101.58 177.237C101.89 177.612 102.045 178.077 102.045 178.631C102.045 179.105 101.915 179.531 101.657 179.909C101.401 180.284 101.052 180.58 100.608 180.795C100.165 181.011 99.661 181.119 99.0956 181.119ZM108.85 174.455L108.85 181H107.844L107.845 174.455H108.85ZM108.458 177.574L108.458 178.511C108.231 178.597 108.005 178.672 107.78 178.737C107.556 178.8 107.32 178.849 107.073 178.886C106.826 178.92 106.555 178.937 106.259 178.937C105.518 178.937 104.922 178.737 104.474 178.337C104.028 177.936 103.805 177.335 103.805 176.534L103.805 174.437H104.811L104.81 176.534C104.81 176.869 104.874 177.145 105.002 177.361C105.13 177.577 105.303 177.737 105.522 177.842C105.741 177.947 105.986 178 106.259 178C106.685 178 107.07 177.962 107.414 177.885C107.761 177.805 108.109 177.702 108.458 177.574Z" fill="#7B8997"/>
<path d="M131.98 181.119C131.338 181.119 130.791 180.945 130.339 180.595C129.887 180.243 129.542 179.733 129.304 179.065C129.065 178.395 128.946 177.585 128.946 176.636C128.946 175.693 129.065 174.888 129.304 174.22C129.545 173.55 129.892 173.038 130.344 172.686C130.798 172.331 131.344 172.153 131.98 172.153C132.617 172.153 133.161 172.331 133.612 172.686C134.067 173.038 134.413 173.55 134.652 174.22C134.893 174.888 135.014 175.693 135.014 176.636C135.014 177.585 134.895 178.395 134.656 179.065C134.417 179.733 134.072 180.243 133.62 180.595C133.169 180.945 132.622 181.119 131.98 181.119ZM131.98 180.182C132.616 180.182 133.11 179.875 133.463 179.261C133.815 178.648 133.991 177.773 133.991 176.636C133.991 175.881 133.91 175.237 133.749 174.706C133.589 174.175 133.359 173.77 133.058 173.491C132.76 173.213 132.401 173.074 131.98 173.074C131.349 173.074 130.857 173.385 130.501 174.007C130.146 174.626 129.969 175.503 129.969 176.636C129.969 177.392 130.048 178.034 130.207 178.562C130.366 179.091 130.595 179.493 130.893 179.768C131.194 180.044 131.556 180.182 131.98 180.182ZM139.582 181.119C139.019 181.119 138.518 181.023 138.078 180.83C137.64 180.636 137.292 180.368 137.034 180.024C136.778 179.678 136.639 179.276 136.616 178.818H137.69C137.713 179.099 137.809 179.342 137.98 179.547C138.15 179.749 138.373 179.905 138.649 180.016C138.924 180.126 139.23 180.182 139.565 180.182C139.94 180.182 140.272 180.116 140.562 179.986C140.852 179.855 141.079 179.673 141.244 179.44C141.409 179.207 141.491 178.937 141.491 178.631C141.491 178.31 141.412 178.027 141.253 177.783C141.094 177.536 140.861 177.342 140.554 177.203C140.247 177.064 139.872 176.994 139.429 176.994H138.73L138.73 176.057H139.429C139.775 176.057 140.079 175.994 140.341 175.869C140.605 175.744 140.811 175.568 140.959 175.341C141.109 175.114 141.185 174.847 141.185 174.54C141.185 174.244 141.119 173.987 140.989 173.768C140.858 173.55 140.673 173.379 140.435 173.257C140.199 173.135 139.921 173.074 139.599 173.074C139.298 173.074 139.014 173.129 138.747 173.24C138.483 173.348 138.267 173.506 138.099 173.713C137.932 173.918 137.841 174.165 137.827 174.455H136.804C136.821 173.997 136.959 173.597 137.217 173.253C137.476 172.906 137.814 172.636 138.232 172.443C138.652 172.25 139.114 172.153 139.617 172.153C140.156 172.153 140.619 172.263 141.006 172.482C141.392 172.697 141.689 172.983 141.896 173.338C142.104 173.693 142.207 174.077 142.207 174.489C142.207 174.98 142.078 175.399 141.82 175.746C141.564 176.092 141.216 176.332 140.775 176.466L140.775 176.534C141.327 176.625 141.757 176.859 142.067 177.237C142.376 177.612 142.531 178.077 142.531 178.631C142.531 179.105 142.402 179.531 142.143 179.909C141.887 180.284 141.538 180.58 141.095 180.795C140.652 181.011 140.147 181.119 139.582 181.119ZM148.041 176.168L148.041 177.105H144.223L144.223 176.168H148.041ZM152.64 181.119C151.998 181.119 151.451 180.945 150.999 180.595C150.548 180.243 150.202 179.733 149.964 179.065C149.725 178.395 149.606 177.585 149.606 176.636C149.606 175.693 149.725 174.888 149.964 174.22C150.206 173.55 150.552 173.038 151.004 172.686C151.459 172.331 152.004 172.153 152.64 172.153C153.277 172.153 153.821 172.331 154.272 172.686C154.727 173.038 155.074 173.55 155.312 174.22C155.554 174.888 155.674 175.693 155.674 176.636C155.674 177.585 155.555 178.395 155.316 179.065C155.077 179.733 154.732 180.243 154.281 180.595C153.829 180.945 153.282 181.119 152.64 181.119ZM152.64 180.182C153.276 180.182 153.771 179.875 154.123 179.261C154.475 178.648 154.651 177.773 154.651 176.636C154.652 175.881 154.571 175.237 154.409 174.706C154.25 174.175 154.02 173.77 153.718 173.491C153.42 173.213 153.061 173.074 152.64 173.074C152.01 173.074 151.517 173.385 151.162 174.007C150.806 174.626 150.629 175.503 150.629 176.636C150.629 177.392 150.708 178.034 150.867 178.562C151.026 179.091 151.255 179.493 151.553 179.768C151.854 180.044 152.217 180.182 152.64 180.182ZM160.191 181.119C159.833 181.114 159.475 181.045 159.117 180.915C158.759 180.784 158.432 180.564 158.137 180.254C157.842 179.942 157.604 179.52 157.425 178.989C157.247 178.455 157.157 177.784 157.157 176.977C157.157 176.202 157.23 175.514 157.375 174.915C157.52 174.312 157.73 173.805 158.005 173.393C158.281 172.982 158.613 172.669 159.003 172.456C159.395 172.243 159.836 172.136 160.328 172.136C160.817 172.136 161.251 172.234 161.632 172.43C162.015 172.626 162.328 172.899 162.569 173.249C162.811 173.595 162.967 173.997 163.038 174.455H161.998C161.902 174.054 161.714 173.724 161.436 173.466C161.157 173.205 160.788 173.074 160.328 173.074C159.652 173.074 159.119 173.369 158.73 173.96C158.343 174.548 158.149 175.378 158.146 176.449H158.214C158.373 176.207 158.562 176.001 158.781 175.831C159.002 175.658 159.247 175.524 159.514 175.43C159.781 175.337 160.063 175.29 160.362 175.29C160.862 175.29 161.319 175.415 161.734 175.665C162.149 175.912 162.481 176.254 162.731 176.692C162.981 177.126 163.106 177.625 163.106 178.187C163.106 178.727 162.985 179.222 162.744 179.67C162.502 180.116 162.163 180.472 161.725 180.736C161.29 180.997 160.779 181.125 160.191 181.119ZM160.191 180.182C160.549 180.182 160.87 180.092 161.154 179.913C161.441 179.734 161.667 179.494 161.832 179.193C161.999 178.892 162.083 178.557 162.083 178.187C162.083 177.827 162.002 177.499 161.84 177.203C161.681 176.905 161.461 176.668 161.18 176.491C160.901 176.315 160.583 176.227 160.225 176.227C159.955 176.227 159.704 176.281 159.471 176.389C159.238 176.494 159.034 176.639 158.857 176.824C158.684 177.009 158.548 177.22 158.448 177.459C158.349 177.695 158.299 177.943 158.299 178.205C158.299 178.551 158.38 178.875 158.542 179.176C158.707 179.477 158.931 179.72 159.215 179.905C159.502 180.089 159.827 180.182 160.191 180.182ZM169.844 174.455L169.844 181H168.838L168.839 174.455H169.844ZM169.452 177.574L169.452 178.511C169.225 178.597 168.999 178.672 168.775 178.737C168.55 178.8 168.314 178.849 168.067 178.886C167.82 178.92 167.549 178.937 167.253 178.937C166.512 178.937 165.917 178.737 165.468 178.337C165.022 177.936 164.799 177.335 164.799 176.534L164.799 174.437H165.805L165.805 176.534C165.805 176.869 165.868 177.145 165.996 177.361C166.124 177.577 166.297 177.737 166.516 177.842C166.735 177.947 166.981 178 167.253 178C167.679 178 168.064 177.962 168.408 177.885C168.755 177.805 169.103 177.702 169.452 177.574Z" fill="#7B8997"/>
<path d="M193.056 181.119C192.414 181.119 191.867 180.945 191.415 180.595C190.964 180.243 190.618 179.733 190.38 179.065C190.141 178.395 190.022 177.585 190.022 176.636C190.022 175.693 190.141 174.888 190.38 174.22C190.622 173.55 190.968 173.038 191.42 172.686C191.875 172.331 192.42 172.153 193.056 172.153C193.693 172.153 194.237 172.331 194.688 172.686C195.143 173.038 195.49 173.55 195.728 174.22C195.97 174.888 196.09 175.693 196.09 176.636C196.09 177.585 195.971 178.395 195.732 179.065C195.493 179.733 195.148 180.243 194.697 180.595C194.245 180.945 193.698 181.119 193.056 181.119ZM193.056 180.182C193.692 180.182 194.187 179.875 194.539 179.261C194.891 178.648 195.067 177.773 195.067 176.636C195.068 175.881 194.987 175.237 194.825 174.706C194.666 174.175 194.436 173.77 194.134 173.491C193.836 173.213 193.477 173.074 193.056 173.074C192.426 173.074 191.933 173.385 191.578 174.007C191.222 174.626 191.045 175.503 191.045 176.636C191.045 177.392 191.124 178.034 191.283 178.562C191.442 179.091 191.671 179.493 191.969 179.768C192.27 180.044 192.633 180.182 193.056 180.182ZM200.607 181.119C200.249 181.114 199.891 181.045 199.533 180.915C199.175 180.784 198.849 180.564 198.553 180.254C198.258 179.942 198.02 179.52 197.842 178.989C197.663 178.455 197.573 177.784 197.573 176.977C197.573 176.202 197.646 175.514 197.791 174.915C197.936 174.312 198.146 173.805 198.421 173.393C198.697 172.982 199.029 172.669 199.419 172.456C199.811 172.243 200.252 172.136 200.744 172.136C201.233 172.136 201.667 172.234 202.048 172.43C202.431 172.626 202.744 172.899 202.985 173.249C203.227 173.595 203.383 173.997 203.454 174.455H202.414C202.318 174.054 202.13 173.724 201.852 173.466C201.573 173.205 201.204 173.074 200.744 173.074C200.068 173.074 199.535 173.369 199.146 173.96C198.759 174.548 198.565 175.378 198.562 176.449H198.63C198.789 176.207 198.978 176.001 199.197 175.831C199.418 175.658 199.663 175.524 199.93 175.43C200.197 175.337 200.48 175.29 200.778 175.29C201.278 175.29 201.735 175.415 202.15 175.665C202.565 175.912 202.897 176.254 203.147 176.692C203.397 177.126 203.522 177.625 203.522 178.187C203.522 178.727 203.401 179.222 203.16 179.67C202.918 180.116 202.579 180.472 202.141 180.736C201.706 180.997 201.195 181.125 200.607 181.119ZM200.607 180.182C200.965 180.182 201.286 180.092 201.57 179.913C201.857 179.734 202.083 179.494 202.248 179.193C202.415 178.892 202.499 178.557 202.499 178.187C202.499 177.827 202.418 177.499 202.256 177.203C202.097 176.905 201.877 176.668 201.596 176.491C201.318 176.315 200.999 176.227 200.641 176.227C200.371 176.227 200.12 176.281 199.887 176.389C199.654 176.494 199.45 176.639 199.273 176.824C199.1 177.009 198.964 177.22 198.864 177.459C198.765 177.695 198.715 177.943 198.715 178.205C198.715 178.551 198.796 178.875 198.958 179.176C199.123 179.477 199.347 179.72 199.631 179.905C199.918 180.089 200.243 180.182 200.607 180.182ZM208.965 176.168L208.965 177.105H205.147L205.147 176.168H208.965ZM213.564 181.119C212.922 181.119 212.375 180.945 211.923 180.595C211.471 180.243 211.126 179.733 210.888 179.065C210.649 178.395 210.53 177.585 210.53 176.636C210.53 175.693 210.649 174.888 210.888 174.22C211.129 173.55 211.476 173.038 211.928 172.686C212.382 172.331 212.928 172.153 213.564 172.153C214.201 172.153 214.745 172.331 215.196 172.686C215.651 173.038 215.997 173.55 216.236 174.22C216.477 174.888 216.598 175.693 216.598 176.636C216.598 177.585 216.479 178.395 216.24 179.065C216.001 179.733 215.656 180.243 215.204 180.595C214.753 180.945 214.206 181.119 213.564 181.119ZM213.564 180.182C214.2 180.182 214.694 179.875 215.047 179.261C215.399 178.648 215.575 177.773 215.575 176.636C215.575 175.881 215.494 175.237 215.333 174.706C215.173 174.175 214.943 173.77 214.642 173.491C214.344 173.213 213.985 173.074 213.564 173.074C212.933 173.074 212.441 173.385 212.085 174.007C211.73 174.626 211.553 175.503 211.553 176.636C211.553 177.392 211.632 178.034 211.791 178.562C211.95 179.091 212.179 179.493 212.477 179.768C212.778 180.044 213.14 180.182 213.564 180.182ZM220.996 172.136C221.354 172.139 221.712 172.207 222.07 172.341C222.428 172.474 222.755 172.696 223.05 173.006C223.345 173.315 223.583 173.737 223.762 174.271C223.94 174.803 224.03 175.472 224.03 176.278C224.03 177.054 223.956 177.743 223.808 178.345C223.663 178.945 223.453 179.45 223.177 179.862C222.905 180.274 222.572 180.587 222.18 180.8C221.791 181.013 221.351 181.119 220.859 181.119C220.37 181.119 219.934 181.023 219.551 180.83C219.17 180.634 218.858 180.362 218.613 180.016C218.372 179.666 218.217 179.261 218.149 178.801H219.189C219.283 179.202 219.469 179.533 219.747 179.794C220.028 180.053 220.399 180.182 220.859 180.182C221.532 180.182 222.064 179.888 222.453 179.3C222.845 178.712 223.041 177.881 223.041 176.807H222.973C222.814 177.045 222.625 177.251 222.406 177.425C222.187 177.598 221.945 177.732 221.678 177.825C221.41 177.919 221.126 177.966 220.825 177.966C220.325 177.966 219.866 177.842 219.449 177.595C219.034 177.345 218.702 177.003 218.452 176.568C218.205 176.131 218.081 175.631 218.081 175.068C218.081 174.528 218.2 174.036 218.439 173.589C218.681 173.143 219.019 172.788 219.453 172.524C219.891 172.26 220.405 172.131 220.996 172.136ZM220.996 173.074C220.638 173.074 220.316 173.163 220.029 173.342C219.745 173.521 219.519 173.761 219.351 174.062C219.186 174.364 219.104 174.699 219.104 175.068C219.104 175.432 219.183 175.763 219.342 176.061C219.504 176.357 219.724 176.592 220.003 176.768C220.284 176.942 220.604 177.028 220.962 177.028C221.232 177.028 221.483 176.976 221.716 176.871C221.949 176.763 222.152 176.616 222.325 176.432C222.501 176.244 222.639 176.033 222.739 175.797C222.838 175.558 222.888 175.31 222.888 175.051C222.888 174.705 222.806 174.381 222.641 174.08C222.479 173.778 222.254 173.536 221.968 173.351C221.683 173.166 221.36 173.074 220.996 173.074ZM230.768 174.455L230.768 181H229.762L229.763 174.455H230.768ZM230.376 177.574L230.376 178.511C230.149 178.597 229.923 178.672 229.698 178.737C229.474 178.8 229.238 178.849 228.991 178.886C228.744 178.92 228.473 178.937 228.177 178.937C227.436 178.937 226.84 178.737 226.392 178.337C225.946 177.936 225.723 177.335 225.723 176.534L225.723 174.437H226.728L226.728 176.534C226.728 176.869 226.792 177.145 226.92 177.361C227.048 177.577 227.221 177.737 227.44 177.842C227.659 177.947 227.904 178 228.177 178C228.603 178 228.988 177.962 229.332 177.885C229.679 177.805 230.027 177.702 230.376 177.574Z" fill="#7B8997"/>
<path d="M255.128 181.119C254.486 181.119 253.939 180.945 253.488 180.595C253.036 180.243 252.691 179.733 252.452 179.065C252.214 178.395 252.094 177.585 252.094 176.636C252.094 175.693 252.214 174.888 252.452 174.22C252.694 173.55 253.041 173.038 253.492 172.686C253.947 172.331 254.492 172.153 255.129 172.153C255.765 172.153 256.309 172.331 256.761 172.686C257.215 173.038 257.562 173.55 257.8 174.22C258.042 174.888 258.163 175.693 258.162 176.636C258.162 177.585 258.043 178.395 257.804 179.065C257.566 179.733 257.221 180.243 256.769 180.595C256.317 180.945 255.77 181.119 255.128 181.119ZM255.128 180.182C255.765 180.182 256.259 179.875 256.611 179.261C256.964 178.648 257.14 177.773 257.14 176.636C257.14 175.881 257.059 175.237 256.897 174.706C256.738 174.175 256.508 173.77 256.207 173.491C255.908 173.213 255.549 173.074 255.129 173.074C254.498 173.074 254.005 173.385 253.65 174.007C253.295 174.626 253.117 175.503 253.117 176.636C253.117 177.392 253.196 178.034 253.356 178.562C253.515 179.091 253.743 179.493 254.042 179.768C254.343 180.044 254.705 180.182 255.128 180.182ZM262.56 172.136C262.918 172.139 263.276 172.207 263.634 172.341C263.992 172.474 264.319 172.696 264.614 173.006C264.91 173.315 265.147 173.737 265.326 174.271C265.505 174.803 265.594 175.472 265.594 176.278C265.594 177.054 265.52 177.743 265.373 178.345C265.228 178.945 265.017 179.45 264.742 179.862C264.469 180.274 264.137 180.587 263.745 180.8C263.355 181.013 262.915 181.119 262.424 181.119C261.935 181.119 261.499 181.023 261.115 180.83C260.735 180.634 260.422 180.362 260.178 180.016C259.936 179.666 259.782 179.261 259.713 178.801H260.753C260.847 179.202 261.033 179.533 261.311 179.794C261.593 180.053 261.963 180.182 262.424 180.182C263.097 180.182 263.628 179.888 264.017 179.3C264.41 178.712 264.606 177.881 264.606 176.807H264.537C264.378 177.045 264.189 177.251 263.971 177.425C263.752 177.598 263.509 177.732 263.242 177.825C262.975 177.919 262.691 177.966 262.39 177.966C261.89 177.966 261.431 177.842 261.013 177.595C260.599 177.345 260.266 177.003 260.016 176.568C259.769 176.131 259.646 175.631 259.646 175.068C259.646 174.528 259.765 174.036 260.004 173.589C260.245 173.143 260.583 172.788 261.018 172.524C261.455 172.26 261.97 172.131 262.56 172.136ZM262.56 173.074C262.202 173.074 261.88 173.163 261.593 173.342C261.309 173.521 261.083 173.761 260.915 174.062C260.751 174.364 260.668 174.699 260.668 175.068C260.668 175.432 260.748 175.763 260.907 176.061C261.069 176.357 261.289 176.592 261.567 176.768C261.849 176.942 262.168 177.028 262.526 177.028C262.796 177.028 263.047 176.976 263.28 176.871C263.513 176.763 263.716 176.616 263.89 176.432C264.066 176.244 264.204 176.033 264.303 175.797C264.403 175.558 264.452 175.31 264.452 175.051C264.452 174.705 264.37 174.381 264.205 174.08C264.043 173.778 263.819 173.536 263.532 173.351C263.248 173.166 262.924 173.074 262.56 173.074ZM271.037 176.168L271.037 177.105H267.219L267.219 176.168H271.037ZM275.858 172.273L275.858 181H274.801L274.801 173.381H274.75L272.619 174.795L272.619 173.722L274.801 172.273H275.858ZM278.367 181L278.368 180.233L281.248 177.08C281.586 176.71 281.865 176.389 282.084 176.116C282.302 175.841 282.464 175.582 282.57 175.341C282.677 175.097 282.731 174.841 282.732 174.574C282.732 174.267 282.658 174.001 282.51 173.777C282.365 173.553 282.166 173.379 281.913 173.257C281.661 173.135 281.376 173.074 281.061 173.074C280.726 173.074 280.433 173.143 280.183 173.283C279.936 173.419 279.744 173.611 279.608 173.858C279.474 174.105 279.408 174.395 279.408 174.727H278.402C278.402 174.216 278.52 173.767 278.756 173.381C278.992 172.994 279.313 172.693 279.719 172.477C280.128 172.261 280.587 172.153 281.095 172.153C281.607 172.153 282.06 172.261 282.455 172.477C282.85 172.693 283.159 172.984 283.384 173.351C283.608 173.717 283.72 174.125 283.72 174.574C283.72 174.895 283.662 175.209 283.545 175.516C283.432 175.82 283.233 176.159 282.949 176.534C282.667 176.906 282.277 177.361 281.777 177.898L279.816 179.994L279.816 180.062H283.873L283.873 181H278.367ZM290.696 174.455L290.696 181H289.69L289.69 174.455H290.696ZM290.304 177.574L290.304 178.511C290.076 178.597 289.851 178.672 289.626 178.737C289.402 178.8 289.166 178.849 288.919 178.886C288.672 178.92 288.4 178.937 288.105 178.937C287.363 178.937 286.768 178.737 286.319 178.337C285.873 177.936 285.65 177.335 285.65 176.534L285.651 174.437H286.656L286.656 176.534C286.656 176.869 286.72 177.145 286.848 177.361C286.976 177.577 287.149 177.737 287.368 177.842C287.586 177.947 287.832 178 288.105 178C288.531 178 288.916 177.962 289.26 177.885C289.606 177.805 289.954 177.702 290.304 177.574Z" fill="#7B8997"/>
<path d="M317.405 172.273L317.404 181H316.348L316.348 173.381H316.297L314.166 174.795L314.166 173.722L316.348 172.273H317.405ZM319.914 181L319.914 180.233L322.795 177.08C323.133 176.71 323.412 176.389 323.631 176.116C323.849 175.841 324.011 175.582 324.116 175.341C324.224 175.097 324.278 174.841 324.278 174.574C324.278 174.267 324.205 174.001 324.057 173.777C323.912 173.553 323.713 173.379 323.46 173.257C323.207 173.135 322.923 173.074 322.608 173.074C322.273 173.074 321.98 173.143 321.73 173.283C321.483 173.419 321.291 173.611 321.155 173.858C321.021 174.105 320.955 174.395 320.955 174.727H319.949C319.949 174.216 320.067 173.767 320.303 173.381C320.538 172.994 320.859 172.693 321.266 172.477C321.675 172.261 322.134 172.153 322.642 172.153C323.154 172.153 323.607 172.261 324.002 172.477C324.396 172.693 324.706 172.984 324.93 173.351C325.155 173.717 325.267 174.125 325.267 174.574C325.267 174.895 325.209 175.209 325.092 175.516C324.979 175.82 324.78 176.159 324.496 176.534C324.214 176.906 323.824 177.361 323.324 177.898L321.363 179.994L321.363 180.062H325.42L325.42 181H319.914ZM330.947 176.168L330.947 177.105H327.129L327.129 176.168H330.947ZM335.768 172.273L335.768 181H334.711L334.711 173.381H334.66L332.529 174.795L332.529 173.722L334.711 172.273H335.768ZM341.005 181.119C340.505 181.119 340.055 181.02 339.654 180.821C339.254 180.622 338.933 180.349 338.691 180.003C338.45 179.656 338.318 179.261 338.295 178.818H339.318C339.357 179.213 339.536 179.54 339.854 179.798C340.175 180.054 340.559 180.182 341.005 180.182C341.363 180.182 341.681 180.098 341.96 179.93C342.241 179.763 342.461 179.533 342.62 179.24C342.782 178.945 342.863 178.611 342.863 178.239C342.863 177.858 342.779 177.518 342.612 177.22C342.447 176.919 342.22 176.682 341.93 176.509C341.64 176.335 341.309 176.247 340.937 176.244C340.67 176.241 340.396 176.283 340.115 176.368C339.833 176.45 339.602 176.557 339.42 176.687L338.431 176.568L338.96 172.273H343.494L343.494 173.21H339.846L339.539 175.784H339.59C339.769 175.642 339.994 175.524 340.264 175.43C340.534 175.337 340.815 175.29 341.108 175.29C341.642 175.29 342.117 175.418 342.535 175.673C342.955 175.926 343.285 176.273 343.524 176.713C343.765 177.153 343.886 177.656 343.886 178.222C343.886 178.778 343.761 179.276 343.511 179.713C343.263 180.148 342.923 180.491 342.488 180.744C342.053 180.994 341.559 181.119 341.005 181.119ZM350.641 174.455L350.641 181H349.635L349.636 174.455H350.641ZM350.249 177.574L350.249 178.511C350.022 178.597 349.796 178.672 349.571 178.737C349.347 178.8 349.111 178.849 348.864 178.886C348.617 178.92 348.346 178.937 348.05 178.937C347.309 178.937 346.714 178.737 346.265 178.337C345.819 177.936 345.596 177.335 345.596 176.534L345.596 174.437H346.602L346.601 176.534C346.601 176.869 346.665 177.145 346.793 177.361C346.921 177.577 347.094 177.737 347.313 177.842C347.532 177.947 347.777 178 348.05 178C348.476 178 348.861 177.962 349.205 177.885C349.552 177.805 349.9 177.702 350.249 177.574Z" fill="#7B8997"/>
<path d="M378.34 172.273L378.34 181H377.283L377.284 173.381H377.232L375.102 174.795L375.102 173.722L377.284 172.273H378.34ZM383.577 181.119C383.077 181.119 382.627 181.02 382.226 180.821C381.826 180.622 381.505 180.349 381.263 180.003C381.022 179.656 380.89 179.261 380.867 178.818H381.89C381.93 179.213 382.109 179.54 382.427 179.798C382.748 180.054 383.131 180.182 383.577 180.182C383.935 180.182 384.253 180.098 384.532 179.93C384.813 179.763 385.033 179.533 385.192 179.24C385.354 178.945 385.435 178.611 385.435 178.239C385.435 177.858 385.352 177.518 385.184 177.22C385.019 176.919 384.792 176.682 384.502 176.509C384.212 176.335 383.881 176.247 383.509 176.244C383.242 176.241 382.968 176.283 382.687 176.368C382.406 176.45 382.174 176.557 381.992 176.687L381.004 176.568L381.532 172.273H386.066L386.066 173.21H382.419L382.112 175.784H382.163C382.342 175.642 382.566 175.524 382.836 175.43C383.106 175.337 383.387 175.29 383.68 175.29C384.214 175.29 384.69 175.418 385.107 175.673C385.528 175.926 385.857 176.273 386.096 176.713C386.337 177.153 386.458 177.656 386.458 178.222C386.458 178.778 386.333 179.276 386.083 179.713C385.836 180.148 385.495 180.491 385.06 180.744C384.625 180.994 384.131 181.119 383.577 181.119ZM391.918 176.168L391.918 177.105H388.1L388.1 176.168H391.918ZM396.739 172.273L396.738 181H395.682L395.682 173.381H395.631L393.5 174.795L393.5 173.722L395.682 172.273H396.739ZM402.044 181.119C401.459 181.119 400.942 181.016 400.493 180.808C400.047 180.598 399.699 180.31 399.449 179.943C399.199 179.574 399.075 179.153 399.078 178.682C399.075 178.312 399.148 177.972 399.295 177.659C399.443 177.344 399.645 177.081 399.901 176.871C400.159 176.658 400.447 176.523 400.766 176.466L400.766 176.415C400.348 176.307 400.016 176.072 399.769 175.712C399.521 175.348 399.399 174.935 399.402 174.472C399.399 174.028 399.512 173.632 399.739 173.283C399.966 172.933 400.279 172.658 400.676 172.456C401.077 172.254 401.533 172.153 402.044 172.153C402.55 172.153 403.002 172.254 403.399 172.456C403.797 172.658 404.11 172.933 404.337 173.283C404.567 173.632 404.683 174.028 404.686 174.472C404.683 174.935 404.557 175.348 404.307 175.712C404.06 176.072 403.732 176.307 403.322 176.415L403.322 176.466C403.638 176.523 403.922 176.658 404.175 176.871C404.428 177.081 404.629 177.344 404.78 177.659C404.93 177.972 405.007 178.312 405.01 178.682C405.007 179.153 404.879 179.574 404.626 179.943C404.376 180.31 404.028 180.598 403.582 180.808C403.139 181.016 402.626 181.119 402.044 181.119ZM402.044 180.182C402.439 180.182 402.78 180.118 403.067 179.99C403.354 179.862 403.575 179.682 403.731 179.449C403.888 179.216 403.967 178.943 403.97 178.631C403.967 178.301 403.882 178.01 403.714 177.757C403.547 177.504 403.318 177.305 403.028 177.161C402.741 177.016 402.413 176.943 402.044 176.943C401.672 176.943 401.339 177.016 401.047 177.161C400.757 177.305 400.528 177.504 400.361 177.757C400.196 178.01 400.115 178.301 400.118 178.631C400.115 178.943 400.19 179.216 400.344 179.449C400.5 179.682 400.723 179.862 401.013 179.99C401.302 180.118 401.646 180.182 402.044 180.182ZM402.044 176.04C402.357 176.04 402.634 175.977 402.875 175.852C403.119 175.727 403.311 175.553 403.45 175.328C403.59 175.104 403.661 174.841 403.664 174.54C403.661 174.244 403.591 173.987 403.455 173.768C403.318 173.547 403.129 173.376 402.888 173.257C402.647 173.135 402.365 173.074 402.044 173.074C401.718 173.074 401.432 173.135 401.188 173.257C400.943 173.376 400.754 173.547 400.621 173.768C400.487 173.987 400.422 174.244 400.425 174.54C400.422 174.841 400.489 175.104 400.625 175.328C400.764 175.553 400.956 175.727 401.2 175.852C401.445 175.977 401.726 176.04 402.044 176.04ZM411.706 174.455L411.705 181H410.7L410.7 174.455H411.706ZM411.314 177.574L411.313 178.511C411.086 178.597 410.86 178.672 410.636 178.737C410.411 178.8 410.176 178.849 409.929 178.886C409.681 178.92 409.41 178.937 409.115 178.937C408.373 178.937 407.778 178.737 407.329 178.337C406.883 177.936 406.66 177.335 406.66 176.534L406.66 174.437H407.666L407.666 176.534C407.666 176.869 407.73 177.145 407.858 177.361C407.985 177.577 408.159 177.737 408.377 177.842C408.596 177.947 408.842 178 409.115 178C409.541 178 409.926 177.962 410.269 177.885C410.616 177.805 410.964 177.702 411.314 177.574Z" fill="#7B8997"/>
<path d="M439.063 172.273L439.063 181H438.006L438.006 173.381H437.955L435.824 174.795L435.824 173.722L438.006 172.273H439.063ZM444.368 181.119C443.783 181.119 443.266 181.016 442.817 180.808C442.371 180.598 442.023 180.31 441.773 179.943C441.523 179.574 441.399 179.153 441.402 178.682C441.399 178.312 441.472 177.972 441.62 177.659C441.767 177.344 441.969 177.081 442.225 176.871C442.483 176.658 442.772 176.523 443.09 176.466L443.09 176.415C442.672 176.307 442.34 176.072 442.093 175.712C441.846 175.348 441.723 174.935 441.726 174.472C441.724 174.028 441.836 173.632 442.063 173.283C442.29 172.933 442.603 172.658 443.001 172.456C443.401 172.254 443.857 172.153 444.369 172.153C444.874 172.153 445.326 172.254 445.724 172.456C446.121 172.658 446.434 172.933 446.661 173.283C446.891 173.632 447.008 174.028 447.01 174.472C447.008 174.935 446.881 175.348 446.631 175.712C446.384 176.072 446.056 176.307 445.647 176.415L445.647 176.466C445.962 176.523 446.246 176.658 446.499 176.871C446.752 177.081 446.953 177.344 447.104 177.659C447.255 177.972 447.331 178.312 447.334 178.682C447.331 179.153 447.203 179.574 446.95 179.943C446.7 180.31 446.352 180.598 445.906 180.808C445.463 181.016 444.95 181.119 444.368 181.119ZM444.368 180.182C444.763 180.182 445.104 180.118 445.391 179.99C445.678 179.862 445.899 179.682 446.056 179.449C446.212 179.216 446.291 178.943 446.294 178.631C446.291 178.301 446.206 178.01 446.039 177.757C445.871 177.504 445.642 177.305 445.353 177.161C445.066 177.016 444.738 176.943 444.368 176.943C443.996 176.943 443.664 177.016 443.371 177.161C443.081 177.305 442.853 177.504 442.685 177.757C442.52 178.01 442.439 178.301 442.442 178.631C442.439 178.943 442.514 179.216 442.668 179.449C442.824 179.682 443.047 179.862 443.337 179.99C443.627 180.118 443.97 180.182 444.368 180.182ZM444.368 176.04C444.681 176.04 444.958 175.977 445.199 175.852C445.444 175.727 445.635 175.553 445.775 175.328C445.914 175.104 445.985 174.841 445.988 174.54C445.985 174.244 445.915 173.987 445.779 173.768C445.643 173.547 445.454 173.376 445.212 173.257C444.971 173.135 444.69 173.074 444.368 173.074C444.042 173.074 443.756 173.135 443.512 173.257C443.268 173.376 443.079 173.547 442.945 173.768C442.812 173.987 442.746 174.244 442.749 174.54C442.746 174.841 442.813 175.104 442.949 175.328C443.089 175.553 443.28 175.727 443.525 175.852C443.769 175.977 444.05 176.04 444.368 176.04ZM452.734 176.168L452.734 177.105H448.916L448.916 176.168H452.734ZM454.076 181L454.077 180.233L456.957 177.08C457.295 176.71 457.574 176.389 457.793 176.116C458.011 175.841 458.173 175.582 458.279 175.341C458.386 175.097 458.44 174.841 458.44 174.574C458.441 174.267 458.367 174.001 458.219 173.777C458.074 173.553 457.875 173.379 457.622 173.257C457.37 173.135 457.085 173.074 456.77 173.074C456.435 173.074 456.142 173.143 455.892 173.283C455.645 173.419 455.453 173.611 455.317 173.858C455.183 174.105 455.117 174.395 455.117 174.727H454.111C454.111 174.216 454.229 173.767 454.465 173.381C454.701 172.994 455.022 172.693 455.428 172.477C455.837 172.261 456.296 172.153 456.804 172.153C457.316 172.153 457.769 172.261 458.164 172.477C458.558 172.693 458.868 172.984 459.093 173.351C459.317 173.717 459.429 174.125 459.429 174.574C459.429 174.895 459.371 175.209 459.254 175.516C459.141 175.82 458.942 176.159 458.658 176.534C458.376 176.906 457.986 177.361 457.486 177.898L455.525 179.994L455.525 180.062H459.582L459.582 181H454.076ZM464.411 172.273L464.41 181H463.353L463.354 173.381H463.303L461.172 174.795L461.172 173.722L463.354 172.273H464.411ZM471.983 174.455L471.983 181H470.977L470.977 174.455H471.983ZM471.591 177.574L471.591 178.511C471.364 178.597 471.138 178.672 470.913 178.737C470.689 178.8 470.453 178.849 470.206 178.886C469.959 178.92 469.687 178.937 469.392 178.937C468.65 178.937 468.055 178.737 467.606 178.337C467.16 177.936 466.937 177.335 466.938 176.534L466.938 174.437H467.943L467.943 176.534C467.943 176.869 468.007 177.145 468.135 177.361C468.263 177.577 468.436 177.737 468.655 177.842C468.874 177.947 469.119 178 469.392 178C469.818 178 470.203 177.962 470.547 177.885C470.893 177.805 471.241 177.702 471.591 177.574Z" fill="#7B8997"/>
<path d="M496.276 181L496.276 180.233L499.157 177.08C499.495 176.71 499.773 176.389 499.992 176.116C500.211 175.841 500.373 175.582 500.478 175.341C500.586 175.097 500.64 174.841 500.64 174.574C500.64 174.267 500.566 174.001 500.418 173.777C500.273 173.553 500.074 173.379 499.822 173.257C499.569 173.135 499.285 173.074 498.969 173.074C498.634 173.074 498.341 173.143 498.091 173.283C497.844 173.419 497.653 173.611 497.516 173.858C497.383 174.105 497.316 174.395 497.316 174.727H496.31C496.31 174.216 496.428 173.767 496.664 173.381C496.9 172.994 497.221 172.693 497.627 172.477C498.036 172.261 498.495 172.153 499.003 172.153C499.515 172.153 499.968 172.261 500.363 172.477C500.758 172.693 501.067 172.984 501.292 173.351C501.516 173.717 501.628 174.125 501.628 174.574C501.628 174.895 501.57 175.209 501.454 175.516C501.34 175.82 501.141 176.159 500.857 176.534C500.576 176.906 500.185 177.361 499.685 177.898L497.725 179.994L497.725 180.062H501.781L501.781 181H496.276ZM506.61 172.273L506.609 181H505.553L505.553 173.381H505.502L503.371 174.795L503.371 173.722L505.553 172.273H506.61ZM512.887 176.168L512.887 177.105H509.069L509.069 176.168H512.887ZM517.486 181.119C516.844 181.119 516.297 180.945 515.845 180.595C515.393 180.243 515.048 179.733 514.81 179.065C514.571 178.395 514.452 177.585 514.452 176.636C514.452 175.693 514.571 174.888 514.81 174.22C515.051 173.55 515.398 173.038 515.85 172.686C516.304 172.331 516.85 172.153 517.486 172.153C518.122 172.153 518.666 172.331 519.118 172.686C519.573 173.038 519.919 173.55 520.158 174.22C520.399 174.888 520.52 175.693 520.52 176.636C520.52 177.585 520.4 178.395 520.162 179.065C519.923 179.733 519.578 180.243 519.126 180.595C518.674 180.945 518.128 181.119 517.486 181.119ZM517.486 180.182C518.122 180.182 518.616 179.875 518.969 179.261C519.321 178.648 519.497 177.773 519.497 176.636C519.497 175.881 519.416 175.237 519.254 174.706C519.095 174.175 518.865 173.77 518.564 173.491C518.266 173.213 517.906 173.074 517.486 173.074C516.855 173.074 516.362 173.385 516.007 174.007C515.652 174.626 515.475 175.503 515.474 176.636C515.474 177.392 515.554 178.034 515.713 178.562C515.872 179.091 516.101 179.493 516.399 179.768C516.7 180.044 517.062 180.182 517.486 180.182ZM524.986 181.119C524.344 181.119 523.797 180.945 523.345 180.595C522.893 180.243 522.548 179.733 522.31 179.065C522.071 178.395 521.952 177.585 521.952 176.636C521.952 175.693 522.071 174.888 522.31 174.22C522.551 173.55 522.898 173.038 523.35 172.686C523.804 172.331 524.35 172.153 524.986 172.153C525.622 172.153 526.166 172.331 526.618 172.686C527.073 173.038 527.419 173.55 527.658 174.22C527.899 174.888 528.02 175.693 528.02 176.636C528.02 177.585 527.9 178.395 527.662 179.065C527.423 179.733 527.078 180.243 526.626 180.595C526.174 180.945 525.628 181.119 524.986 181.119ZM524.986 180.182C525.622 180.182 526.116 179.875 526.469 179.261C526.821 178.648 526.997 177.773 526.997 176.636C526.997 175.881 526.916 175.237 526.754 174.706C526.595 174.175 526.365 173.77 526.064 173.491C525.766 173.213 525.406 173.074 524.986 173.074C524.355 173.074 523.862 173.385 523.507 174.007C523.152 174.626 522.975 175.503 522.974 176.636C522.974 177.392 523.054 178.034 523.213 178.562C523.372 179.091 523.601 179.493 523.899 179.768C524.2 180.044 524.562 180.182 524.986 180.182ZM534.702 174.455L534.701 181H533.696L533.696 174.455H534.702ZM534.31 177.574L534.31 178.511C534.082 178.597 533.856 178.672 533.632 178.737C533.408 178.8 533.172 178.849 532.925 178.886C532.677 178.92 532.406 178.937 532.111 178.937C531.369 178.937 530.774 178.737 530.325 178.337C529.879 177.936 529.656 177.335 529.656 176.534L529.656 174.437H530.662L530.662 176.534C530.662 176.869 530.726 177.145 530.854 177.361C530.982 177.577 531.155 177.737 531.374 177.842C531.592 177.947 531.838 178 532.111 178C532.537 178 532.922 177.962 533.266 177.885C533.612 177.805 533.96 177.702 534.31 177.574Z" fill="#7B8997"/>
<path d="M68 140C68 137.791 69.7909 136 72 136H104C106.209 136 108 137.791 108 140V160H68V140Z" fill="#99D8DC"/>
<path d="M129 115C129 112.791 130.791 111 133 111H165C167.209 111 169 112.791 169 115V160H129V115Z" fill="#B7DC99"/>
<path d="M190 90C190 87.7909 191.791 86 194 86H226C228.209 86 230 87.7909 230 90V160H190V90Z" fill="#6EBA33"/>
<path d="M251 65C251 62.7909 252.791 61 255 61H287C289.209 61 291 62.7909 291 65V160H251V65Z" fill="#FEC532"/>
<path d="M312 40C312 37.7909 313.791 36 316 36H348C350.209 36 352 37.7909 352 40V160H312V40Z" fill="#FE9432"/>
<path d="M373 15C373 12.7909 374.791 11 377 11H409C411.209 11 413 12.7909 413 15V160H373V15Z" fill="#FE6332"/>
<path d="M434 65C434 62.7909 435.791 61 438 61H470C472.209 61 474 62.7909 474 65V160H434V65Z" fill="#FEC532"/>
<path d="M495 90C495 87.7909 496.791 86 499 86H531C533.209 86 535 87.7909 535 90V160H495V90Z" fill="#6EBA33"/>
</svg>
