<svg width="14" height="16" viewBox="0 0 14 16" fill="none" xmlns="http://www.w3.org/2000/svg">
<path fill-rule="evenodd" clip-rule="evenodd" d="M3.5 4.52199C4.91302 3.67803 5.92847 2.25708 6.21672 0.592036C6.26524 0.311729 6.56733 0.138468 6.81128 0.284801C8.81432 1.48631 10.15 3.64413 10.15 6.1063C10.15 6.61845 10.0922 7.11743 9.98264 7.59737C9.90988 7.91612 10.2004 8.20693 10.4859 8.04756C11.1117 7.69815 11.6164 7.16561 11.9231 6.52481C12.0572 6.2446 12.4377 6.14082 12.634 6.38163C13.4891 7.43085 14 8.75906 14 10.2037C14 12.7604 12.3997 14.9526 10.1229 15.8788C9.91594 15.9629 9.68406 15.9629 9.4771 15.8788C7.20033 14.9526 5.6 12.7604 5.6 10.2037C5.6 10.1344 5.5145 10.1006 5.46987 10.1536C4.67633 11.0964 4.2 12.303 4.2 13.6181C4.2 14.0181 4.24407 14.4081 4.32772 14.7837C4.39737 15.0964 4.12361 15.3972 3.8235 15.2851C1.58763 14.4502 0 12.3371 0 9.86222C0 7.68524 1.22845 5.78817 3.04597 4.79475L3.5 4.52199Z" fill="#0FC4AC"/>
</svg>
