<svg width="43" height="40" viewBox="0 0 43 40" fill="none" xmlns="http://www.w3.org/2000/svg">
<path d="M0 7.33136C0 6.95748 0.208559 6.61484 0.540655 6.4431L11.5407 0.754671C12.2063 0.410466 13 0.893589 13 1.64293V31.7001C13 32.0528 12.8142 32.3794 12.5111 32.5596L1.51114 39.1013C0.844557 39.4977 0 39.0174 0 38.2418V7.33136Z" fill="#FB5352"/>
<path d="M30 7.33136C30 6.95748 30.2086 6.61484 30.5407 6.4431L41.5407 0.754671C42.2063 0.410466 43 0.893589 43 1.64293V31.7001C43 32.0528 42.8142 32.3794 42.5111 32.5596L31.5111 39.1013C30.8446 39.4977 30 39.0174 30 38.2418V7.33136Z" fill="#FB5352"/>
<path d="M28 7.33136C28 6.95748 27.7914 6.61484 27.4593 6.4431L16.4593 0.754671C15.7937 0.410466 15 0.893589 15 1.64293V31.7001C15 32.0528 15.1858 32.3794 15.4889 32.5596L26.4889 39.1013C27.1554 39.4977 28 39.0174 28 38.2418V7.33136Z" fill="#FB5352"/>
</svg>
