<svg width="52" height="52" viewBox="0 0 52 52" fill="none" xmlns="http://www.w3.org/2000/svg">
<circle cx="26" cy="26" r="26" fill="white" fill-opacity="0.05"/>
<path fill-rule="evenodd" clip-rule="evenodd" d="M36 26.0611C36 20.5045 31.5229 16 26 16C20.4771 16 16 20.5045 16 26.0611C16 31.0829 19.6569 35.2452 24.4375 36V28.9694H21.8984V26.0611H24.4375V23.8445C24.4375 21.323 25.9304 19.9301 28.2146 19.9301C29.3087 19.9301 30.4531 20.1266 30.4531 20.1266V22.6026H29.1921C27.9499 22.6026 27.5625 23.3782 27.5625 24.1738V26.0611H30.3359L29.8926 28.9694H27.5625V36C32.3431 35.2452 36 31.0829 36 26.0611Z" fill="white"/>
</svg>
