<svg width="14" height="14" viewBox="0 0 14 14" fill="none" xmlns="http://www.w3.org/2000/svg">
<path fill-rule="evenodd" clip-rule="evenodd" d="M1.93192 6.89824C3.43386 5.13399 6.12645 5.02417 7.42186 6.29221C8.62266 7.46764 8.40952 9.55405 6.84201 11.0884C5.75114 12.1563 3.70026 12.7585 0.673935 12.956L0 13L0.056952 12.331C0.259564 9.95104 0.87726 8.1371 1.93192 6.89824ZM8.26528 5.4084C8.73511 4.38636 10.0778 4.04859 11.3499 4.65017C12.2221 5.06262 12.9939 6.10099 13.7279 7.75892L14 8.37341L13.3481 8.54901C11.9508 8.92543 10.7782 8.95186 9.8312 8.60476C8.42605 8.08973 7.76615 6.49419 8.26528 5.4084ZM5.10079 1.30651C6.25725 0.649201 7.72812 1.11444 8.19099 2.08167C8.62893 2.99678 8.08923 4.10663 6.95187 4.62329C6.18931 4.96968 5.02856 4.94217 3.42686 4.58684L2.69197 4.42381L3.03699 3.75852C3.65833 2.56043 4.33829 1.7399 5.10079 1.30651Z" fill="white" fill-opacity="0.3"/>
</svg>
