<svg width="16" height="16" viewBox="0 0 16 16" fill="none" xmlns="http://www.w3.org/2000/svg">
<path fill-rule="evenodd" clip-rule="evenodd" d="M4.5 4.52199C5.91302 3.67803 6.92847 2.25708 7.21672 0.592036C7.26524 0.311729 7.56733 0.138468 7.81128 0.284801C9.81432 1.48631 11.15 3.64413 11.15 6.1063C11.15 6.61845 11.0922 7.11743 10.9826 7.59737C10.9099 7.91612 11.2004 8.20693 11.4859 8.04756C12.1117 7.69815 12.6164 7.16561 12.9231 6.52481C13.0572 6.2446 13.4377 6.14082 13.634 6.38163C14.4891 7.43085 15 8.75906 15 10.2037C15 12.7604 13.3997 14.9526 11.1229 15.8788C10.9159 15.9629 10.6841 15.9629 10.4771 15.8788C8.20033 14.9526 6.6 12.7604 6.6 10.2037C6.6 10.1344 6.5145 10.1006 6.46987 10.1536C5.67633 11.0964 5.2 12.303 5.2 13.6181C5.2 14.0181 5.24407 14.4081 5.32772 14.7837C5.39737 15.0964 5.12361 15.3972 4.8235 15.2851C2.58763 14.4502 1 12.3371 1 9.86222C1 7.68524 2.22845 5.78817 4.04597 4.79475L4.5 4.52199Z" fill="#FB5352"/>
</svg>
