<svg width="50" height="50" viewBox="0 0 50 50" fill="none" xmlns="http://www.w3.org/2000/svg">
<path d="M45.9003 21.4445C45.3805 21.1538 44.5282 21.0617 43.6602 21.1376C45.0305 20.6966 45.9492 19.7807 46 18.9568C45.2825 18.7727 44.5457 18.8648 43.9105 19.0021C44.5615 18.5449 45.6483 17.7195 45.5153 16.5144C44.8625 16.3609 43.7092 16.7728 43.207 16.9715C44.7785 16.1638 45.3473 14.2706 44.5125 13.1867C44.0278 13.4452 41.786 15.5371 41.4185 15.781C42.5735 14.5759 43.1073 13.7052 43.4258 12.8975C43.8107 11.9962 43.8265 10.4551 42.6208 9.93654C42.0537 11.1271 40.0658 14.164 38.9615 15.4305C38.8442 15.3238 38.7428 15.1865 38.594 15.172C38.3263 15.949 37.5405 16.9715 36.837 17.461C36.8037 17.3996 36.7198 17.2171 36.6025 17.0329C35.85 18.0555 33.8777 19.4754 33.2425 20.3445C32.7577 20.9858 32.7578 21.5657 33.4438 22.1763C33.7273 22.4202 34.2453 22.879 33.7938 23.5042C33.0413 24.496 31.4207 24.4346 30.9185 23.5962C31.972 23.488 32.2905 22.3136 31.6203 21.6255C31.4804 21.8564 31.2516 22.0303 30.9792 22.1126C30.7069 22.1949 30.4109 22.1796 30.1503 22.0697C29.8293 21.9591 29.5341 21.7929 29.2805 21.5802C30.1502 21.8258 30.8853 21.3525 30.7855 20.5738C30.0995 21.1069 29.4135 20.59 29.263 20.4511C28.829 19.9939 28.7118 19.4754 28.878 18.6806C29.0127 17.9941 29.7985 16.8956 30.3165 16.5451C30.4005 16.621 30.5178 16.7422 30.768 16.7276C30.9185 16.6969 31.153 16.5758 31.3367 16.5144C31.562 16.4542 31.798 16.4366 32.0308 16.4627C32.2635 16.4888 32.4882 16.558 32.6912 16.6662C33.2758 17.0022 33.2268 17.3689 33.2093 17.6274C34.1123 17.1702 33.8112 16.4078 32.6247 16.117C33.4262 16.117 34.0947 16.789 34.2627 16.8811C34.7142 17.1718 35.3495 17.1088 35.717 16.9408C36.4345 16.621 36.5868 15.8585 36.3855 15.7051C36.3495 15.8559 36.2621 15.9922 36.1361 16.0939C36.0102 16.1957 35.8523 16.2575 35.6855 16.2705C35.066 16.3302 34.4798 16.0863 34.0125 15.9038C33.543 15.7394 33.0446 15.6567 32.5425 15.6598C33.344 15.2479 34.597 15.2932 35.0485 15.9183C35.3163 15.7212 35.4842 15.5532 35.5507 15.1397C35.7852 14.0412 34.849 13.4758 33.8445 13.4758C33.862 13.2174 33.6608 13.0801 33.393 13.1722C33.393 13.0655 33.3597 12.9735 33.2932 12.9282C33.3282 12.9282 33.3597 12.9121 33.3772 12.9121C34.38 12.8507 35.3337 12.5615 35.8517 12.0721C36.7547 11.1885 35.3163 10.0738 35.8343 9.20316C36.319 9.40185 36.6882 9.64577 37.3742 9.73784C37.4408 9.86061 37.5072 10.1352 37.523 10.2709C37.74 11.2482 36.6708 11.4178 36.9543 12.4549C37.0715 12.9121 37.4565 13.0801 37.5895 13.6455C37.5895 13.6455 37.6403 14.0412 37.2728 14.3772C38.125 14.3934 38.594 13.7214 38.3263 13.0962C38.209 12.8378 37.908 12.5922 37.908 12.3015C38.342 12.8362 38.7445 12.8216 39.4305 12.6229C39.7455 12.5308 39.7805 12.9282 39.5793 13.2481C39.7472 13.163 39.8891 13.0399 39.9916 12.8905C40.0941 12.7411 40.154 12.5701 40.1655 12.3935C40.1655 11.9509 39.798 11.7377 39.4305 11.8282C39.2292 11.8443 38.811 12.1028 38.7935 11.7377C38.7095 11.1109 39.7962 11.1271 39.581 10.1191C39.4463 9.61669 38.8442 9.34046 37.8747 9.23385C37.775 9.14339 37.5405 8.94308 37.4058 8.76216C36.8703 7.96739 36.3207 7.75416 36.0022 7.92216C35.6172 8.10469 35.416 8.25815 35.0993 8.41C34.8472 8.53277 34.5813 8.59415 34.4133 8.77669C33.995 9.25 34.3957 9.98177 34.6145 10.4405C34.7475 10.699 35.0992 11.2951 34.947 11.7522C34.7807 12.2853 33.7938 12.6375 33.2093 12.7441C33.1743 12.7441 33.1427 12.7602 33.1095 12.7602V12.547C33.2757 12.2724 33.4263 11.9364 33.5435 11.6456C33.946 10.6683 33.3598 10.2725 32.4743 10.09C32.4217 10.0553 32.3608 10.0329 32.2968 10.0248C32.2327 10.0166 32.1675 10.0229 32.1068 10.0432H32.0892L32.0718 10.2112L31.9562 10.1805L31.9738 9.98177H31.9213C31.9681 9.94693 32.0058 9.90291 32.0319 9.85289C32.0579 9.80286 32.0715 9.74811 32.0718 9.69261C32.0724 9.5934 32.0373 9.4968 31.972 9.418H32.0892L32.0385 9.37277C31.9936 9.31739 31.9432 9.26601 31.888 9.21931C31.862 9.19451 31.8449 9.16293 31.839 9.12884C31.8723 9.14338 31.888 9.17408 31.9388 9.18862C31.9895 9.23546 32.0717 9.28069 32.0892 9.32592L32.1558 9.37277V8.47139L32.0892 8.53277C32.0343 8.56216 31.9837 8.598 31.9388 8.63939C31.888 8.68623 31.8548 8.68623 31.839 8.70077C31.839 8.67008 31.8723 8.65554 31.888 8.60869C31.9503 8.57589 32.0022 8.52854 32.0385 8.47139L32.0892 8.41161H31.1022L31.153 8.47139C31.202 8.50369 31.2528 8.56346 31.3035 8.60869C31.321 8.65554 31.3525 8.68462 31.37 8.70077C31.335 8.68462 31.286 8.68462 31.2703 8.63939C31.1863 8.59416 31.1355 8.54892 31.0848 8.53277L31.0358 8.47139V9.37277L31.0848 9.32592C31.1373 9.28069 31.1863 9.23546 31.2703 9.18862C31.3058 9.17225 31.3393 9.15219 31.37 9.12884C31.3516 9.16122 31.3293 9.19157 31.3035 9.21931C31.2528 9.28069 31.202 9.32592 31.153 9.37277L31.1022 9.418H31.2528C31.1688 9.47938 31.153 9.56984 31.153 9.69261C31.1518 9.74698 31.1631 9.80097 31.186 9.85106C31.2089 9.90116 31.243 9.94624 31.286 9.98338H31.2685L31.286 10.1805L31.153 10.2128L31.1355 10.0432H31.118C31.0572 10.0229 30.992 10.0166 30.928 10.0248C30.864 10.0329 30.8031 10.0553 30.7505 10.09C29.865 10.2871 29.263 10.6845 29.6655 11.6456C29.7985 11.9364 29.9315 12.2708 30.1152 12.547V12.6843C29.2297 12.4258 27.625 11.5245 27.1892 10.9882C27.156 10.9284 27.107 10.8832 27.0895 10.8525L27.107 10.2709C27.408 9.79923 27.6915 9.21931 27.9085 8.68462C28.4772 7.29539 27.6425 6.71707 26.3213 6.47154C26.2454 6.42621 26.1594 6.3973 26.0697 6.38695C25.98 6.3766 25.8889 6.38509 25.8032 6.41177L25.7508 6.625L25.469 6.60885L25.4865 6.31969C25.434 6.33585 25.385 6.33584 25.3343 6.33584C25.4313 6.28171 25.5116 6.20541 25.5674 6.1143C25.6231 6.02319 25.6526 5.92035 25.6528 5.81569C25.6523 5.73266 25.6309 5.65087 25.5902 5.57682C25.5495 5.50278 25.4906 5.43855 25.4182 5.38923H25.6528C25.518 5.28262 25.301 5.05323 25.2503 4.89977C25.4183 4.94661 25.6685 5.15823 25.7858 5.26646V4.12277C25.6685 4.21323 25.4183 4.44262 25.2503 4.45716C25.301 4.336 25.518 4.10662 25.6528 4H24.398C24.4977 4.10662 24.748 4.31985 24.7655 4.45716C24.615 4.42808 24.3805 4.21485 24.2475 4.12277V5.26646C24.3822 5.15985 24.615 4.94661 24.7655 4.89977C24.7323 5.05323 24.4977 5.28262 24.398 5.38923H24.615C24.4645 5.47969 24.398 5.66385 24.398 5.81569C24.398 6.04508 24.5153 6.24377 24.7148 6.33584C24.6658 6.33584 24.615 6.33585 24.5485 6.31969L24.566 6.61046L24.2808 6.625L24.2632 6.41177C24.1762 6.37853 24.0814 6.36658 23.9879 6.37705C23.8944 6.38751 23.8054 6.42006 23.7295 6.47154C22.424 6.70092 21.5892 7.29539 22.158 8.68462C22.3417 9.21931 22.6252 9.79923 22.9595 10.2725V10.8832C22.9262 10.8993 22.9105 10.9445 22.8598 10.9898C22.4415 11.5228 20.8193 12.4242 19.9337 12.6843V12.547C20.1175 12.2724 20.268 11.9364 20.3852 11.6456C20.7877 10.6699 20.184 10.2725 19.2985 10.09C19.2459 10.0553 19.185 10.0329 19.121 10.0248C19.057 10.0166 18.9918 10.0229 18.931 10.0432H18.9135L18.896 10.2112L18.7805 10.1805L18.798 9.98338H18.7805C18.8535 9.90118 18.8948 9.79887 18.8978 9.69261C18.8978 9.57146 18.8628 9.47938 18.7963 9.418H18.9468C18.8419 9.33009 18.747 9.23267 18.6633 9.12723C18.7796 9.19646 18.886 9.27896 18.98 9.37277V8.47139C18.8899 8.56445 18.7826 8.6421 18.6633 8.70077C18.7333 8.58769 18.8435 8.50369 18.9468 8.41H17.9615C18.0525 8.50369 18.1522 8.59092 18.2117 8.70077C18.0903 8.64438 17.982 8.56643 17.8932 8.47139V9.37277C17.9866 9.27822 18.0938 9.19612 18.2117 9.12884C18.1466 9.23805 18.062 9.33635 17.9615 9.41961H18.0945C18.0293 9.49847 17.9942 9.59504 17.9948 9.69423C17.9948 9.79923 18.0438 9.92038 18.1453 9.98338H18.0945L18.112 10.1805L17.9772 10.2128L17.9598 10.0432H17.944C17.8832 10.0229 17.818 10.0166 17.754 10.0248C17.69 10.0329 17.6291 10.0553 17.5765 10.09C16.691 10.2871 16.089 10.6845 16.4898 11.6456C16.6228 11.9364 16.7575 12.2724 16.9413 12.547V12.7602C16.9063 12.7602 16.8573 12.7441 16.8398 12.7441C16.2553 12.6375 15.27 12.2869 15.102 11.7522C14.934 11.3096 15.2857 10.699 15.4362 10.4405C15.6532 9.98177 16.0383 9.25 15.6375 8.77669C15.4538 8.59415 15.186 8.53277 14.934 8.41C14.6173 8.25815 14.4335 8.10469 14.031 7.92216C13.716 7.75416 13.163 7.95285 12.6275 8.76216C12.5103 8.94469 12.26 9.14339 12.1585 9.23385C11.2065 9.34208 10.587 9.61669 10.454 10.1191C10.2527 11.1271 11.3238 11.1125 11.2555 11.7377C11.238 12.1044 10.8215 11.8443 10.6203 11.8298C10.2353 11.7522 9.86775 11.9509 9.86775 12.3952C9.86775 12.5761 10.0025 12.9896 10.454 13.2481C10.2527 12.9282 10.286 12.5308 10.6045 12.6229C11.2887 12.8216 11.6738 12.8362 12.127 12.3015C12.127 12.6084 11.8417 12.8362 11.707 13.0962C11.441 13.7375 11.875 14.3934 12.7605 14.3772C12.3598 14.0428 12.4438 13.6455 12.4438 13.6455C12.561 13.0962 12.9442 12.9282 13.079 12.4549C13.3467 11.4162 12.2757 11.2498 12.5102 10.2725C12.5452 10.1352 12.5943 9.87516 12.6608 9.73946C13.3468 9.66193 13.7142 9.40185 14.199 9.20316C14.7012 10.0755 13.2785 11.1885 14.1815 12.0737C14.6995 12.5615 15.6532 12.8523 16.656 12.9137C16.691 12.9137 16.7242 12.9282 16.74 12.9282C16.6735 12.9735 16.6402 13.0655 16.6402 13.1705C16.3725 13.0801 16.1712 13.219 16.2045 13.4775C15.1685 13.4775 14.2498 14.0428 14.4825 15.1413C14.549 15.5532 14.717 15.7212 15.0005 15.9183C15.4362 15.2932 16.6893 15.2479 17.5083 15.6598C17.0003 15.6552 16.4959 15.7379 16.0207 15.9038C15.5692 16.0863 14.9848 16.3318 14.3653 16.2705C14.1964 16.2579 14.0362 16.1965 13.9074 16.095C13.7786 15.9934 13.6877 15.857 13.6478 15.7051C13.4465 15.8585 13.5953 16.6372 14.3163 16.9425C14.6663 17.1088 15.3015 17.1702 15.753 16.8811C15.921 16.789 16.5895 16.117 17.3927 16.117C16.2203 16.3916 15.8878 17.1702 16.8065 17.629C16.7733 17.3544 16.7242 17.0022 17.3087 16.6662C17.643 16.4837 18.161 16.3771 18.6633 16.5144C18.847 16.5758 19.0815 16.6824 19.232 16.7276C19.4822 16.7438 19.617 16.6065 19.6835 16.5451C20.2015 16.8956 20.954 17.9941 21.1203 18.6806C21.304 19.4754 21.171 19.9939 20.7352 20.4511C20.6022 20.5884 19.9005 21.1085 19.2145 20.5738C19.1148 21.367 19.8498 21.8403 20.7195 21.5818C20.4616 21.7887 20.1675 21.9537 19.8497 22.0697C19.5893 22.1797 19.2935 22.1953 19.0211 22.1133C18.7488 22.0313 18.5198 21.8577 18.3797 21.6271C17.7095 22.3136 18.028 23.4896 19.0798 23.5962C18.5968 24.4362 16.957 24.496 16.222 23.5042C15.753 22.879 16.2885 22.4364 16.5562 22.1763C17.258 21.5818 17.258 20.9858 16.7575 20.3445C16.1223 19.4899 14.15 18.0716 13.3975 17.0329C13.3082 17.168 13.2348 17.3115 13.1787 17.461C12.4612 16.957 11.6738 15.9345 11.4078 15.172C11.273 15.2011 11.1557 15.3384 11.0402 15.4305C9.936 14.164 7.94625 11.1271 7.3775 9.93654C6.191 10.4551 6.20675 12.0123 6.57425 12.8975C6.89275 13.7052 7.444 14.5759 8.5815 15.781C8.214 15.5387 5.98975 13.4468 5.4875 13.1867C4.6685 14.2706 5.2215 16.1638 6.793 16.9715C6.30825 16.7745 5.12 16.3771 4.48475 16.5144C4.35175 17.7195 5.421 18.5449 6.0895 19.0021C5.4385 18.8648 4.70175 18.7727 4 18.9568C4.05075 19.7807 4.987 20.7112 6.3065 21.1376C5.47175 21.0633 4.61775 21.1538 4.1015 21.4445C4.18375 22.2991 5.25475 23.0308 6.52525 23.215C5.67125 23.3055 4.9205 23.6415 4.518 24.1148C4.987 24.664 5.673 25.0921 6.72475 25.0759C6.44285 25.1727 6.18638 25.3236 5.97225 25.5185C5.95475 25.4878 5.90575 25.4733 5.85675 25.4733C5.83359 25.4882 5.81618 25.5096 5.80705 25.5343C5.79793 25.559 5.79756 25.5857 5.806 25.6106V25.6413C5.72281 25.6967 5.66334 25.7773 5.638 25.8691C5.53825 26.0064 5.4385 26.1437 5.38775 26.2826C5.40525 26.2972 5.4385 26.3117 5.45425 26.3278C5.43675 26.4038 5.45425 26.4958 5.5225 26.5718C5.47259 26.6238 5.43768 26.6866 5.421 26.7543L4.80325 26.5411C4.76825 27.0596 4.88725 27.4732 5.17075 27.7316C5.38775 27.961 5.63975 27.9303 5.57325 28.0062L6.24175 28.3729C6.37475 28.6023 6.60925 28.6023 6.7755 28.5409V28.5862C6.7755 28.8317 6.95925 29.0288 7.1955 29.1063C7.143 29.3034 7.2445 29.4262 7.5455 29.5166L10.0532 35.0574C9.9535 35.3158 10.0533 35.5452 10.2703 35.6373C10.2195 35.6987 10.1705 35.7601 10.1705 35.8958C10.2703 35.8198 10.4208 35.8053 10.4873 35.9878C10.538 36.1106 10.2703 36.5371 10.671 36.8278C10.6466 36.9571 10.6717 37.0902 10.742 37.2042C10.8122 37.3183 10.9232 37.4062 11.056 37.453C11.056 37.5903 11.189 38.0184 11.2065 38.1702C11.0385 38.3996 10.6203 38.7518 10.671 39.1314C10.706 39.406 10.839 39.4981 11.0735 39.5595C10.9895 40.0473 11.2905 40.2767 11.742 40.2928C11.742 40.6579 12.127 40.7952 12.3598 40.8098C12.5768 40.9632 12.6783 41.0246 12.9443 41.1474C12.694 41.4058 12.862 41.758 13.3117 41.8646C13.3642 42.0165 13.4798 42.1392 13.7318 42.2006C13.7917 42.2835 13.8815 42.3442 13.9852 42.372C14.089 42.3998 14.2 42.3929 14.2987 42.3525C14.4002 42.3072 14.5665 42.0472 14.416 41.8339C14.5157 41.7112 14.4668 41.5125 14.3985 41.3752C14.5333 41.1328 14.416 40.8421 14.2165 40.75C14.234 40.6127 14.1657 40.414 14.115 40.2767C14.465 40.078 14.9025 39.8341 15.0512 39.7436C15.9052 39.1944 16.8573 38.6904 17.9615 38.629C18.245 38.6128 18.763 38.5967 19.0465 38.6128C19.4997 38.6597 20.1017 38.7808 20.4692 38.5224C20.569 38.4448 20.6355 38.3382 20.6198 38.2316C20.569 37.9877 20.2697 37.7583 20.1682 37.5305C20.1332 37.4692 20.1018 37.3625 20.051 37.2705C20.3141 37.3252 20.5891 37.3037 20.8385 37.2091C21.0205 37.1477 21.4895 36.8278 21.472 36.3545C21.1045 36.508 20.2015 36.7358 20.1017 35.8974C20.0002 35.164 20.7195 34.5388 21.8238 34.8135C22.5763 34.996 23.6788 36.4612 22.676 37.1025C22.1913 37.4078 21.4213 37.6969 21.521 38.5078C21.6779 38.3288 21.8819 38.1898 22.1135 38.1041C22.3451 38.0184 22.5966 37.9889 22.844 38.0184C22.0075 38.5838 21.3722 38.6435 20.5025 39.0716C19.75 39.4835 19.1813 40.1539 18.595 40.1701C18.1278 40.2008 17.8775 39.6968 18.329 39.3139C17.8775 39.2235 17.293 39.5449 17.125 39.9714C16.908 40.5675 17.0743 40.9794 17.475 41.2072C16.9238 41.4656 16.523 41.9858 16.7225 42.7192C16.908 43.3298 17.559 43.3298 17.3087 44.0922C17.482 44.0593 17.6415 43.9815 17.7685 43.8679C17.8956 43.7543 17.985 43.6097 18.0262 43.4509C18.0787 43.2215 18.1277 42.9776 18.245 42.871C18.2285 43.1691 18.3067 43.4652 18.4699 43.7229C18.6331 43.9805 18.8742 44.1886 19.1638 44.3216C19.6328 44.5348 20.3678 44.6108 20.9365 44.0761C21.171 44.6867 21.9568 45.1907 22.76 45.1745C23.1275 45.1745 23.4775 45.0388 23.7627 44.8854C23.964 45.328 24.4488 45.7868 24.9493 46C25.4515 45.7868 25.9538 45.3442 26.1533 44.8854C26.421 45.0388 26.7885 45.1762 27.156 45.1762C27.9435 45.1923 28.7625 44.6867 28.9795 44.0777C29.5482 44.6108 30.2832 44.5348 30.7522 44.32C31.0415 44.1871 31.2824 43.9793 31.4456 43.7219C31.6088 43.4646 31.6871 43.1688 31.671 42.871C31.804 42.9776 31.8547 43.2215 31.9055 43.4509C31.9877 43.7708 32.238 44.0002 32.6073 44.0922C32.357 43.3298 33.0255 43.3298 33.1917 42.7192C33.2813 42.4276 33.2568 42.1162 33.1223 41.8397C32.9879 41.5632 32.7523 41.3392 32.4568 41.2072C32.8418 40.9794 33.0255 40.5513 32.791 39.9714C32.6248 39.5449 32.0385 39.2235 31.587 39.3155C32.0227 39.6968 31.7882 40.1846 31.3193 40.1701C30.7348 40.1539 30.166 39.4835 29.4135 39.0716C28.5437 38.6435 27.9085 38.5821 27.0738 38.0184C27.6425 37.9715 28.0765 38.1395 28.3932 38.5062C28.4947 37.7131 27.7422 37.4078 27.24 37.1025C26.2372 36.4612 27.3415 34.996 28.1098 34.8135C29.1965 34.5388 29.9157 35.164 29.816 35.8958C29.6812 36.7358 28.8115 36.5225 28.4108 36.3545C28.4108 36.8278 28.878 37.1477 29.0793 37.2107C29.4077 37.3267 29.771 37.3267 30.0995 37.2107C30.082 37.3012 30.0645 37.3771 30.0645 37.4078C29.9998 38.125 29.564 38.2009 29.7145 38.4901C29.9158 38.7195 31.2545 38.6742 31.622 38.7356C32.2572 38.8115 32.791 39.0409 33.4105 39.1475C34.0947 39.2848 34.8315 39.2848 35.4493 39.5142C35.8343 39.6661 36.2857 39.9568 36.6707 40.1394C37.2552 40.2315 37.1713 40.4463 37.5387 40.4463C37.8748 40.4463 38.0078 40.1846 38.4417 40.078C38.7427 40.0166 39.0787 40.1248 39.3797 40.0328C39.5967 39.9875 39.6965 39.7743 39.8978 39.6661C40.1305 39.5288 40.4665 39.5288 40.6992 39.3462C40.8235 39.2606 40.8462 39.0845 40.8358 38.9618C41.303 38.6565 41.6355 38.23 41.8367 37.7438C41.8956 37.7337 41.949 37.7055 41.9884 37.6639C42.0278 37.6223 42.0508 37.5696 42.0537 37.5144V37.4692C42.1156 37.4302 42.1662 37.3779 42.2012 37.3168C42.2363 37.2557 42.2547 37.1877 42.255 37.1186C42.2535 37.0409 42.2349 36.9643 42.2003 36.8935C42.1657 36.8227 42.1158 36.7591 42.0537 36.7067V36.6598C42.0537 36.5694 42.003 36.508 41.954 36.4466C41.8581 35.9757 41.6181 35.54 41.2624 35.1911C40.9067 34.8421 40.4501 34.5945 39.9468 34.4775V34.4322H39.9292C39.9292 34.387 39.8978 34.3708 39.8628 34.3708C39.7298 34.2335 39.546 34.0348 39.5303 33.8975C39.6965 33.9428 39.9643 34.1883 40.1148 34.2788V33.0123C39.98 33.1044 39.6947 33.3483 39.5285 33.3935C39.546 33.2417 39.8138 32.9671 39.9468 32.8605H38.5415C38.6762 32.9671 38.944 33.2417 38.9615 33.3935C38.7935 33.3483 38.524 33.1028 38.3753 33.0123V34.2788C38.5083 34.1883 38.7935 33.9428 38.9598 33.8975C38.9423 34.051 38.6762 34.3256 38.5415 34.4306L38.594 34.4468C38.0746 34.5547 37.6004 34.7996 37.2291 35.1518C36.8578 35.504 36.6055 35.9483 36.5028 36.4305C36.4363 36.4918 36.3855 36.5532 36.3855 36.6453V36.6905C36.2682 36.8117 36.2017 36.9345 36.319 37.0718C36.319 37.2091 36.403 37.3302 36.5185 37.4223V37.4692C36.5185 37.6065 36.62 37.6824 36.7373 37.6969C36.7863 37.8197 36.837 37.9408 36.9035 38.0475L36.921 38.0329C36.837 38.3996 36.3523 38.6145 36.2508 38.6145C35.3985 38.7195 34.4465 38.3851 33.5768 38.0943C33.1918 37.957 32.6738 37.8035 32.4218 37.4692C32.2555 37.2236 32.189 37.0572 32.273 36.8424C32.4051 36.9799 32.5635 37.0938 32.7402 37.1784C32.7578 37.0718 32.7577 36.949 32.8067 36.8585C32.9171 37.0025 33.0661 37.1174 33.2392 37.1922C33.4122 37.267 33.6033 37.2989 33.7938 37.285C33.5435 37.0879 33.4263 36.5839 33.5435 36.1252C33.8778 36.6582 35.2148 36.7665 35.4493 35.8053C34.947 36.0185 34.646 35.7892 34.5463 35.5468C34.3958 35.164 34.8805 34.2335 34.4465 33.5002C34.0965 32.9509 33.694 32.6311 32.7735 32.4938C32.8446 32.3935 32.8851 32.2775 32.8907 32.1578C32.0385 32.4324 31.3035 32.2192 30.9518 31.5924C31.118 31.6699 31.3858 31.6845 31.6203 31.6845C30.8678 31.1191 30.9185 29.5328 31.454 28.7089C31.5205 28.6621 31.5538 28.6168 31.6203 28.6023C31.7883 28.9076 32.2887 28.9076 32.5407 29.1677C32.623 29.0756 32.6738 29.0595 32.7735 28.9835C32.7735 28.9835 32.791 30.2952 32.8907 30.8299C32.9747 31.4405 33.6257 31.3792 33.9443 31.6376C34.3293 31.2418 35.0153 31.2725 34.9138 30.6005C34.814 29.9285 34.6635 29.3341 34.646 28.8769C34.863 29.2888 35.2813 30.8154 35.4493 31.2564C35.7328 31.8977 36.4187 31.699 36.8037 31.9591C37.054 31.5019 37.6893 31.3792 37.439 30.6926C37.3725 30.5246 36.319 28.5102 36.1685 28.129C36.5535 28.6314 37.5562 30.4035 37.873 30.8913C38.2072 31.4082 38.86 31.1498 39.3115 31.2871C39.3955 30.922 40.0132 30.4794 39.5617 29.8381C39.0105 28.9819 37.6717 27.4877 37.6052 27.2728C37.873 27.5022 39.9293 29.8219 40.0798 29.9592C40.5645 30.3405 41.268 30.0513 41.6688 30.0513C41.6688 29.6232 42.0363 29.1354 41.5008 28.6459C41.0003 28.2195 39.8628 27.4877 39.6283 27.2276C40.3808 27.7009 41.268 28.4634 41.8018 28.5862C42.738 28.7994 43.074 28.4634 43.424 28.3277C43.1405 27.5329 43.5238 27.1808 41.534 26.4183C43.256 26.9837 44.0085 26.7091 44.628 26.2665C44.4982 25.9955 44.3118 25.7508 44.0794 25.5465C43.8469 25.3422 43.5731 25.1823 43.2735 25.0759C44.327 25.1066 45.0287 24.6785 45.4802 24.1148C45.0952 23.6415 44.327 23.3071 43.4415 23.2134C44.7452 23.0308 45.783 22.2991 45.9003 21.4445ZM17.1093 32.1868C17.1268 32.3403 17.1582 32.4324 17.2247 32.5228C16.306 32.6602 15.9052 32.9962 15.571 33.5308C15.102 34.2642 15.6043 35.1947 15.4695 35.5759C15.3698 35.8198 15.0687 36.0492 14.5665 35.8344C14.801 36.7972 16.1222 36.6905 16.474 36.1558C16.607 36.5985 16.474 37.117 16.2395 37.3157C16.6402 37.3464 16.992 37.1784 17.209 36.8876C17.258 36.9797 17.258 37.1025 17.2755 37.2091C17.4558 37.129 17.6157 37.0144 17.7445 36.8731C17.7778 36.9797 17.8267 37.2236 17.762 37.4385C17.5765 37.5435 17.377 37.6517 17.0917 37.789C16.607 38.0168 15.704 38.3382 15.1842 38.3996C14.7502 38.4755 14.0328 38.2462 13.8315 37.7115C13.6635 37.1945 13.1962 37.0249 12.8287 37.3464C12.7272 37.285 12.4613 37.2398 12.3598 37.3916C12.3598 37.3916 12.2425 37.1477 12.092 37.0249C12.1918 36.7665 12.127 36.445 11.8575 36.3384C11.8243 35.836 11.4725 35.836 11.357 35.6518C11.2905 35.5452 11.2905 35.4079 11.4568 35.3934C11.3903 35.2868 11.2397 35.2706 11.2222 35.2706C11.273 35.0574 11.189 34.7828 10.8722 34.6891L8.41875 30.0836L8.396 30.0804L8.29625 29.8672L8.291 29.8429L8.011 29.3179C8.1965 29.1354 8.09675 28.8898 7.8955 28.7994V28.7525C7.913 28.7073 7.913 28.6766 7.913 28.6459C7.9795 28.6298 8.07925 28.6152 8.16325 28.6007C8.732 28.4779 9.6175 27.7155 10.3682 27.2438C10.1023 27.5022 8.998 28.234 8.4975 28.6621C8.039 29.0659 8.221 29.4827 8.29275 29.8413L8.41875 30.0836C8.83875 30.1208 9.45825 30.334 9.9185 29.9899C10.0515 29.8672 12.1095 27.5329 12.393 27.3035C12.2758 27.5168 10.972 29.0126 10.3875 29.8672C9.9675 30.5085 10.6045 30.9511 10.671 31.3178C11.1383 31.1805 11.7735 31.4405 12.1095 30.9204C12.442 30.418 13.4465 28.6475 13.814 28.1581C13.681 28.5409 12.61 30.5392 12.5435 30.7233C12.2933 31.4098 12.9285 31.531 13.1787 31.9898C13.5637 31.7458 14.2638 31.9284 14.5333 31.2871C14.6995 30.8445 15.1178 29.3179 15.3348 28.906C15.3015 29.3486 15.1685 29.9592 15.0688 30.6312C14.9673 31.3032 15.6532 31.2871 16.0207 31.6683C16.3707 31.3937 17.0078 31.4712 17.1075 30.8606C17.2073 30.3259 17.2247 29.0126 17.2247 29.0126C17.3245 29.0902 17.3753 29.1047 17.475 29.1968C17.7095 28.9383 18.21 28.9383 18.378 28.6314C18.4445 28.6475 18.4778 28.6928 18.546 28.738C19.0798 29.5618 19.1305 31.1498 18.378 31.7152C18.595 31.7152 18.8802 31.6828 19.0465 31.6231C18.714 32.2482 17.9615 32.4776 17.1075 32.1885L17.1093 32.1868ZM20.8035 42.8096C20.219 42.8096 19.8008 42.4752 20.1017 42.0019C20.2523 42.2152 20.5532 42.3218 20.8193 42.3363C20.8035 42.5512 20.8035 42.6271 20.8035 42.8096ZM29.781 42.0019C30.0837 42.4736 29.6655 42.8096 29.081 42.8096C29.081 42.6271 29.081 42.5512 29.0285 42.3363C29.298 42.3218 29.6147 42.2297 29.781 42.0019ZM22.4257 39.7113C21.9742 40.2767 21.6225 40.6741 21.339 41.3752C20.821 41.3299 20.9207 40.75 21.0887 40.4592C21.4387 39.8793 22.8598 39.1168 23.5633 38.3528C23.2623 38.8422 22.8107 39.2848 22.4257 39.7113ZM23.964 40.75C23.6788 41.7871 23.4618 43.2991 23.5615 43.9856C22.5588 43.5123 23.1275 41.6805 23.5125 40.8873C24.048 39.7888 24.4313 38.4448 24.5485 37.5919C24.867 38.2316 24.181 40.0635 23.964 40.75ZM26.3055 43.9856C26.4052 43.2991 26.204 41.7887 25.903 40.75C25.7017 40.0635 25 38.23 25.3185 37.5903C25.4357 38.4465 25.819 39.7872 26.3545 40.8857C26.7395 41.6805 27.3082 43.5123 26.3055 43.9856ZM28.78 40.4592C28.9462 40.75 29.046 41.3299 28.528 41.3752C28.2445 40.6741 27.8927 40.2767 27.4587 39.7113C27.0562 39.2848 26.6222 38.8422 26.3037 38.3544C27.0072 39.1168 28.4282 39.8793 28.78 40.4592ZM28.5787 13.7812C28.01 13.8587 27.492 13.7812 27.0388 13.5986C27.275 13.9185 27.5585 14.164 28.01 14.3013C27.5253 14.8505 26.54 15.2011 25.5688 15.109C25.7025 15.2456 25.869 15.3513 26.055 15.4178C26.241 15.4843 26.4412 15.5096 26.6398 15.4918C25.7525 16.7728 25.0998 18.0862 24.951 19.6272C24.8162 18.1007 24.1635 16.7728 23.278 15.4918C23.4739 15.5095 23.6715 15.484 23.8547 15.4174C24.0378 15.3509 24.2012 15.2452 24.3315 15.109C23.3463 15.1865 22.41 14.8344 21.9078 14.3013C22.3593 14.164 22.6427 13.9185 22.8772 13.5986C22.4432 13.7812 21.9078 13.8425 21.339 13.7812C22.025 13.6438 23.0785 13.1415 23.1275 12.6827C22.9438 12.8668 21.5735 12.9266 20.7877 12.9266C22.1247 12.6682 23.4967 11.9655 24.1145 11.3855C24.6325 11.4017 25.2852 11.4162 25.8032 11.4017C26.4052 11.9816 27.7598 12.6682 29.1143 12.9266C28.3268 12.9266 26.9565 12.8668 26.7902 12.6843C26.8392 13.1398 27.8927 13.6438 28.5787 13.7828V13.7812Z" fill="#FB5352"/>
</svg>
