<svg width="28" height="37" viewBox="0 0 28 37" fill="none" xmlns="http://www.w3.org/2000/svg">
<path d="M9.5873 35.5116H17.3981C17.1895 36.0816 16.6422 36.4884 16 36.4884H10.95C10.3171 36.4884 9.77964 36.0796 9.5873 35.5116Z" fill="black" stroke="#2DB294"/>
<path d="M6.5873 31.5116H20.3981C20.1895 32.0816 19.6422 32.4884 19 32.4884H7.95C7.31708 32.4884 6.77964 32.0796 6.5873 31.5116Z" fill="black" stroke="#2DB294"/>
<path d="M7 28H20.0022C20.8678 25.8333 21.9965 24.3077 24.0353 20.9583C25.4609 18.6164 26.783 15 25.4442 11.0834C23.7373 6.09022 19.6391 2 13.5943 2" stroke="#2DB294" stroke-width="2.04651"/>
<path d="M20 28H6.6963C5.87624 25.8333 5.79274 24.3077 3.86126 20.9583C2.51074 18.6164 1.25824 15 2.52658 11.0834C4.1436 6.09022 8.0261 2 13.7527 2" stroke="#2DB294" stroke-width="2.04651"/>
<rect x="13" y="17" width="2" height="11" rx="1" fill="#2DB294"/>
</svg>
