<svg width="44" height="44" viewBox="0 0 44 44" fill="none" xmlns="http://www.w3.org/2000/svg">
<path d="M35.8462 7H8.15385C5.85974 7 4 8.84683 4 11.125V35.875C4 38.1532 5.85974 40 8.15385 40H35.8462C38.1403 40 40 38.1532 40 35.875V11.125C40 8.84683 38.1403 7 35.8462 7Z" stroke="#FB5352" stroke-width="2" stroke-linejoin="round"/>
<path d="M25.5 19C26.3284 19 27 18.3284 27 17.5C27 16.6716 26.3284 16 25.5 16C24.6716 16 24 16.6716 24 17.5C24 18.3284 24.6716 19 25.5 19Z" fill="#FB5352"/>
<path d="M25.5 27C26.3284 27 27 26.3284 27 25.5C27 24.6716 26.3284 24 25.5 24C24.6716 24 24 24.6716 24 25.5C24 26.3284 24.6716 27 25.5 27Z" fill="#FB5352"/>
<path d="M25.5 34C26.3284 34 27 33.3284 27 32.5C27 31.6716 26.3284 31 25.5 31C24.6716 31 24 31.6716 24 32.5C24 33.3284 24.6716 34 25.5 34Z" fill="#FB5352"/>
<path d="M18.5 27C19.3284 27 20 26.3284 20 25.5C20 24.6716 19.3284 24 18.5 24C17.6716 24 17 24.6716 17 25.5C17 26.3284 17.6716 27 18.5 27Z" fill="#FB5352"/>
<path d="M18.5 34C19.3284 34 20 33.3284 20 32.5C20 31.6716 19.3284 31 18.5 31C17.6716 31 17 31.6716 17 32.5C17 33.3284 17.6716 34 18.5 34Z" fill="#FB5352"/>
<path d="M11.5 27C12.3284 27 13 26.3284 13 25.5C13 24.6716 12.3284 24 11.5 24C10.6716 24 10 24.6716 10 25.5C10 26.3284 10.6716 27 11.5 27Z" fill="#FB5352"/>
<path d="M11.5 34C12.3284 34 13 33.3284 13 32.5C13 31.6716 12.3284 31 11.5 31C10.6716 31 10 31.6716 10 32.5C10 33.3284 10.6716 34 11.5 34Z" fill="#FB5352"/>
<path d="M32.5 19C33.3284 19 34 18.3284 34 17.5C34 16.6716 33.3284 16 32.5 16C31.6716 16 31 16.6716 31 17.5C31 18.3284 31.6716 19 32.5 19Z" fill="#FB5352"/>
<path d="M32.5 27C33.3284 27 34 26.3284 34 25.5C34 24.6716 33.3284 24 32.5 24C31.6716 24 31 24.6716 31 25.5C31 26.3284 31.6716 27 32.5 27Z" fill="#FB5352"/>
<path d="M32.5 34C33.3284 34 34 33.3284 34 32.5C34 31.6716 33.3284 31 32.5 31C31.6716 31 31 31.6716 31 32.5C31 33.3284 31.6716 34 32.5 34Z" fill="#FB5352"/>
<path d="M12 2L12 10" stroke="#FB5352" stroke-width="2" stroke-linecap="round" stroke-linejoin="round"/>
<path d="M32 2L32 10" stroke="#FB5352" stroke-width="2" stroke-linecap="round" stroke-linejoin="round"/>
</svg>
