<svg width="50" height="50" viewBox="0 0 50 50" fill="none" xmlns="http://www.w3.org/2000/svg">
<path d="M41.7531 20L40.6379 26.0453C40.4812 26.8962 39.6368 28.5052 37.5665 28.5052H13.3272C12.422 28.5052 10.6139 27.9921 10.2485 26.0479L9.11537 20.0146L3.01442 20.6661V24.3315H6.21245V26.7506H5.29693C5.29693 26.7506 3 26.6148 3 28.8052V43.9433C3 43.9433 3 45.9984 5.29693 45.9984H8.38863C8.38863 45.9984 10.6851 46.1341 10.6851 43.9433V38.1077H26.7334C26.7334 38.1077 28.0959 39.3165 29.6904 39.3771C32.177 39.4721 33.3583 37.6023 33.3583 37.6023L40.3032 39.256V43.9433C40.3032 43.9433 40.6361 45.9984 42.9331 45.9984H45.6914C45.6914 45.9984 47.9892 46.1341 47.9892 43.9433V28.8052C47.9892 28.8052 47.9892 26.7506 45.6914 26.7506H44.7794L44.8119 24.3315H48V20.6661L41.7531 20Z" fill="#FB5352"/>
<path d="M42.9939 16.617L43 11.9931H40.2249V7.78721C40.2249 6.25033 38.9992 5 37.4911 5H13.4281C11.9209 5 10.6943 6.25033 10.6943 7.78721V11.9882L8.00912 11.982L8 16.64L10.4571 16.648C10.4471 16.9049 11.7211 24.0884 11.7211 24.0884C12.0534 25.9792 13.8846 26 13.9623 26H36.7792C38.6626 26 39.0005 24.1659 39.0144 24.0884C39.0144 24.0884 40.2866 16.7804 40.2879 16.6175L42.9939 16.617ZM30.8781 14.2625C31.157 13.4161 31.9419 12.804 32.8644 12.804C33.7878 12.804 34.5723 13.4161 34.8511 14.2625H30.8781ZM12.4247 7.78721C12.4247 7.22339 12.8747 6.7641 13.4281 6.7641H37.4907C38.0441 6.7641 38.4945 7.22339 38.4945 7.78721V14.2621H36.748C36.4309 12.3686 34.8112 10.9221 32.8649 10.9221C30.9194 10.9221 29.2988 12.3682 28.9818 14.2621H22.6928V12.746C22.6928 12.746 22.6928 11.9931 21.9548 11.9931H16.9307C16.9307 11.9931 16.1927 11.9931 16.1927 12.746V14.2621H12.4247V7.78721ZM15.3327 21.6617C14.123 21.6617 13.1427 20.6621 13.1427 19.429C13.1427 18.1955 14.123 17.1959 15.3327 17.1959C16.5419 17.1959 17.5223 18.1955 17.5223 19.429C17.5223 20.6621 16.5419 21.6617 15.3327 21.6617ZM35.3059 21.6617C34.0967 21.6617 33.1163 20.6621 33.1163 19.429C33.1163 18.1955 34.0967 17.1959 35.3059 17.1959C36.5151 17.1959 37.4959 18.1955 37.4959 19.429C37.4959 20.6621 36.5156 21.6617 35.3059 21.6617ZM20.6887 24.3311H19.099V17.4643H20.6887V24.3311ZM23.4308 24.3311H21.841V17.4643H23.4308V24.3311ZM26.1598 24.3311H24.5701V17.4643H26.1598V24.3311ZM28.901 24.3311H27.3117V17.4643H28.901V24.3311ZM31.6456 24.3311H30.0559V17.4643H31.6456V24.3311Z" fill="#FB5352"/>
</svg>
