<svg width="14" height="12" viewBox="0 0 14 12" fill="none" xmlns="http://www.w3.org/2000/svg">
<path d="M6.33928 2.95516C7.37595 0.528433 9.69794 -0.592609 13.4713 0.31093L14 0.437517L13.913 0.991519C13.4609 3.87101 12.0981 5.57763 10.1256 6.26646C9.01107 6.65569 7.84332 6.67893 6.75841 6.48855L6.96043 6.5208L6.96146 6.64341C6.96345 6.65724 6.9654 6.67109 6.9673 6.68494C6.96067 6.90093 6.96686 7.5462 6.96067 7.80076L6.96043 8.26828L6.96067 11.4001C6.96067 11.7314 6.701 12 6.38069 12C6.06037 12 5.8007 11.7314 5.8007 11.4001L5.80095 8.40191C4.99806 8.42025 4.12894 8.29362 3.28613 7.93738C1.5653 7.21001 0.399873 5.67613 0.0758286 3.22297L0 2.64891L0.552042 2.55057C3.12462 2.09232 4.91418 2.70975 5.97199 4.12069C6.05736 3.72291 6.17841 3.33174 6.33928 2.95516Z" fill="white" fill-opacity="0.7"/>
</svg>
