<svg width="220" height="42" viewBox="0 0 220 42" fill="none" xmlns="http://www.w3.org/2000/svg">
<g clip-path="url(#clip0)">
<path d="M20.2991 12.1428C20.1348 12.1428 19.9378 12.0761 19.8392 11.9427L16.3904 8.47326C16.1277 8.20638 16.1277 7.7727 16.3904 7.50582C16.6532 7.23894 17.0802 7.23894 17.343 7.50582L20.2991 10.5082L23.2552 7.50582C23.518 7.23894 23.945 7.23894 24.2077 7.50582C24.4705 7.7727 24.4705 8.20638 24.2077 8.47326L20.7589 11.9427C20.6275 12.0761 20.4633 12.1428 20.2991 12.1428Z" fill="white"/>
<path d="M20.2991 7.57252C20.1348 7.57252 19.9378 7.5058 19.8392 7.37236L16.3904 3.90294C16.1277 3.63607 16.1277 3.20239 16.3904 2.93551C16.6532 2.66863 17.0802 2.66863 17.343 2.93551L20.2991 5.93789L23.2552 2.93551C23.518 2.66863 23.945 2.66863 24.2077 2.93551C24.4705 3.20239 24.4705 3.63607 24.2077 3.90294L20.7589 7.37236C20.6275 7.5058 20.4633 7.57252 20.2991 7.57252Z" fill="white"/>
<path d="M20.2995 6.50516C19.9382 6.50516 19.6426 6.20492 19.6426 5.83797V0.667196C19.6426 0.300238 19.9382 0 20.2995 0C20.6608 0 20.9564 0.300238 20.9564 0.667196V5.80461C20.9564 6.20492 20.6608 6.50516 20.2995 6.50516Z" fill="white"/>
<path d="M23.715 34.6941C23.5508 34.6941 23.3866 34.6274 23.2552 34.4939L20.2991 31.4916L17.343 34.4939C17.0802 34.7608 16.6532 34.7608 16.3904 34.4939C16.1277 34.2271 16.1277 33.7934 16.3904 33.5265L19.8064 30.0571C20.0692 29.7902 20.4961 29.7902 20.7589 30.0571L24.2077 33.5265C24.4705 33.7934 24.4705 34.2271 24.2077 34.4939C24.0763 34.6274 23.8793 34.6941 23.715 34.6941Z" fill="white"/>
<path d="M23.715 39.2644C23.5508 39.2644 23.3866 39.1977 23.2552 39.0643L20.2991 36.0619L17.343 39.0643C17.0802 39.3311 16.6532 39.3311 16.3904 39.0643C16.1277 38.7974 16.1277 38.3637 16.3904 38.0968L19.8064 34.6274C20.0692 34.3605 20.4961 34.3605 20.7589 34.6274L24.1749 38.0968C24.4376 38.3637 24.4376 38.7974 24.1749 39.0643C24.0763 39.1977 23.8793 39.2644 23.715 39.2644Z" fill="white"/>
<path d="M20.2995 42.0001C19.9382 42.0001 19.6426 41.6999 19.6426 41.3329V36.1955C19.6426 35.8286 19.9382 35.5283 20.2995 35.5283C20.6608 35.5283 20.9564 35.8286 20.9564 36.1955V41.3329C20.9564 41.6999 20.6608 42.0001 20.2995 42.0001Z" fill="white"/>
<path d="M13.9263 32.9596C13.565 32.9596 13.2694 32.6594 13.2694 32.2924V28.0224H9.06512C8.70381 28.0224 8.4082 27.7221 8.4082 27.3552C8.4082 26.9882 8.70381 26.688 9.06512 26.688H13.9263C14.2876 26.688 14.5832 26.9882 14.5832 27.3552V32.2591C14.5832 32.6594 14.2876 32.9596 13.9263 32.9596Z" fill="white"/>
<path d="M10.7407 36.1955C10.3794 36.1955 10.0838 35.8952 10.0838 35.5283V31.2582H5.87957C5.51827 31.2582 5.22266 30.958 5.22266 30.591C5.22266 30.2241 5.51827 29.9238 5.87957 29.9238H10.7079C11.0692 29.9238 11.3648 30.2241 11.3648 30.591V35.5283C11.3977 35.8952 11.102 36.1955 10.7407 36.1955Z" fill="white"/>
<path d="M6.40496 35.6617C6.24073 35.6617 6.0765 35.595 5.94512 35.4615C5.68236 35.1947 5.68236 34.761 5.94512 34.4941L9.5253 30.8579C9.78807 30.591 10.2151 30.591 10.4778 30.8579C10.7406 31.1248 10.7406 31.5584 10.4778 31.8253L6.89765 35.4615C6.76626 35.595 6.56919 35.6617 6.40496 35.6617Z" fill="white"/>
<path d="M33.0436 25.3867C32.8793 25.3867 32.7151 25.32 32.5837 25.1865L29.1678 21.7171C28.905 21.4502 28.905 21.0165 29.1678 20.7497L32.5837 17.2802C32.8465 17.0134 33.2735 17.0134 33.5363 17.2802C33.799 17.5471 33.799 17.9808 33.5363 18.2477L30.5801 21.2501L33.5363 24.2524C33.799 24.5193 33.799 24.953 33.5363 25.2199C33.4049 25.32 33.2078 25.3867 33.0436 25.3867Z" fill="white"/>
<path d="M37.5436 25.3867C37.3793 25.3867 37.2151 25.32 37.0837 25.1865L33.6678 21.7171C33.405 21.4502 33.405 21.0165 33.6678 20.7497L37.0837 17.2802C37.3465 17.0134 37.7735 17.0134 38.0363 17.2802C38.299 17.5471 38.299 17.9808 38.0363 18.2477L35.0801 21.2501L38.0363 24.2524C38.299 24.5193 38.299 24.953 38.0363 25.2199C37.9049 25.32 37.7406 25.3867 37.5436 25.3867Z" fill="white"/>
<path d="M40.2366 21.9174H35.1784C34.8171 21.9174 34.5215 21.6172 34.5215 21.2502C34.5215 20.8832 34.8171 20.583 35.1784 20.583H40.2366C40.5979 20.583 40.8936 20.8832 40.8936 21.2502C40.9264 21.5838 40.6308 21.9174 40.2366 21.9174Z" fill="white"/>
<path d="M31.8267 15.2453H26.9655C26.6042 15.2453 26.3086 14.945 26.3086 14.5781V9.64083C26.3086 9.27387 26.6042 8.97363 26.9655 8.97363C27.3268 8.97363 27.6224 9.27387 27.6224 9.64083V13.8775H31.7938C32.1551 13.8775 32.4507 14.1778 32.4507 14.5447C32.4836 14.945 32.188 15.2453 31.8267 15.2453Z" fill="white"/>
<path d="M35.0126 12.0094H30.1843C29.823 12.0094 29.5273 11.7092 29.5273 11.3422V6.40499C29.5273 6.03803 29.823 5.73779 30.1843 5.73779C30.5456 5.73779 30.8412 6.03803 30.8412 6.40499V10.6417H35.0126C35.3739 10.6417 35.6695 10.9419 35.6695 11.3089C35.6695 11.6758 35.3739 12.0094 35.0126 12.0094Z" fill="white"/>
<path d="M30.9069 11.2421C30.7427 11.2421 30.5785 11.1754 30.4471 11.0419C30.1843 10.7751 30.1843 10.3414 30.4471 10.0745L34.0273 6.47164C34.29 6.20476 34.717 6.20476 34.9798 6.47164C35.2426 6.73852 35.2426 7.1722 34.9798 7.43908L31.3996 11.0419C31.2682 11.1754 31.0711 11.2421 30.9069 11.2421Z" fill="white"/>
<path d="M27.4909 33.46C27.1296 33.46 26.834 33.1597 26.834 32.7928V27.8889C26.834 27.5219 27.1296 27.2217 27.4909 27.2217H32.3521C32.7134 27.2217 33.009 27.5219 33.009 27.8889C33.009 28.2558 32.7134 28.5561 32.3521 28.5561H28.1807V32.7928C28.1807 33.1597 27.885 33.46 27.4909 33.46Z" fill="white"/>
<path d="M30.6764 36.6958C30.3151 36.6958 30.0195 36.3956 30.0195 36.0286V31.1247C30.0195 30.7578 30.3151 30.4575 30.6764 30.4575H35.5048C35.8661 30.4575 36.1617 30.7578 36.1617 31.1247C36.1617 31.4917 35.8661 31.7919 35.5048 31.7919H31.3662V36.0286C31.3662 36.3956 31.0706 36.6958 30.6764 36.6958Z" fill="white"/>
<path d="M35.0125 36.1954C34.8483 36.1954 34.684 36.1287 34.5526 35.9952L30.9725 32.359C30.7097 32.0921 30.7097 31.6584 30.9725 31.3916C31.2352 31.1247 31.6622 31.1247 31.925 31.3916L35.5052 35.0278C35.7679 35.2947 35.7679 35.7283 35.5052 35.9952C35.3409 36.1287 35.1767 36.1954 35.0125 36.1954Z" fill="white"/>
<path d="M7.85027 25.3868C7.68605 25.3868 7.52182 25.3201 7.39043 25.1867C7.12767 24.9198 7.12767 24.4861 7.39043 24.2192L10.3466 21.2169L7.39043 18.2145C7.12767 17.9476 7.12767 17.5139 7.39043 17.247C7.6532 16.9802 8.08019 16.9802 8.34296 17.247L11.7589 20.7165C12.0217 20.9833 12.0217 21.417 11.7589 21.6839L8.31011 25.1867C8.17873 25.3201 8.0145 25.3868 7.85027 25.3868Z" fill="white"/>
<path d="M3.35027 25.3868C3.18605 25.3868 3.02182 25.3201 2.89043 25.1867C2.62767 24.9198 2.62767 24.4861 2.89043 24.2192L5.84655 21.2169L2.89043 18.2145C2.62767 17.9476 2.62767 17.5139 2.89043 17.247C3.1532 16.9802 3.58019 16.9802 3.84296 17.247L7.25891 20.7165C7.52168 20.9833 7.52168 21.417 7.25891 21.6839L3.81011 25.1867C3.67873 25.3201 3.5145 25.3868 3.35027 25.3868Z" fill="white"/>
<path d="M5.71515 21.9174H0.656914C0.295611 21.9174 0 21.6172 0 21.2502C0 20.8832 0.295611 20.583 0.656914 20.583H5.71515C6.07646 20.583 6.37207 20.8832 6.37207 21.2502C6.37207 21.5838 6.07646 21.9174 5.71515 21.9174Z" fill="white"/>
<path d="M13.8599 14.9787H8.99871C8.63741 14.9787 8.3418 14.6784 8.3418 14.3115C8.3418 13.9445 8.63741 13.6443 8.99871 13.6443H13.1701V9.37423C13.1701 9.00727 13.4657 8.70703 13.827 8.70703C14.1883 8.70703 14.4839 9.00727 14.4839 9.37423V14.3115C14.5168 14.6784 14.2212 14.9787 13.8599 14.9787Z" fill="white"/>
<path d="M10.6415 11.7428H5.81316C5.45186 11.7428 5.15625 11.4426 5.15625 11.0756C5.15625 10.7087 5.45186 10.4084 5.81316 10.4084H9.98457V6.13839C9.98457 5.77143 10.2802 5.47119 10.6415 5.47119C11.0028 5.47119 11.2984 5.77143 11.2984 6.13839V11.0423C11.3312 11.4426 11.0356 11.7428 10.6415 11.7428Z" fill="white"/>
<path d="M9.91838 10.9756C9.75415 10.9756 9.58992 10.9089 9.45854 10.7755L5.84551 7.13927C5.58275 6.87239 5.58275 6.43872 5.84551 6.17184C6.10828 5.90496 6.53527 5.90496 6.79804 6.17184L10.3782 9.84142C10.641 10.1083 10.641 10.542 10.3782 10.8089C10.2468 10.9089 10.0826 10.9756 9.91838 10.9756Z" fill="white"/>
<path d="M16.8499 30.5244C16.7514 30.5244 16.6857 30.4911 16.5871 30.4577C16.3244 30.3576 16.1602 30.0908 16.1602 29.7905L16.3901 25.0868L11.7588 25.3203C11.4632 25.3203 11.2004 25.1535 11.1019 24.8866C11.0034 24.6198 11.0691 24.3195 11.2661 24.1194L14.7149 20.9502L11.299 17.8477C11.1019 17.6476 11.0362 17.3473 11.1348 17.0804C11.2333 16.8136 11.4961 16.6468 11.7917 16.6468L16.4229 16.8803L16.193 12.1766C16.193 11.8763 16.3572 11.6094 16.62 11.5094C16.8828 11.4093 17.1784 11.476 17.3754 11.6762L20.4958 15.1789L23.6161 11.6762C23.8132 11.476 24.1088 11.4093 24.3716 11.5094C24.6343 11.6094 24.7986 11.8763 24.7986 12.1766L24.503 16.9136L29.1342 16.6801C29.4298 16.6468 29.6597 16.8469 29.7911 17.1138C29.8897 17.3807 29.824 17.6809 29.6269 17.8811L26.1781 21.0503L29.6269 24.2194C29.824 24.4196 29.8897 24.7198 29.7911 24.9867C29.6926 25.2536 29.4298 25.4204 29.1342 25.4204L24.503 25.1202L24.7329 29.8239C24.7329 30.1241 24.5687 30.391 24.3059 30.4911C24.0431 30.5912 23.7475 30.5244 23.5504 30.3243L20.4301 26.8215L17.3098 30.3243C17.2112 30.4577 17.0141 30.5244 16.8499 30.5244ZM20.4629 25.1202C20.66 25.1202 20.8242 25.1869 20.9556 25.3537L23.3205 27.9891L23.1234 24.4196C23.1234 24.2194 23.1891 24.0526 23.3205 23.9192C23.4519 23.7858 23.649 23.719 23.8132 23.719L27.3277 23.8858L24.7 21.5173C24.5687 21.3839 24.503 21.1837 24.503 21.0169C24.503 20.8167 24.5687 20.6499 24.7329 20.5165L27.3277 18.148L23.8132 18.3148C23.6161 18.3148 23.4519 18.248 23.3205 18.1146C23.1891 17.9812 23.1234 17.781 23.1234 17.6142L23.3205 14.0447L20.9556 16.6801C20.8242 16.8136 20.66 16.9136 20.4629 16.9136C20.2659 16.9136 20.1016 16.8469 19.9703 16.6801L17.6054 14.0447L17.7696 17.6142C17.7696 17.8144 17.7039 17.9812 17.5725 18.1146C17.4411 18.248 17.2769 18.3148 17.0798 18.3148L13.5653 18.148L16.1602 20.5165C16.2915 20.6499 16.3901 20.8167 16.3901 21.0169C16.3901 21.2171 16.3244 21.3839 16.1602 21.5173L13.5653 23.9192L17.0798 23.7524C17.2769 23.7524 17.4411 23.8191 17.5725 23.9526C17.7039 24.086 17.7696 24.2862 17.7696 24.453L17.6054 27.9891L19.9374 25.3537C20.0688 25.1869 20.2659 25.1202 20.4629 25.1202Z" fill="white"/>
<path d="M51.6055 7.114V4.33301H56.5341L61.4627 13.3116V7.114H60.524V4.33301H66.3523V7.114H65.4135V16.4502H66.3131V19.2312H61.4236L56.495 10.2128V19.2312H52.5051V7.114H51.6055Z" fill="white"/>
<path d="M73.7059 4.09473C74.1362 4.09473 74.6056 4.09473 75.075 4.13446C75.5444 4.17418 76.0138 4.25364 76.4831 4.37283C76.9525 4.49201 77.3828 4.69065 77.8131 4.96875C78.2434 5.20712 78.5954 5.56468 78.9475 6.00169C79.2604 6.4387 79.5342 6.95517 79.7298 7.59082C79.9254 8.22648 80.0036 8.98132 80.0036 9.85534V13.272C80.0036 14.6227 79.808 15.6954 79.456 16.5297C79.1039 17.3243 78.6345 17.9599 78.0478 18.3969C77.4611 18.834 76.7961 19.1121 76.0529 19.271C75.3097 19.4299 74.4882 19.4696 73.7059 19.4696C72.8845 19.4696 72.1021 19.3902 71.3589 19.2312C70.6157 19.0723 69.9116 18.7942 69.364 18.3572C68.7773 17.9202 68.3079 17.2846 67.9558 16.49C67.6038 15.6954 67.4082 14.583 67.4082 13.272V9.85534C67.4082 8.98132 67.4864 8.22648 67.682 7.59082C67.8776 6.95517 68.1514 6.4387 68.4643 6.00169C68.7773 5.56468 69.1684 5.24685 69.5987 4.96875C70.029 4.73038 70.4593 4.53174 70.9287 4.37283C71.3981 4.25364 71.8674 4.17418 72.3368 4.13446C72.8453 4.13446 73.2756 4.09473 73.7059 4.09473ZM73.7059 6.95517C73.2756 6.95517 72.8845 7.03463 72.6106 7.23327C72.3368 7.39218 72.1021 7.67028 71.9457 7.98811C71.7892 8.30593 71.6719 8.74295 71.6327 9.25942C71.5545 9.77589 71.5545 10.3718 71.5545 11.0472V12.6363C71.5545 13.3514 71.5936 13.9474 71.6327 14.4638C71.711 14.9803 71.7892 15.3776 71.9457 15.6954C72.1021 16.0132 72.3368 16.2516 72.6106 16.3708C72.8845 16.5297 73.2756 16.5694 73.7059 16.5694C74.1362 16.5694 74.4882 16.49 74.762 16.3708C75.0358 16.2119 75.2705 16.0132 75.427 15.6954C75.5835 15.3776 75.7008 14.9803 75.7791 14.4638C75.8573 13.9474 75.8573 13.3514 75.8573 12.6363V11.0472C75.8573 10.3718 75.8182 9.77589 75.7791 9.25942C75.7008 8.74295 75.6226 8.30593 75.4661 7.98811C75.3097 7.67028 75.075 7.39218 74.8012 7.23327C74.5273 7.03463 74.1753 6.95517 73.7059 6.95517Z" fill="white"/>
<path d="M86.6932 13.8281H85.8326V19.2709H82.0775V7.11399H81.1387V4.33301H87.5146C88.1405 4.33301 88.8446 4.37274 89.5486 4.45219C90.2919 4.53165 90.9568 4.73029 91.5436 5.00839C92.1694 5.28649 92.6388 5.68377 93.0691 6.23997C93.4603 6.75644 93.6558 7.47155 93.6558 8.34557V10.0539C93.6558 10.5306 93.5776 10.9676 93.4211 11.3649C93.2647 11.7225 93.0691 12.0403 92.7953 12.3184C92.5215 12.5965 92.2085 12.8349 91.8565 12.9938C91.5045 13.1924 91.1524 13.3513 90.7612 13.4705L92.5215 15.8145C92.9518 16.4104 93.3429 16.8077 93.6558 17.0064C93.9688 17.205 94.2426 17.3242 94.4382 17.4036L92.9909 19.4695C92.8344 19.5092 92.6388 19.549 92.4432 19.549C92.2868 19.549 92.0912 19.549 91.8565 19.5092C91.6218 19.4695 91.3871 19.3901 91.1133 19.2709C90.8395 19.1517 90.5657 18.9531 90.2919 18.675C90.018 18.4366 89.7051 18.079 89.3922 17.642L86.6932 13.8281ZM89.7442 9.25933C89.7442 8.62367 89.5878 8.1072 89.2357 7.70992C88.8837 7.31264 88.4143 7.11399 87.8275 7.11399H85.8326V11.2855H87.7884C88.0231 11.2855 88.2578 11.2457 88.4925 11.1663C88.7272 11.0868 88.9228 10.9676 89.1184 10.769C89.314 10.6101 89.4704 10.3717 89.5878 10.1334C89.666 9.89498 89.7442 9.57715 89.7442 9.25933Z" fill="white"/>
<path d="M97.8411 8.02793H95.4941V4.29346H108.402V7.9882H106.056V7.59091C106.056 7.432 106.016 7.31281 105.977 7.23336C105.938 7.1539 105.86 7.11417 105.743 7.03472H103.787V16.3709H104.686V19.1519H99.0928V16.3709H100.032V7.11417H98.0758C97.8802 7.1539 97.802 7.35254 97.802 7.63064V8.02793H97.8411Z" fill="white"/>
<path d="M117.399 7.114V4.33301H123.228V7.114H122.328V16.4502H123.228V19.2312H117.399V16.4502H118.338V13.1527H114.622V16.4502H115.522V19.2312H109.693V16.4502H110.632V7.114H109.693V4.33301H115.522V7.114H114.622V10.332H118.338V7.114H117.399Z" fill="white"/>
<path d="M130.934 7.114V4.33301H141.573V7.114H135.823V10.332H139.735V13.1924H135.823V16.4899H137.153V19.2709H130.895V16.4899H131.833V7.114H130.934Z" fill="white"/>
<path d="M148.848 4.09473C149.279 4.09473 149.748 4.09473 150.218 4.13446C150.687 4.17418 151.156 4.25364 151.626 4.37283C152.095 4.49201 152.525 4.69065 152.956 4.96875C153.386 5.20712 153.738 5.56468 154.09 6.00169C154.442 6.4387 154.677 6.95517 154.872 7.59082C155.068 8.22648 155.146 8.98132 155.146 9.85534V13.272C155.146 14.6227 154.951 15.6954 154.599 16.5297C154.247 17.3243 153.777 17.9599 153.19 18.3969C152.604 18.834 151.939 19.1121 151.195 19.271C150.452 19.4299 149.631 19.4696 148.848 19.4696C148.027 19.4696 147.245 19.3902 146.502 19.2312C145.758 19.0723 145.054 18.7942 144.507 18.3572C143.92 17.9202 143.45 17.2846 143.098 16.49C142.746 15.6954 142.551 14.583 142.551 13.272V9.85534C142.551 8.98132 142.629 8.22648 142.825 7.59082C143.02 6.95517 143.294 6.4387 143.607 6.00169C143.92 5.56468 144.311 5.24685 144.741 4.96875C145.172 4.73038 145.602 4.53174 146.071 4.37283C146.541 4.25364 147.01 4.17418 147.479 4.13446C147.988 4.13446 148.418 4.09473 148.848 4.09473ZM148.848 6.95517C148.418 6.95517 148.027 7.03463 147.753 7.23327C147.479 7.39218 147.245 7.67028 147.088 7.98811C146.932 8.30593 146.814 8.74295 146.775 9.25942C146.697 9.77589 146.697 10.3718 146.697 11.0472V12.6363C146.697 13.3514 146.736 13.9474 146.775 14.4638C146.854 14.9803 146.932 15.3776 147.088 15.6954C147.245 16.0132 147.479 16.2516 147.753 16.3708C148.027 16.5297 148.418 16.5694 148.848 16.5694C149.279 16.5694 149.631 16.49 149.905 16.3708C150.178 16.2119 150.413 16.0132 150.57 15.6954C150.726 15.3776 150.843 14.9803 150.922 14.4638C151 13.9474 151 13.3514 151 12.6363V11.0472C151 10.3718 150.961 9.77589 150.922 9.25942C150.843 8.74295 150.765 8.30593 150.609 7.98811C150.452 7.67028 150.218 7.39218 149.944 7.23327C149.67 7.03463 149.279 6.95517 148.848 6.95517Z" fill="white"/>
<path d="M161.795 13.8281H160.934V19.2709H157.179V7.11399H156.24V4.33301H162.616C163.242 4.33301 163.946 4.37274 164.65 4.45219C165.393 4.53165 166.058 4.73029 166.645 5.00839C167.271 5.28649 167.74 5.68377 168.171 6.23997C168.562 6.75644 168.757 7.47155 168.757 8.34557V10.0539C168.757 10.5306 168.679 10.9676 168.523 11.3649C168.366 11.7225 168.171 12.0403 167.897 12.3184C167.623 12.5965 167.31 12.8349 166.958 12.9938C166.606 13.1924 166.254 13.3513 165.863 13.4705L167.623 15.8145C168.053 16.4104 168.444 16.8077 168.757 17.0064C169.07 17.205 169.344 17.3242 169.54 17.4036L168.092 19.4695C167.936 19.5092 167.74 19.549 167.545 19.549C167.388 19.549 167.193 19.549 166.958 19.5092C166.723 19.4695 166.489 19.3901 166.215 19.2709C165.941 19.1517 165.667 18.9531 165.393 18.675C165.12 18.4366 164.807 18.079 164.494 17.642L161.795 13.8281ZM164.846 9.25933C164.846 8.62367 164.689 8.1072 164.337 7.70992C163.985 7.31264 163.516 7.11399 162.929 7.11399H160.934V11.2855H162.89C163.125 11.2855 163.359 11.2457 163.594 11.1663C163.829 11.0868 164.024 10.9676 164.22 10.769C164.416 10.6101 164.572 10.3717 164.689 10.1334C164.807 9.89498 164.846 9.57715 164.846 9.25933Z" fill="white"/>
<path d="M176.543 7.114V4.33301H180.728L183.388 8.9415L186.361 4.33301H190.351V7.114H188.591L185.422 12.4376V16.4502H186.361V19.2312H180.533V16.4502H181.472V12.4773L178.381 7.114H176.543Z" fill="white"/>
<path d="M197.743 4.09473C198.173 4.09473 198.643 4.09473 199.112 4.13446C199.581 4.17418 200.051 4.25364 200.52 4.37283C200.99 4.49201 201.42 4.69065 201.85 4.96875C202.28 5.20712 202.633 5.56468 202.985 6.00169C203.337 6.4387 203.571 6.95517 203.767 7.59082C203.962 8.22648 204.041 8.98132 204.041 9.85534V13.272C204.041 14.6227 203.845 15.6954 203.493 16.5297C203.141 17.3243 202.672 17.9599 202.085 18.3969C201.498 18.834 200.833 19.1121 200.09 19.271C199.347 19.4299 198.525 19.4696 197.743 19.4696C196.922 19.4696 196.139 19.3902 195.396 19.2312C194.653 19.0723 193.949 18.7942 193.401 18.3572C192.814 17.9202 192.345 17.2846 191.993 16.49C191.641 15.6954 191.445 14.583 191.445 13.272V9.85534C191.445 8.98132 191.524 8.22648 191.719 7.59082C191.915 6.95517 192.189 6.4387 192.501 6.00169C192.814 5.56468 193.206 5.24685 193.636 4.96875C194.066 4.73038 194.496 4.53174 194.966 4.37283C195.435 4.25364 195.905 4.17418 196.374 4.13446C196.882 4.13446 197.313 4.09473 197.743 4.09473ZM197.743 6.95517C197.313 6.95517 196.922 7.03463 196.648 7.23327C196.374 7.39218 196.139 7.67028 195.983 7.98811C195.826 8.30593 195.709 8.74295 195.67 9.25942C195.592 9.77589 195.592 10.3718 195.592 11.0472V12.6363C195.592 13.3514 195.631 13.9474 195.67 14.4638C195.748 14.9803 195.826 15.3776 195.983 15.6954C196.139 16.0132 196.374 16.2516 196.648 16.3708C196.922 16.5297 197.313 16.5694 197.743 16.5694C198.173 16.5694 198.525 16.49 198.799 16.3708C199.073 16.2119 199.308 16.0132 199.464 15.6954C199.621 15.3776 199.738 14.9803 199.816 14.4638C199.894 13.9474 199.894 13.3514 199.894 12.6363V11.0472C199.894 10.3718 199.855 9.77589 199.816 9.25942C199.738 8.74295 199.66 8.30593 199.503 7.98811C199.347 7.67028 199.112 7.39218 198.838 7.23327C198.564 7.03463 198.212 6.95517 197.743 6.95517Z" fill="white"/>
<path d="M217.966 13.7488C217.966 14.6228 217.849 15.3777 217.653 16.0133C217.458 16.649 217.184 17.1655 216.871 17.6025C216.558 18.0395 216.167 18.3573 215.737 18.6354C215.306 18.8738 214.837 19.0724 214.407 19.1916C213.937 19.3108 213.507 19.3902 213.038 19.43C212.568 19.4697 212.177 19.5094 211.786 19.5094C211.395 19.5094 211.003 19.4697 210.534 19.43C210.104 19.3902 209.634 19.3108 209.165 19.1916C208.696 19.0724 208.265 18.8738 207.835 18.6354C207.405 18.397 207.014 18.0395 206.701 17.6025C206.388 17.1655 206.114 16.649 205.918 16.0133C205.723 15.3777 205.605 14.6228 205.605 13.7488V4.29346H209.556V12.9145C209.556 13.7885 209.634 14.4639 209.791 14.9407C209.947 15.4174 210.104 15.8147 210.339 16.0531C210.573 16.2914 210.808 16.4503 211.082 16.5298C211.356 16.6093 211.59 16.6093 211.825 16.6093C212.06 16.6093 212.294 16.5695 212.568 16.5298C212.842 16.4503 213.077 16.3312 213.311 16.0531C213.546 15.8147 213.703 15.4571 213.859 14.9407C214.015 14.4639 214.094 13.7885 214.094 12.9542V4.29346H217.966V13.7488Z" fill="white"/>
<g opacity="0.8">
<path d="M54.8901 35.8013C56.6566 35.8013 57.951 34.7474 58.1313 33.1852H56.7839C56.5983 34.0519 55.8609 34.603 54.8901 34.603C53.5851 34.603 52.7735 33.5062 52.7735 31.7461C52.7735 29.9914 53.5851 28.8947 54.8848 28.8947C55.8503 28.8947 56.5876 29.4992 56.7786 30.4301H58.126C57.9669 28.8305 56.6248 27.6963 54.8848 27.6963C52.7152 27.6963 51.373 29.2424 51.373 31.7515C51.373 34.2499 52.7205 35.8013 54.8901 35.8013Z" fill="white"/>
<path d="M64.7146 34.4478H61.1285V32.2383H64.5183V31.1416H61.1285V29.0498H64.7146V27.8889H59.7599V35.6087H64.7146V34.4478Z" fill="white"/>
<path d="M69.7913 35.6087C71.4251 35.6087 72.4224 34.7742 72.4224 33.4153C72.4224 32.4095 71.7116 31.6605 70.6825 31.5642V31.4679C71.4517 31.3449 72.0458 30.628 72.0458 29.8148C72.0458 28.6272 71.1705 27.8889 69.717 27.8889H66.5182V35.6087H69.7913ZM67.8868 28.9642H69.3828C70.2103 28.9642 70.6931 29.3654 70.6931 30.0556C70.6931 30.7618 70.1785 31.1416 69.2077 31.1416H67.8868V28.9642ZM67.8868 34.5334V32.1206H69.4252C70.4703 32.1206 71.022 32.5326 71.022 33.319C71.022 34.1108 70.4862 34.5334 69.4783 34.5334H67.8868Z" fill="white"/>
<path d="M78.9738 34.4478H75.3878V32.2383H78.7776V31.1416H75.3878V29.0498H78.9738V27.8889H74.0192V35.6087H78.9738V34.4478Z" fill="white"/>
<path d="M80.7775 27.8889V35.6087H82.1461V33.0569H83.8065C85.3555 33.0569 86.4377 32.0136 86.4377 30.4889C86.4377 28.9375 85.3926 27.8889 83.8648 27.8889H80.7775ZM82.1461 29.0177H83.5041C84.4908 29.0177 85.0478 29.5313 85.0478 30.4889C85.0478 31.4198 84.4749 31.9441 83.4988 31.9441H82.1461V29.0177Z" fill="white"/>
<path d="M91.4136 35.6087H96.7236V37.1334H97.9703V34.4425H97.0154V27.8889H91.7637L91.4931 32.4309C91.4295 33.4634 91.2544 34.1001 90.7133 34.4425H90.1669V37.1334H91.4136V35.6087ZM92.7557 32.5165L92.9732 29.0498H95.6468V34.4425H92.2517V34.3622C92.5912 33.9503 92.7026 33.3671 92.7557 32.5165Z" fill="white"/>
<path d="M105.477 35.6087V27.8889H100.373L100.129 32.5379C100.071 33.6239 99.88 34.4318 99.0737 34.4318C98.9517 34.4318 98.8084 34.4104 98.7395 34.3943V35.6034C98.8403 35.6355 99.0259 35.6676 99.2434 35.6676C100.745 35.6676 101.286 34.5013 101.397 32.6182L101.604 29.0498H104.113V35.6087H105.477Z" fill="white"/>
<path d="M110.447 32.7573H111.667V35.6087H113.025V27.8889H110.017C108.41 27.8889 107.354 28.884 107.354 30.3391C107.354 31.4465 108.044 32.2811 109.063 32.57L106.983 35.6087H108.521L110.447 32.7573ZM111.667 31.6766H110.251C109.307 31.6766 108.755 31.1898 108.755 30.3445C108.755 29.5045 109.307 29.0124 110.251 29.0124H111.667V31.6766Z" fill="white"/>
<path d="M121.195 35.6087C122.828 35.6087 123.826 34.7742 123.826 33.4153C123.826 32.4095 123.115 31.6605 122.086 31.5642V31.4679C122.855 31.3449 123.449 30.628 123.449 29.8148C123.449 28.6272 122.574 27.8889 121.12 27.8889H117.922V35.6087H121.195ZM119.29 28.9642H120.786C121.614 28.9642 122.096 29.3654 122.096 30.0556C122.096 30.7618 121.582 31.1416 120.611 31.1416H119.29V28.9642ZM119.29 34.5334V32.1206H120.829C121.874 32.1206 122.425 32.5326 122.425 33.319C122.425 34.1108 121.89 34.5334 120.882 34.5334H119.29Z" fill="white"/>
<path d="M130.266 35.6087H131.735L129.014 27.8889H127.475L124.759 35.6087H126.144L126.802 33.6132H129.619L130.266 35.6087ZM128.17 29.3387H128.261L129.3 32.5486H127.12L128.17 29.3387Z" fill="white"/>
<path d="M135.99 35.8013C137.756 35.8013 139.051 34.7474 139.231 33.1852H137.883C137.698 34.0519 136.96 34.603 135.99 34.603C134.685 34.603 133.873 33.5062 133.873 31.7461C133.873 29.9914 134.685 28.8947 135.984 28.8947C136.95 28.8947 137.687 29.4992 137.878 30.4301H139.226C139.066 28.8305 137.724 27.6963 135.984 27.6963C133.815 27.6963 132.473 29.2424 132.473 31.7515C132.473 34.2499 133.82 35.8013 135.99 35.8013Z" fill="white"/>
</g>
</g>
<defs>
<clipPath id="clip0">
<rect width="220" height="42" fill="white"/>
</clipPath>
</defs>
</svg>
