<svg width="50" height="54" viewBox="0 0 50 54" fill="none" xmlns="http://www.w3.org/2000/svg">
<path d="M36.8 36.619L32.1 27.5714L27.2 25L19 31.6667L16.1 30.8095L12.1 36.5238L9.8 34.619L1 46.9048H5.2L4.2 46.3333L9.9 38.8095V43.4762L12 45.4762L10.3 47H34.3L32.3 44.1429L32.8 42.0476L26.3 37.2857L26 32.9048L27.8 36.619L34.5 41.1905V43.4762L38.8 47H49L40.3 35.2857L36.8 36.619ZM13.2 42.8095L9.9 36.3333V35.9524L12.5 38.0476V39.2857L18.5 42.9048H16L19.8 46.4286L13.2 42.8095ZM29.1 42.8095L21.8 40.3333L18.3 35.9524L16.1 36.7143L13.9 35.7619L16.6 31.5714L18.5 32.3333L22.5 38.7143L29.1 42.8095ZM30 32.5238L24.1 29.2857L27.2 26.5238L29.8 28.5238L31.8 28.7143L34.9 38.7143L30 32.5238ZM41 41.5714L38.7 41.6667L36 39.8571L35.5 35.9524L37 38.7143L39.8 36.8095L46.5 45.5714L41 41.5714Z" fill="#FB5352"/>
<path d="M3.73828 16.8467L14.2747 18.2305L10.7033 22.8816L15.3545 19.3103L16.7383 29.8467L18.1221 19.3103L22.7732 22.8816L19.2019 18.2305L29.7383 16.8467L19.2019 15.4629L22.7732 10.8117L18.1221 14.3831L16.7383 3.84668L15.3545 14.3831L10.7033 10.8117L14.2747 15.4629L3.73828 16.8467Z" fill="#FB5352"/>
<path d="M4.87035 21.7933L15.1579 19.1293L13.589 24.7796L16.5636 19.726L21.7936 28.9768L19.1297 18.6892L24.78 20.2582L19.7263 17.2836L28.9771 12.0535L18.6896 14.7175L20.2585 9.06718L17.2839 14.1208L12.0539 4.87002L14.7178 15.1576L9.06752 13.5886L14.1211 16.5632L4.87035 21.7933Z" fill="#FD9897"/>
</svg>
