<svg width="50" height="50" viewBox="0 0 50 50" fill="none" xmlns="http://www.w3.org/2000/svg">
<path d="M33.8675 17.1183C33.1171 16.4635 32.0379 16.4783 31.4187 16.6687C31.8243 16.1729 32.7691 15.7663 33.0475 15.717C33.2595 15.7961 33.8675 16.418 33.8675 17.1183ZM36.2635 14.4066C35.7699 11.7787 29.6347 13.5199 26.5451 12.4037C26.4859 13.1698 27.4963 14.3972 28.4627 14.8515C26.8107 16.2786 25.3275 19.154 25.0283 22.667C24.7299 19.154 23.2467 16.2786 21.5947 14.8515C22.5611 14.3972 23.5723 13.1698 23.5123 12.4037C20.4227 13.5199 14.2875 11.7787 13.7931 14.4066C13.6891 14.9627 13.9579 15.8102 14.2483 16.0538C14.3003 15.8776 14.5715 15.3011 15.4267 15.1718C19.7491 14.5217 23.3579 21.1529 20.1003 23.8341C20.0507 23.8748 20.0787 23.95 20.1459 23.95H29.9123C29.9787 23.95 30.0067 23.8748 29.9579 23.8341C26.6995 21.1529 30.3083 14.5217 34.6307 15.1718C35.4867 15.3011 35.7571 15.8776 35.8091 16.0538C36.0995 15.8102 36.3683 14.9627 36.2635 14.4066ZM37.3147 8.37534C37.2371 8.12704 39.7715 8.12077 39.7715 9.69986C39.7715 10.7581 38.2555 11.2594 38.2555 12.3575C38.2555 12.869 38.8083 13.2442 38.9779 13.2442C38.5875 11.481 40.2019 12.4037 40.6379 12.7335C39.7715 10.3625 41.7219 10.3774 41.5299 9.2902C41.3963 8.53043 39.7011 8.75993 39.0875 8.37534C37.9987 7.6931 36.7107 5.03858 35.8619 7.6931C37.4443 9.15548 36.5235 11.3079 34.5147 11.3079C34.5147 11.3079 34.5035 11.6236 34.5219 11.6487C36.9179 11.5319 37.7531 9.77897 37.3147 8.37534ZM9.36113 12.7335C9.79713 12.4037 11.4115 11.481 11.0219 13.2442C11.1907 13.2442 11.7435 12.869 11.7435 12.3575C11.7435 11.2594 10.2275 10.7581 10.2275 9.69986C10.2275 8.12077 12.7619 8.12704 12.6843 8.37534C12.2467 9.77897 13.0819 11.5319 15.4779 11.6487C15.4955 11.6236 15.4843 11.3079 15.4843 11.3079C13.4763 11.3079 12.5555 9.15548 14.1371 7.6931C13.2883 5.03858 12.0003 7.6931 10.9115 8.37534C10.2979 8.75993 8.60273 8.53043 8.46913 9.2902C8.27793 10.3774 10.2275 10.3625 9.36113 12.7335ZM16.1643 17.1183C16.9155 16.4635 17.9947 16.4783 18.6131 16.6687C18.2091 16.1729 17.2627 15.7663 16.9851 15.717C16.7731 15.7961 16.1643 16.418 16.1643 17.1183ZM26.1683 2.41851L24.9995 1L23.8307 2.41851L24.9995 3.91144L26.1683 2.41851ZM32.8403 6.70774L32.0091 5.69966L31.1787 6.70774L32.0091 7.6931L32.8403 6.70774ZM39.5819 35.8472L38.5283 34.7373L37.4747 35.8472L38.5283 36.8208L39.5819 35.8472ZM18.8211 6.70774L17.9899 5.69966L17.1595 6.70774L17.9899 7.6931L18.8211 6.70774ZM16.4403 11.6487H19.5403C22.1467 11.6487 23.3195 10.0562 23.6739 8.67533H26.3259C26.6803 10.0562 27.8523 11.6487 30.4595 11.6487H33.5595C33.5595 11.6487 34.1019 10.9163 34.2379 10.5536C34.7275 9.24869 34.1019 8.64008 33.1891 8.64008L32.0091 9.70456L30.8291 8.64008C29.9163 8.64008 29.2907 9.24869 29.7803 10.5536C29.8427 10.7205 29.9923 10.9656 30.1339 11.181C29.0339 11.0306 27.6299 10.281 27.3219 8.67533C27.3219 8.67533 28.1347 7.38997 28.3387 6.86988C29.0715 4.99941 28.1355 4.23493 26.7667 4.23493L24.9995 6.30279L23.2323 4.23493C21.8635 4.23493 20.9275 4.99941 21.6611 6.86988C21.8643 7.38997 22.6779 8.67533 22.6779 8.67533C22.3691 10.281 20.9651 11.0306 19.8651 11.181C20.0075 10.9656 20.1563 10.7205 20.2187 10.5536C20.7075 9.24869 20.0835 8.64008 19.1699 8.64008L17.9899 9.70456L16.8099 8.64008C15.8963 8.64008 15.2723 9.24869 15.7611 10.5536C15.8971 10.9163 16.4403 11.6487 16.4403 11.6487ZM48.4907 21.214C47.8923 21.5156 44.3819 23.1526 39.8851 22.5472C39.9323 22.3333 39.9707 22.1179 40.0035 21.9025C42.9963 21.5461 45.4291 21.0409 46.9795 20.1825C48.7467 19.2034 49.5195 16.8661 48.6275 15.1272C48.6043 15.0833 48.5403 15.0755 48.5083 15.1123C48.0195 15.6723 44.9459 19.0005 40.1035 20.0352C40.0907 19.7838 40.0683 19.5355 40.0347 19.2887C42.3867 17.9611 44.6827 16.4313 45.7763 15.0324C47.4291 12.9176 47.2771 10.22 45.7043 8.84452C45.6707 8.81475 45.6163 8.82337 45.5931 8.86019C45.0955 9.67714 40.4379 17.1708 35.3243 20.4057C35.2731 20.4386 35.2043 20.4809 35.1355 20.5224C34.9891 20.6109 34.9731 20.8005 35.0979 20.9133C35.6875 21.4451 36.0539 22.1853 36.0539 23.007C36.0539 24.4356 34.9475 25.6239 33.4851 25.8816C32.7419 26.0249 31.6691 25.9834 30.6387 25.6442C30.5923 25.6294 30.5443 25.6599 30.5443 25.7061V30.2311C30.5443 30.304 30.6555 30.322 30.6819 30.2523C31.3083 28.6003 33.1835 28.2494 34.0035 28.2494C34.2987 30.0149 34.8259 31.4773 35.5107 32.2645C36.6259 33.5436 38.4467 33.5256 39.2363 32.6413C39.2635 32.6107 39.2555 32.5629 39.2187 32.5426C38.7547 32.277 36.1003 30.6549 35.5691 27.9964C35.7787 27.9244 35.9835 27.8429 36.1795 27.7466C37.0363 29.158 38.2835 30.4152 39.2875 30.8953C40.9739 31.7005 42.5179 31.3089 43.2027 30.1301C43.2275 30.0886 43.1971 30.0369 43.1467 30.0322C42.1035 29.9491 38.9019 29.0358 37.5387 26.8105C37.6947 26.668 37.8475 26.5192 37.9899 26.3609C39.4163 27.4419 41.4331 28.3975 42.8771 28.5925C44.5667 28.8212 46.4811 28.2847 46.5275 26.3288C46.5283 26.2897 46.4931 26.2576 46.4515 26.2599C45.8507 26.2959 41.8739 26.4683 39.0403 24.8492C39.1387 24.6636 39.2299 24.474 39.3155 24.2806C39.3155 24.2806 43.5971 25.2879 45.6259 24.9542C47.6419 24.6229 48.8227 23.1268 48.5947 21.2657C48.5883 21.2195 48.5339 21.1921 48.4907 21.214ZM10.6835 24.2806C10.7691 24.474 10.8611 24.6636 10.9595 24.8492C8.12673 26.4675 4.15153 26.2967 3.54833 26.2599C3.50593 26.2576 3.47073 26.2912 3.47153 26.3296C3.51873 28.2847 5.43233 28.8212 7.12193 28.5925C8.56513 28.3975 10.5827 27.4419 12.0091 26.3609C12.1523 26.5192 12.3043 26.668 12.4603 26.8105C11.0963 29.0358 7.89553 29.9491 6.85233 30.0322C6.80193 30.0369 6.77233 30.0886 6.79633 30.1301C7.48113 31.3089 9.02513 31.7005 10.7123 30.8953C11.7155 30.4152 12.9627 29.158 13.8195 27.7466C14.0163 27.8429 14.2211 27.9244 14.4299 27.9964C13.8987 30.6549 11.2443 32.277 10.7803 32.5426C10.7443 32.5629 10.7355 32.6107 10.7627 32.6413C11.5523 33.5256 13.3739 33.5436 14.4891 32.2645C15.1739 31.4773 15.7003 30.0149 15.9955 28.2494C16.8163 28.2494 18.6907 28.6003 19.3171 30.2523C19.3443 30.322 19.4555 30.304 19.4555 30.2311V25.7061C19.4555 25.6599 19.4067 25.6294 19.3603 25.6442C18.3299 25.9834 17.2571 26.0249 16.5147 25.8816C15.0515 25.6239 13.9451 24.4356 13.9451 23.007C13.9451 22.1853 14.3123 21.4443 14.9011 20.9125C15.0267 20.8005 15.0099 20.6109 14.8643 20.5224C14.7947 20.4809 14.7259 20.4386 14.6739 20.4057C9.56353 17.1723 4.90833 9.68419 4.40673 8.86175C4.38353 8.82337 4.32753 8.81554 4.29313 8.8453C2.72273 10.2215 2.56993 12.9183 4.22273 15.0324C5.31633 16.4313 7.61233 17.9611 9.96353 19.2887C9.93073 19.5355 9.90753 19.7838 9.89553 20.0352C5.05713 19.0013 1.98593 15.6786 1.49234 15.1147C1.45954 15.0763 1.39394 15.0841 1.37154 15.128C0.481137 16.8676 1.25394 19.2034 3.01953 20.1825C4.56993 21.0409 7.00273 21.5461 9.99553 21.9025C10.0283 22.1179 10.0667 22.3333 10.1139 22.5472C5.62193 23.1519 2.11313 21.5187 1.50994 21.2148C1.46514 21.1921 1.41074 21.2203 1.40514 21.2673C1.17794 23.1284 2.35793 24.6229 4.37393 24.9542C6.40193 25.2879 10.6835 24.2806 10.6835 24.2806ZM38.5283 38.2503L36.9683 37.0284C36.3459 37.3973 35.8883 37.9832 35.7107 38.6701C34.7723 38.8009 32.2139 38.2354 32.4627 37.8602C35.2667 33.9344 33.1219 31.5972 30.5443 31.7272V34.3637C30.5443 35.2104 29.8019 35.8966 28.8875 35.8966H27.1075C25.8307 35.8966 24.9995 37.1741 24.9995 37.1741C24.9995 37.1741 24.1683 35.8966 22.8915 35.8966H21.1115C20.1963 35.8966 19.4555 35.2104 19.4555 34.3637V31.7272C16.8779 31.5972 14.7315 33.9344 17.5363 37.8602C17.7827 38.2315 15.1531 38.826 13.9195 38.6756C13.5947 38.3404 13.1259 38.1289 12.6011 38.1289C12.3699 38.1289 12.1499 38.1712 11.9475 38.2456C11.9475 38.2456 7.10033 33.6775 7.01153 33.6329L7.05153 33.5405C7.32753 33.0266 6.90513 32.4666 6.63793 32.5058C6.94833 32.1353 6.96273 30.5131 5.24113 30.1379C5.29153 30.4637 5.31713 31.1288 5.31713 31.1288C5.31713 31.1288 3.98833 30.4136 3.32113 31.0308C2.73473 31.7217 3.54833 32.9749 3.54833 32.9749C3.54833 32.9749 2.86833 32.9914 2.53313 32.9632C3.02593 34.6222 4.67873 34.5047 5.03633 34.1773C5.01313 34.4412 5.61073 34.8172 6.11713 34.5156L6.33953 34.4083C6.37873 34.4608 11.0995 38.9004 11.0995 38.9004C10.8827 39.2208 10.7795 39.614 10.8507 40.033C10.9627 40.6879 11.5107 41.2307 12.2107 41.3717C12.7051 41.4704 13.1699 41.3748 13.5427 41.1578L14.7923 42.3124C14.9035 42.4126 15.0539 42.4753 15.2219 42.4636C15.5275 42.4432 15.7563 42.1965 15.7331 41.9137C15.7235 41.786 15.6579 41.6764 15.5675 41.5933C15.5475 41.5714 14.2947 40.4137 14.2947 40.4137C15.3283 39.6923 17.2539 39.184 18.8523 39.184C19.1331 39.184 19.2651 38.9474 19.1683 38.7156C18.4443 36.9822 20.0011 35.7266 21.6115 36.7488C22.3139 37.1945 23.0275 38.0725 23.5651 39.5372C20.9227 40.174 17.6051 41.9286 16.9339 43.8437C16.6755 44.5831 17.5291 45.5912 18.5659 45.794C18.6051 45.8027 18.6427 45.7768 18.6499 45.74C19.1915 42.881 22.2803 40.7505 23.8875 40.3887C23.9683 40.6041 23.9419 40.5343 24.0227 40.749C22.2723 41.573 20.5747 43.3111 20.0899 45.3773C19.8675 46.3235 20.9275 47.1765 21.8027 47.4099C21.8467 47.4217 21.8899 47.3911 21.8923 47.3489C22.0587 44.7358 23.2179 42.5168 24.2563 41.5072C24.2843 41.7014 24.3059 41.9004 24.3203 42.1017C24.3203 42.1017 23.2571 45.0507 23.2571 47.2024C23.2571 48.2034 24.7515 48.9021 24.9723 49C25.2483 48.9021 26.7419 48.2034 26.7419 47.2024C26.7419 45.0507 25.6787 42.1017 25.6787 42.1017C25.6939 41.9004 25.7147 41.7014 25.7435 41.5072C26.7811 42.5168 27.9411 44.7351 28.1067 47.3481C28.1091 47.3904 28.1531 47.4217 28.1963 47.4099C29.0723 47.1765 30.1315 46.3235 29.9099 45.3773C29.4243 43.3111 27.7275 41.573 25.9771 40.749C26.0571 40.5343 26.0307 40.6041 26.1115 40.3887C27.7195 40.7505 30.8075 42.881 31.3491 45.74C31.3563 45.7768 31.3947 45.8027 31.4331 45.794C32.4691 45.5912 33.3243 44.5831 33.0643 43.8437C32.3947 41.9286 29.0763 40.174 26.4339 39.5372C26.9723 38.0725 27.6859 37.1945 28.3883 36.7488C29.9979 35.7266 31.5547 36.9822 30.8307 38.7156C30.7339 38.9474 30.8651 39.184 31.1467 39.184C32.9547 39.184 35.1819 39.8341 36.0635 40.7059C36.6267 41.5471 37.6675 42.0852 38.8419 41.9701C40.1763 41.8401 41.2643 40.8422 41.4147 39.6085C41.5459 38.5276 40.9843 37.5571 40.0891 37.0284L38.5283 38.2503ZM27.0299 30.376C27.5859 30.1708 28.4571 30.3369 28.4275 31.1358C28.4203 31.3167 28.6755 31.3167 28.6939 31.1319C28.8603 29.9358 28.0483 29.5912 27.1987 29.7314C27.0931 29.3202 27.0067 28.9606 26.9083 28.6042C26.8299 28.316 26.8011 27.7748 27.1363 27.7748C27.3171 27.7748 27.2443 28.2784 27.2275 28.4954C27.2123 28.6857 27.2811 28.8009 27.4363 28.8063C27.5331 28.8103 27.6539 28.6873 27.7259 28.6058C28.2123 28.0583 28.3251 27.2108 27.7555 26.8019C27.2787 26.4589 26.0851 26.7142 25.7571 27.203C25.7075 27.0189 25.4707 26.715 25.3571 26.5826C25.2467 26.4534 25.2179 26.3649 25.3707 26.2513C25.4427 26.1965 25.6603 25.9811 25.6603 25.7586C25.6603 25.627 25.5579 25.3842 25.2323 25.3842C24.9755 25.3842 24.6899 25.5612 24.6899 25.956C24.6899 26.0437 24.7115 26.1377 24.7683 26.2388C24.6059 26.2121 24.1651 26.2231 23.9387 26.2787L27.0691 34.8297C27.9651 34.3895 28.6219 33.6924 28.6219 32.9444C28.6219 32.3068 27.6787 32.5183 27.2203 33.0157C27.0731 32.2073 26.9419 31.4609 26.7987 30.7167C26.7595 30.5115 26.8643 30.4379 27.0299 30.376ZM22.6035 24.5672L23.2611 26.386C22.6979 26.5192 21.7923 26.928 21.7923 27.4693C21.7923 28.1899 23.0731 28.6591 23.8139 28.6027C23.7771 28.7672 23.8195 28.9136 23.9347 29.0476C23.6659 29.0476 23.1587 29.1721 22.9923 29.3507C22.5995 28.9865 21.9851 28.8541 21.6931 29.0758C21.3995 29.299 21.3907 29.6773 21.6971 30.105C21.9107 30.4011 21.9907 30.6933 21.7507 31.0363C22.6435 31.0363 22.3147 29.881 22.6643 29.881C22.6187 30.105 22.6467 30.3643 22.7483 30.6517C22.8155 30.8429 22.8155 30.9784 22.7003 31.1624C22.4123 31.6206 21.9643 32.6734 22.0251 33.6251C21.7323 33.6235 21.5835 33.5522 21.6867 33.1543C21.7251 33.0063 21.6331 32.9005 21.5115 33.083C21.3771 33.2843 21.3123 33.6282 21.3123 33.7754C21.3123 34.623 22.3267 34.7937 22.7139 34.6143C23.8339 35.6932 26.0339 35.4054 26.7707 35.0436L22.8971 24.4638C22.8179 24.2641 22.5339 24.3597 22.6035 24.5672ZM22.4691 33.282C22.3891 32.8465 22.9979 32.0679 23.7723 31.3167C23.6075 31.8063 23.7099 32.6499 24.0331 32.9405C23.4715 32.9405 22.8043 33.0454 22.4691 33.282Z" fill="url(#paint0_linear)"/>
<defs>
<linearGradient id="paint0_linear" x1="1" y1="1" x2="39.7104" y2="55.5877" gradientUnits="userSpaceOnUse">
<stop stop-color="#00D8F5"/>
<stop offset="1" stop-color="#00D689"/>
</linearGradient>
</defs>
</svg>
