<svg width="42" height="42" viewBox="0 0 42 42" fill="none" xmlns="http://www.w3.org/2000/svg">
<path d="M41.9003 17.4445C41.3805 17.1538 40.5282 17.0617 39.6602 17.1376C41.0305 16.6966 41.9492 15.7807 42 14.9568C41.2825 14.7727 40.5457 14.8648 39.9105 15.0021C40.5615 14.5449 41.6483 13.7195 41.5153 12.5144C40.8625 12.3609 39.7092 12.7728 39.207 12.9715C40.7785 12.1638 41.3473 10.2706 40.5125 9.18669C40.0278 9.44515 37.786 11.5371 37.4185 11.781C38.5735 10.5759 39.1073 9.70523 39.4258 8.89754C39.8107 7.99615 39.8265 6.45508 38.6208 5.93654C38.0537 7.12708 36.0658 10.164 34.9615 11.4305C34.8442 11.3238 34.7428 11.1865 34.594 11.172C34.3263 11.949 33.5405 12.9715 32.837 13.461C32.8037 13.3996 32.7198 13.2171 32.6025 13.0329C31.85 14.0555 29.8777 15.4754 29.2425 16.3445C28.7577 16.9858 28.7578 17.5657 29.4438 18.1763C29.7273 18.4202 30.2453 18.879 29.7938 19.5042C29.0413 20.496 27.4207 20.4346 26.9185 19.5962C27.972 19.488 28.2905 18.3136 27.6203 17.6255C27.4804 17.8564 27.2516 18.0303 26.9792 18.1126C26.7069 18.1949 26.4109 18.1796 26.1503 18.0697C25.8293 17.9591 25.5341 17.7929 25.2805 17.5802C26.1502 17.8258 26.8853 17.3525 26.7855 16.5738C26.0995 17.1069 25.4135 16.59 25.263 16.4511C24.829 15.9939 24.7118 15.4754 24.878 14.6806C25.0127 13.9941 25.7985 12.8956 26.3165 12.5451C26.4005 12.621 26.5178 12.7422 26.768 12.7276C26.9185 12.6969 27.153 12.5758 27.3367 12.5144C27.562 12.4542 27.798 12.4366 28.0308 12.4627C28.2635 12.4888 28.4882 12.558 28.6912 12.6662C29.2758 13.0022 29.2268 13.3689 29.2093 13.6274C30.1123 13.1702 29.8112 12.4078 28.6247 12.117C29.4262 12.117 30.0947 12.789 30.2627 12.8811C30.7142 13.1718 31.3495 13.1088 31.717 12.9408C32.4345 12.621 32.5868 11.8585 32.3855 11.7051C32.3495 11.8559 32.2621 11.9922 32.1361 12.0939C32.0102 12.1957 31.8523 12.2575 31.6855 12.2705C31.066 12.3302 30.4798 12.0863 30.0125 11.9038C29.543 11.7394 29.0446 11.6567 28.5425 11.6598C29.344 11.2479 30.597 11.2932 31.0485 11.9183C31.3163 11.7212 31.4842 11.5532 31.5507 11.1397C31.7852 10.0412 30.849 9.47585 29.8445 9.47585C29.862 9.21739 29.6608 9.08008 29.393 9.17216C29.393 9.06554 29.3597 8.97346 29.2932 8.92823C29.3282 8.92823 29.3597 8.91207 29.3772 8.91207C30.38 8.85069 31.3337 8.56154 31.8517 8.07208C32.7547 7.18846 31.3163 6.07385 31.8343 5.20316C32.319 5.40185 32.6882 5.64577 33.3742 5.73784C33.4408 5.86061 33.5072 6.13523 33.523 6.27092C33.74 7.24823 32.6708 7.41785 32.9543 8.45492C33.0715 8.91208 33.4565 9.08008 33.5895 9.64546C33.5895 9.64546 33.6403 10.0412 33.2728 10.3772C34.125 10.3934 34.594 9.72139 34.3263 9.09623C34.209 8.83777 33.908 8.59223 33.908 8.30146C34.342 8.83615 34.7445 8.82162 35.4305 8.62292C35.7455 8.53085 35.7805 8.92823 35.5793 9.24807C35.7472 9.16296 35.8891 9.03994 35.9916 8.89051C36.0941 8.74107 36.154 8.57009 36.1655 8.39354C36.1655 7.95092 35.798 7.73769 35.4305 7.82815C35.2292 7.84431 34.811 8.10277 34.7935 7.73769C34.7095 7.11092 35.7962 7.12707 35.581 6.11907C35.4463 5.61669 34.8442 5.34046 33.8747 5.23385C33.775 5.14339 33.5405 4.94308 33.4058 4.76216C32.8703 3.96739 32.3207 3.75416 32.0022 3.92216C31.6172 4.10469 31.416 4.25815 31.0993 4.41C30.8472 4.53277 30.5813 4.59415 30.4133 4.77669C29.995 5.25 30.3957 5.98177 30.6145 6.44054C30.7475 6.699 31.0992 7.29508 30.947 7.75223C30.7807 8.28531 29.7938 8.63746 29.2093 8.74407C29.1743 8.74407 29.1427 8.76023 29.1095 8.76023V8.547C29.2757 8.27238 29.4263 7.93639 29.5435 7.64562C29.946 6.66831 29.3598 6.27254 28.4743 6.09C28.4217 6.0553 28.3608 6.03292 28.2968 6.02476C28.2327 6.01659 28.1675 6.02291 28.1068 6.04316H28.0892L28.0718 6.21116L27.9562 6.18046L27.9738 5.98177H27.9213C27.9681 5.94693 28.0058 5.90291 28.0319 5.85289C28.0579 5.80286 28.0715 5.74811 28.0718 5.69261C28.0724 5.5934 28.0373 5.4968 27.972 5.418H28.0892L28.0385 5.37277C27.9936 5.31739 27.9432 5.26601 27.888 5.21931C27.862 5.19451 27.8449 5.16293 27.839 5.12884C27.8723 5.14338 27.888 5.17408 27.9388 5.18862C27.9895 5.23546 28.0717 5.28069 28.0892 5.32592L28.1558 5.37277V4.47139L28.0892 4.53277C28.0343 4.56216 27.9837 4.598 27.9388 4.63939C27.888 4.68623 27.8548 4.68623 27.839 4.70077C27.839 4.67008 27.8723 4.65554 27.888 4.60869C27.9503 4.57589 28.0022 4.52854 28.0385 4.47139L28.0892 4.41161H27.1022L27.153 4.47139C27.202 4.50369 27.2528 4.56346 27.3035 4.60869C27.321 4.65554 27.3525 4.68462 27.37 4.70077C27.335 4.68462 27.286 4.68462 27.2703 4.63939C27.1863 4.59416 27.1355 4.54892 27.0848 4.53277L27.0358 4.47139V5.37277L27.0848 5.32592C27.1373 5.28069 27.1863 5.23546 27.2703 5.18862C27.3058 5.17225 27.3393 5.15219 27.37 5.12884C27.3516 5.16122 27.3293 5.19157 27.3035 5.21931C27.2528 5.28069 27.202 5.32592 27.153 5.37277L27.1022 5.418H27.2528C27.1688 5.47938 27.153 5.56984 27.153 5.69261C27.1518 5.74698 27.1631 5.80097 27.186 5.85106C27.2089 5.90116 27.243 5.94624 27.286 5.98338H27.2685L27.286 6.18046L27.153 6.21277L27.1355 6.04316H27.118C27.0572 6.02291 26.992 6.01659 26.928 6.02476C26.864 6.03292 26.8031 6.0553 26.7505 6.09C25.865 6.28708 25.263 6.68446 25.6655 7.64562C25.7985 7.93639 25.9315 8.27077 26.1152 8.547V8.68431C25.2297 8.42585 23.625 7.52446 23.1892 6.98815C23.156 6.92838 23.107 6.88315 23.0895 6.85246L23.107 6.27092C23.408 5.79923 23.6915 5.21931 23.9085 4.68462C24.4772 3.29539 23.6425 2.71707 22.3213 2.47154C22.2454 2.42621 22.1594 2.3973 22.0697 2.38695C21.98 2.3766 21.8889 2.38509 21.8032 2.41177L21.7508 2.625L21.469 2.60885L21.4865 2.31969C21.434 2.33585 21.385 2.33584 21.3343 2.33584C21.4313 2.28171 21.5116 2.20541 21.5674 2.1143C21.6231 2.02319 21.6526 1.92035 21.6528 1.81569C21.6523 1.73266 21.6309 1.65087 21.5902 1.57682C21.5495 1.50278 21.4906 1.43855 21.4182 1.38923H21.6528C21.518 1.28262 21.301 1.05323 21.2503 0.899768C21.4183 0.946614 21.6685 1.15823 21.7858 1.26646V0.12277C21.6685 0.213231 21.4183 0.442617 21.2503 0.457155C21.301 0.336002 21.518 0.106615 21.6528 0H20.398C20.4977 0.106615 20.748 0.319848 20.7655 0.457155C20.615 0.428078 20.3805 0.214846 20.2475 0.12277V1.26646C20.3822 1.15985 20.615 0.946614 20.7655 0.899768C20.7323 1.05323 20.4977 1.28262 20.398 1.38923H20.615C20.4645 1.47969 20.398 1.66385 20.398 1.81569C20.398 2.04508 20.5153 2.24377 20.7148 2.33584C20.6658 2.33584 20.615 2.33585 20.5485 2.31969L20.566 2.61046L20.2808 2.625L20.2632 2.41177C20.1762 2.37853 20.0814 2.36658 19.9879 2.37705C19.8944 2.38751 19.8054 2.42006 19.7295 2.47154C18.424 2.70092 17.5892 3.29539 18.158 4.68462C18.3417 5.21931 18.6252 5.79923 18.9595 6.27254V6.88316C18.9262 6.89931 18.9105 6.94454 18.8598 6.98977C18.4415 7.52285 16.8193 8.42423 15.9337 8.68431V8.547C16.1175 8.27238 16.268 7.93639 16.3852 7.64562C16.7877 6.66993 16.184 6.27254 15.2985 6.09C15.2459 6.0553 15.185 6.03292 15.121 6.02476C15.057 6.01659 14.9918 6.02291 14.931 6.04316H14.9135L14.896 6.21116L14.7805 6.18046L14.798 5.98338H14.7805C14.8535 5.90118 14.8948 5.79887 14.8978 5.69261C14.8978 5.57146 14.8628 5.47938 14.7963 5.418H14.9468C14.8419 5.33009 14.747 5.23267 14.6633 5.12723C14.7796 5.19646 14.886 5.27896 14.98 5.37277V4.47139C14.8899 4.56445 14.7826 4.6421 14.6633 4.70077C14.7333 4.58769 14.8435 4.50369 14.9468 4.41H13.9615C14.0525 4.50369 14.1522 4.59092 14.2117 4.70077C14.0903 4.64438 13.982 4.56643 13.8932 4.47139V5.37277C13.9866 5.27822 14.0938 5.19612 14.2117 5.12884C14.1466 5.23805 14.062 5.33635 13.9615 5.41961H14.0945C14.0293 5.49847 13.9942 5.59504 13.9948 5.69423C13.9948 5.79923 14.0438 5.92038 14.1453 5.98338H14.0945L14.112 6.18046L13.9772 6.21277L13.9598 6.04316H13.944C13.8832 6.02291 13.818 6.01659 13.754 6.02476C13.69 6.03292 13.6291 6.0553 13.5765 6.09C12.691 6.28708 12.089 6.68446 12.4898 7.64562C12.6228 7.93639 12.7575 8.27238 12.9413 8.547V8.76023C12.9063 8.76023 12.8573 8.74407 12.8398 8.74407C12.2553 8.63746 11.27 8.28692 11.102 7.75223C10.934 7.30961 11.2857 6.699 11.4362 6.44054C11.6532 5.98177 12.0383 5.25 11.6375 4.77669C11.4538 4.59415 11.186 4.53277 10.934 4.41C10.6173 4.25815 10.4335 4.10469 10.031 3.92216C9.716 3.75416 9.163 3.95285 8.6275 4.76216C8.51025 4.94469 8.26 5.14339 8.1585 5.23385C7.2065 5.34208 6.587 5.61669 6.454 6.11907C6.25275 7.12707 7.32375 7.11254 7.2555 7.73769C7.238 8.10439 6.8215 7.84431 6.62025 7.82977C6.23525 7.75223 5.86775 7.95092 5.86775 8.39515C5.86775 8.57607 6.0025 8.98961 6.454 9.24807C6.25275 8.92823 6.286 8.53085 6.6045 8.62292C7.28875 8.82162 7.67375 8.83615 8.127 8.30146C8.127 8.60838 7.84175 8.83615 7.707 9.09623C7.441 9.73754 7.875 10.3934 8.7605 10.3772C8.35975 10.0428 8.44375 9.64546 8.44375 9.64546C8.561 9.09623 8.94425 8.92823 9.079 8.45492C9.34675 7.41623 8.27575 7.24985 8.51025 6.27254C8.54525 6.13523 8.59425 5.87516 8.66075 5.73946C9.34675 5.66193 9.71425 5.40185 10.199 5.20316C10.7012 6.07546 9.2785 7.18846 10.1815 8.07369C10.6995 8.56154 11.6532 8.85231 12.656 8.91369C12.691 8.91369 12.7242 8.92823 12.74 8.92823C12.6735 8.97346 12.6402 9.06554 12.6402 9.17054C12.3725 9.08007 12.1712 9.219 12.2045 9.47746C11.1685 9.47746 10.2498 10.0428 10.4825 11.1413C10.549 11.5532 10.717 11.7212 11.0005 11.9183C11.4362 11.2932 12.6893 11.2479 13.5083 11.6598C13.0003 11.6552 12.4959 11.7379 12.0207 11.9038C11.5692 12.0863 10.9848 12.3318 10.3653 12.2705C10.1964 12.2579 10.0362 12.1965 9.90738 12.095C9.77855 11.9934 9.6877 11.857 9.64775 11.7051C9.4465 11.8585 9.59525 12.6372 10.3163 12.9425C10.6663 13.1088 11.3015 13.1702 11.753 12.8811C11.921 12.789 12.5895 12.117 13.3927 12.117C12.2203 12.3916 11.8878 13.1702 12.8065 13.629C12.7733 13.3544 12.7242 13.0022 13.3087 12.6662C13.643 12.4837 14.161 12.3771 14.6633 12.5144C14.847 12.5758 15.0815 12.6824 15.232 12.7276C15.4822 12.7438 15.617 12.6065 15.6835 12.5451C16.2015 12.8956 16.954 13.9941 17.1203 14.6806C17.304 15.4754 17.171 15.9939 16.7352 16.4511C16.6022 16.5884 15.9005 17.1085 15.2145 16.5738C15.1148 17.367 15.8498 17.8403 16.7195 17.5818C16.4616 17.7887 16.1675 17.9537 15.8497 18.0697C15.5893 18.1797 15.2935 18.1953 15.0211 18.1133C14.7488 18.0313 14.5198 17.8577 14.3797 17.6271C13.7095 18.3136 14.028 19.4896 15.0798 19.5962C14.5968 20.4362 12.957 20.496 12.222 19.5042C11.753 18.879 12.2885 18.4364 12.5562 18.1763C13.258 17.5818 13.258 16.9858 12.7575 16.3445C12.1223 15.4899 10.15 14.0716 9.3975 13.0329C9.30818 13.168 9.23484 13.3115 9.17875 13.461C8.46125 12.957 7.67375 11.9345 7.40775 11.172C7.273 11.2011 7.15575 11.3384 7.04025 11.4305C5.936 10.164 3.94625 7.12708 3.3775 5.93654C2.191 6.45508 2.20675 8.01231 2.57425 8.89754C2.89275 9.70523 3.444 10.5759 4.5815 11.781C4.214 11.5387 1.98975 9.44677 1.4875 9.18669C0.668497 10.2706 1.2215 12.1638 2.793 12.9715C2.30825 12.7745 1.12 12.3771 0.484751 12.5144C0.351751 13.7195 1.421 14.5449 2.0895 15.0021C1.4385 14.8648 0.70175 14.7727 0 14.9568C0.05075 15.7807 0.987001 16.7112 2.3065 17.1376C1.47175 17.0633 0.617748 17.1538 0.101498 17.4445C0.183748 18.2991 1.25475 19.0308 2.52525 19.215C1.67125 19.3055 0.920503 19.6415 0.518003 20.1148C0.987002 20.664 1.673 21.0921 2.72475 21.0759C2.44285 21.1727 2.18638 21.3236 1.97225 21.5185C1.95475 21.4878 1.90575 21.4733 1.85675 21.4733C1.83359 21.4882 1.81618 21.5096 1.80705 21.5343C1.79793 21.559 1.79756 21.5857 1.806 21.6106V21.6413C1.72281 21.6967 1.66334 21.7773 1.638 21.8691C1.53825 22.0064 1.4385 22.1437 1.38775 22.2826C1.40525 22.2972 1.4385 22.3117 1.45425 22.3278C1.43675 22.4038 1.45425 22.4958 1.5225 22.5718C1.47259 22.6238 1.43768 22.6866 1.421 22.7543L0.803249 22.5411C0.768249 23.0596 0.887248 23.4732 1.17075 23.7316C1.38775 23.961 1.63975 23.9303 1.57325 24.0062L2.24175 24.3729C2.37475 24.6023 2.60925 24.6023 2.7755 24.5409V24.5862C2.7755 24.8317 2.95925 25.0288 3.1955 25.1063C3.143 25.3034 3.2445 25.4262 3.5455 25.5166L6.05325 31.0574C5.9535 31.3158 6.05325 31.5452 6.27025 31.6373C6.2195 31.6987 6.1705 31.7601 6.1705 31.8958C6.27025 31.8198 6.42075 31.8053 6.48725 31.9878C6.538 32.1106 6.27025 32.5371 6.671 32.8278C6.64663 32.9571 6.67172 33.0902 6.74196 33.2042C6.8122 33.3183 6.92322 33.4062 7.056 33.453C7.056 33.5903 7.189 34.0184 7.2065 34.1702C7.0385 34.3996 6.62025 34.7518 6.671 35.1314C6.706 35.406 6.839 35.4981 7.0735 35.5595C6.9895 36.0473 7.2905 36.2767 7.742 36.2928C7.742 36.6579 8.127 36.7952 8.35975 36.8098C8.57675 36.9632 8.67825 37.0246 8.94425 37.1474C8.694 37.4058 8.862 37.758 9.31175 37.8646C9.36425 38.0165 9.47975 38.1392 9.73175 38.2006C9.79175 38.2835 9.88152 38.3442 9.98525 38.372C10.089 38.3998 10.2 38.3929 10.2987 38.3525C10.4002 38.3072 10.5665 38.0472 10.416 37.8339C10.5157 37.7112 10.4668 37.5125 10.3985 37.3752C10.5333 37.1328 10.416 36.8421 10.2165 36.75C10.234 36.6127 10.1657 36.414 10.115 36.2767C10.465 36.078 10.9025 35.8341 11.0512 35.7436C11.9052 35.1944 12.8573 34.6904 13.9615 34.629C14.245 34.6128 14.763 34.5967 15.0465 34.6128C15.4997 34.6597 16.1017 34.7808 16.4692 34.5224C16.569 34.4448 16.6355 34.3382 16.6198 34.2316C16.569 33.9877 16.2697 33.7583 16.1682 33.5305C16.1332 33.4692 16.1018 33.3625 16.051 33.2705C16.3141 33.3252 16.5891 33.3037 16.8385 33.2091C17.0205 33.1477 17.4895 32.8278 17.472 32.3545C17.1045 32.508 16.2015 32.7358 16.1017 31.8974C16.0002 31.164 16.7195 30.5388 17.8238 30.8135C18.5763 30.996 19.6788 32.4612 18.676 33.1025C18.1913 33.4078 17.4213 33.6969 17.521 34.5078C17.6779 34.3288 17.8819 34.1898 18.1135 34.1041C18.3451 34.0184 18.5966 33.9889 18.844 34.0184C18.0075 34.5838 17.3722 34.6435 16.5025 35.0716C15.75 35.4835 15.1813 36.1539 14.595 36.1701C14.1278 36.2008 13.8775 35.6968 14.329 35.3139C13.8775 35.2235 13.293 35.5449 13.125 35.9714C12.908 36.5675 13.0743 36.9794 13.475 37.2072C12.9238 37.4656 12.523 37.9858 12.7225 38.7192C12.908 39.3298 13.559 39.3298 13.3087 40.0922C13.482 40.0593 13.6415 39.9815 13.7685 39.8679C13.8956 39.7543 13.985 39.6097 14.0262 39.4509C14.0787 39.2215 14.1277 38.9776 14.245 38.871C14.2285 39.1691 14.3067 39.4652 14.4699 39.7229C14.6331 39.9805 14.8742 40.1886 15.1638 40.3216C15.6328 40.5348 16.3678 40.6108 16.9365 40.0761C17.171 40.6867 17.9568 41.1907 18.76 41.1745C19.1275 41.1745 19.4775 41.0388 19.7627 40.8854C19.964 41.328 20.4488 41.7868 20.9493 42C21.4515 41.7868 21.9538 41.3442 22.1533 40.8854C22.421 41.0388 22.7885 41.1762 23.156 41.1762C23.9435 41.1923 24.7625 40.6867 24.9795 40.0777C25.5482 40.6108 26.2832 40.5348 26.7522 40.32C27.0415 40.1871 27.2824 39.9793 27.4456 39.7219C27.6088 39.4646 27.6871 39.1688 27.671 38.871C27.804 38.9776 27.8547 39.2215 27.9055 39.4509C27.9877 39.7708 28.238 40.0002 28.6073 40.0922C28.357 39.3298 29.0255 39.3298 29.1917 38.7192C29.2813 38.4276 29.2568 38.1162 29.1223 37.8397C28.9879 37.5632 28.7523 37.3392 28.4568 37.2072C28.8418 36.9794 29.0255 36.5513 28.791 35.9714C28.6248 35.5449 28.0385 35.2235 27.587 35.3155C28.0227 35.6968 27.7882 36.1846 27.3193 36.1701C26.7348 36.1539 26.166 35.4835 25.4135 35.0716C24.5437 34.6435 23.9085 34.5821 23.0738 34.0184C23.6425 33.9715 24.0765 34.1395 24.3932 34.5062C24.4947 33.7131 23.7422 33.4078 23.24 33.1025C22.2372 32.4612 23.3415 30.996 24.1098 30.8135C25.1965 30.5388 25.9157 31.164 25.816 31.8958C25.6812 32.7358 24.8115 32.5225 24.4108 32.3545C24.4108 32.8278 24.878 33.1477 25.0793 33.2107C25.4077 33.3267 25.771 33.3267 26.0995 33.2107C26.082 33.3012 26.0645 33.3771 26.0645 33.4078C25.9998 34.125 25.564 34.2009 25.7145 34.4901C25.9158 34.7195 27.2545 34.6742 27.622 34.7356C28.2572 34.8115 28.791 35.0409 29.4105 35.1475C30.0947 35.2848 30.8315 35.2848 31.4493 35.5142C31.8343 35.6661 32.2857 35.9568 32.6707 36.1394C33.2552 36.2315 33.1713 36.4463 33.5387 36.4463C33.8748 36.4463 34.0078 36.1846 34.4417 36.078C34.7427 36.0166 35.0787 36.1248 35.3797 36.0328C35.5967 35.9875 35.6965 35.7743 35.8978 35.6661C36.1305 35.5288 36.4665 35.5288 36.6992 35.3462C36.8235 35.2606 36.8462 35.0845 36.8358 34.9618C37.303 34.6565 37.6355 34.23 37.8367 33.7438C37.8956 33.7337 37.949 33.7055 37.9884 33.6639C38.0278 33.6223 38.0508 33.5696 38.0537 33.5144V33.4692C38.1156 33.4302 38.1662 33.3779 38.2012 33.3168C38.2363 33.2557 38.2547 33.1877 38.255 33.1186C38.2535 33.0409 38.2349 32.9643 38.2003 32.8935C38.1657 32.8227 38.1158 32.7591 38.0537 32.7067V32.6598C38.0537 32.5694 38.003 32.508 37.954 32.4466C37.8581 31.9757 37.6181 31.54 37.2624 31.1911C36.9067 30.8421 36.4501 30.5945 35.9468 30.4775V30.4322H35.9292C35.9292 30.387 35.8978 30.3708 35.8628 30.3708C35.7298 30.2335 35.546 30.0348 35.5303 29.8975C35.6965 29.9428 35.9643 30.1883 36.1148 30.2788V29.0123C35.98 29.1044 35.6947 29.3483 35.5285 29.3935C35.546 29.2417 35.8138 28.9671 35.9468 28.8605H34.5415C34.6762 28.9671 34.944 29.2417 34.9615 29.3935C34.7935 29.3483 34.524 29.1028 34.3753 29.0123V30.2788C34.5083 30.1883 34.7935 29.9428 34.9598 29.8975C34.9423 30.051 34.6762 30.3256 34.5415 30.4306L34.594 30.4468C34.0746 30.5547 33.6004 30.7996 33.2291 31.1518C32.8578 31.504 32.6055 31.9483 32.5028 32.4305C32.4363 32.4918 32.3855 32.5532 32.3855 32.6453V32.6905C32.2682 32.8117 32.2017 32.9345 32.319 33.0718C32.319 33.2091 32.403 33.3302 32.5185 33.4223V33.4692C32.5185 33.6065 32.62 33.6824 32.7373 33.6969C32.7863 33.8197 32.837 33.9408 32.9035 34.0475L32.921 34.0329C32.837 34.3996 32.3523 34.6145 32.2508 34.6145C31.3985 34.7195 30.4465 34.3851 29.5768 34.0943C29.1918 33.957 28.6738 33.8035 28.4218 33.4692C28.2555 33.2236 28.189 33.0572 28.273 32.8424C28.4051 32.9799 28.5635 33.0938 28.7402 33.1784C28.7578 33.0718 28.7577 32.949 28.8067 32.8585C28.9171 33.0025 29.0661 33.1174 29.2392 33.1922C29.4122 33.267 29.6033 33.2989 29.7938 33.285C29.5435 33.0879 29.4263 32.5839 29.5435 32.1252C29.8778 32.6582 31.2148 32.7665 31.4493 31.8053C30.947 32.0185 30.646 31.7892 30.5463 31.5468C30.3958 31.164 30.8805 30.2335 30.4465 29.5002C30.0965 28.9509 29.694 28.6311 28.7735 28.4938C28.8446 28.3935 28.8851 28.2775 28.8907 28.1578C28.0385 28.4324 27.3035 28.2192 26.9518 27.5924C27.118 27.6699 27.3858 27.6845 27.6203 27.6845C26.8678 27.1191 26.9185 25.5328 27.454 24.7089C27.5205 24.6621 27.5538 24.6168 27.6203 24.6023C27.7883 24.9076 28.2887 24.9076 28.5407 25.1677C28.623 25.0756 28.6738 25.0595 28.7735 24.9835C28.7735 24.9835 28.791 26.2952 28.8907 26.8299C28.9747 27.4405 29.6257 27.3792 29.9443 27.6376C30.3293 27.2418 31.0153 27.2725 30.9138 26.6005C30.814 25.9285 30.6635 25.3341 30.646 24.8769C30.863 25.2888 31.2813 26.8154 31.4493 27.2564C31.7328 27.8977 32.4187 27.699 32.8037 27.9591C33.054 27.5019 33.6893 27.3792 33.439 26.6926C33.3725 26.5246 32.319 24.5102 32.1685 24.129C32.5535 24.6314 33.5562 26.4035 33.873 26.8913C34.2072 27.4082 34.86 27.1498 35.3115 27.2871C35.3955 26.922 36.0132 26.4794 35.5617 25.8381C35.0105 24.9819 33.6717 23.4877 33.6052 23.2728C33.873 23.5022 35.9293 25.8219 36.0798 25.9592C36.5645 26.3405 37.268 26.0513 37.6688 26.0513C37.6688 25.6232 38.0363 25.1354 37.5008 24.6459C37.0003 24.2195 35.8628 23.4877 35.6283 23.2276C36.3808 23.7009 37.268 24.4634 37.8018 24.5862C38.738 24.7994 39.074 24.4634 39.424 24.3277C39.1405 23.5329 39.5238 23.1808 37.534 22.4183C39.256 22.9837 40.0085 22.7091 40.628 22.2665C40.4982 21.9955 40.3118 21.7508 40.0794 21.5465C39.8469 21.3422 39.5731 21.1823 39.2735 21.0759C40.327 21.1066 41.0287 20.6785 41.4802 20.1148C41.0952 19.6415 40.327 19.3071 39.4415 19.2134C40.7452 19.0308 41.783 18.2991 41.9003 17.4445ZM13.1093 28.1868C13.1268 28.3403 13.1582 28.4324 13.2247 28.5228C12.306 28.6602 11.9052 28.9962 11.571 29.5308C11.102 30.2642 11.6043 31.1947 11.4695 31.5759C11.3698 31.8198 11.0687 32.0492 10.5665 31.8344C10.801 32.7972 12.1222 32.6905 12.474 32.1558C12.607 32.5985 12.474 33.117 12.2395 33.3157C12.6402 33.3464 12.992 33.1784 13.209 32.8876C13.258 32.9797 13.258 33.1025 13.2755 33.2091C13.4558 33.129 13.6157 33.0144 13.7445 32.8731C13.7778 32.9797 13.8267 33.2236 13.762 33.4385C13.5765 33.5435 13.377 33.6517 13.0917 33.789C12.607 34.0168 11.704 34.3382 11.1842 34.3996C10.7502 34.4755 10.0328 34.2462 9.8315 33.7115C9.6635 33.1945 9.19625 33.0249 8.82875 33.3464C8.72725 33.285 8.46125 33.2398 8.35975 33.3916C8.35975 33.3916 8.2425 33.1477 8.092 33.0249C8.19175 32.7665 8.127 32.445 7.8575 32.3384C7.82425 31.836 7.4725 31.836 7.357 31.6518C7.2905 31.5452 7.2905 31.4079 7.45675 31.3934C7.39025 31.2868 7.23975 31.2706 7.22225 31.2706C7.273 31.0574 7.189 30.7828 6.87225 30.6891L4.41875 26.0836L4.396 26.0804L4.29625 25.8672L4.291 25.8429L4.011 25.3179C4.1965 25.1354 4.09675 24.8898 3.8955 24.7994V24.7525C3.913 24.7073 3.913 24.6766 3.913 24.6459C3.9795 24.6298 4.07925 24.6152 4.16325 24.6007C4.732 24.4779 5.6175 23.7155 6.36825 23.2438C6.10225 23.5022 4.998 24.234 4.4975 24.6621C4.039 25.0659 4.221 25.4827 4.29275 25.8413L4.41875 26.0836C4.83875 26.1208 5.45825 26.334 5.9185 25.9899C6.0515 25.8672 8.1095 23.5329 8.393 23.3035C8.27575 23.5168 6.972 25.0126 6.3875 25.8672C5.9675 26.5085 6.6045 26.9511 6.671 27.3178C7.13825 27.1805 7.7735 27.4405 8.1095 26.9204C8.442 26.418 9.4465 24.6475 9.814 24.1581C9.681 24.5409 8.61 26.5392 8.5435 26.7233C8.29325 27.4098 8.9285 27.531 9.17875 27.9898C9.56375 27.7458 10.2638 27.9284 10.5333 27.2871C10.6995 26.8445 11.1178 25.3179 11.3348 24.906C11.3015 25.3486 11.1685 25.9592 11.0688 26.6312C10.9673 27.3032 11.6532 27.2871 12.0207 27.6683C12.3707 27.3937 13.0078 27.4712 13.1075 26.8606C13.2073 26.3259 13.2247 25.0126 13.2247 25.0126C13.3245 25.0902 13.3753 25.1047 13.475 25.1968C13.7095 24.9383 14.21 24.9383 14.378 24.6314C14.4445 24.6475 14.4778 24.6928 14.546 24.738C15.0798 25.5618 15.1305 27.1498 14.378 27.7152C14.595 27.7152 14.8802 27.6828 15.0465 27.6231C14.714 28.2482 13.9615 28.4776 13.1075 28.1885L13.1093 28.1868ZM16.8035 38.8096C16.219 38.8096 15.8008 38.4752 16.1017 38.0019C16.2523 38.2152 16.5532 38.3218 16.8193 38.3363C16.8035 38.5512 16.8035 38.6271 16.8035 38.8096ZM25.781 38.0019C26.0837 38.4736 25.6655 38.8096 25.081 38.8096C25.081 38.6271 25.081 38.5512 25.0285 38.3363C25.298 38.3218 25.6147 38.2297 25.781 38.0019ZM18.4257 35.7113C17.9742 36.2767 17.6225 36.6741 17.339 37.3752C16.821 37.3299 16.9207 36.75 17.0887 36.4592C17.4387 35.8793 18.8598 35.1168 19.5633 34.3528C19.2623 34.8422 18.8107 35.2848 18.4257 35.7113ZM19.964 36.75C19.6788 37.7871 19.4618 39.2991 19.5615 39.9856C18.5588 39.5123 19.1275 37.6805 19.5125 36.8873C20.048 35.7888 20.4313 34.4448 20.5485 33.5919C20.867 34.2316 20.181 36.0635 19.964 36.75ZM22.3055 39.9856C22.4052 39.2991 22.204 37.7887 21.903 36.75C21.7017 36.0635 21 34.23 21.3185 33.5903C21.4357 34.4465 21.819 35.7872 22.3545 36.8857C22.7395 37.6805 23.3082 39.5123 22.3055 39.9856ZM24.78 36.4592C24.9462 36.75 25.046 37.3299 24.528 37.3752C24.2445 36.6741 23.8927 36.2767 23.4587 35.7113C23.0562 35.2848 22.6222 34.8422 22.3037 34.3544C23.0072 35.1168 24.4282 35.8793 24.78 36.4592ZM24.5787 9.78115C24.01 9.85869 23.492 9.78116 23.0388 9.59862C23.275 9.91846 23.5585 10.164 24.01 10.3013C23.5253 10.8505 22.54 11.2011 21.5688 11.109C21.7025 11.2456 21.869 11.3513 22.055 11.4178C22.241 11.4843 22.4412 11.5096 22.6398 11.4918C21.7525 12.7728 21.0998 14.0862 20.951 15.6272C20.8162 14.1007 20.1635 12.7728 19.278 11.4918C19.4739 11.5095 19.6715 11.484 19.8547 11.4174C20.0378 11.3509 20.2012 11.2452 20.3315 11.109C19.3463 11.1865 18.41 10.8344 17.9078 10.3013C18.3593 10.164 18.6427 9.91846 18.8772 9.59862C18.4432 9.78116 17.9078 9.84254 17.339 9.78115C18.025 9.64385 19.0785 9.14146 19.1275 8.68269C18.9438 8.86685 17.5735 8.92662 16.7877 8.92662C18.1247 8.66816 19.4967 7.96546 20.1145 7.38554C20.6325 7.40169 21.2852 7.41623 21.8032 7.40169C22.4052 7.98162 23.7598 8.66816 25.1143 8.92662C24.3268 8.92662 22.9565 8.86685 22.7902 8.68431C22.8392 9.13984 23.8927 9.64385 24.5787 9.78277V9.78115Z" fill="#FB5352"/>
</svg>
