<svg width="124" height="24" viewBox="0 0 124 24" fill="none" xmlns="http://www.w3.org/2000/svg">
<path opacity="0.6" d="M0 9C0 8.44772 0.447715 8 1 8H3C3.55228 8 4 8.44772 4 9V23C4 23.5523 3.55228 24 3 24H1C0.447715 24 0 23.5523 0 23V9Z" fill="white"/>
<path opacity="0.6" d="M5 9C5 8.44772 5.44772 8 6 8H8C8.55228 8 9 8.44772 9 9V23C9 23.5523 8.55228 24 8 24H6C5.44772 24 5 23.5523 5 23V9Z" fill="white"/>
<path opacity="0.6" d="M10 9C10 8.44772 10.4477 8 11 8H13C13.5523 8 14 8.44772 14 9V23C14 23.5523 13.5523 24 13 24H11C10.4477 24 10 23.5523 10 23V9Z" fill="white"/>
<path opacity="0.4" d="M15 13C15 12.4477 15.4477 12 16 12H18C18.5523 12 19 12.4477 19 13V23C19 23.5523 18.5523 24 18 24H16C15.4477 24 15 23.5523 15 23V13Z" fill="white"/>
<path opacity="0.4" d="M20 13C20 12.4477 20.4477 12 21 12H23C23.5523 12 24 12.4477 24 13V23C24 23.5523 23.5523 24 23 24H21C20.4477 24 20 23.5523 20 23V13Z" fill="white"/>
<path opacity="0.8" d="M25 1C25 0.447716 25.4477 0 26 0H28C28.5523 0 29 0.447715 29 1V23C29 23.5523 28.5523 24 28 24H26C25.4477 24 25 23.5523 25 23V1Z" fill="white"/>
<path opacity="0.6" d="M30 9C30 8.44772 30.4477 8 31 8H33C33.5523 8 34 8.44772 34 9V23C34 23.5523 33.5523 24 33 24H31C30.4477 24 30 23.5523 30 23V9Z" fill="white"/>
<path opacity="0.4" d="M35 13C35 12.4477 35.4477 12 36 12H38C38.5523 12 39 12.4477 39 13V23C39 23.5523 38.5523 24 38 24H36C35.4477 24 35 23.5523 35 23V13Z" fill="white"/>
<path opacity="0.6" d="M40 9C40 8.44772 40.4477 8 41 8H43C43.5523 8 44 8.44772 44 9V23C44 23.5523 43.5523 24 43 24H41C40.4477 24 40 23.5523 40 23V9Z" fill="white"/>
<path opacity="0.4" d="M45 13C45 12.4477 45.4477 12 46 12H48C48.5523 12 49 12.4477 49 13V23C49 23.5523 48.5523 24 48 24H46C45.4477 24 45 23.5523 45 23V13Z" fill="white"/>
<path opacity="0.4" d="M50 13C50 12.4477 50.4477 12 51 12H53C53.5523 12 54 12.4477 54 13V23C54 23.5523 53.5523 24 53 24H51C50.4477 24 50 23.5523 50 23V13Z" fill="white"/>
<path opacity="0.4" d="M55 13C55 12.4477 55.4477 12 56 12H58C58.5523 12 59 12.4477 59 13V23C59 23.5523 58.5523 24 58 24H56C55.4477 24 55 23.5523 55 23V13Z" fill="white"/>
<path opacity="0.6" d="M60 9C60 8.44772 60.4477 8 61 8H63C63.5523 8 64 8.44772 64 9V23C64 23.5523 63.5523 24 63 24H61C60.4477 24 60 23.5523 60 23V9Z" fill="white"/>
<path opacity="0.8" d="M65 1C65 0.447716 65.4477 0 66 0H68C68.5523 0 69 0.447715 69 1V23C69 23.5523 68.5523 24 68 24H66C65.4477 24 65 23.5523 65 23V1Z" fill="white"/>
<path opacity="0.4" d="M70 13C70 12.4477 70.4477 12 71 12H73C73.5523 12 74 12.4477 74 13V23C74 23.5523 73.5523 24 73 24H71C70.4477 24 70 23.5523 70 23V13Z" fill="white"/>
<path opacity="0.4" d="M75 13C75 12.4477 75.4477 12 76 12H78C78.5523 12 79 12.4477 79 13V23C79 23.5523 78.5523 24 78 24H76C75.4477 24 75 23.5523 75 23V13Z" fill="white"/>
<path opacity="0.4" d="M80 13C80 12.4477 80.4477 12 81 12H83C83.5523 12 84 12.4477 84 13V23C84 23.5523 83.5523 24 83 24H81C80.4477 24 80 23.5523 80 23V13Z" fill="white"/>
<path opacity="0.4" d="M85 13C85 12.4477 85.4477 12 86 12H88C88.5523 12 89 12.4477 89 13V23C89 23.5523 88.5523 24 88 24H86C85.4477 24 85 23.5523 85 23V13Z" fill="white"/>
<path opacity="0.4" d="M90 13C90 12.4477 90.4477 12 91 12H93C93.5523 12 94 12.4477 94 13V23C94 23.5523 93.5523 24 93 24H91C90.4477 24 90 23.5523 90 23V13Z" fill="white"/>
<path opacity="0.4" d="M95 13C95 12.4477 95.4477 12 96 12H98C98.5523 12 99 12.4477 99 13V23C99 23.5523 98.5523 24 98 24H96C95.4477 24 95 23.5523 95 23V13Z" fill="white"/>
<path opacity="0.6" d="M100 9C100 8.44772 100.448 8 101 8H103C103.552 8 104 8.44772 104 9V23C104 23.5523 103.552 24 103 24H101C100.448 24 100 23.5523 100 23V9Z" fill="white"/>
<path opacity="0.6" d="M105 9C105 8.44772 105.448 8 106 8H108C108.552 8 109 8.44772 109 9V23C109 23.5523 108.552 24 108 24H106C105.448 24 105 23.5523 105 23V9Z" fill="white"/>
<path opacity="0.8" d="M110 1C110 0.447716 110.448 0 111 0H113C113.552 0 114 0.447715 114 1V23C114 23.5523 113.552 24 113 24H111C110.448 24 110 23.5523 110 23V1Z" fill="white"/>
<path opacity="0.4" d="M115 13C115 12.4477 115.448 12 116 12H118C118.552 12 119 12.4477 119 13V23C119 23.5523 118.552 24 118 24H116C115.448 24 115 23.5523 115 23V13Z" fill="white"/>
<path opacity="0.4" d="M120 13C120 12.4477 120.448 12 121 12H123C123.552 12 124 12.4477 124 13V23C124 23.5523 123.552 24 123 24H121C120.448 24 120 23.5523 120 23V13Z" fill="white"/>
</svg>
