<svg width="41" height="42" viewBox="0 0 41 42" fill="none" xmlns="http://www.w3.org/2000/svg">
<path d="M20.2991 12.1428C20.1348 12.1428 19.9378 12.0761 19.8392 11.9427L16.3904 8.47326C16.1277 8.20638 16.1277 7.7727 16.3904 7.50582C16.6532 7.23894 17.0802 7.23894 17.343 7.50582L20.2991 10.5082L23.2552 7.50582C23.518 7.23894 23.945 7.23894 24.2077 7.50582C24.4705 7.7727 24.4705 8.20638 24.2077 8.47326L20.7589 11.9427C20.6275 12.0761 20.4633 12.1428 20.2991 12.1428Z" fill="white"/>
<path d="M20.2991 7.57252C20.1348 7.57252 19.9378 7.5058 19.8392 7.37236L16.3904 3.90294C16.1277 3.63607 16.1277 3.20239 16.3904 2.93551C16.6532 2.66863 17.0802 2.66863 17.343 2.93551L20.2991 5.93789L23.2552 2.93551C23.518 2.66863 23.945 2.66863 24.2077 2.93551C24.4705 3.20239 24.4705 3.63607 24.2077 3.90294L20.7589 7.37236C20.6275 7.5058 20.4633 7.57252 20.2991 7.57252Z" fill="white"/>
<path d="M20.2995 6.50516C19.9382 6.50516 19.6426 6.20492 19.6426 5.83797V0.667196C19.6426 0.300238 19.9382 0 20.2995 0C20.6608 0 20.9564 0.300238 20.9564 0.667196V5.80461C20.9564 6.20492 20.6608 6.50516 20.2995 6.50516Z" fill="white"/>
<path d="M23.715 34.6941C23.5508 34.6941 23.3866 34.6274 23.2552 34.4939L20.2991 31.4916L17.343 34.4939C17.0802 34.7608 16.6532 34.7608 16.3904 34.4939C16.1277 34.2271 16.1277 33.7934 16.3904 33.5265L19.8064 30.0571C20.0692 29.7902 20.4961 29.7902 20.7589 30.0571L24.2077 33.5265C24.4705 33.7934 24.4705 34.2271 24.2077 34.4939C24.0763 34.6274 23.8793 34.6941 23.715 34.6941Z" fill="white"/>
<path d="M23.715 39.2644C23.5508 39.2644 23.3866 39.1977 23.2552 39.0643L20.2991 36.0619L17.343 39.0643C17.0802 39.3311 16.6532 39.3311 16.3904 39.0643C16.1277 38.7974 16.1277 38.3637 16.3904 38.0968L19.8064 34.6274C20.0692 34.3605 20.4961 34.3605 20.7589 34.6274L24.1749 38.0968C24.4376 38.3637 24.4376 38.7974 24.1749 39.0643C24.0763 39.1977 23.8793 39.2644 23.715 39.2644Z" fill="white"/>
<path d="M20.2995 42.0001C19.9382 42.0001 19.6426 41.6999 19.6426 41.3329V36.1955C19.6426 35.8286 19.9382 35.5283 20.2995 35.5283C20.6608 35.5283 20.9564 35.8286 20.9564 36.1955V41.3329C20.9564 41.6999 20.6608 42.0001 20.2995 42.0001Z" fill="white"/>
<path d="M13.9263 32.9596C13.565 32.9596 13.2694 32.6594 13.2694 32.2924V28.0224H9.06512C8.70381 28.0224 8.4082 27.7221 8.4082 27.3552C8.4082 26.9882 8.70381 26.688 9.06512 26.688H13.9263C14.2876 26.688 14.5832 26.9882 14.5832 27.3552V32.2591C14.5832 32.6594 14.2876 32.9596 13.9263 32.9596Z" fill="white"/>
<path d="M10.7407 36.1955C10.3794 36.1955 10.0838 35.8952 10.0838 35.5283V31.2582H5.87957C5.51827 31.2582 5.22266 30.958 5.22266 30.591C5.22266 30.2241 5.51827 29.9238 5.87957 29.9238H10.7079C11.0692 29.9238 11.3648 30.2241 11.3648 30.591V35.5283C11.3977 35.8952 11.102 36.1955 10.7407 36.1955Z" fill="white"/>
<path d="M6.40496 35.6617C6.24073 35.6617 6.0765 35.595 5.94512 35.4615C5.68236 35.1947 5.68236 34.761 5.94512 34.4941L9.5253 30.8579C9.78807 30.591 10.2151 30.591 10.4778 30.8579C10.7406 31.1248 10.7406 31.5584 10.4778 31.8253L6.89765 35.4615C6.76626 35.595 6.56919 35.6617 6.40496 35.6617Z" fill="white"/>
<path d="M33.0436 25.3867C32.8793 25.3867 32.7151 25.32 32.5837 25.1865L29.1678 21.7171C28.905 21.4502 28.905 21.0165 29.1678 20.7497L32.5837 17.2802C32.8465 17.0134 33.2735 17.0134 33.5363 17.2802C33.799 17.5471 33.799 17.9808 33.5363 18.2477L30.5801 21.2501L33.5363 24.2524C33.799 24.5193 33.799 24.953 33.5363 25.2199C33.4049 25.32 33.2078 25.3867 33.0436 25.3867Z" fill="white"/>
<path d="M37.5436 25.3867C37.3793 25.3867 37.2151 25.32 37.0837 25.1865L33.6678 21.7171C33.405 21.4502 33.405 21.0165 33.6678 20.7497L37.0837 17.2802C37.3465 17.0134 37.7735 17.0134 38.0363 17.2802C38.299 17.5471 38.299 17.9808 38.0363 18.2477L35.0801 21.2501L38.0363 24.2524C38.299 24.5193 38.299 24.953 38.0363 25.2199C37.9049 25.32 37.7406 25.3867 37.5436 25.3867Z" fill="white"/>
<path d="M40.2366 21.9174H35.1784C34.8171 21.9174 34.5215 21.6172 34.5215 21.2502C34.5215 20.8832 34.8171 20.583 35.1784 20.583H40.2366C40.5979 20.583 40.8936 20.8832 40.8936 21.2502C40.9264 21.5838 40.6308 21.9174 40.2366 21.9174Z" fill="white"/>
<path d="M31.8267 15.2453H26.9655C26.6042 15.2453 26.3086 14.945 26.3086 14.5781V9.64083C26.3086 9.27387 26.6042 8.97363 26.9655 8.97363C27.3268 8.97363 27.6224 9.27387 27.6224 9.64083V13.8775H31.7938C32.1551 13.8775 32.4507 14.1778 32.4507 14.5447C32.4836 14.945 32.188 15.2453 31.8267 15.2453Z" fill="white"/>
<path d="M35.0126 12.0094H30.1843C29.823 12.0094 29.5273 11.7092 29.5273 11.3422V6.40499C29.5273 6.03803 29.823 5.73779 30.1843 5.73779C30.5456 5.73779 30.8412 6.03803 30.8412 6.40499V10.6417H35.0126C35.3739 10.6417 35.6695 10.9419 35.6695 11.3089C35.6695 11.6758 35.3739 12.0094 35.0126 12.0094Z" fill="white"/>
<path d="M30.9069 11.2421C30.7427 11.2421 30.5785 11.1754 30.4471 11.0419C30.1843 10.7751 30.1843 10.3414 30.4471 10.0745L34.0273 6.47164C34.29 6.20476 34.717 6.20476 34.9798 6.47164C35.2426 6.73852 35.2426 7.1722 34.9798 7.43908L31.3996 11.0419C31.2682 11.1754 31.0711 11.2421 30.9069 11.2421Z" fill="white"/>
<path d="M27.4909 33.46C27.1296 33.46 26.834 33.1597 26.834 32.7928V27.8889C26.834 27.5219 27.1296 27.2217 27.4909 27.2217H32.3521C32.7134 27.2217 33.009 27.5219 33.009 27.8889C33.009 28.2558 32.7134 28.5561 32.3521 28.5561H28.1807V32.7928C28.1807 33.1597 27.885 33.46 27.4909 33.46Z" fill="white"/>
<path d="M30.6764 36.6958C30.3151 36.6958 30.0195 36.3956 30.0195 36.0286V31.1247C30.0195 30.7578 30.3151 30.4575 30.6764 30.4575H35.5048C35.8661 30.4575 36.1617 30.7578 36.1617 31.1247C36.1617 31.4917 35.8661 31.7919 35.5048 31.7919H31.3662V36.0286C31.3662 36.3956 31.0706 36.6958 30.6764 36.6958Z" fill="white"/>
<path d="M35.0125 36.1954C34.8483 36.1954 34.684 36.1287 34.5526 35.9952L30.9725 32.359C30.7097 32.0921 30.7097 31.6584 30.9725 31.3916C31.2352 31.1247 31.6622 31.1247 31.925 31.3916L35.5052 35.0278C35.7679 35.2947 35.7679 35.7283 35.5052 35.9952C35.3409 36.1287 35.1767 36.1954 35.0125 36.1954Z" fill="white"/>
<path d="M7.85027 25.3868C7.68605 25.3868 7.52182 25.3201 7.39043 25.1867C7.12767 24.9198 7.12767 24.4861 7.39043 24.2192L10.3466 21.2169L7.39043 18.2145C7.12767 17.9476 7.12767 17.5139 7.39043 17.247C7.6532 16.9802 8.08019 16.9802 8.34296 17.247L11.7589 20.7165C12.0217 20.9833 12.0217 21.417 11.7589 21.6839L8.31011 25.1867C8.17873 25.3201 8.0145 25.3868 7.85027 25.3868Z" fill="white"/>
<path d="M3.35027 25.3868C3.18605 25.3868 3.02182 25.3201 2.89043 25.1867C2.62767 24.9198 2.62767 24.4861 2.89043 24.2192L5.84655 21.2169L2.89043 18.2145C2.62767 17.9476 2.62767 17.5139 2.89043 17.247C3.1532 16.9802 3.58019 16.9802 3.84296 17.247L7.25891 20.7165C7.52168 20.9833 7.52168 21.417 7.25891 21.6839L3.81011 25.1867C3.67873 25.3201 3.5145 25.3868 3.35027 25.3868Z" fill="white"/>
<path d="M5.71515 21.9174H0.656914C0.295611 21.9174 0 21.6172 0 21.2502C0 20.8832 0.295611 20.583 0.656914 20.583H5.71515C6.07646 20.583 6.37207 20.8832 6.37207 21.2502C6.37207 21.5838 6.07646 21.9174 5.71515 21.9174Z" fill="white"/>
<path d="M13.8599 14.9787H8.99871C8.63741 14.9787 8.3418 14.6784 8.3418 14.3115C8.3418 13.9445 8.63741 13.6443 8.99871 13.6443H13.1701V9.37423C13.1701 9.00727 13.4657 8.70703 13.827 8.70703C14.1883 8.70703 14.4839 9.00727 14.4839 9.37423V14.3115C14.5168 14.6784 14.2212 14.9787 13.8599 14.9787Z" fill="white"/>
<path d="M10.6415 11.7428H5.81316C5.45186 11.7428 5.15625 11.4426 5.15625 11.0756C5.15625 10.7087 5.45186 10.4084 5.81316 10.4084H9.98457V6.13839C9.98457 5.77143 10.2802 5.47119 10.6415 5.47119C11.0028 5.47119 11.2984 5.77143 11.2984 6.13839V11.0423C11.3312 11.4426 11.0356 11.7428 10.6415 11.7428Z" fill="white"/>
<path d="M9.91838 10.9756C9.75415 10.9756 9.58992 10.9089 9.45854 10.7755L5.84551 7.13927C5.58275 6.87239 5.58275 6.43872 5.84551 6.17184C6.10828 5.90496 6.53527 5.90496 6.79804 6.17184L10.3782 9.84142C10.641 10.1083 10.641 10.542 10.3782 10.8089C10.2468 10.9089 10.0826 10.9756 9.91838 10.9756Z" fill="white"/>
<path d="M16.8499 30.5244C16.7514 30.5244 16.6857 30.4911 16.5871 30.4577C16.3244 30.3576 16.1602 30.0908 16.1602 29.7905L16.3901 25.0868L11.7588 25.3203C11.4632 25.3203 11.2004 25.1535 11.1019 24.8866C11.0034 24.6198 11.0691 24.3195 11.2661 24.1194L14.7149 20.9502L11.299 17.8477C11.1019 17.6476 11.0362 17.3473 11.1348 17.0804C11.2333 16.8136 11.4961 16.6468 11.7917 16.6468L16.4229 16.8803L16.193 12.1766C16.193 11.8763 16.3572 11.6094 16.62 11.5094C16.8828 11.4093 17.1784 11.476 17.3754 11.6762L20.4958 15.1789L23.6161 11.6762C23.8132 11.476 24.1088 11.4093 24.3716 11.5094C24.6343 11.6094 24.7986 11.8763 24.7986 12.1766L24.503 16.9136L29.1342 16.6801C29.4298 16.6468 29.6597 16.8469 29.7911 17.1138C29.8897 17.3807 29.824 17.6809 29.6269 17.8811L26.1781 21.0503L29.6269 24.2194C29.824 24.4196 29.8897 24.7198 29.7911 24.9867C29.6926 25.2536 29.4298 25.4204 29.1342 25.4204L24.503 25.1202L24.7329 29.8239C24.7329 30.1241 24.5687 30.391 24.3059 30.4911C24.0431 30.5912 23.7475 30.5244 23.5504 30.3243L20.4301 26.8215L17.3098 30.3243C17.2112 30.4577 17.0141 30.5244 16.8499 30.5244ZM20.4629 25.1202C20.66 25.1202 20.8242 25.1869 20.9556 25.3537L23.3205 27.9891L23.1234 24.4196C23.1234 24.2194 23.1891 24.0526 23.3205 23.9192C23.4519 23.7858 23.649 23.719 23.8132 23.719L27.3277 23.8858L24.7 21.5173C24.5687 21.3839 24.503 21.1837 24.503 21.0169C24.503 20.8167 24.5687 20.6499 24.7329 20.5165L27.3277 18.148L23.8132 18.3148C23.6161 18.3148 23.4519 18.248 23.3205 18.1146C23.1891 17.9812 23.1234 17.781 23.1234 17.6142L23.3205 14.0447L20.9556 16.6801C20.8242 16.8136 20.66 16.9136 20.4629 16.9136C20.2659 16.9136 20.1016 16.8469 19.9703 16.6801L17.6054 14.0447L17.7696 17.6142C17.7696 17.8144 17.7039 17.9812 17.5725 18.1146C17.4411 18.248 17.2769 18.3148 17.0798 18.3148L13.5653 18.148L16.1602 20.5165C16.2915 20.6499 16.3901 20.8167 16.3901 21.0169C16.3901 21.2171 16.3244 21.3839 16.1602 21.5173L13.5653 23.9192L17.0798 23.7524C17.2769 23.7524 17.4411 23.8191 17.5725 23.9526C17.7039 24.086 17.7696 24.2862 17.7696 24.453L17.6054 27.9891L19.9374 25.3537C20.0688 25.1869 20.2659 25.1202 20.4629 25.1202Z" fill="white"/>
</svg>
