<svg width="16" height="15" viewBox="0 0 16 15" fill="none" xmlns="http://www.w3.org/2000/svg">
<path d="M7.49459 4.23801C8.60489 1.63795 11.0918 0.43684 15.1332 1.40492L15.6994 1.54054L15.6062 2.13412C15.122 5.21928 13.6624 7.0478 11.5499 7.78583C10.3561 8.20287 9.10545 8.22776 7.94349 8.02378L8.15985 8.05834L8.16096 8.1897C8.16309 8.20452 8.16518 8.21936 8.16722 8.2342C8.16012 8.46562 8.16674 9.15698 8.16012 9.42972L8.15985 9.93063L8.16012 13.2862C8.16012 13.6411 7.88201 13.9289 7.53894 13.9289C7.19587 13.9289 6.91776 13.6411 6.91776 13.2862L6.91803 10.0738C6.05812 10.0935 5.12727 9.95778 4.2246 9.5761C2.38155 8.79678 1.13335 7.15334 0.786292 4.52495L0.705078 3.90989L1.29633 3.80453C4.05162 3.31355 5.96828 3.97508 7.10121 5.48679C7.19265 5.0606 7.32229 4.64149 7.49459 4.23801Z" fill="white" fill-opacity="0.3"/>
</svg>
