<svg width="16" height="16" viewBox="0 0 16 16" fill="none" xmlns="http://www.w3.org/2000/svg">
<path d="M16 8C16 12.4183 12.4183 16 8 16C3.58172 16 0 12.4183 0 8C0 3.58172 3.58172 0 8 0C12.4183 0 16 3.58172 16 8Z" fill="#0088CC"/>
<path fill-rule="evenodd" clip-rule="evenodd" d="M4.38837 6.60411C4.50745 6.55933 9.73297 4.73001 10.0482 4.62363C10.3634 4.51726 11.253 4.20024 10.9308 5.31855C10.6086 6.43686 9.37573 10.0605 9.13056 10.6372C8.8854 11.2138 8.52115 11.9892 7.92575 11.0885C7.33035 10.1879 7.09219 9.04927 6.79799 8.69936C6.50379 8.34946 4.7316 7.85958 4.53547 7.75111C4.33934 7.64264 3.52679 7.05969 4.38837 6.60411Z" fill="white"/>
</svg>
