<svg width="50" height="50" viewBox="0 0 50 50" fill="none" xmlns="http://www.w3.org/2000/svg">
<path d="M14.7932 35.3668L12 45.8213C18.3026 46.8165 32.6266 46.7553 40.3615 41.125C48.0965 35.4948 41.7223 29.6798 37.5683 27.476C35.4197 26.4097 31.4233 25.5993 31.7671 23.2107C32.6266 20.3103 38.9203 19.785 42 19.9983L41.5 19.4995C38.7784 19.1441 33.1422 19.0732 30.0482 21.2912C26.1808 24.0637 28.3294 26.4096 33.486 30.0351C37.6113 32.9356 33.9157 35.3668 30.6928 35.3668H14.7932Z" fill="#FD9897"/>
<path d="M25 27.4C25 36.7 12.5 46 12.5 46C12.5 46 0 36.7 0 27.4C0 20.5517 5.59644 15 12.5 15C19.4036 15 25 20.5517 25 27.4Z" fill="#FB5352"/>
<circle cx="12.2305" cy="26.8945" r="5" fill="white"/>
<path d="M49 9.2C49 14.6 42 20 42 20C42 20 35 14.6 35 9.2C35 5.22355 38.134 2 42 2C45.866 2 49 5.22355 49 9.2Z" fill="#FB5352"/>
<circle cx="42.0488" cy="9.00293" r="3" fill="white"/>
</svg>
