<svg width="52" height="52" viewBox="0 0 52 52" fill="none" xmlns="http://www.w3.org/2000/svg">
<circle cx="26" cy="26" r="26" fill="white" fill-opacity="0.05"/>
<path fill-rule="evenodd" clip-rule="evenodd" d="M29.0667 16C34.6667 16 36 17.3333 36 22.9333V29.0667C36 34.6667 34.6667 36 29.0667 36H22.9333C17.3333 36 16 34.6667 16 29.0667V22.9333C16 17.3333 17.3333 16 22.9333 16H29.0667ZM21.4167 22.25H19.9583C19.5417 22.25 19.4583 22.45 19.4583 22.6583C19.4583 23.05 19.95 24.9667 21.7583 27.5C22.2367 28.2644 22.8894 28.9045 23.6629 29.3681C24.4364 29.8316 25.3087 30.1053 26.2083 30.1667C27.1333 30.1667 27.25 29.9583 27.25 29.6V28.2917C27.25 27.875 27.3417 27.7917 27.6333 27.7917C27.925 27.7917 28.2167 27.9 29.0833 28.7333C30.075 29.725 30.2333 30.1667 30.7917 30.1667H32.25C32.6667 30.1667 32.875 29.9583 32.7583 29.55C32.4478 28.9143 32.0307 28.3365 31.525 27.8417C31.1833 27.4333 30.6917 27.0083 30.5167 26.7917C30.3417 26.575 30.3667 26.3833 30.5167 26.1417C31.2889 25.1036 31.9482 23.9862 32.4833 22.8083C32.575 22.5 32.4833 22.275 32.0417 22.275H30.5833C30.4482 22.2676 30.3142 22.3031 30.2004 22.3764C30.0867 22.4497 29.999 22.5572 29.95 22.6833C29.4981 23.7581 28.8948 24.7627 28.1583 25.6667C27.8167 26.0083 27.6583 26.1167 27.475 26.1167C27.2917 26.1167 27.25 26.0083 27.25 25.7V22.7833C27.25 22.4167 27.1417 22.25 26.8333 22.25H24.5417C24.448 22.2454 24.3562 22.2778 24.2861 22.3401C24.216 22.4024 24.1731 22.4897 24.1667 22.5833C24.1667 22.9333 24.7 23.0167 24.75 24.0083V26.15C24.75 26.625 24.6667 26.7083 24.4833 26.7083C23.9833 26.7083 22.8167 24.8917 22.0667 22.8167C21.9333 22.4167 21.8333 22.25 21.4167 22.25Z" fill="white"/>
</svg>
