<svg width="16" height="16" viewBox="0 0 16 16" fill="none" xmlns="http://www.w3.org/2000/svg">
<path d="M8 0C12.4183 0 16 3.58172 16 8C16 12.4183 12.4183 16 8 16C6.92157 16 5.87184 15.7861 4.89823 15.3763C4.5144 15.2147 3.19942 15.3157 1.13242 15.7346L0.0637203 15.9512L0.358085 14.9013C0.869803 13.0761 1.01649 11.9168 0.879628 11.6503C0.304334 10.5302 0 9.28624 0 8C0 3.58172 3.58172 0 8 0Z" fill="#24D46F"/>
<path d="M5.72043 4C5.84946 4.04651 5.93548 4.09302 6.02151 4.23256C6.15054 4.51163 6.66667 5.76744 6.70968 6C6.75269 6.13953 6.70968 6.32558 6.62366 6.46512C6.53763 6.55814 6.49462 6.69767 6.4086 6.7907C6.27957 6.93023 6.10753 7.16279 6.10753 7.16279C6.06452 7.2093 6.06452 7.30233 6.06452 7.39535C6.10753 7.48837 6.10753 7.53488 6.15054 7.5814L6.19355 7.67442C6.4086 8.09302 6.70968 8.46512 7.01075 8.7907C7.09677 8.88372 7.22581 8.97674 7.31183 9.06977C7.65591 9.44186 8.08602 9.72093 8.55914 9.95349L8.77419 10.0465C8.8172 10.093 8.90323 10.1395 8.94624 10.1395H8.98925C9.07527 10.1395 9.16129 10.093 9.2043 10C9.80645 9.25581 9.84946 9.2093 9.84946 9.2093L9.90142 9.18177C9.97161 9.14605 10.0473 9.11628 10.1505 9.11628C10.1935 9.11628 10.2366 9.16279 10.2796 9.16279C10.7097 9.39535 11.3979 9.72093 11.3979 9.72093L11.871 9.95349C11.957 10 12 10.0465 12 10.0465V10.3721C11.957 10.6047 11.914 10.8372 11.828 11.0233C11.7849 11.1163 11.6989 11.2093 11.6129 11.3023C11.5269 11.3953 11.4409 11.4419 11.3548 11.5349L11.2688 11.6279C11.1828 11.7209 11.0968 11.7209 10.9677 11.814C10.7957 11.907 10.5376 12 10.3226 12H9.89247L9.78898 11.9724C9.68011 11.9506 9.55914 11.9419 9.46237 11.907C8.30108 11.5814 7.26882 10.9767 6.36559 10.1395C6.27957 10 6.15054 9.90698 6.02151 9.76744L5.84946 9.5814C5.16129 8.88372 4.64516 8.09302 4.25806 7.2093L4.21505 7.06977C4.08602 6.74419 4 6.37209 4 6L4.00512 5.8466C4.0357 5.38698 4.20215 4.93488 4.47312 4.55814C4.55914 4.46512 4.60215 4.37209 4.68817 4.27907C4.77419 4.23256 4.86022 4.13953 4.94624 4.09302L4.98925 4.04651C5.07527 4.04651 5.16129 4 5.24731 4H5.72043Z" fill="white"/>
</svg>
