<svg width="52" height="52" viewBox="0 0 52 52" fill="none" xmlns="http://www.w3.org/2000/svg">
<circle cx="26" cy="26" r="26" fill="white"/>
<path fill-rule="evenodd" clip-rule="evenodd" d="M33.8142 19.4168C34.6764 19.6491 35.3541 20.3268 35.5832 21.1858C36 22.7448 36 25.9997 36 25.9997C36 25.9997 36 29.2545 35.5832 30.8136C35.3509 31.6758 34.6732 32.3535 33.8142 32.5826C32.2552 32.9994 26 32.9994 26 32.9994C26 32.9994 19.748 32.9994 18.1858 32.5826C17.3236 32.3503 16.6459 31.6726 16.4168 30.8136C16 29.2545 16 25.9997 16 25.9997C16 25.9997 16 22.7448 16.4168 21.1858C16.6491 20.3236 17.3268 19.6459 18.1858 19.4168C19.748 19 26 19 26 19C26 19 32.2552 19 33.8142 19.4168ZM29.002 25.9993L24.002 28.9997V22.999L29.002 25.9993Z" fill="#FF0000"/>
</svg>
